<svg xmlns="http://www.w3.org/2000/svg" xmlns:xlink="http://www.w3.org/1999/xlink" width="500" zoomAndPan="magnify" viewBox="0 0 375 374.999991" height="500" preserveAspectRatio="xMidYMid meet" version="1.0"><defs><clipPath id="5b49f4ef9b"><path d="M 101.105469 89.878906 L 273.605469 89.878906 L 273.605469 284.878906 L 101.105469 284.878906 Z M 101.105469 89.878906 " clip-rule="nonzero"/></clipPath></defs><g clip-path="url(#5b49f4ef9b)"><path fill="#ffffff" d="M 169.199219 284.878906 C 168.089844 284.878906 167.042969 284.5625 166.152344 284.003906 L 153.28125 280.351562 C 151.710938 279.90625 150.433594 278.757812 149.828125 277.238281 L 137.8125 247.113281 C 136.925781 247.765625 135.835938 248.136719 134.695312 248.136719 C 133.851562 248.136719 133.015625 247.933594 132.265625 247.542969 C 130.730469 246.746094 129.683594 245.242188 129.46875 243.527344 C 128.941406 239.320312 125.488281 235.871094 120.671875 234.738281 C 118.21875 234.160156 116.519531 231.925781 116.617188 229.40625 C 116.714844 226.886719 118.585938 224.792969 121.078125 224.40625 C 123.015625 224.109375 124.96875 222.945312 125.929688 221.511719 C 126.277344 220.988281 126.589844 220.378906 126.867188 219.667969 L 102.078125 157.515625 C 101.125 155.207031 101.917969 152.492188 104.035156 151.097656 C 104.078125 151.066406 120.492188 140.921875 120.492188 140.921875 C 119.054688 139.738281 117.273438 138.855469 115.296875 138.390625 C 112.84375 137.816406 111.144531 135.578125 111.242188 133.0625 C 111.339844 130.542969 113.210938 128.445312 115.703125 128.0625 C 117.644531 127.761719 119.59375 126.597656 120.554688 125.164062 C 121.773438 123.335938 122.339844 120.777344 122.753906 118.257812 C 122.996094 115.84375 124.871094 113.863281 127.316406 113.546875 C 127.335938 113.542969 127.355469 113.542969 127.378906 113.539062 C 127.582031 113.515625 127.792969 113.503906 128.003906 113.503906 C 128.046875 113.503906 128.089844 113.503906 128.128906 113.503906 C 130.632812 113.5625 132.726562 115.355469 133.179688 117.777344 C 133.828125 120.242188 134.632812 122.726562 136.019531 124.429688 C 137.109375 125.761719 139.160156 126.738281 141.121094 126.851562 C 141.675781 126.882812 142.210938 127.003906 142.707031 127.195312 L 201.816406 90.664062 C 202.65625 90.144531 203.617188 89.878906 204.582031 89.878906 C 205.101562 89.878906 205.621094 89.953125 206.125 90.109375 C 207.574219 90.554688 208.761719 91.605469 209.382812 92.988281 L 212.777344 100.546875 C 217.421875 99.015625 222.261719 98.242188 227.222656 98.242188 C 252.773438 98.242188 273.5625 119.042969 273.5625 144.605469 C 273.5625 159.792969 266.195312 173.816406 254 182.445312 C 254.558594 184.230469 255.265625 185.910156 256.289062 187.167969 C 257.378906 188.5 259.429688 189.476562 261.390625 189.589844 C 263.90625 189.734375 265.964844 191.644531 266.300781 194.144531 C 266.636719 196.644531 265.152344 199.027344 262.765625 199.835938 C 261.160156 200.375 259.6875 201.214844 258.460938 202.273438 L 270.832031 242.988281 C 271.648438 245.671875 270.21875 248.519531 267.582031 249.472656 L 172.5625 283.777344 C 172.175781 284.0625 171.753906 284.296875 171.304688 284.476562 C 170.640625 284.742188 169.925781 284.878906 169.199219 284.878906 Z M 169.199219 284.878906 " fill-opacity="1" fill-rule="nonzero"/></g><path fill="#fea8fe" d="M 268.417969 145.085938 C 268.417969 146.433594 268.351562 147.777344 268.21875 149.113281 C 268.089844 150.453125 267.890625 151.785156 267.628906 153.105469 C 267.367188 154.425781 267.039062 155.730469 266.648438 157.015625 C 266.257812 158.304688 265.804688 159.570312 265.292969 160.8125 C 264.777344 162.058594 264.203125 163.273438 263.566406 164.460938 C 262.933594 165.648438 262.242188 166.800781 261.496094 167.917969 C 260.746094 169.039062 259.949219 170.117188 259.09375 171.160156 C 258.242188 172.199219 257.339844 173.195312 256.386719 174.148438 C 255.433594 175.097656 254.441406 176 253.398438 176.855469 C 252.359375 177.710938 251.28125 178.511719 250.160156 179.257812 C 249.042969 180.003906 247.890625 180.695312 246.703125 181.332031 C 245.515625 181.964844 244.300781 182.539062 243.058594 183.054688 C 241.816406 183.570312 240.550781 184.023438 239.265625 184.414062 C 237.976562 184.804688 236.671875 185.132812 235.351562 185.394531 C 234.035156 185.65625 232.703125 185.855469 231.367188 185.984375 C 230.027344 186.117188 228.683594 186.183594 227.339844 186.183594 C 225.992188 186.183594 224.652344 186.117188 223.3125 185.984375 C 221.972656 185.855469 220.644531 185.65625 219.324219 185.394531 C 218.003906 185.132812 216.703125 184.804688 215.414062 184.414062 C 214.128906 184.023438 212.863281 183.570312 211.617188 183.054688 C 210.375 182.539062 209.160156 181.964844 207.976562 181.332031 C 206.789062 180.695312 205.636719 180.003906 204.515625 179.257812 C 203.398438 178.511719 202.320312 177.710938 201.277344 176.855469 C 200.238281 176 199.242188 175.097656 198.292969 174.148438 C 197.339844 173.195312 196.4375 172.199219 195.585938 171.160156 C 194.730469 170.117188 193.929688 169.039062 193.183594 167.917969 C 192.4375 166.800781 191.746094 165.648438 191.109375 164.460938 C 190.476562 163.273438 189.902344 162.058594 189.386719 160.8125 C 188.871094 159.570312 188.417969 158.304688 188.027344 157.015625 C 187.636719 155.730469 187.3125 154.425781 187.050781 153.105469 C 186.789062 151.785156 186.589844 150.453125 186.457031 149.113281 C 186.328125 147.777344 186.261719 146.433594 186.261719 145.085938 C 186.261719 143.742188 186.328125 142.398438 186.457031 141.058594 C 186.589844 139.71875 186.789062 138.390625 187.050781 137.070312 C 187.3125 135.75 187.636719 134.445312 188.027344 133.15625 C 188.417969 131.871094 188.871094 130.605469 189.386719 129.359375 C 189.902344 128.117188 190.476562 126.902344 191.109375 125.714844 C 191.746094 124.527344 192.4375 123.375 193.183594 122.253906 C 193.929688 121.136719 194.730469 120.054688 195.585938 119.015625 C 196.4375 117.976562 197.339844 116.980469 198.292969 116.027344 C 199.242188 115.074219 200.238281 114.171875 201.277344 113.320312 C 202.320312 112.464844 203.398438 111.664062 204.515625 110.917969 C 205.636719 110.167969 206.789062 109.476562 207.976562 108.84375 C 209.160156 108.207031 210.375 107.632812 211.617188 107.117188 C 212.863281 106.605469 214.128906 106.152344 215.414062 105.761719 C 216.703125 105.371094 218.003906 105.042969 219.324219 104.78125 C 220.644531 104.515625 221.972656 104.320312 223.3125 104.1875 C 224.652344 104.054688 225.992188 103.992188 227.339844 103.992188 C 228.683594 103.992188 230.027344 104.054688 231.367188 104.1875 C 232.703125 104.320312 234.035156 104.515625 235.351562 104.78125 C 236.671875 105.042969 237.976562 105.371094 239.265625 105.761719 C 240.550781 106.152344 241.816406 106.605469 243.058594 107.117188 C 244.300781 107.632812 245.515625 108.207031 246.703125 108.84375 C 247.890625 109.476562 249.042969 110.167969 250.160156 110.917969 C 251.28125 111.664062 252.359375 112.464844 253.398438 113.320312 C 254.441406 114.171875 255.433594 115.074219 256.386719 116.027344 C 257.339844 116.980469 258.242188 117.976562 259.09375 119.015625 C 259.949219 120.054688 260.746094 121.136719 261.496094 122.253906 C 262.242188 123.375 262.933594 124.527344 263.566406 125.714844 C 264.203125 126.902344 264.777344 128.117188 265.292969 129.359375 C 265.804688 130.605469 266.257812 131.871094 266.648438 133.15625 C 267.039062 134.445312 267.367188 135.75 267.628906 137.070312 C 267.890625 138.390625 268.089844 139.71875 268.21875 141.058594 C 268.351562 142.398438 268.417969 143.742188 268.417969 145.085938 Z M 268.417969 145.085938 " fill-opacity="1" fill-rule="nonzero"/><path fill="#000000" d="M 107.050781 155.972656 L 204.699219 95.625 L 220.527344 130.878906 L 125.566406 193.914062 L 125.566406 190.925781 Z M 107.050781 155.972656 " fill-opacity="1" fill-rule="nonzero"/><path fill="#ffeae2" d="M 225.308594 152.390625 L 131.238281 199.289062 L 119.300781 176.550781 L 111.660156 162 L 111.351562 161.421875 L 110.605469 160 L 110.265625 159.332031 L 109.4375 157.769531 L 119.402344 151.863281 L 196.632812 106.082031 L 198.90625 107.605469 L 199.710938 108.152344 L 202.160156 109.792969 L 202.976562 110.335938 L 205.617188 112.117188 L 206.441406 112.671875 L 208 113.722656 L 208.011719 113.722656 L 208.835938 114.277344 L 211.5625 116.109375 L 212.394531 116.664062 L 217.535156 120.121094 Z M 225.308594 152.390625 " fill-opacity="1" fill-rule="nonzero"/><path fill="#000000" d="M 199.710938 108.152344 L 110.851562 159.9375 C 110.78125 159.980469 110.710938 160 110.632812 160 L 110.605469 160 C 110.464844 159.988281 110.324219 159.910156 110.253906 159.777344 C 110.167969 159.636719 110.175781 159.464844 110.261719 159.332031 C 110.289062 159.269531 110.34375 159.21875 110.414062 159.183594 L 198.90625 107.605469 Z M 199.710938 108.152344 " fill-opacity="1" fill-rule="nonzero"/><path fill="#000000" d="M 202.976562 110.335938 L 111.972656 161.957031 C 111.902344 162 111.824219 162.015625 111.753906 162.015625 C 111.71875 162.015625 111.695312 162.015625 111.660156 162 C 111.542969 161.980469 111.4375 161.902344 111.371094 161.789062 C 111.308594 161.675781 111.300781 161.535156 111.351562 161.421875 C 111.378906 161.324219 111.449219 161.246094 111.535156 161.191406 L 202.160156 109.792969 Z M 202.976562 110.335938 " fill-opacity="1" fill-rule="nonzero"/><path fill="#000000" d="M 206.441406 112.671875 L 114.203125 163.078125 C 114.140625 163.113281 114.0625 163.132812 113.992188 163.132812 C 113.84375 163.132812 113.683594 163.050781 113.605469 162.902344 C 113.492188 162.691406 113.570312 162.429688 113.78125 162.308594 L 205.617188 112.117188 Z M 206.441406 112.671875 " fill-opacity="1" fill-rule="nonzero"/><path fill="#000000" d="M 208.835938 114.277344 L 116.4375 163.972656 C 116.378906 164.007812 116.308594 164.027344 116.238281 164.027344 C 116.078125 164.027344 115.929688 163.949219 115.84375 163.796875 C 115.730469 163.589844 115.816406 163.316406 116.027344 163.203125 L 208 113.722656 L 208.011719 113.722656 Z M 208.835938 114.277344 " fill-opacity="1" fill-rule="nonzero"/><path fill="#000000" d="M 212.394531 116.664062 L 117.554688 165.105469 C 117.492188 165.132812 117.421875 165.148438 117.351562 165.148438 C 117.195312 165.148438 117.035156 165.0625 116.964844 164.914062 C 116.851562 164.695312 116.9375 164.429688 117.148438 164.316406 L 211.5625 116.109375 Z M 212.394531 116.664062 " fill-opacity="1" fill-rule="nonzero"/><path fill="#ffb46a" d="M 128.148438 166.140625 C 127.484375 170.90625 123.859375 175.109375 119.300781 176.550781 L 109.4375 157.769531 L 119.40625 151.863281 C 121.167969 152.503906 122.765625 153.441406 123.949219 154.574219 C 127.027344 157.496094 128.746094 161.910156 128.148438 166.140625 Z M 128.148438 166.140625 " fill-opacity="1" fill-rule="nonzero"/><path fill="#7082ff" d="M 265.914062 245 L 169.316406 279.875 L 154.835938 275.769531 L 148.316406 259.417969 L 149.195312 254.945312 L 144.140625 248.960938 L 120.394531 189.414062 L 120.480469 181.992188 L 114.394531 174.375 L 107.054688 155.96875 L 122.578125 162.542969 L 226.203125 114.292969 Z M 265.914062 245 " fill-opacity="1" fill-rule="nonzero"/><path fill="#fea8fe" d="M 134.808594 193.1875 L 120.394531 189.414062 L 114.394531 174.375 L 128.542969 177.480469 Z M 134.808594 193.1875 " fill-opacity="1" fill-rule="nonzero"/><path fill="#fea8fe" d="M 161.84375 260.929688 L 148.316406 259.417969 L 144.140625 248.960938 L 157.484375 249.996094 Z M 161.84375 260.929688 " fill-opacity="1" fill-rule="nonzero"/><path fill="#000000" d="M 169.316406 280.09375 C 169.144531 280.09375 168.976562 279.992188 168.910156 279.820312 L 122.171875 162.707031 C 122.082031 162.480469 122.191406 162.226562 122.417969 162.136719 C 122.640625 162.046875 122.894531 162.15625 122.988281 162.382812 L 169.722656 279.492188 C 169.8125 279.71875 169.703125 279.972656 169.480469 280.0625 C 169.425781 280.085938 169.371094 280.09375 169.316406 280.09375 Z M 169.316406 280.09375 " fill-opacity="1" fill-rule="nonzero"/><path fill="#000000" d="M 206.046875 248.523438 C 199.699219 248.523438 194.726562 235.132812 194.726562 218.042969 C 194.726562 200.953125 199.699219 187.5625 206.046875 187.5625 C 212.398438 187.5625 217.371094 200.953125 217.371094 218.042969 C 217.371094 235.132812 212.398438 248.523438 206.046875 248.523438 Z M 206.046875 188.425781 C 200.28125 188.425781 195.585938 201.710938 195.585938 218.042969 C 195.585938 234.375 200.28125 247.660156 206.046875 247.660156 C 211.816406 247.660156 216.507812 234.375 216.507812 218.042969 C 216.507812 201.710938 211.816406 188.425781 206.046875 188.425781 Z M 206.046875 188.425781 " fill-opacity="1" fill-rule="nonzero"/><path fill="#000000" d="M 188.707031 241.082031 C 186.921875 241.082031 185.496094 240.585938 184.503906 239.59375 C 182.308594 237.398438 182.554688 233.082031 185.195312 227.433594 C 187.769531 221.921875 192.332031 215.742188 198.042969 210.03125 C 210.121094 197.945312 223.101562 192 227.589844 196.488281 C 232.078125 200.980469 226.132812 213.96875 214.054688 226.050781 C 208.347656 231.761719 202.167969 236.328125 196.65625 238.90625 C 193.566406 240.351562 190.871094 241.082031 188.707031 241.082031 Z M 223.335938 195.828125 C 217.585938 195.828125 207.757812 201.53125 198.652344 210.640625 C 193.011719 216.285156 188.511719 222.378906 185.976562 227.800781 C 183.535156 233.015625 183.222656 237.09375 185.113281 238.984375 C 187.007812 240.878906 191.082031 240.5625 196.292969 238.125 C 201.714844 235.585938 207.808594 231.082031 213.445312 225.441406 C 224.988281 213.894531 231.0625 201.179688 226.980469 197.101562 C 226.121094 196.238281 224.871094 195.828125 223.335938 195.828125 Z M 223.335938 195.828125 " fill-opacity="1" fill-rule="nonzero"/><path fill="#000000" d="M 225.109375 237.292969 C 218.898438 237.292969 209.460938 233.808594 199.851562 227.523438 C 185.550781 218.171875 177.070312 206.683594 180.546875 201.367188 C 182.242188 198.765625 186.519531 198.121094 192.582031 199.546875 C 198.503906 200.941406 205.484375 204.144531 212.242188 208.5625 C 219 212.980469 224.730469 218.089844 228.382812 222.957031 C 232.125 227.941406 233.246094 232.117188 231.550781 234.71875 C 230.410156 236.460938 228.144531 237.292969 225.109375 237.292969 Z M 200.324219 226.804688 C 213.988281 235.738281 227.671875 239.074219 230.828125 234.246094 C 232.292969 232.003906 231.148438 228.078125 227.695312 223.476562 C 224.101562 218.6875 218.445312 213.648438 211.773438 209.28125 C 205.097656 204.917969 198.210938 201.757812 192.386719 200.386719 C 186.78125 199.070312 182.730469 199.597656 181.265625 201.839844 C 178.109375 206.667969 186.660156 217.867188 200.324219 226.804688 Z M 200.324219 226.804688 " fill-opacity="1" fill-rule="nonzero"/><path fill="#000000" d="M 210.339844 218.261719 C 210.339844 218.53125 210.3125 218.792969 210.261719 219.058594 C 210.207031 219.320312 210.132812 219.574219 210.027344 219.820312 C 209.925781 220.066406 209.800781 220.300781 209.652344 220.523438 C 209.503906 220.746094 209.335938 220.953125 209.144531 221.140625 C 208.957031 221.332031 208.75 221.5 208.53125 221.648438 C 208.308594 221.796875 208.074219 221.921875 207.824219 222.023438 C 207.578125 222.128906 207.324219 222.203125 207.0625 222.257812 C 206.800781 222.308594 206.535156 222.335938 206.269531 222.335938 C 206 222.335938 205.734375 222.308594 205.472656 222.257812 C 205.210938 222.203125 204.957031 222.128906 204.710938 222.023438 C 204.464844 221.921875 204.226562 221.796875 204.007812 221.648438 C 203.785156 221.5 203.578125 221.332031 203.390625 221.140625 C 203.199219 220.953125 203.03125 220.746094 202.882812 220.523438 C 202.734375 220.300781 202.609375 220.066406 202.507812 219.820312 C 202.40625 219.574219 202.328125 219.320312 202.273438 219.058594 C 202.222656 218.792969 202.195312 218.53125 202.195312 218.261719 C 202.195312 217.996094 202.222656 217.730469 202.273438 217.46875 C 202.328125 217.207031 202.40625 216.949219 202.507812 216.703125 C 202.609375 216.457031 202.734375 216.222656 202.882812 216 C 203.03125 215.777344 203.199219 215.570312 203.390625 215.382812 C 203.578125 215.195312 203.785156 215.023438 204.007812 214.875 C 204.226562 214.726562 204.464844 214.601562 204.710938 214.5 C 204.957031 214.398438 205.210938 214.320312 205.472656 214.269531 C 205.734375 214.214844 206 214.191406 206.269531 214.191406 C 206.535156 214.191406 206.800781 214.214844 207.0625 214.269531 C 207.324219 214.320312 207.578125 214.398438 207.824219 214.5 C 208.074219 214.601562 208.308594 214.726562 208.53125 214.875 C 208.75 215.023438 208.957031 215.195312 209.144531 215.382812 C 209.335938 215.570312 209.503906 215.777344 209.652344 216 C 209.800781 216.222656 209.925781 216.457031 210.027344 216.703125 C 210.132812 216.949219 210.207031 217.207031 210.261719 217.46875 C 210.3125 217.730469 210.339844 217.996094 210.339844 218.261719 Z M 210.339844 218.261719 " fill-opacity="1" fill-rule="nonzero"/><path fill="#000000" d="M 230.4375 197.460938 C 230.4375 199 229.1875 200.246094 227.648438 200.246094 C 226.109375 200.246094 224.863281 199 224.863281 197.460938 C 224.863281 195.917969 226.109375 194.671875 227.648438 194.671875 C 229.1875 194.671875 230.4375 195.917969 230.4375 197.460938 Z M 230.4375 197.460938 " fill-opacity="1" fill-rule="nonzero"/><path fill="#000000" d="M 187.453125 239.433594 C 187.453125 240.972656 186.207031 242.21875 184.667969 242.21875 C 183.128906 242.21875 181.878906 240.972656 181.878906 239.433594 C 181.878906 237.890625 183.128906 236.644531 184.667969 236.644531 C 186.207031 236.644531 187.453125 237.890625 187.453125 239.433594 Z M 187.453125 239.433594 " fill-opacity="1" fill-rule="nonzero"/><path fill="#ffeae2" d="M 138.628906 173.226562 L 148.707031 194.734375 L 229.113281 158.660156 L 220.601562 134.464844 Z M 138.628906 173.226562 " fill-opacity="1" fill-rule="nonzero"/><path fill="#000000" d="M 153.566406 185.078125 C 153.117188 184.859375 152.835938 184.632812 152.730469 184.402344 C 152.574219 184.070312 152.628906 183.5625 152.886719 182.878906 C 153.039062 182.484375 153.253906 182.222656 153.53125 182.09375 C 153.871094 181.933594 154.40625 181.988281 155.136719 182.253906 L 155.257812 182.296875 C 155.328125 182.332031 155.425781 182.375 155.554688 182.421875 C 155.683594 182.46875 155.910156 182.507812 156.234375 182.539062 C 156.554688 182.570312 156.839844 182.527344 157.082031 182.414062 C 158.109375 181.9375 158.425781 181.28125 158.039062 180.441406 C 157.917969 180.1875 157.679688 180.039062 157.320312 180 C 156.957031 179.960938 156.550781 180 156.09375 180.117188 C 155.640625 180.234375 155.128906 180.320312 154.5625 180.375 C 153.996094 180.429688 153.449219 180.441406 152.925781 180.402344 C 152.398438 180.363281 151.878906 180.160156 151.359375 179.789062 C 150.847656 179.417969 150.425781 178.878906 150.097656 178.171875 C 149.644531 177.199219 149.613281 176.183594 150 175.125 C 150.382812 174.066406 151.203125 173.246094 152.449219 172.664062 C 153.109375 172.355469 153.753906 172.160156 154.382812 172.078125 C 155.007812 171.996094 155.464844 171.992188 155.757812 172.070312 L 156.203125 172.167969 L 156.316406 172.195312 C 156.808594 172.355469 157.105469 172.539062 157.203125 172.75 C 157.308594 172.980469 157.320312 173.351562 157.234375 173.863281 C 157.117188 174.589844 156.859375 175.042969 156.460938 175.230469 C 156.230469 175.335938 155.890625 175.359375 155.445312 175.300781 C 155.402344 175.292969 155.3125 175.265625 155.179688 175.222656 C 155.042969 175.179688 154.925781 175.148438 154.828125 175.132812 C 154.726562 175.121094 154.574219 175.132812 154.367188 175.167969 C 154.164062 175.203125 153.9375 175.277344 153.695312 175.390625 C 153.429688 175.511719 153.21875 175.714844 153.0625 175.996094 C 152.902344 176.277344 152.890625 176.558594 153.019531 176.832031 C 153.171875 177.164062 153.433594 177.359375 153.800781 177.414062 C 154.171875 177.472656 154.578125 177.433594 155.03125 177.304688 C 155.480469 177.175781 155.984375 177.066406 156.546875 176.972656 C 157.109375 176.878906 157.644531 176.835938 158.15625 176.839844 C 158.667969 176.84375 159.179688 177.023438 159.6875 177.382812 C 160.199219 177.746094 160.625 178.289062 160.960938 179.019531 C 161.289062 179.726562 161.4375 180.417969 161.40625 181.097656 C 161.371094 181.777344 161.195312 182.375 160.878906 182.886719 C 160.558594 183.398438 160.1875 183.839844 159.769531 184.207031 C 159.351562 184.578125 158.898438 184.875 158.414062 185.101562 C 157.894531 185.34375 157.375 185.507812 156.851562 185.597656 C 156.328125 185.6875 155.878906 185.707031 155.503906 185.660156 C 155.125 185.613281 154.785156 185.546875 154.484375 185.460938 C 154.179688 185.371094 153.953125 185.285156 153.804688 185.191406 Z M 153.566406 185.078125 " fill-opacity="1" fill-rule="nonzero"/><path fill="#000000" d="M 170.066406 175.425781 L 170.132812 175.3125 C 170.40625 174.917969 170.621094 174.6875 170.773438 174.613281 C 171.117188 174.453125 171.628906 174.589844 172.316406 175.023438 C 172.738281 175.296875 173.003906 175.554688 173.117188 175.800781 C 173.222656 176.019531 173.234375 176.242188 173.15625 176.464844 C 173.082031 176.691406 172.933594 176.960938 172.71875 177.277344 C 172.648438 177.386719 172.550781 177.542969 172.417969 177.738281 C 172.289062 177.933594 171.980469 178.25 171.5 178.6875 C 171.019531 179.125 170.5 179.476562 169.9375 179.738281 C 169.449219 179.964844 168.90625 180.132812 168.308594 180.242188 C 167.707031 180.355469 167.050781 180.378906 166.328125 180.320312 C 165.609375 180.257812 164.914062 180.097656 164.242188 179.839844 C 163.570312 179.578125 162.921875 179.152344 162.285156 178.554688 C 161.652344 177.957031 161.132812 177.21875 160.726562 176.347656 C 160.332031 175.496094 160.113281 174.65625 160.074219 173.820312 C 160.035156 172.988281 160.132812 172.234375 160.367188 171.570312 C 160.601562 170.902344 160.933594 170.277344 161.359375 169.695312 C 161.789062 169.113281 162.242188 168.628906 162.726562 168.234375 C 163.207031 167.84375 163.703125 167.527344 164.210938 167.292969 C 164.730469 167.050781 165.292969 166.886719 165.902344 166.796875 C 166.511719 166.707031 166.992188 166.683594 167.347656 166.71875 L 167.851562 166.765625 C 168.105469 166.792969 168.304688 166.828125 168.449219 166.859375 C 168.59375 166.894531 168.746094 166.960938 168.90625 167.0625 C 169.066406 167.160156 169.183594 167.292969 169.261719 167.460938 C 169.390625 167.734375 169.414062 168.085938 169.332031 168.515625 C 169.175781 169.3125 168.929688 169.789062 168.585938 169.949219 C 168.386719 170.042969 168.050781 170.050781 167.574219 169.976562 C 166.933594 169.820312 166.230469 169.917969 165.457031 170.277344 C 165.113281 170.4375 164.792969 170.664062 164.484375 170.960938 C 164.179688 171.257812 163.917969 171.605469 163.691406 172.003906 C 163.46875 172.40625 163.347656 172.878906 163.332031 173.421875 C 163.320312 173.964844 163.4375 174.515625 163.695312 175.066406 C 163.957031 175.628906 164.300781 176.082031 164.726562 176.417969 C 165.152344 176.757812 165.59375 176.972656 166.050781 177.0625 C 166.511719 177.152344 166.949219 177.171875 167.371094 177.121094 C 167.792969 177.078125 168.167969 176.972656 168.5 176.820312 C 168.839844 176.660156 169.144531 176.46875 169.40625 176.238281 C 169.667969 176.007812 169.84375 175.816406 169.9375 175.667969 Z M 170.066406 175.425781 " fill-opacity="1" fill-rule="nonzero"/><path fill="#000000" d="M 170.105469 166.464844 C 169.988281 166.210938 169.90625 166.015625 169.867188 165.878906 C 169.824219 165.746094 169.808594 165.574219 169.820312 165.367188 C 169.828125 165.160156 169.925781 164.976562 170.105469 164.8125 C 170.28125 164.648438 170.550781 164.484375 170.902344 164.320312 C 171.1875 164.1875 171.4375 164.105469 171.652344 164.070312 C 171.863281 164.039062 172.039062 164.039062 172.175781 164.070312 C 172.308594 164.101562 172.4375 164.179688 172.554688 164.304688 C 172.675781 164.429688 172.761719 164.546875 172.816406 164.648438 C 172.871094 164.75 172.945312 164.90625 173.042969 165.117188 L 177.324219 174.324219 C 177.449219 174.589844 177.53125 174.789062 177.570312 174.917969 C 177.609375 175.046875 177.625 175.214844 177.613281 175.417969 C 177.601562 175.628906 177.507812 175.8125 177.328125 175.976562 C 177.148438 176.140625 176.882812 176.304688 176.53125 176.46875 C 176.242188 176.601562 175.992188 176.6875 175.78125 176.714844 C 175.566406 176.75 175.390625 176.75 175.257812 176.71875 C 175.121094 176.6875 174.996094 176.609375 174.875 176.484375 C 174.757812 176.359375 174.671875 176.242188 174.613281 176.140625 C 174.5625 176.039062 174.484375 175.882812 174.386719 175.671875 Z M 170.105469 166.464844 " fill-opacity="1" fill-rule="nonzero"/><path fill="#000000" d="M 180.894531 170.871094 L 185.996094 168.496094 C 186.25 168.378906 186.441406 168.300781 186.578125 168.257812 C 186.710938 168.214844 186.882812 168.199219 187.089844 168.210938 C 187.296875 168.222656 187.480469 168.316406 187.644531 168.496094 C 187.808594 168.675781 187.972656 168.941406 188.136719 169.292969 C 188.269531 169.582031 188.355469 169.832031 188.386719 170.046875 C 188.417969 170.257812 188.417969 170.433594 188.386719 170.570312 C 188.355469 170.703125 188.277344 170.832031 188.152344 170.949219 C 188.027344 171.070312 187.914062 171.15625 187.808594 171.210938 C 187.707031 171.265625 187.550781 171.339844 187.339844 171.4375 L 180.785156 174.488281 C 180.496094 174.621094 180.25 174.707031 180.035156 174.738281 C 179.820312 174.769531 179.648438 174.769531 179.511719 174.738281 C 179.375 174.707031 179.25 174.628906 179.128906 174.503906 C 179.011719 174.378906 178.925781 174.265625 178.871094 174.160156 C 178.816406 174.058594 178.742188 173.902344 178.644531 173.691406 L 174.359375 164.484375 C 174.101562 163.921875 174.027344 163.488281 174.140625 163.1875 C 174.253906 162.886719 174.605469 162.597656 175.191406 162.324219 L 181.714844 159.289062 C 181.96875 159.171875 182.160156 159.089844 182.296875 159.050781 C 182.429688 159.007812 182.601562 158.992188 182.808594 159.003906 C 183.015625 159.011719 183.199219 159.109375 183.363281 159.289062 C 183.527344 159.464844 183.691406 159.730469 183.855469 160.085938 C 183.988281 160.375 184.074219 160.625 184.105469 160.835938 C 184.136719 161.050781 184.136719 161.226562 184.105469 161.359375 C 184.074219 161.496094 183.996094 161.621094 183.871094 161.742188 C 183.746094 161.859375 183.628906 161.949219 183.527344 162 C 183.425781 162.054688 183.269531 162.128906 183.058594 162.226562 L 177.976562 164.59375 L 178.753906 166.265625 L 182.03125 164.742188 C 182.285156 164.621094 182.480469 164.542969 182.613281 164.5 C 182.75 164.457031 182.921875 164.441406 183.128906 164.453125 C 183.335938 164.464844 183.519531 164.5625 183.683594 164.738281 C 183.847656 164.917969 184.011719 165.183594 184.175781 165.535156 C 184.308594 165.824219 184.390625 166.074219 184.421875 166.289062 C 184.457031 166.5 184.457031 166.675781 184.425781 166.8125 C 184.394531 166.945312 184.3125 167.074219 184.183594 167.195312 C 184.050781 167.320312 183.933594 167.40625 183.832031 167.460938 C 183.726562 167.515625 183.570312 167.589844 183.363281 167.6875 L 180.117188 169.199219 Z M 180.894531 170.871094 " fill-opacity="1" fill-rule="nonzero"/><path fill="#000000" d="M 193.410156 153.867188 C 193.683594 153.738281 193.933594 153.65625 194.152344 153.621094 C 194.371094 153.585938 194.542969 153.585938 194.675781 153.621094 C 194.804688 153.65625 194.929688 153.734375 195.046875 153.859375 C 195.167969 153.984375 195.253906 154.101562 195.308594 154.203125 C 195.363281 154.304688 195.4375 154.460938 195.535156 154.671875 L 199.808594 163.863281 C 199.933594 164.128906 200.015625 164.324219 200.054688 164.453125 C 200.09375 164.585938 200.109375 164.75 200.097656 164.957031 C 200.085938 165.164062 199.992188 165.351562 199.8125 165.515625 C 199.632812 165.679688 199.367188 165.84375 199.015625 166.007812 C 198.582031 166.207031 198.269531 166.3125 198.074219 166.324219 C 197.875 166.335938 197.691406 166.292969 197.511719 166.199219 C 193.488281 164.042969 190.851562 162.640625 189.59375 161.988281 L 192.125 167.4375 C 192.25 167.703125 192.332031 167.898438 192.371094 168.027344 C 192.410156 168.160156 192.425781 168.328125 192.414062 168.53125 C 192.402344 168.742188 192.308594 168.925781 192.128906 169.089844 C 191.949219 169.253906 191.683594 169.417969 191.332031 169.582031 C 190.988281 169.742188 190.699219 169.835938 190.464844 169.863281 C 190.230469 169.890625 190.03125 169.84375 189.867188 169.71875 C 189.699219 169.59375 189.578125 169.46875 189.5 169.34375 C 189.421875 169.21875 189.324219 169.03125 189.207031 168.777344 L 184.910156 159.535156 C 184.792969 159.28125 184.714844 159.089844 184.679688 158.957031 C 184.644531 158.824219 184.632812 158.664062 184.644531 158.46875 C 184.65625 158.277344 184.75 158.097656 184.929688 157.933594 C 185.109375 157.769531 185.375 157.605469 185.726562 157.441406 C 186.035156 157.296875 186.300781 157.210938 186.523438 157.179688 C 186.746094 157.152344 186.910156 157.15625 187.019531 157.191406 C 187.132812 157.226562 187.285156 157.292969 187.476562 157.390625 L 187.605469 157.453125 C 191.410156 159.539062 193.9375 160.90625 195.195312 161.558594 L 192.589844 155.960938 C 192.472656 155.707031 192.398438 155.515625 192.363281 155.382812 C 192.328125 155.25 192.316406 155.085938 192.328125 154.894531 C 192.335938 154.699219 192.433594 154.523438 192.613281 154.359375 C 192.789062 154.195312 193.054688 154.03125 193.410156 153.867188 Z M 193.410156 153.867188 " fill-opacity="1" fill-rule="nonzero"/><path fill="#000000" d="M 208.046875 157.753906 L 208.113281 157.640625 C 208.386719 157.246094 208.601562 157.011719 208.753906 156.941406 C 209.097656 156.78125 209.609375 156.917969 210.296875 157.351562 C 210.71875 157.625 210.984375 157.882812 211.097656 158.128906 C 211.199219 158.347656 211.214844 158.570312 211.136719 158.792969 C 211.058594 159.019531 210.914062 159.289062 210.695312 159.601562 C 210.628906 159.714844 210.53125 159.871094 210.398438 160.0625 C 210.265625 160.257812 209.960938 160.578125 209.480469 161.015625 C 209 161.453125 208.480469 161.804688 207.914062 162.066406 C 207.429688 162.292969 206.886719 162.460938 206.289062 162.570312 C 205.6875 162.683594 205.027344 162.707031 204.308594 162.648438 C 203.589844 162.585938 202.894531 162.425781 202.222656 162.167969 C 201.550781 161.90625 200.898438 161.480469 200.265625 160.882812 C 199.632812 160.28125 199.113281 159.546875 198.707031 158.675781 C 198.3125 157.824219 198.09375 156.984375 198.054688 156.148438 C 198.015625 155.3125 198.113281 154.5625 198.347656 153.898438 C 198.582031 153.230469 198.914062 152.605469 199.339844 152.023438 C 199.769531 151.441406 200.222656 150.957031 200.707031 150.5625 C 201.1875 150.171875 201.683594 149.855469 202.191406 149.621094 C 202.710938 149.378906 203.273438 149.214844 203.882812 149.125 C 204.492188 149.035156 204.972656 149.011719 205.328125 149.046875 L 205.832031 149.09375 C 206.085938 149.121094 206.285156 149.15625 206.429688 149.1875 C 206.574219 149.222656 206.726562 149.289062 206.886719 149.390625 C 207.046875 149.488281 207.164062 149.621094 207.242188 149.789062 C 207.371094 150.0625 207.394531 150.414062 207.3125 150.84375 C 207.15625 151.640625 206.910156 152.117188 206.566406 152.277344 C 206.367188 152.371094 206.03125 152.378906 205.554688 152.304688 C 204.914062 152.144531 204.210938 152.246094 203.4375 152.605469 C 203.09375 152.765625 202.773438 152.992188 202.464844 153.289062 C 202.160156 153.585938 201.898438 153.933594 201.671875 154.332031 C 201.449219 154.734375 201.328125 155.207031 201.3125 155.75 C 201.300781 156.292969 201.417969 156.84375 201.675781 157.394531 C 201.9375 157.957031 202.28125 158.410156 202.707031 158.746094 C 203.132812 159.085938 203.574219 159.300781 204.035156 159.390625 C 204.492188 159.480469 204.929688 159.5 205.351562 159.449219 C 205.773438 159.40625 206.148438 159.304688 206.480469 159.148438 C 206.820312 158.988281 207.125 158.796875 207.386719 158.566406 C 207.648438 158.335938 207.824219 158.148438 207.917969 157.996094 Z M 208.046875 157.753906 " fill-opacity="1" fill-rule="nonzero"/><path fill="#000000" d="M 214.621094 155.175781 L 219.71875 152.804688 C 219.976562 152.6875 220.167969 152.605469 220.300781 152.5625 C 220.4375 152.519531 220.609375 152.503906 220.816406 152.515625 C 221.023438 152.527344 221.207031 152.625 221.371094 152.800781 C 221.535156 152.980469 221.699219 153.246094 221.863281 153.601562 C 221.996094 153.886719 222.078125 154.136719 222.109375 154.351562 C 222.144531 154.566406 222.144531 154.738281 222.113281 154.875 C 222.082031 155.007812 222.003906 155.136719 221.875 155.257812 C 221.75 155.375 221.636719 155.460938 221.535156 155.515625 C 221.433594 155.570312 221.277344 155.648438 221.066406 155.742188 L 214.511719 158.792969 C 214.222656 158.929688 213.972656 159.011719 213.761719 159.042969 C 213.546875 159.074219 213.371094 159.078125 213.238281 159.046875 C 213.101562 159.015625 212.976562 158.9375 212.855469 158.808594 C 212.738281 158.683594 212.652344 158.570312 212.59375 158.46875 C 212.542969 158.367188 212.464844 158.210938 212.367188 158 L 208.085938 148.789062 C 207.824219 148.226562 207.75 147.796875 207.867188 147.492188 C 207.980469 147.191406 208.332031 146.902344 208.914062 146.632812 L 215.4375 143.597656 C 215.695312 143.476562 215.886719 143.398438 216.019531 143.355469 C 216.15625 143.3125 216.328125 143.296875 216.53125 143.308594 C 216.738281 143.316406 216.925781 143.414062 217.089844 143.59375 C 217.253906 143.773438 217.417969 144.039062 217.582031 144.390625 C 217.714844 144.679688 217.796875 144.929688 217.828125 145.140625 C 217.859375 145.355469 217.863281 145.53125 217.828125 145.664062 C 217.800781 145.800781 217.722656 145.929688 217.59375 146.046875 C 217.46875 146.164062 217.355469 146.253906 217.253906 146.308594 C 217.148438 146.359375 216.992188 146.4375 216.785156 146.535156 L 211.703125 148.898438 L 212.480469 150.570312 L 215.757812 149.046875 C 216.011719 148.929688 216.207031 148.847656 216.339844 148.804688 C 216.476562 148.765625 216.644531 148.75 216.851562 148.761719 C 217.058594 148.773438 217.246094 148.867188 217.40625 149.046875 C 217.570312 149.222656 217.734375 149.492188 217.898438 149.84375 C 218.035156 150.132812 218.117188 150.382812 218.148438 150.59375 C 218.179688 150.808594 218.179688 150.980469 218.148438 151.117188 C 218.117188 151.253906 218.039062 151.382812 217.90625 151.503906 C 217.773438 151.625 217.660156 151.714844 217.554688 151.765625 C 217.453125 151.820312 217.296875 151.898438 217.085938 151.996094 L 213.84375 153.503906 Z M 214.621094 155.175781 " fill-opacity="1" fill-rule="nonzero"/><path fill="#ffb46a" d="M 132.058594 128.238281 C 129.992188 125.707031 128.957031 122.492188 128.132812 119.320312 C 128.128906 119.292969 128.128906 119.261719 128.125 119.230469 C 128.121094 119.242188 128.121094 119.253906 128.117188 119.265625 C 128.117188 119.25 128.113281 119.238281 128.109375 119.226562 C 128.109375 119.265625 128.105469 119.300781 128.105469 119.335938 C 127.585938 122.570312 126.859375 125.863281 125.042969 128.578125 C 123.199219 131.332031 119.882812 133.246094 116.621094 133.746094 C 123.199219 135.292969 128.59375 140.300781 129.433594 147.003906 C 129.445312 147.011719 129.445312 147.003906 129.453125 146.992188 C 129.65625 140.238281 134.527344 134.75 140.929688 132.589844 C 137.632812 132.398438 134.15625 130.804688 132.058594 128.238281 Z M 132.058594 128.238281 " fill-opacity="1" fill-rule="nonzero"/><path fill="#ffb46a" d="M 252.328125 190.976562 C 250.261719 188.441406 249.226562 185.230469 248.40625 182.058594 C 248.402344 182.03125 248.398438 182 248.394531 181.96875 C 248.394531 181.980469 248.390625 181.992188 248.390625 182 C 248.386719 181.988281 248.382812 181.976562 248.378906 181.964844 C 248.378906 182 248.378906 182.039062 248.375 182.074219 C 247.855469 185.308594 247.128906 188.597656 245.3125 191.316406 C 243.46875 194.070312 240.15625 195.980469 236.890625 196.484375 C 243.46875 198.03125 248.863281 203.035156 249.703125 209.742188 C 249.714844 209.75 249.714844 209.738281 249.722656 209.730469 C 249.925781 202.972656 254.800781 197.488281 261.203125 195.328125 C 257.902344 195.136719 254.425781 193.542969 252.328125 190.976562 Z M 252.328125 190.976562 " fill-opacity="1" fill-rule="nonzero"/><path fill="#ffb46a" d="M 137.433594 224.585938 C 135.367188 222.050781 134.332031 218.839844 133.507812 215.667969 C 133.507812 215.640625 133.503906 215.609375 133.5 215.578125 C 133.496094 215.589844 133.496094 215.601562 133.492188 215.609375 C 133.492188 215.597656 133.488281 215.585938 133.484375 215.574219 C 133.484375 215.609375 133.480469 215.648438 133.480469 215.683594 C 132.960938 218.917969 132.234375 222.207031 130.417969 224.925781 C 128.574219 227.675781 125.257812 229.589844 121.996094 230.09375 C 128.574219 231.640625 133.96875 236.644531 134.808594 243.351562 C 134.820312 243.359375 134.820312 243.347656 134.828125 243.339844 C 135.03125 236.582031 139.902344 231.097656 146.304688 228.9375 C 143.007812 228.746094 139.53125 227.152344 137.433594 224.585938 Z M 137.433594 224.585938 " fill-opacity="1" fill-rule="nonzero"/></svg>