<svg xmlns="http://www.w3.org/2000/svg" xmlns:xlink="http://www.w3.org/1999/xlink" width="500" zoomAndPan="magnify" viewBox="0 0 375 374.999991" height="500" preserveAspectRatio="xMidYMid meet" version="1.0"><defs><clipPath id="15cddfe823"><path d="M 236.5625 300.269531 L 337.484375 300.269531 L 337.484375 305.566406 L 236.5625 305.566406 Z M 236.5625 300.269531 " clip-rule="nonzero"/></clipPath><clipPath id="f263e024ce"><path d="M 156.65625 253.429688 L 337.484375 253.429688 L 337.484375 305.566406 L 156.65625 305.566406 Z M 156.65625 253.429688 " clip-rule="nonzero"/></clipPath><clipPath id="ab7616ae52"><path d="M 37.5 94 L 94 94 L 94 127 L 37.5 127 Z M 37.5 94 " clip-rule="nonzero"/></clipPath><clipPath id="80286c61bf"><path d="M 124 69.5625 L 181 69.5625 L 181 103 L 124 103 Z M 124 69.5625 " clip-rule="nonzero"/></clipPath></defs><path fill="#645a8c" d="M 267.558594 173.386719 C 262.425781 146.480469 245.738281 121.601562 223.1875 106.367188 C 188.371094 82.847656 132.691406 81.417969 98.152344 106.824219 C 68.09375 128.9375 64.472656 171.941406 77.886719 204.464844 C 92.832031 240.707031 133.472656 267.886719 171.90625 271.691406 C 215.628906 276.015625 262.226562 247.898438 268.429688 202.257812 C 269.742188 192.601562 269.367188 182.867188 267.558594 173.386719 " fill-opacity="1" fill-rule="nonzero"/><path fill="#f28e61" d="M 188.496094 151.574219 C 175.71875 146.65625 160.917969 157.015625 162.121094 170.9375 C 162.9375 180.398438 170.667969 188.285156 180.175781 188.917969 C 189.234375 189.527344 198.355469 183.042969 200.261719 174.0625 C 202.230469 164.765625 197.457031 155.023438 188.496094 151.574219 " fill-opacity="1" fill-rule="nonzero"/><path fill="#2d2745" d="M 168.375 180.824219 C 169.230469 178.929688 170.855469 177.542969 172.871094 177.015625 C 175.167969 176.417969 177.269531 177.332031 179.25 178.4375 C 181.582031 179.738281 183.972656 181.21875 186.726562 181.246094 C 189.226562 181.273438 191.375 179.894531 192.996094 178.085938 C 193.917969 177.054688 194.617188 175.84375 195.546875 174.820312 C 196.285156 174.007812 197.402344 173.261719 198.421875 174.042969 C 198.960938 174.457031 199.828125 174.128906 200.140625 173.589844 C 200.519531 172.941406 200.230469 172.28125 199.691406 171.867188 C 198.679688 171.089844 197.257812 171.015625 196.082031 171.4375 C 194.765625 171.910156 193.824219 172.894531 192.996094 173.988281 C 191.5625 175.878906 190.054688 178.261719 187.511719 178.675781 C 184.730469 179.128906 182.132812 177.097656 179.816406 175.875 C 177.464844 174.632812 174.957031 173.902344 172.308594 174.558594 C 169.683594 175.207031 167.324219 177.070312 166.203125 179.550781 C 165.921875 180.171875 166.023438 180.90625 166.652344 181.273438 C 167.191406 181.589844 168.09375 181.445312 168.375 180.824219 " fill-opacity="1" fill-rule="nonzero"/><path fill="#2d2745" d="M 164.289062 169.167969 C 165.902344 167.695312 168.058594 167.101562 170.144531 166.664062 C 172.515625 166.171875 174.914062 165.832031 177.132812 164.8125 C 180.746094 163.152344 183.328125 159.339844 181.734375 155.347656 C 180.933594 153.332031 179.355469 151.738281 177.257812 151.105469 C 175.707031 150.636719 175.039062 153.070312 176.589844 153.539062 C 178.296875 154.054688 179.519531 155.699219 179.695312 157.460938 C 179.898438 159.527344 178.472656 161.167969 176.789062 162.152344 C 174.535156 163.472656 171.84375 163.730469 169.335938 164.261719 C 166.84375 164.792969 164.417969 165.640625 162.507812 167.382812 C 161.308594 168.480469 163.09375 170.257812 164.289062 169.167969 " fill-opacity="1" fill-rule="nonzero"/><path fill="#2d2745" d="M 193.628906 156.285156 C 192.5 157.160156 191.566406 158.292969 190.972656 159.601562 C 190.273438 161.136719 189.695312 162.964844 190.023438 164.65625 C 190.34375 166.328125 191.800781 167.523438 193.398438 167.90625 C 195.253906 168.34375 197.070312 167.761719 198.796875 167.109375 C 199.429688 166.871094 199.867188 166.257812 199.675781 165.558594 C 199.507812 164.949219 198.765625 164.4375 198.125 164.679688 C 197.390625 164.957031 196.65625 165.234375 195.890625 165.410156 C 195.589844 165.480469 195.292969 165.527344 194.984375 165.542969 C 194.671875 165.554688 194.425781 165.546875 194.273438 165.515625 C 193.304688 165.324219 192.480469 164.890625 192.441406 163.820312 C 192.421875 163.199219 192.582031 162.597656 192.75 162.003906 C 192.921875 161.425781 193.066406 161.015625 193.289062 160.570312 C 193.820312 159.511719 194.4375 158.820312 195.40625 158.066406 C 195.945312 157.652344 195.84375 156.722656 195.40625 156.285156 C 194.875 155.753906 194.167969 155.867188 193.628906 156.285156 " fill-opacity="1" fill-rule="nonzero"/><path fill="#2d2745" d="M 173.273438 185.148438 C 173.339844 184.9375 173.242188 185.171875 173.300781 185.054688 C 173.339844 184.964844 173.394531 184.878906 173.445312 184.792969 C 173.484375 184.722656 173.546875 184.65625 173.460938 184.757812 C 173.527344 184.683594 173.59375 184.609375 173.667969 184.539062 C 173.71875 184.492188 173.875 184.363281 173.738281 184.464844 C 173.820312 184.40625 173.90625 184.351562 173.996094 184.300781 C 174.082031 184.25 174.171875 184.199219 174.265625 184.15625 C 174.144531 184.214844 174.234375 184.167969 174.304688 184.144531 C 174.5 184.082031 174.699219 184.019531 174.902344 183.996094 C 174.71875 184.019531 174.914062 184.007812 174.996094 184.003906 C 175.109375 184 175.222656 184.007812 175.335938 184.011719 C 175.378906 184.015625 175.542969 184.042969 175.414062 184.019531 C 175.523438 184.039062 175.636719 184.066406 175.75 184.09375 C 175.859375 184.125 175.96875 184.160156 176.082031 184.195312 C 176.125 184.210938 176.167969 184.226562 176.210938 184.242188 C 176.144531 184.214844 176.152344 184.21875 176.230469 184.253906 C 177.867188 185 178.777344 186.570312 179.710938 188.136719 C 180.539062 189.53125 182.714844 188.265625 181.882812 186.867188 C 180.609375 184.726562 179.15625 182.566406 176.683594 181.742188 C 174.363281 180.96875 171.597656 182.046875 170.847656 184.480469 C 170.644531 185.128906 171.085938 185.855469 171.726562 186.03125 C 172.402344 186.214844 173.074219 185.800781 173.273438 185.148438 " fill-opacity="1" fill-rule="nonzero"/><path fill="#f5e3d9" d="M 334.429688 300.382812 L 236.609375 300.382812 L 236.609375 277.714844 L 334.429688 277.714844 C 334.429688 277.714844 332.757812 284.882812 332.757812 288.390625 C 332.757812 291.898438 334.429688 300.382812 334.429688 300.382812 " fill-opacity="1" fill-rule="nonzero"/><g clip-path="url(#15cddfe823)"><path fill="#f28e61" d="M 334.101562 300.382812 L 239.992188 300.382812 C 235.484375 300.382812 235.476562 305.566406 239.992188 305.566406 L 334.101562 305.566406 C 338.609375 305.566406 338.613281 300.382812 334.101562 300.382812 " fill-opacity="1" fill-rule="nonzero"/></g><path fill="#2d2745" d="M 272.644531 288.140625 L 260.652344 288.140625 C 261.421875 291.96875 262.074219 297.5625 261.570312 304.511719 C 261.519531 305.195312 263.460938 305.097656 265.464844 303.078125 C 266.949219 301.582031 267.589844 300.679688 267.589844 300.679688 C 267.589844 300.679688 269.921875 304.132812 271.042969 304.546875 C 272.648438 305.136719 273.507812 300.042969 273.171875 292.148438 C 273.109375 290.660156 272.90625 289.320312 272.644531 288.140625 " fill-opacity="1" fill-rule="nonzero"/><g clip-path="url(#f263e024ce)"><path fill="#f28e61" d="M 334.101562 272.527344 L 334.863281 272.527344 L 222.128906 253.539062 L 161.183594 253.539062 L 161.222656 253.546875 C 160.167969 253.574219 159.199219 254.074219 158.730469 255.253906 C 156.015625 262.117188 155.863281 277.011719 159.355469 284.621094 C 159.953125 285.921875 160.917969 286.589844 161.910156 286.769531 L 173.238281 286.769531 L 238.816406 305.511719 C 241.003906 305.929688 243.328125 303.941406 242.007812 301.070312 C 239.40625 295.386719 239.90625 283.40625 241.777344 277.714844 L 334.101562 277.714844 C 338.609375 277.714844 338.613281 272.527344 334.101562 272.527344 " fill-opacity="1" fill-rule="nonzero"/></g><path fill="#2d2745" d="M 235.589844 275.046875 C 234.113281 278.421875 233.535156 282.152344 233.257812 285.804688 C 232.9375 290.011719 233.097656 294.320312 233.964844 298.460938 C 234.394531 300.507812 235.035156 302.527344 236.027344 304.375 C 236.792969 305.804688 238.96875 304.535156 238.199219 303.101562 C 236.546875 300.015625 235.976562 296.359375 235.742188 292.90625 C 235.480469 289.070312 235.636719 285.15625 236.339844 281.375 C 236.65625 279.675781 237.101562 277.832031 237.761719 276.320312 C 238.035156 275.695312 237.945312 274.964844 237.3125 274.59375 C 236.777344 274.28125 235.863281 274.417969 235.589844 275.046875 " fill-opacity="1" fill-rule="nonzero"/><path fill="#2d2745" d="M 167.921875 260.375 C 183.90625 264.25 199.890625 268.125 215.878906 272 C 220.359375 273.085938 224.835938 274.171875 229.316406 275.257812 C 230.890625 275.640625 231.5625 273.210938 229.988281 272.828125 C 214.003906 268.953125 198.015625 265.078125 182.03125 261.203125 C 177.550781 260.117188 173.070312 259.03125 168.589844 257.941406 C 167.015625 257.5625 166.34375 259.992188 167.921875 260.375 " fill-opacity="1" fill-rule="nonzero"/><path fill="#f5e3d9" d="M 332 267.871094 L 244.117188 267.871094 L 244.117188 253.6875 L 332 253.6875 C 332 253.6875 331.449219 257.628906 331.449219 260.78125 C 331.449219 263.929688 332 267.871094 332 267.871094 " fill-opacity="1" fill-rule="nonzero"/><path fill="#6699ff" d="M 331.699219 267.871094 L 247.15625 267.871094 C 243.105469 267.871094 243.097656 272.527344 247.15625 272.527344 L 331.699219 272.527344 C 335.75 272.527344 335.757812 267.871094 331.699219 267.871094 " fill-opacity="1" fill-rule="nonzero"/><path fill="#6699ff" d="M 332.765625 249.164062 L 332.75 249.160156 L 262.917969 232.050781 L 262.851562 232.039062 C 262.546875 231.964844 262.21875 231.914062 261.84375 231.914062 L 176.441406 231.914062 C 176.171875 231.914062 175.921875 231.9375 175.691406 231.976562 C 174.734375 231.996094 173.859375 232.441406 173.4375 233.511719 C 170.996094 239.675781 171.578125 246.871094 174.710938 253.710938 C 175.246094 254.878906 176.117188 255.480469 177.007812 255.640625 L 246.101562 272.480469 L 246.101562 272.476562 C 248.066406 272.855469 250.152344 271.066406 248.96875 268.488281 C 246.636719 263.398438 246.429688 258.273438 248.035156 253.6875 L 331.699219 253.6875 C 335.355469 253.6875 335.707031 249.90625 332.765625 249.164062 " fill-opacity="1" fill-rule="nonzero"/><path fill="#2d2745" d="M 188.605469 253.550781 C 191.117188 256.511719 195.683594 257.832031 199.453125 257.472656 C 201.359375 257.289062 203.363281 256.746094 204.824219 255.445312 C 206.128906 254.285156 206.703125 252.515625 206.390625 250.808594 C 205.835938 247.777344 202.710938 246.085938 200.113281 245.046875 C 197.4375 243.976562 194.191406 243.332031 191.363281 244.167969 C 189.84375 244.617188 188.484375 245.554688 187.683594 246.945312 C 186.398438 249.1875 187.101562 251.636719 188.605469 253.550781 C 189.027344 254.085938 189.945312 253.992188 190.386719 253.550781 C 190.914062 253.019531 190.808594 252.304688 190.386719 251.765625 C 189.488281 250.625 189.164062 249.125 190.066406 247.890625 C 190.566406 247.207031 191.328125 246.789062 192.179688 246.554688 C 194.242188 246 196.597656 246.472656 198.613281 247.167969 C 199.65625 247.527344 200.65625 247.988281 201.589844 248.570312 C 202.394531 249.066406 203.203125 249.625 203.671875 250.558594 C 204.117188 251.441406 204.0625 252.464844 203.449219 253.25 C 202.625 254.304688 201.054688 254.722656 199.792969 254.910156 C 196.554688 255.386719 192.550781 254.320312 190.386719 251.765625 C 189.335938 250.53125 187.5625 252.320312 188.605469 253.550781 " fill-opacity="1" fill-rule="nonzero"/><path fill="#2d2745" d="M 214.003906 260.707031 C 211.882812 256.894531 211.527344 252.328125 212.945312 248.210938 C 213.476562 246.671875 211.042969 246.011719 210.519531 247.539062 C 208.886719 252.277344 209.398438 257.605469 211.832031 261.980469 C 212.617188 263.398438 214.792969 262.128906 214.003906 260.707031 " fill-opacity="1" fill-rule="nonzero"/><path fill="#2d2745" d="M 220.121094 262.605469 C 218.003906 258.789062 217.644531 254.222656 219.0625 250.105469 C 219.59375 248.566406 217.164062 247.90625 216.636719 249.433594 C 215.003906 254.175781 215.519531 259.503906 217.949219 263.875 C 218.738281 265.296875 220.914062 264.023438 220.121094 262.605469 " fill-opacity="1" fill-rule="nonzero"/><path fill="#2d2745" d="M 245.738281 270.0625 C 243.035156 265.207031 242.570312 259.371094 244.378906 254.128906 C 244.90625 252.59375 242.476562 251.933594 241.949219 253.460938 C 239.925781 259.324219 240.550781 265.921875 243.566406 271.335938 C 244.355469 272.753906 246.53125 271.480469 245.738281 270.0625 " fill-opacity="1" fill-rule="nonzero"/><path fill="#2d2745" d="M 178.140625 235.753906 C 193.960938 239.675781 209.785156 243.597656 225.609375 247.519531 C 229.871094 248.578125 234.132812 249.632812 238.394531 250.691406 C 239.96875 251.082031 240.636719 248.648438 239.066406 248.257812 C 223.242188 244.335938 207.421875 240.414062 191.597656 236.492188 C 187.335938 235.433594 183.070312 234.378906 178.808594 233.320312 C 177.238281 232.929688 176.566406 235.363281 178.140625 235.753906 " fill-opacity="1" fill-rule="nonzero"/><path fill="#645a8c" d="M 254.230469 276.628906 L 259.316406 276.628906 C 260.316406 276.628906 261.144531 275.859375 261.214844 274.859375 C 261.414062 272.015625 261.5625 266.207031 260.09375 260.964844 L 251.261719 260.964844 C 251.941406 264.34375 252.546875 268.84375 252.328125 274.636719 C 252.289062 275.722656 253.148438 276.628906 254.230469 276.628906 " fill-opacity="1" fill-rule="nonzero"/><path fill="#ffbb5c" d="M 86.894531 124.199219 C 83.480469 122.886719 79.53125 125.652344 79.851562 129.367188 C 80.070312 131.894531 82.132812 134 84.671875 134.167969 C 87.089844 134.328125 89.523438 132.597656 90.03125 130.203125 C 90.558594 127.71875 89.285156 125.117188 86.894531 124.199219 " fill-opacity="1" fill-rule="nonzero"/><path fill="#ffbb5c" d="M 210.308594 184.207031 C 207.976562 183.308594 205.277344 185.199219 205.496094 187.738281 C 205.644531 189.460938 207.054688 190.898438 208.789062 191.015625 C 210.441406 191.128906 212.101562 189.945312 212.453125 188.308594 C 212.808594 186.613281 211.941406 184.835938 210.308594 184.207031 " fill-opacity="1" fill-rule="nonzero"/><path fill="#ffbb5c" d="M 163.195312 130.5 C 160.867188 129.601562 158.167969 131.492188 158.386719 134.027344 C 158.535156 135.753906 159.945312 137.191406 161.679688 137.308594 C 163.332031 137.417969 164.992188 136.238281 165.339844 134.597656 C 165.699219 132.902344 164.828125 131.128906 163.195312 130.5 " fill-opacity="1" fill-rule="nonzero"/><path fill="#f0d2c2" d="M 173.847656 268.898438 C 170.964844 265.804688 167.027344 264.539062 163.1875 264.890625 C 163.058594 262.914062 162.503906 260.902344 161.488281 259.015625 C 159.785156 255.855469 156.347656 252.210938 152.53125 250.480469 C 152.984375 249.066406 153.105469 247.539062 152.703125 245.914062 C 152.179688 243.808594 150.882812 242.234375 149.238281 241.300781 C 150.609375 235.96875 150.546875 230.253906 144.261719 229.78125 C 140.398438 229.492188 137.484375 232.15625 136.382812 235.71875 C 135.570312 238.347656 135.675781 241.074219 136.382812 243.660156 C 134.304688 244.734375 132.425781 246.410156 131.132812 248.390625 C 129.363281 251.09375 128.480469 254.277344 128.421875 257.484375 C 124.535156 256.179688 119.96875 256.269531 116.097656 257.769531 C 109.144531 260.46875 104.902344 266.699219 104.046875 273.597656 C 103.375 278.992188 103.8125 284.613281 108.058594 289.0625 C 115.160156 296.503906 125.09375 294.695312 133.636719 291.019531 C 137.449219 294.929688 142.953125 297.054688 148.953125 296.089844 C 151.496094 295.679688 153.800781 294.742188 155.796875 293.417969 C 159.183594 295.003906 163.160156 295.25 166.867188 293.722656 C 170.183594 292.355469 172.679688 289.828125 174.113281 286.800781 C 178.523438 281.734375 178.566406 273.96875 173.847656 268.898438 " fill-opacity="1" fill-rule="nonzero"/><path fill="#2d2745" d="M 128.59375 259.394531 C 132.488281 262.171875 135.761719 266 137.171875 270.636719 C 137.464844 271.601562 138.976562 271.957031 139.472656 270.9375 C 140.746094 268.304688 142.625 265.835938 145.503906 264.875 C 147.738281 264.128906 151.007812 263.941406 152.84375 265.699219 C 154.015625 266.820312 155.800781 265.039062 154.625 263.917969 C 152.171875 261.570312 148.128906 261.421875 145.039062 262.378906 C 141.441406 263.488281 138.902344 266.363281 137.296875 269.664062 C 138.0625 269.765625 138.832031 269.863281 139.597656 269.964844 C 137.988281 264.671875 134.308594 260.382812 129.863281 257.21875 C 129.308594 256.824219 128.460938 257.117188 128.140625 257.667969 C 127.769531 258.304688 128.035156 259 128.59375 259.394531 " fill-opacity="1" fill-rule="nonzero"/><path fill="#2d2745" d="M 142.785156 253.640625 C 145.238281 251.609375 148.640625 250.847656 151.675781 251.519531 C 152.339844 251.667969 153.039062 251.320312 153.226562 250.640625 C 153.398438 250.007812 153.011719 249.238281 152.347656 249.089844 C 148.335938 248.199219 144.164062 249.242188 141.003906 251.855469 C 140.480469 252.289062 140.558594 253.191406 141.003906 253.640625 C 141.523438 254.160156 142.261719 254.074219 142.785156 253.640625 " fill-opacity="1" fill-rule="nonzero"/><path fill="#2d2745" d="M 149.457031 280.511719 C 151.789062 280.960938 153.804688 282.457031 154.808594 284.628906 C 155.867188 286.917969 155.484375 289.65625 154.097656 291.707031 C 153.1875 293.054688 155.367188 294.316406 156.273438 292.980469 C 158.144531 290.207031 158.421875 286.570312 157.0625 283.53125 C 155.820312 280.75 153.105469 278.65625 150.128906 278.082031 C 149.460938 277.953125 148.769531 278.269531 148.578125 278.960938 C 148.410156 279.578125 148.789062 280.386719 149.457031 280.511719 " fill-opacity="1" fill-rule="nonzero"/><path fill="#6699ff" d="M 143.027344 204.929688 C 141.90625 190.046875 132.785156 176.367188 118.292969 170.789062 C 88.300781 159.242188 55.316406 190.398438 67.054688 221.007812 C 72.515625 235.246094 86.042969 245.816406 101.34375 246.835938 C 104.382812 247.039062 107.421875 246.851562 110.40625 246.3125 C 125.515625 243.582031 139.011719 231.859375 142.246094 216.585938 C 143.070312 212.699219 143.316406 208.773438 143.027344 204.929688 " fill-opacity="1" fill-rule="nonzero"/><path fill="#40856b" d="M 119.058594 170.589844 C 119.050781 170.585938 119.046875 170.582031 119.039062 170.582031 C 118.257812 170.277344 117.453125 170.957031 117.589844 171.785156 C 117.890625 173.648438 117.804688 175.574219 117.265625 177.496094 C 115.988281 182.109375 111.882812 184.714844 109.625 188.75 C 107.445312 192.652344 106.957031 197.882812 110.191406 201.375 C 113.085938 204.503906 117.753906 205.132812 121.695312 203.917969 C 125.753906 202.660156 130.125 197.972656 134.503906 198.402344 C 136.679688 198.609375 138.683594 200.304688 140.792969 200.882812 C 141.140625 200.980469 141.496094 201.058594 141.859375 201.117188 C 142.621094 201.238281 143.269531 200.566406 143.121094 199.808594 C 140.574219 186.894531 131.9375 175.542969 119.058594 170.589844 " fill-opacity="1" fill-rule="nonzero"/><path fill="#40856b" d="M 143.25 207.101562 C 143.226562 206.339844 142.449219 205.824219 141.75 206.121094 C 138.972656 207.296875 136.414062 209.089844 134.398438 211.296875 C 130.519531 215.546875 130.992188 222.628906 126.679688 226.21875 C 121.519531 230.515625 115.335938 229.546875 111.820312 236.585938 C 110.46875 239.289062 109.09375 242.695312 109.28125 245.839844 C 109.320312 246.46875 109.917969 246.914062 110.535156 246.8125 C 110.539062 246.8125 110.539062 246.8125 110.539062 246.8125 C 125.648438 244.082031 139.144531 232.355469 142.378906 217.082031 C 143.082031 213.761719 143.363281 210.40625 143.25 207.101562 " fill-opacity="1" fill-rule="nonzero"/><path fill="#40856b" d="M 94.609375 227.8125 C 93.582031 225.503906 92.078125 223.5625 90.488281 221.621094 C 88.71875 219.464844 86.164062 217.09375 85.722656 214.1875 C 85.355469 211.8125 86.855469 209.988281 88.171875 208.1875 C 89.742188 206.03125 91.179688 203.945312 92.078125 201.40625 C 95.492188 191.773438 90.972656 180.855469 81.769531 176.484375 C 81.765625 176.484375 81.761719 176.480469 81.757812 176.480469 C 80.960938 176.105469 80.027344 176.234375 79.328125 176.765625 C 66.3125 186.671875 58.929688 203.921875 65.480469 221.007812 C 69.847656 232.386719 79.363281 241.425781 90.820312 245.117188 C 91.867188 245.453125 93.015625 245.019531 93.582031 244.074219 C 96.414062 239.347656 97.074219 233.40625 94.609375 227.8125 " fill-opacity="1" fill-rule="nonzero"/><path fill="#2d2745" d="M 90.027344 105.011719 C 100.300781 102.117188 110.578125 99.222656 120.851562 96.328125 C 123.808594 95.496094 126.765625 94.664062 129.722656 93.832031 C 131.28125 93.394531 130.621094 90.960938 129.054688 91.398438 C 118.78125 94.292969 108.503906 97.1875 98.226562 100.078125 C 95.269531 100.914062 92.3125 101.746094 89.355469 102.578125 C 87.800781 103.015625 88.460938 105.449219 90.027344 105.011719 " fill-opacity="1" fill-rule="nonzero"/><path fill="#aeb3bf" d="M 113.546875 88.3125 C 103.417969 83.550781 91.46875 98.265625 101.304688 106.3125 C 106.398438 110.476562 114.992188 109.71875 118.621094 104.378906 C 121.3125 100.417969 120.425781 94.488281 117.148438 90.996094 C 116.003906 89.777344 114.789062 88.898438 113.546875 88.3125 " fill-opacity="1" fill-rule="nonzero"/><g clip-path="url(#ab7616ae52)"><path fill="#ffbb5c" d="M 91.246094 113.6875 L 45.796875 126.484375 C 43.957031 127.003906 42.042969 125.929688 41.527344 124.085938 L 38.027344 111.609375 C 37.507812 109.765625 38.582031 107.851562 40.421875 107.332031 L 85.871094 94.535156 C 87.710938 94.019531 89.625 95.09375 90.140625 96.9375 L 93.644531 109.414062 C 94.160156 111.257812 93.085938 113.167969 91.246094 113.6875 " fill-opacity="1" fill-rule="nonzero"/></g><g clip-path="url(#80286c61bf)"><path fill="#ffbb5c" d="M 178.109375 89.230469 L 132.65625 102.027344 C 130.816406 102.546875 128.90625 101.472656 128.390625 99.628906 L 124.886719 87.152344 C 124.371094 85.308594 125.441406 83.394531 127.28125 82.878906 L 172.734375 70.078125 C 174.574219 69.5625 176.484375 70.636719 177 72.480469 L 180.503906 84.953125 C 181.019531 86.796875 179.949219 88.710938 178.109375 89.230469 " fill-opacity="1" fill-rule="nonzero"/></g><path fill="#2d2745" d="M 44.054688 118.0625 C 55.386719 114.875 66.714844 111.683594 78.046875 108.492188 C 81.128906 107.625 84.207031 106.757812 87.285156 105.890625 C 88.84375 105.453125 88.183594 103.019531 86.617188 103.460938 C 75.285156 106.648438 63.953125 109.839844 52.625 113.03125 C 49.542969 113.898438 46.464844 114.765625 43.382812 115.632812 C 41.828125 116.070312 42.488281 118.503906 44.054688 118.0625 " fill-opacity="1" fill-rule="nonzero"/><path fill="#2d2745" d="M 54.390625 106.132812 C 55.664062 110.664062 56.941406 115.191406 58.214844 119.722656 C 58.652344 121.28125 61.082031 120.617188 60.644531 119.050781 C 59.367188 114.523438 58.09375 109.992188 56.816406 105.464844 C 56.378906 103.90625 53.949219 104.566406 54.390625 106.132812 " fill-opacity="1" fill-rule="nonzero"/><path fill="#2d2745" d="M 71.03125 101.710938 C 72.304688 106.238281 73.578125 110.765625 74.855469 115.296875 C 75.292969 116.855469 77.722656 116.195312 77.28125 114.625 C 76.007812 110.097656 74.734375 105.566406 73.457031 101.039062 C 73.019531 99.480469 70.589844 100.140625 71.03125 101.710938 " fill-opacity="1" fill-rule="nonzero"/><path fill="#2d2745" d="M 132.320312 93.210938 C 143.457031 90.074219 154.597656 86.9375 165.734375 83.800781 C 168.792969 82.941406 171.851562 82.082031 174.90625 81.21875 C 176.464844 80.78125 175.804688 78.347656 174.238281 78.789062 C 163.097656 81.925781 151.960938 85.0625 140.824219 88.195312 C 137.765625 89.058594 134.707031 89.917969 131.652344 90.78125 C 130.09375 91.21875 130.753906 93.652344 132.320312 93.210938 " fill-opacity="1" fill-rule="nonzero"/><path fill="#2d2745" d="M 141.25 81.675781 C 142.527344 86.207031 143.800781 90.734375 145.078125 95.265625 C 145.515625 96.824219 147.945312 96.160156 147.503906 94.59375 C 146.230469 90.066406 144.953125 85.535156 143.679688 81.007812 C 143.238281 79.449219 140.8125 80.109375 141.25 81.675781 " fill-opacity="1" fill-rule="nonzero"/><path fill="#2d2745" d="M 157.890625 77.253906 C 159.167969 81.78125 160.441406 86.3125 161.71875 90.839844 C 162.15625 92.398438 164.585938 91.738281 164.144531 90.171875 C 162.871094 85.640625 161.59375 81.113281 160.320312 76.582031 C 159.878906 75.023438 157.449219 75.683594 157.890625 77.253906 " fill-opacity="1" fill-rule="nonzero"/><path fill="#f0d2c2" d="M 244.597656 233.585938 C 244.652344 231.792969 244.644531 230.015625 244.671875 228.234375 C 244.769531 221.097656 244.867188 213.960938 244.964844 206.828125 C 244.992188 204.84375 245.019531 202.863281 245.050781 200.878906 C 245.074219 199.019531 245.179688 197.113281 245.085938 195.292969 C 245 193.644531 244.640625 192.058594 243.40625 191.121094 C 242.042969 190.089844 239.59375 189.945312 237.664062 191.664062 C 236.335938 192.847656 236.625 193.597656 236.667969 194.859375 C 236.71875 196.210938 236.765625 197.5625 236.8125 198.914062 C 236.910156 201.621094 237.003906 204.324219 237.101562 207.027344 C 237.289062 212.4375 237.480469 217.847656 237.679688 223.253906 C 237.824219 227.257812 237.972656 231.257812 238.125 235.257812 C 238.175781 236.527344 238.328125 237.914062 239.414062 238.527344 C 240.476562 239.128906 242.214844 238.605469 243.292969 237.320312 C 244.261719 236.164062 244.558594 234.761719 244.597656 233.585938 " fill-opacity="1" fill-rule="nonzero"/><path fill="#f0d2c2" d="M 263.835938 236.101562 C 263.25 234.308594 262.601562 232.53125 261.988281 230.75 C 259.515625 223.613281 257.050781 216.476562 254.582031 209.34375 C 253.898438 207.359375 253.210938 205.378906 252.523438 203.394531 C 251.878906 201.53125 251.300781 199.628906 250.550781 197.804688 C 249.871094 196.15625 248.941406 194.570312 247.371094 193.636719 C 245.640625 192.601562 243.140625 192.460938 241.824219 194.179688 C 240.921875 195.363281 241.480469 196.109375 241.980469 197.371094 C 242.515625 198.726562 243.050781 200.078125 243.582031 201.429688 C 244.652344 204.132812 245.71875 206.839844 246.789062 209.542969 C 248.925781 214.953125 251.0625 220.363281 253.203125 225.769531 C 254.789062 229.773438 256.375 233.773438 257.96875 237.769531 C 258.472656 239.042969 259.125 240.429688 260.433594 241.042969 C 261.710938 241.644531 263.261719 241.121094 263.875 239.835938 C 264.425781 238.679688 264.222656 237.277344 263.835938 236.101562 " fill-opacity="1" fill-rule="nonzero"/><path fill="#f0d2c2" d="M 218.105469 239.835938 C 218.71875 241.121094 220.265625 241.644531 221.546875 241.042969 C 222.851562 240.429688 223.503906 239.042969 224.011719 237.769531 C 225.601562 233.773438 227.191406 229.773438 228.773438 225.769531 C 230.917969 220.363281 233.054688 214.953125 235.191406 209.542969 C 236.257812 206.839844 237.328125 204.132812 238.394531 201.429688 C 238.929688 200.078125 239.464844 198.726562 240 197.371094 C 240.496094 196.109375 241.054688 195.363281 240.152344 194.179688 C 238.839844 192.460938 236.339844 192.601562 234.605469 193.636719 C 233.035156 194.570312 232.105469 196.15625 231.425781 197.804688 C 230.675781 199.628906 230.097656 201.53125 229.453125 203.394531 C 228.765625 205.378906 228.082031 207.359375 227.394531 209.34375 C 224.929688 216.476562 222.460938 223.613281 219.992188 230.75 C 219.375 232.53125 218.730469 234.308594 218.140625 236.101562 C 217.753906 237.277344 217.550781 238.679688 218.105469 239.835938 " fill-opacity="1" fill-rule="nonzero"/><path fill="#f0d2c2" d="M 237.089844 166.621094 C 237.089844 174.957031 237.089844 183.289062 237.089844 191.625 C 237.089844 196.492188 244.644531 196.5 244.644531 191.625 C 244.644531 183.289062 244.644531 174.957031 244.644531 166.621094 C 244.644531 161.753906 237.089844 161.746094 237.089844 166.621094 " fill-opacity="1" fill-rule="nonzero"/><path fill="#f0d2c2" d="M 231.636719 197.316406 L 250.335938 197.316406 C 250.335938 197.316406 249.59375 188.542969 240.632812 188.542969 C 231.671875 188.542969 231.636719 197.316406 231.636719 197.316406 " fill-opacity="1" fill-rule="nonzero"/><path fill="#2d2745" d="M 232.285156 197.167969 C 235.003906 198.359375 237.859375 199.144531 240.84375 199.171875 C 243.847656 199.199219 246.738281 198.433594 249.449219 197.167969 C 250.066406 196.882812 250.222656 195.992188 249.902344 195.445312 C 249.53125 194.8125 248.796875 194.703125 248.175781 194.992188 C 243.453125 197.195312 238.300781 197.070312 233.554688 194.992188 C 232.933594 194.71875 232.207031 194.808594 231.835938 195.445312 C 231.523438 195.980469 231.660156 196.894531 232.285156 197.167969 " fill-opacity="1" fill-rule="nonzero"/><path fill="#f0d2c2" d="M 317.023438 181.207031 C 311.21875 190.582031 303.851562 196.53125 300.574219 194.496094 C 297.296875 192.457031 299.347656 183.207031 305.152344 173.832031 C 310.957031 164.457031 318.324219 158.507812 321.601562 160.542969 C 324.878906 162.582031 322.832031 171.832031 317.023438 181.207031 " fill-opacity="1" fill-rule="nonzero"/><path fill="#f0d2c2" d="M 300.574219 194.496094 L 216.933594 142.527344 L 237.960938 108.578125 L 321.601562 160.542969 L 300.574219 194.496094 " fill-opacity="1" fill-rule="nonzero"/><path fill="#f0d2c2" d="M 301.339844 171.464844 C 293.714844 183.773438 284.046875 191.582031 279.742188 188.910156 C 275.4375 186.234375 278.128906 174.089844 285.753906 161.777344 C 293.375 149.46875 303.046875 141.65625 307.351562 144.332031 C 311.65625 147.007812 308.964844 159.152344 301.339844 171.464844 " fill-opacity="1" fill-rule="nonzero"/><path fill="#f0d2c2" d="M 279.742188 188.910156 L 185.933594 130.625 L 213.542969 86.046875 L 307.351562 144.332031 L 279.742188 188.910156 " fill-opacity="1" fill-rule="nonzero"/><path fill="#f0d2c2" d="M 234.523438 158.257812 C 234.523438 158.257812 229.921875 162.703125 233.78125 165.101562 C 237.652344 167.507812 242.269531 170.375 245.601562 172.445312 C 248.5625 174.285156 251.550781 172.125 253.441406 168.027344 C 255.328125 163.929688 234.523438 158.257812 234.523438 158.257812 " fill-opacity="1" fill-rule="nonzero"/><path fill="#2d2745" d="M 234 101.476562 C 236.128906 106.976562 234.570312 113.347656 232.34375 118.613281 C 229.503906 125.316406 225.066406 131.421875 219.699219 136.316406 C 216.757812 138.992188 213.46875 141.289062 209.847656 142.941406 C 209.226562 143.226562 209.074219 144.121094 209.394531 144.667969 C 209.765625 145.304688 210.496094 145.402344 211.117188 145.121094 C 218.03125 141.964844 223.789062 136.539062 228.316406 130.511719 C 232.605469 124.800781 236.160156 117.984375 237.203125 110.84375 C 237.691406 107.496094 237.664062 103.996094 236.429688 100.804688 C 236.183594 100.167969 235.582031 99.730469 234.878906 99.921875 C 234.273438 100.089844 233.753906 100.835938 234 101.476562 " fill-opacity="1" fill-rule="nonzero"/><path fill="#f0d2c2" d="M 207.535156 113.179688 C 199.910156 125.488281 190.238281 133.296875 185.933594 130.625 C 181.628906 127.949219 184.320312 115.804688 191.945312 103.492188 C 199.570312 91.183594 209.238281 83.375 213.542969 86.046875 C 217.847656 88.722656 215.15625 100.867188 207.535156 113.179688 " fill-opacity="1" fill-rule="nonzero"/><path fill="#f0d2c2" d="M 260.933594 123.84375 L 224.53125 101.230469 L 235.246094 83.933594 L 271.644531 106.546875 L 260.933594 123.84375 " fill-opacity="1" fill-rule="nonzero"/><path fill="#f0d2c2" d="M 269.3125 117.074219 C 266.355469 121.851562 262.601562 124.882812 260.933594 123.84375 C 259.261719 122.808594 260.304688 118.09375 263.265625 113.316406 C 266.222656 108.542969 269.976562 105.511719 271.644531 106.546875 C 273.3125 107.585938 272.273438 112.300781 269.3125 117.074219 " fill-opacity="1" fill-rule="nonzero"/><path fill="#f0d2c2" d="M 232.914062 94.460938 C 229.953125 99.234375 226.203125 102.265625 224.53125 101.230469 C 222.863281 100.191406 223.90625 95.476562 226.863281 90.703125 C 229.824219 85.925781 233.574219 82.894531 235.246094 83.933594 C 236.914062 84.96875 235.871094 89.683594 232.914062 94.460938 " fill-opacity="1" fill-rule="nonzero"/><path fill="#2d2745" d="M 287.746094 134.867188 C 289.875 140.367188 288.316406 146.742188 286.085938 152.007812 C 283.25 158.710938 278.8125 164.816406 273.445312 169.707031 C 270.503906 172.386719 267.214844 174.683594 263.59375 176.335938 C 262.972656 176.617188 262.824219 177.515625 263.140625 178.0625 C 263.511719 178.699219 264.242188 178.796875 264.863281 178.515625 C 271.777344 175.359375 277.535156 169.933594 282.0625 163.90625 C 286.351562 158.191406 289.910156 151.378906 290.949219 144.234375 C 291.4375 140.890625 291.410156 137.390625 290.171875 134.199219 C 289.929688 133.5625 289.328125 133.125 288.625 133.316406 C 288.019531 133.484375 287.5 134.230469 287.746094 134.867188 " fill-opacity="1" fill-rule="nonzero"/><path fill="#2d2745" d="M 212.613281 87.882812 C 214.742188 93.382812 213.183594 99.757812 210.953125 105.023438 C 208.117188 111.722656 203.679688 117.832031 198.308594 122.722656 C 195.371094 125.398438 192.082031 127.695312 188.457031 129.351562 C 187.839844 129.632812 187.6875 130.527344 188.007812 131.074219 C 188.378906 131.710938 189.109375 131.8125 189.726562 131.527344 C 196.640625 128.371094 202.402344 122.945312 206.925781 116.917969 C 211.21875 111.207031 214.773438 104.394531 215.816406 97.25 C 216.300781 93.902344 216.273438 90.402344 215.039062 87.210938 C 214.792969 86.578125 214.195312 86.136719 213.492188 86.332031 C 212.886719 86.496094 212.367188 87.242188 212.613281 87.882812 " fill-opacity="1" fill-rule="nonzero"/><path fill="#2d2745" d="M 307.710938 154.136719 C 307.328125 158.621094 305.726562 162.984375 303.675781 166.957031 C 301.355469 171.445312 298.378906 175.589844 294.878906 179.226562 C 292.90625 181.277344 290.765625 183.171875 288.441406 184.820312 C 287.886719 185.210938 287.625 185.921875 287.988281 186.542969 C 288.3125 187.09375 289.152344 187.390625 289.710938 186.996094 C 298.277344 180.921875 305.179688 171.84375 308.570312 161.875 C 309.425781 159.367188 310.003906 156.777344 310.226562 154.136719 C 310.367188 152.519531 307.847656 152.53125 307.710938 154.136719 " fill-opacity="1" fill-rule="nonzero"/><path fill="#2d2745" d="M 224.132812 102.722656 C 233.332031 108.441406 242.535156 114.15625 251.734375 119.875 C 254.316406 121.476562 256.894531 123.082031 259.476562 124.683594 C 260.855469 125.539062 262.121094 123.359375 260.746094 122.503906 C 251.542969 116.785156 242.34375 111.070312 233.140625 105.355469 C 230.5625 103.75 227.980469 102.148438 225.402344 100.546875 C 224.023438 99.6875 222.757812 101.867188 224.132812 102.722656 " fill-opacity="1" fill-rule="nonzero"/><path fill="#2d2745" d="M 260.652344 124.9375 C 263.289062 124.027344 265.894531 122.601562 267.835938 120.566406 C 268.292969 120.089844 268.34375 119.25 267.835938 118.785156 C 267.34375 118.332031 266.542969 118.273438 266.058594 118.785156 C 265.855469 118.996094 265.640625 119.203125 265.421875 119.402344 C 265.304688 119.507812 265.183594 119.613281 265.058594 119.71875 C 265.003906 119.761719 264.949219 119.808594 264.890625 119.855469 C 264.894531 119.851562 264.640625 120.050781 264.761719 119.957031 C 264.875 119.871094 264.691406 120.011719 264.671875 120.027344 C 264.597656 120.078125 264.523438 120.136719 264.449219 120.1875 C 264.328125 120.273438 264.207031 120.359375 264.085938 120.441406 C 263.808594 120.628906 263.523438 120.808594 263.234375 120.980469 C 262.691406 121.304688 262.132812 121.601562 261.558594 121.871094 C 261.410156 121.941406 261.261719 122.007812 261.113281 122.074219 C 261.089844 122.085938 260.875 122.175781 261.011719 122.117188 C 261.164062 122.054688 260.894531 122.167969 260.863281 122.179688 C 260.574219 122.296875 260.28125 122.402344 259.984375 122.507812 C 259.363281 122.722656 258.886719 123.382812 259.105469 124.058594 C 259.304688 124.675781 259.988281 125.167969 260.652344 124.9375 " fill-opacity="1" fill-rule="nonzero"/><path fill="#2d2745" d="M 225.402344 100.546875 C 225.160156 100.386719 225.472656 100.628906 225.425781 100.570312 C 225.382812 100.523438 225.328125 100.484375 225.285156 100.4375 C 225.261719 100.414062 225.238281 100.386719 225.21875 100.363281 C 225.136719 100.265625 225.160156 100.296875 225.292969 100.460938 C 225.265625 100.460938 225.1875 100.308594 225.175781 100.289062 C 225.121094 100.195312 224.988281 100.027344 224.984375 99.910156 C 225.058594 100.101562 225.074219 100.128906 225.023438 100.007812 C 225.015625 99.984375 225.007812 99.957031 225 99.933594 C 224.972656 99.863281 224.949219 99.789062 224.925781 99.714844 C 224.878906 99.550781 224.835938 99.382812 224.804688 99.210938 C 224.785156 99.117188 224.769531 99.023438 224.753906 98.925781 C 224.707031 98.675781 224.777344 99.207031 224.753906 98.929688 C 224.722656 98.570312 224.699219 98.214844 224.699219 97.851562 C 224.699219 97.492188 224.71875 97.132812 224.753906 96.777344 C 224.765625 96.691406 224.773438 96.609375 224.785156 96.523438 C 224.8125 96.25 224.738281 96.785156 224.78125 96.535156 C 224.808594 96.367188 224.835938 96.199219 224.871094 96.03125 C 224.929688 95.746094 225 95.460938 225.09375 95.183594 C 225.113281 95.125 225.132812 95.066406 225.152344 95.007812 C 225.226562 94.792969 225.164062 95.023438 225.109375 95.101562 C 225.171875 95.011719 225.210938 94.890625 225.265625 94.796875 C 225.605469 94.230469 225.410156 93.386719 224.816406 93.070312 C 224.207031 92.75 223.457031 92.917969 223.09375 93.523438 C 222.753906 94.085938 222.566406 94.757812 222.4375 95.398438 C 222.265625 96.257812 222.171875 97.148438 222.179688 98.027344 C 222.203125 99.746094 222.585938 101.722656 224.132812 102.722656 C 224.6875 103.082031 225.546875 102.855469 225.855469 102.269531 C 226.183594 101.644531 225.992188 100.925781 225.402344 100.546875 " fill-opacity="1" fill-rule="nonzero"/><path fill="#2d2745" d="M 225.097656 102.859375 C 232.160156 100.222656 237.046875 93.359375 236.964844 85.765625 C 236.949219 84.144531 234.429688 84.136719 234.449219 85.765625 C 234.515625 92.175781 230.441406 98.179688 224.425781 100.425781 C 222.921875 100.988281 223.574219 103.425781 225.097656 102.859375 " fill-opacity="1" fill-rule="nonzero"/><path fill="#2d2745" d="M 251.25 119.109375 C 258.316406 116.472656 263.203125 109.609375 263.117188 102.015625 C 263.101562 100.394531 260.582031 100.386719 260.601562 102.015625 C 260.667969 108.425781 256.597656 114.433594 250.582031 116.675781 C 249.078125 117.238281 249.730469 119.675781 251.25 119.109375 " fill-opacity="1" fill-rule="nonzero"/><path fill="#2d2745" d="M 245.902344 115.785156 C 252.964844 113.148438 257.851562 106.289062 257.769531 98.691406 C 257.753906 97.070312 255.234375 97.066406 255.253906 98.691406 C 255.320312 105.101562 251.25 111.109375 245.234375 113.351562 C 243.726562 113.917969 244.378906 116.355469 245.902344 115.785156 " fill-opacity="1" fill-rule="nonzero"/><path fill="#2d2745" d="M 202.644531 110.140625 C 197.707031 118.117188 192 123.523438 189.902344 122.21875 C 187.808594 120.917969 190.109375 113.398438 195.050781 105.421875 C 199.988281 97.445312 205.691406 92.039062 207.789062 93.34375 C 209.886719 94.644531 207.582031 102.167969 202.644531 110.140625 " fill-opacity="1" fill-rule="nonzero"/><path fill="#2d2745" d="M 236.628906 154.84375 C 243.089844 158.761719 249.550781 162.679688 256.011719 166.597656 C 257.402344 167.4375 258.667969 165.257812 257.285156 164.417969 C 250.824219 160.5 244.359375 156.585938 237.902344 152.667969 C 236.511719 151.824219 235.246094 154.003906 236.628906 154.84375 " fill-opacity="1" fill-rule="nonzero"/><path fill="#2d2745" d="M 253.234375 172.105469 C 254.375 171.347656 255.285156 170.328125 256.09375 169.234375 C 256.851562 168.214844 257.503906 167.066406 257.863281 165.84375 C 258.046875 165.210938 257.640625 164.441406 256.984375 164.292969 C 256.308594 164.136719 255.632812 164.496094 255.433594 165.171875 C 255.398438 165.292969 255.359375 165.414062 255.320312 165.535156 C 255.296875 165.59375 255.277344 165.648438 255.253906 165.703125 C 255.238281 165.75 255.152344 165.957031 255.234375 165.761719 C 255.316406 165.5625 255.226562 165.777344 255.207031 165.820312 C 255.171875 165.890625 255.140625 165.964844 255.105469 166.035156 C 255.046875 166.152344 254.988281 166.273438 254.921875 166.390625 C 254.644531 166.914062 254.324219 167.414062 253.972656 167.894531 C 253.929688 167.953125 253.886719 168.007812 253.84375 168.066406 C 253.75 168.195312 254 167.867188 253.855469 168.050781 C 253.765625 168.164062 253.675781 168.273438 253.585938 168.382812 C 253.394531 168.605469 253.199219 168.824219 252.996094 169.035156 C 252.800781 169.230469 252.601562 169.421875 252.390625 169.605469 C 252.335938 169.652344 252.277344 169.699219 252.21875 169.746094 C 252.089844 169.855469 252.261719 169.710938 252.300781 169.6875 C 252.183594 169.753906 252.074219 169.851562 251.960938 169.925781 C 251.414062 170.289062 251.125 171.058594 251.511719 171.652344 C 251.863281 172.199219 252.644531 172.492188 253.234375 172.105469 " fill-opacity="1" fill-rule="nonzero"/><path fill="#2d2745" d="M 233.847656 160.351562 C 234.988281 159.59375 235.902344 158.578125 236.710938 157.484375 C 237.46875 156.464844 238.121094 155.316406 238.476562 154.089844 C 238.664062 153.457031 238.257812 152.6875 237.601562 152.539062 C 236.925781 152.386719 236.25 152.742188 236.050781 153.421875 C 236.015625 153.542969 235.976562 153.664062 235.933594 153.785156 C 235.914062 153.839844 235.894531 153.894531 235.871094 153.953125 C 235.855469 153.996094 235.769531 154.207031 235.851562 154.007812 C 235.933594 153.8125 235.84375 154.027344 235.820312 154.066406 C 235.789062 154.140625 235.757812 154.210938 235.722656 154.28125 C 235.664062 154.402344 235.601562 154.519531 235.539062 154.636719 C 235.261719 155.160156 234.9375 155.664062 234.589844 156.140625 C 234.546875 156.199219 234.503906 156.257812 234.460938 156.316406 C 234.367188 156.441406 234.617188 156.117188 234.472656 156.296875 C 234.382812 156.410156 234.292969 156.519531 234.199219 156.628906 C 234.011719 156.855469 233.816406 157.070312 233.613281 157.28125 C 233.417969 157.480469 233.21875 157.671875 233.007812 157.851562 C 232.949219 157.898438 232.894531 157.949219 232.835938 157.996094 C 232.703125 158.105469 232.878906 157.957031 232.917969 157.933594 C 232.800781 158 232.691406 158.097656 232.578125 158.175781 C 232.027344 158.539062 231.742188 159.304688 232.125 159.898438 C 232.476562 160.445312 233.261719 160.742188 233.847656 160.351562 " fill-opacity="1" fill-rule="nonzero"/><path fill="#2d2745" d="M 236.878906 191.445312 C 239.488281 192.757812 242.453125 192.804688 245.121094 191.652344 C 245.730469 191.390625 245.910156 190.449219 245.570312 189.925781 C 245.167969 189.296875 244.5 189.195312 243.847656 189.472656 C 244.085938 189.371094 243.65625 189.546875 243.609375 189.5625 C 243.484375 189.605469 243.355469 189.648438 243.222656 189.6875 C 242.945312 189.769531 242.664062 189.835938 242.378906 189.886719 C 242.351562 189.894531 241.976562 189.949219 242.253906 189.914062 C 242.101562 189.933594 241.945312 189.949219 241.789062 189.957031 C 241.519531 189.976562 241.25 189.980469 240.976562 189.972656 C 240.839844 189.96875 240.707031 189.960938 240.574219 189.953125 C 240.515625 189.949219 240.109375 189.902344 240.386719 189.9375 C 240.117188 189.902344 239.851562 189.851562 239.589844 189.785156 C 239.328125 189.722656 239.066406 189.644531 238.808594 189.554688 C 238.769531 189.539062 238.335938 189.363281 238.570312 189.464844 C 238.429688 189.402344 238.289062 189.335938 238.152344 189.265625 C 237.566406 188.96875 236.761719 189.089844 236.429688 189.71875 C 236.128906 190.292969 236.253906 191.128906 236.878906 191.445312 " fill-opacity="1" fill-rule="nonzero"/><path fill="#2d2745" d="M 237.90625 168.167969 C 238.230469 168.125 238.558594 168.105469 238.886719 168.117188 C 239.066406 168.121094 239.25 168.136719 239.429688 168.15625 C 239.3125 168.144531 239.289062 168.132812 239.417969 168.160156 C 239.507812 168.179688 239.597656 168.195312 239.6875 168.214844 C 239.847656 168.25 240.007812 168.292969 240.164062 168.339844 C 240.25 168.367188 240.335938 168.398438 240.421875 168.429688 C 240.441406 168.4375 240.660156 168.515625 240.523438 168.464844 C 240.371094 168.40625 240.644531 168.519531 240.671875 168.53125 C 240.738281 168.5625 240.804688 168.597656 240.867188 168.628906 C 241.027344 168.714844 241.183594 168.804688 241.332031 168.902344 C 241.390625 168.9375 241.445312 168.976562 241.5 169.015625 C 241.527344 169.035156 241.75 169.207031 241.617188 169.097656 C 241.496094 169 241.667969 169.140625 241.6875 169.160156 C 241.75 169.214844 241.8125 169.269531 241.875 169.328125 C 242.101562 169.535156 242.300781 169.761719 242.496094 169.996094 C 242.324219 169.789062 242.476562 169.972656 242.511719 170.023438 C 242.558594 170.09375 242.609375 170.160156 242.652344 170.230469 C 242.734375 170.359375 242.8125 170.492188 242.886719 170.625 C 242.957031 170.757812 243.019531 170.898438 243.089844 171.03125 C 243.042969 170.941406 243.03125 170.882812 243.078125 171.011719 C 243.113281 171.105469 243.148438 171.203125 243.183594 171.296875 C 243.394531 171.921875 244.054688 172.398438 244.730469 172.179688 C 245.347656 171.976562 245.835938 171.296875 245.609375 170.628906 C 245.074219 169.050781 244.070312 167.714844 242.6875 166.78125 C 241.316406 165.855469 239.542969 165.4375 237.90625 165.644531 C 237.558594 165.691406 237.273438 165.757812 237.015625 166.015625 C 236.796875 166.234375 236.632812 166.59375 236.648438 166.90625 C 236.675781 167.519531 237.207031 168.257812 237.90625 168.167969 " fill-opacity="1" fill-rule="nonzero"/><path fill="#aeb3bf" d="M 149.609375 115.472656 C 149.261719 108.5625 139.089844 108.375 138.738281 115.472656 C 137.457031 141.28125 136.175781 167.089844 134.894531 192.898438 C 134.808594 194.691406 135.320312 199.234375 138.96875 201.113281 C 145.363281 204.40625 151.738281 200.117188 153.039062 193.59375 C 153.789062 189.824219 150.488281 133.125 149.609375 115.472656 " fill-opacity="1" fill-rule="nonzero"/><path fill="#aeb3bf" d="M 127.296875 196.640625 L 127.296875 226.480469 C 127.296875 233.488281 138.167969 233.5 138.167969 226.480469 L 138.167969 196.640625 C 138.167969 189.632812 127.296875 189.621094 127.296875 196.640625 " fill-opacity="1" fill-rule="nonzero"/><path fill="#aeb3bf" d="M 149.492188 196.640625 L 149.492188 226.480469 C 149.492188 233.488281 160.363281 233.5 160.363281 226.480469 L 160.363281 196.640625 C 160.363281 189.632812 149.492188 189.621094 149.492188 196.640625 " fill-opacity="1" fill-rule="nonzero"/><path fill="#aeb3bf" d="M 137.15625 199.328125 L 137.15625 228.917969 C 137.15625 237.523438 150.503906 237.535156 150.503906 228.917969 L 150.503906 199.328125 C 150.503906 190.726562 137.15625 190.710938 137.15625 199.328125 " fill-opacity="1" fill-rule="nonzero"/><path fill="#2d2745" d="M 137.589844 161.847656 C 141.886719 163.125 146.550781 163.042969 150.792969 161.582031 C 151.433594 161.363281 151.859375 160.71875 151.671875 160.03125 C 151.5 159.40625 150.769531 158.929688 150.121094 159.152344 C 146.277344 160.472656 142.160156 160.574219 138.257812 159.414062 C 136.703125 158.953125 136.039062 161.386719 137.589844 161.847656 " fill-opacity="1" fill-rule="nonzero"/><path fill="#2d2745" d="M 138.984375 135.785156 C 142.371094 136.789062 146.050781 136.726562 149.394531 135.582031 C 150.035156 135.359375 150.460938 134.714844 150.273438 134.027344 C 150.101562 133.402344 149.371094 132.925781 148.726562 133.148438 C 145.78125 134.160156 142.640625 134.242188 139.652344 133.351562 C 138.097656 132.890625 137.433594 135.324219 138.984375 135.785156 " fill-opacity="1" fill-rule="nonzero"/><path fill="#2d2745" d="M 128.113281 217.488281 C 130.722656 220.042969 134.972656 220.128906 137.777344 217.867188 C 138.292969 217.449219 138.242188 216.507812 137.777344 216.082031 C 137.230469 215.578125 136.546875 215.640625 135.996094 216.082031 C 136.183594 215.929688 135.835938 216.195312 135.765625 216.238281 C 135.628906 216.328125 135.488281 216.410156 135.34375 216.484375 C 135.265625 216.527344 135.179688 216.5625 135.101562 216.605469 C 134.9375 216.695312 135.277344 216.542969 135.101562 216.609375 C 134.949219 216.664062 134.796875 216.722656 134.640625 216.769531 C 134.484375 216.816406 134.328125 216.855469 134.167969 216.890625 C 134.078125 216.910156 133.988281 216.925781 133.902344 216.941406 C 133.769531 216.964844 133.792969 216.953125 133.910156 216.945312 C 133.566406 216.972656 133.222656 216.996094 132.875 216.976562 C 132.710938 216.96875 132.546875 216.957031 132.386719 216.933594 C 132.503906 216.949219 132.527344 216.957031 132.394531 216.929688 C 132.308594 216.914062 132.21875 216.898438 132.128906 216.878906 C 131.808594 216.804688 131.5 216.703125 131.195312 216.589844 C 131.019531 216.523438 131.359375 216.675781 131.195312 216.585938 C 131.117188 216.542969 131.03125 216.507812 130.953125 216.464844 C 130.808594 216.390625 130.667969 216.308594 130.53125 216.222656 C 130.460938 216.175781 130.113281 215.914062 130.300781 216.066406 C 130.160156 215.953125 130.023438 215.832031 129.894531 215.703125 C 129.421875 215.242188 128.578125 215.199219 128.113281 215.703125 C 127.65625 216.203125 127.609375 216.996094 128.113281 217.488281 " fill-opacity="1" fill-rule="nonzero"/><path fill="#2d2745" d="M 157.796875 215.703125 C 157.679688 215.820312 157.554688 215.921875 157.433594 216.035156 C 157.332031 216.128906 157.578125 215.9375 157.386719 216.070312 C 157.328125 216.109375 157.269531 216.152344 157.207031 216.191406 C 157.074219 216.28125 156.933594 216.363281 156.789062 216.441406 C 156.726562 216.472656 156.308594 216.667969 156.550781 216.570312 C 156.246094 216.695312 155.933594 216.792969 155.617188 216.863281 C 155.527344 216.886719 155.4375 216.902344 155.347656 216.921875 C 155.292969 216.933594 155.035156 216.96875 155.304688 216.933594 C 155.144531 216.957031 154.980469 216.96875 154.816406 216.976562 C 154.488281 216.992188 154.164062 216.96875 153.835938 216.949219 C 153.644531 216.9375 154.03125 216.988281 153.84375 216.949219 C 153.757812 216.933594 153.667969 216.921875 153.578125 216.902344 C 153.417969 216.871094 153.257812 216.828125 153.101562 216.785156 C 152.945312 216.738281 152.792969 216.683594 152.640625 216.628906 C 152.527344 216.585938 152.535156 216.578125 152.640625 216.628906 C 152.558594 216.589844 152.476562 216.550781 152.394531 216.511719 C 152.25 216.4375 152.109375 216.355469 151.972656 216.269531 C 151.910156 216.230469 151.847656 216.191406 151.789062 216.148438 C 151.765625 216.132812 151.484375 215.914062 151.695312 216.082031 C 151.183594 215.671875 150.410156 215.542969 149.914062 216.082031 C 149.496094 216.542969 149.367188 217.425781 149.914062 217.867188 C 152.71875 220.128906 156.96875 220.042969 159.578125 217.488281 C 160.050781 217.023438 160.074219 216.160156 159.578125 215.703125 C 159.070312 215.238281 158.300781 215.210938 157.796875 215.703125 " fill-opacity="1" fill-rule="nonzero"/><path fill="#2d2745" d="M 137.171875 219.941406 C 140.835938 223.273438 146.6875 223.308594 150.417969 220.070312 C 150.933594 219.621094 150.875 218.742188 150.417969 218.285156 C 149.910156 217.777344 149.152344 217.839844 148.636719 218.285156 C 145.972656 220.601562 141.5625 220.53125 138.953125 218.15625 C 137.753906 217.070312 135.96875 218.847656 137.171875 219.941406 " fill-opacity="1" fill-rule="nonzero"/><path fill="#2d2745" d="M 148.957031 195.242188 C 148.957031 206.128906 148.957031 217.015625 148.957031 227.90625 C 148.957031 229.527344 151.476562 229.53125 151.476562 227.90625 C 151.476562 217.015625 151.476562 206.128906 151.476562 195.242188 C 151.476562 193.617188 148.957031 193.617188 148.957031 195.242188 " fill-opacity="1" fill-rule="nonzero"/><path fill="#2d2745" d="M 136.804688 195.242188 C 136.804688 206.128906 136.804688 217.015625 136.804688 227.90625 C 136.804688 229.527344 139.320312 229.53125 139.320312 227.90625 C 139.320312 217.015625 139.320312 206.128906 139.320312 195.242188 C 139.320312 193.617188 136.804688 193.617188 136.804688 195.242188 " fill-opacity="1" fill-rule="nonzero"/><path fill="#2d2745" d="M 134.992188 194.195312 C 140.464844 198.320312 147.988281 197.910156 153.300781 193.761719 C 153.835938 193.34375 153.738281 192.417969 153.300781 191.980469 C 152.769531 191.449219 152.058594 191.558594 151.519531 191.980469 C 147.042969 195.472656 140.753906 195.40625 136.261719 192.019531 C 135.71875 191.609375 134.855469 191.929688 134.539062 192.472656 C 134.160156 193.117188 134.445312 193.785156 134.992188 194.195312 " fill-opacity="1" fill-rule="nonzero"/><path fill="#ffbb5c" d="M 183.226562 215.386719 C 182.351562 211.832031 177.828125 210.164062 174.964844 212.550781 C 173.023438 214.171875 172.476562 217.070312 173.785156 219.253906 C 175.035156 221.335938 177.84375 222.347656 180.101562 221.398438 C 182.433594 220.410156 183.835938 217.878906 183.226562 215.386719 " fill-opacity="1" fill-rule="nonzero"/><path fill="#ffbb5c" d="M 110.53125 145.097656 C 109.9375 142.671875 106.847656 141.53125 104.890625 143.164062 C 103.5625 144.269531 103.191406 146.25 104.085938 147.742188 C 104.9375 149.164062 106.855469 149.855469 108.398438 149.203125 C 109.992188 148.53125 110.949219 146.800781 110.53125 145.097656 " fill-opacity="1" fill-rule="nonzero"/><path fill="#ffbb5c" d="M 62.847656 156.433594 C 60.519531 155.539062 57.820312 157.425781 58.039062 159.964844 C 58.1875 161.691406 59.597656 163.128906 61.332031 163.242188 C 62.984375 163.355469 64.644531 162.171875 64.992188 160.535156 C 65.351562 158.839844 64.480469 157.0625 62.847656 156.433594 " fill-opacity="1" fill-rule="nonzero"/></svg>