<svg xmlns="http://www.w3.org/2000/svg" xmlns:xlink="http://www.w3.org/1999/xlink" width="500" zoomAndPan="magnify" viewBox="0 0 375 374.999991" height="500" preserveAspectRatio="xMidYMid meet" version="1.0"><path fill="#20639b" d="M 283.15625 242.691406 C 277.425781 244.0625 267.398438 245.007812 255.351562 239.910156 C 252.804688 238.832031 249.949219 238.808594 247.371094 239.816406 C 233.734375 245.132812 212.203125 244.800781 200.140625 242.007812 C 190.5625 239.792969 188.25 244.917969 192.5625 249.601562 C 200.882812 258.644531 214.035156 258.679688 221.617188 271.972656 C 229.195312 285.265625 228.214844 291.558594 230.53125 293.035156 C 232.847656 294.511719 243.695312 292.214844 245.832031 287.589844 C 247.09375 284.847656 235.113281 282.210938 232.566406 268.175781 C 232.144531 265.851562 257.199219 274.507812 272.355469 264.378906 C 281.066406 258.554688 285.046875 251.699219 286.859375 246.910156 C 287.757812 244.53125 285.625 242.101562 283.15625 242.695312 Z M 283.15625 242.691406 " fill-opacity="1" fill-rule="nonzero"/><path fill="#9068ba" d="M 154.558594 201.011719 C 154.558594 201.011719 160.410156 199.253906 169.042969 203.359375 C 176.519531 206.917969 190.363281 204.753906 197.734375 198.867188 C 199.640625 197.347656 202.230469 196.992188 204.457031 197.980469 C 207.976562 199.546875 213.898438 201.390625 222.148438 201.304688 C 236.339844 201.160156 237.800781 198.078125 240.4375 190.453125 C 243.070312 182.828125 240.894531 172.738281 230.195312 170.214844 C 225.371094 169.078125 221.710938 169.65625 219.722656 170.207031 C 218.644531 170.507812 217.480469 170.324219 216.546875 169.695312 C 212.992188 167.308594 203.410156 162.199219 191.128906 166.105469 C 175.476562 171.09375 172.109375 179.15625 172.109375 179.15625 C 172.109375 179.15625 139.1875 179.738281 128.800781 203.644531 C 118.414062 227.546875 140.503906 241.625 156.164062 242.359375 C 171.816406 243.09375 185.132812 236.785156 192.449219 235.613281 C 199.761719 234.4375 209.710938 241.914062 228.878906 238.984375 C 248.046875 236.050781 252.726562 232.527344 253.019531 223.585938 C 253.308594 214.640625 244.386719 211.558594 241.460938 208.625 C 238.535156 205.695312 237.949219 203.199219 228 204.664062 C 219.410156 205.933594 210.613281 204.425781 204.28125 202.058594 C 202.425781 201.363281 200.371094 201.460938 198.605469 202.375 C 194.589844 204.453125 187.144531 209.472656 177.375 208.035156 C 171.378906 207.15625 165.964844 218.890625 161.132812 223.433594 C 161.132812 223.433594 166.402344 211.703125 166.695312 207.597656 C 166.984375 203.492188 154.546875 200.996094 154.546875 200.996094 Z M 154.558594 201.011719 " fill-opacity="1" fill-rule="nonzero"/><path fill="#3ca277" d="M 301.519531 219.367188 C 309.445312 220.390625 310.839844 210.441406 310.839844 210.441406 C 313.375 200.28125 310.867188 193.933594 308.945312 190.867188 C 308.058594 189.453125 307.992188 187.675781 308.804688 186.222656 C 310.703125 182.835938 313.257812 176.296875 310.140625 169.128906 C 306.980469 161.875 299.835938 158.707031 290.378906 164.675781 C 285.71875 167.621094 282.863281 171.703125 281.167969 175.085938 C 279.6875 178.039062 276.328125 179.59375 273.144531 178.722656 C 264.0625 176.230469 254.152344 180.273438 248.789062 186.167969 C 242.261719 193.34375 242.054688 205.371094 250.054688 210.015625 C 258.054688 214.65625 257.632812 225.632812 257.214844 229.214844 C 256.789062 232.800781 256.160156 239.132812 273.425781 237.660156 C 278.734375 237.207031 283.429688 235.910156 286.285156 233.914062 C 289.144531 231.914062 296.132812 230.496094 295.589844 223.769531 C 295.3125 220.367188 291.789062 218.335938 289.628906 216.253906 C 287.535156 214.234375 285.519531 212.269531 284.164062 210.941406 C 283.214844 210.015625 281.808594 209.78125 280.589844 210.296875 C 274.933594 212.699219 267.535156 209.503906 267.535156 209.503906 C 267.535156 209.503906 278.378906 210.480469 280.128906 204.972656 C 281.605469 200.320312 279.90625 192.921875 279.90625 192.921875 C 282.625 195.746094 283.421875 201.160156 283.652344 203.59375 C 283.730469 204.445312 284.066406 205.246094 284.613281 205.902344 C 287.277344 209.078125 295.480469 218.324219 301.515625 219.367188 Z M 301.519531 219.367188 " fill-opacity="1" fill-rule="nonzero"/><path fill="#ed553b" d="M 266.902344 174.324219 C 258.230469 174.644531 254.429688 177.914062 250.394531 180.074219 C 246.167969 182.339844 244.445312 178.902344 242.230469 174.59375 C 240.722656 171.664062 241.714844 169.621094 242.953125 168.453125 C 244.191406 167.285156 245.511719 165.609375 250.613281 165.828125 C 255.714844 166.046875 258.632812 162.613281 258.632812 162.613281 C 254.789062 163.925781 249.796875 164.019531 247.078125 161.902344 C 244.363281 159.78125 244.0625 149.398438 244.0625 149.398438 C 241.75 153.730469 242.652344 158.574219 242.652344 161.097656 C 242.652344 163.621094 241.84375 164.527344 239.832031 166.542969 C 237.820312 168.558594 236.007812 168.964844 230.777344 166.742188 C 227.042969 165.160156 222.691406 165.277344 220.515625 165.472656 C 219.609375 165.554688 218.707031 165.324219 217.9375 164.84375 C 210.183594 159.933594 201.636719 161.234375 198.570312 159.601562 C 195.347656 157.886719 189.824219 149.5 193.246094 136.488281 C 195.683594 127.207031 201.835938 122.191406 205.160156 120.078125 C 206.445312 119.261719 207.347656 117.960938 207.636719 116.472656 C 209.359375 107.398438 219.816406 92.335938 236.542969 94.003906 C 254.839844 95.832031 259.433594 108.765625 259.433594 108.765625 C 259.433594 108.765625 268.765625 109.128906 277.878906 116.292969 C 286.992188 123.453125 287.5 135.4375 287.5 135.4375 C 287.5 135.4375 295.300781 139.015625 296.6875 145.957031 C 298.070312 152.898438 296.75 157.445312 292.683594 159.210938 C 287.074219 161.648438 282.820312 167.71875 280.929688 170.25 C 279.035156 172.785156 276.242188 173.363281 276.8125 167.574219 C 277.390625 161.789062 281.566406 148.5625 268.773438 140.558594 C 255.984375 132.558594 240.796875 131.035156 237.816406 129.011719 C 234.832031 126.984375 233.441406 121.636719 234.457031 120.078125 C 235.46875 118.519531 238.714844 117.164062 238.714844 109.582031 C 238.714844 109.582031 236.417969 116.894531 231.960938 118.453125 C 227.503906 120.011719 222.296875 115.207031 222.296875 115.207031 C 222.296875 115.207031 221.828125 118.488281 229.523438 120.828125 C 231.757812 121.503906 233.179688 127.058594 233.042969 129.828125 C 232.90625 132.605469 227.050781 138.074219 223.730469 138.929688 C 221.234375 139.570312 216.640625 138.734375 213.3125 140.867188 C 213.3125 140.867188 220.859375 141.242188 222.230469 143.101562 C 225.269531 147.234375 224.527344 153.730469 224.527344 153.730469 C 224.527344 153.730469 227.042969 149.363281 226.351562 144.59375 C 225.609375 139.449219 234.726562 133.964844 237.160156 133.625 C 239.589844 133.289062 252.359375 135.722656 264.3125 141.953125 C 276.269531 148.183594 275.308594 159.429688 273.839844 167.613281 C 272.882812 172.933594 273.078125 174.109375 266.910156 174.335938 Z M 266.902344 174.324219 " fill-opacity="1" fill-rule="nonzero"/><path fill="#f6b023" d="M 153.710938 94.1875 C 153.710938 94.1875 157.140625 81.226562 183.144531 86.382812 C 183.144531 86.382812 189.066406 80.761719 204.324219 84.351562 C 219.585938 87.941406 214.914062 94.964844 211.800781 99.023438 C 208.902344 102.796875 204.660156 107.785156 203.082031 113.859375 C 202.859375 114.722656 202.351562 115.488281 201.628906 116.003906 C 198.820312 117.996094 191.578125 124.0625 188.597656 135.386719 C 184.859375 149.589844 190.46875 155.992188 190.46875 159.425781 C 190.46875 162.859375 177.230469 164.574219 170.382812 174.253906 C 170.382812 174.253906 141.574219 175.191406 128.023438 195.484375 C 114.472656 215.777344 92.824219 215.460938 83.949219 204.066406 C 75.078125 192.671875 79.4375 180.96875 79.4375 180.96875 C 79.4375 180.96875 61.371094 169.886719 72.582031 152.089844 C 83.796875 134.296875 121.898438 134.5 125.527344 138.199219 C 132.871094 145.671875 139.390625 145.222656 139.390625 145.222656 C 139.390625 145.222656 128.765625 139.375 128.347656 134.59375 C 127.929688 129.808594 141.246094 125.109375 141.246094 125.109375 C 141.246094 125.109375 132.789062 123.847656 125.082031 131.574219 C 123.238281 133.417969 98.585938 133.96875 96.941406 131.238281 C 90.175781 119.964844 127.925781 93.882812 146.433594 101.859375 C 164.941406 109.832031 162.402344 119.398438 161.84375 127.640625 C 161.285156 135.882812 161.410156 143.535156 144.964844 152.617188 C 128.519531 161.695312 120.027344 163.265625 102.328125 153.207031 C 102.328125 153.207031 111.0625 159.625 110.914062 162.011719 C 110.585938 167.375 101.164062 172.457031 101.164062 172.457031 C 101.164062 172.457031 108.605469 169.742188 112.121094 165.65625 C 115.910156 161.242188 119.726562 162.027344 122.035156 163.363281 C 125.898438 165.601562 117.304688 179.824219 112.070312 182.015625 C 106.3125 184.425781 100.421875 189.914062 100.421875 189.914062 C 100.421875 189.914062 109.777344 184.164062 113.796875 185.582031 C 117.816406 186.996094 120.886719 193.421875 120.886719 193.421875 C 120.886719 193.421875 117.683594 185.214844 118.355469 182.234375 C 119.027344 179.246094 125.578125 167.238281 129.070312 164.253906 C 132.570312 161.269531 145.984375 155.738281 152.515625 150.675781 C 159.144531 145.542969 161.449219 143.515625 163.832031 145.976562 C 166.214844 148.4375 162.863281 156.195312 165.320312 162.613281 C 165.320312 162.613281 166.0625 153.730469 169.410156 150.601562 C 172.757812 147.46875 179.460938 150.75 179.460938 150.75 C 179.460938 150.75 175.816406 147.316406 171.046875 146.121094 C 166.285156 144.929688 164.722656 142.320312 164.574219 139.1875 C 164.425781 136.054688 165.378906 122.277344 167.222656 119.964844 C 170.265625 116.148438 176.339844 112.328125 179.683594 112.328125 C 182.441406 112.328125 184.894531 118.292969 189.960938 118.148438 C 189.960938 118.148438 184.152344 114.046875 183.261719 108.449219 C 182.371094 102.875 189.511719 100.390625 189.511719 100.390625 C 189.511719 100.390625 183.40625 99.648438 180.355469 105.539062 C 177.304688 111.433594 168.332031 114.519531 166.4375 114.046875 C 163.457031 113.300781 163.457031 108.300781 156.386719 102.929688 C 152.710938 100.136719 152.582031 98.425781 153.703125 94.1875 Z M 153.710938 94.1875 " fill-opacity="1" fill-rule="nonzero"/></svg>