<svg xmlns="http://www.w3.org/2000/svg" xmlns:xlink="http://www.w3.org/1999/xlink" width="500" zoomAndPan="magnify" viewBox="0 0 375 374.999991" height="500" preserveAspectRatio="xMidYMid meet" version="1.0"><defs><g/><clipPath id="f689be5004"><path d="M 73.171875 57.191406 L 304 57.191406 L 304 260.441406 L 73.171875 260.441406 Z M 73.171875 57.191406 " clip-rule="nonzero"/></clipPath><clipPath id="b02822d25b"><path d="M 156 117 L 225 117 L 225 223 L 156 223 Z M 156 117 " clip-rule="nonzero"/></clipPath><clipPath id="d4d8983ef9"><path d="M 98.980469 106.890625 L 244.746094 71.488281 L 278.554688 210.691406 L 132.792969 246.09375 Z M 98.980469 106.890625 " clip-rule="nonzero"/></clipPath><clipPath id="4278fb57e3"><path d="M 98.980469 106.890625 L 244.746094 71.488281 L 278.554688 210.691406 L 132.792969 246.09375 Z M 98.980469 106.890625 " clip-rule="nonzero"/></clipPath><clipPath id="c15186bb23"><path d="M 149 113 L 222 113 L 222 220 L 149 220 Z M 149 113 " clip-rule="nonzero"/></clipPath><clipPath id="77fae5e18c"><path d="M 98.980469 106.890625 L 244.746094 71.488281 L 278.554688 210.691406 L 132.792969 246.09375 Z M 98.980469 106.890625 " clip-rule="nonzero"/></clipPath><clipPath id="32439cc17a"><path d="M 98.980469 106.890625 L 244.746094 71.488281 L 278.554688 210.691406 L 132.792969 246.09375 Z M 98.980469 106.890625 " clip-rule="nonzero"/></clipPath><clipPath id="13a965e366"><path d="M 211 106 L 228 106 L 228 118 L 211 118 Z M 211 106 " clip-rule="nonzero"/></clipPath><clipPath id="53208f78f9"><path d="M 98.980469 106.890625 L 244.746094 71.488281 L 278.554688 210.691406 L 132.792969 246.09375 Z M 98.980469 106.890625 " clip-rule="nonzero"/></clipPath><clipPath id="473085ce7b"><path d="M 98.980469 106.890625 L 244.746094 71.488281 L 278.554688 210.691406 L 132.792969 246.09375 Z M 98.980469 106.890625 " clip-rule="nonzero"/></clipPath><clipPath id="7801f45bc5"><path d="M 135 215 L 156 215 L 156 240 L 135 240 Z M 135 215 " clip-rule="nonzero"/></clipPath><clipPath id="deffac5e8a"><path d="M 98.980469 106.890625 L 244.746094 71.488281 L 278.554688 210.691406 L 132.792969 246.09375 Z M 98.980469 106.890625 " clip-rule="nonzero"/></clipPath><clipPath id="fb206b4e12"><path d="M 98.980469 106.890625 L 244.746094 71.488281 L 278.554688 210.691406 L 132.792969 246.09375 Z M 98.980469 106.890625 " clip-rule="nonzero"/></clipPath><clipPath id="55dc5740c4"><path d="M 216 100 L 231 100 L 231 112 L 216 112 Z M 216 100 " clip-rule="nonzero"/></clipPath><clipPath id="e93cf0ae7e"><path d="M 98.980469 106.890625 L 244.746094 71.488281 L 278.554688 210.691406 L 132.792969 246.09375 Z M 98.980469 106.890625 " clip-rule="nonzero"/></clipPath><clipPath id="bd86a95c65"><path d="M 98.980469 106.890625 L 244.746094 71.488281 L 278.554688 210.691406 L 132.792969 246.09375 Z M 98.980469 106.890625 " clip-rule="nonzero"/></clipPath><clipPath id="76272d610b"><path d="M 145 110 L 215 110 L 215 215 L 145 215 Z M 145 110 " clip-rule="nonzero"/></clipPath><clipPath id="befb674685"><path d="M 98.980469 106.890625 L 244.746094 71.488281 L 278.554688 210.691406 L 132.792969 246.09375 Z M 98.980469 106.890625 " clip-rule="nonzero"/></clipPath><clipPath id="4976898df2"><path d="M 98.980469 106.890625 L 244.746094 71.488281 L 278.554688 210.691406 L 132.792969 246.09375 Z M 98.980469 106.890625 " clip-rule="nonzero"/></clipPath><clipPath id="90a2e8bd6a"><path d="M 132 239 L 138 239 L 138 246 L 132 246 Z M 132 239 " clip-rule="nonzero"/></clipPath><clipPath id="b1e5ed2598"><path d="M 98.980469 106.890625 L 244.746094 71.488281 L 278.554688 210.691406 L 132.792969 246.09375 Z M 98.980469 106.890625 " clip-rule="nonzero"/></clipPath><clipPath id="b49d1fe610"><path d="M 98.980469 106.890625 L 244.746094 71.488281 L 278.554688 210.691406 L 132.792969 246.09375 Z M 98.980469 106.890625 " clip-rule="nonzero"/></clipPath><clipPath id="948b934807"><path d="M 214 103 L 229 103 L 229 115 L 214 115 Z M 214 103 " clip-rule="nonzero"/></clipPath><clipPath id="c3c55ca3ef"><path d="M 98.980469 106.890625 L 244.746094 71.488281 L 278.554688 210.691406 L 132.792969 246.09375 Z M 98.980469 106.890625 " clip-rule="nonzero"/></clipPath><clipPath id="f2472f88f6"><path d="M 98.980469 106.890625 L 244.746094 71.488281 L 278.554688 210.691406 L 132.792969 246.09375 Z M 98.980469 106.890625 " clip-rule="nonzero"/></clipPath><clipPath id="84fd627e3a"><path d="M 217 93 L 236 93 L 236 110 L 217 110 Z M 217 93 " clip-rule="nonzero"/></clipPath><clipPath id="1e83ea2179"><path d="M 98.980469 106.890625 L 244.746094 71.488281 L 278.554688 210.691406 L 132.792969 246.09375 Z M 98.980469 106.890625 " clip-rule="nonzero"/></clipPath><clipPath id="087c1da4e5"><path d="M 98.980469 106.890625 L 244.746094 71.488281 L 278.554688 210.691406 L 132.792969 246.09375 Z M 98.980469 106.890625 " clip-rule="nonzero"/></clipPath><clipPath id="d911767bdb"><path d="M 222 89 L 239 89 L 239 101 L 222 101 Z M 222 89 " clip-rule="nonzero"/></clipPath><clipPath id="53c40f346b"><path d="M 98.980469 106.890625 L 244.746094 71.488281 L 278.554688 210.691406 L 132.792969 246.09375 Z M 98.980469 106.890625 " clip-rule="nonzero"/></clipPath><clipPath id="1a6ac04fe5"><path d="M 98.980469 106.890625 L 244.746094 71.488281 L 278.554688 210.691406 L 132.792969 246.09375 Z M 98.980469 106.890625 " clip-rule="nonzero"/></clipPath><clipPath id="64cb3abd5f"><path d="M 225 84 L 242 84 L 242 96 L 225 96 Z M 225 84 " clip-rule="nonzero"/></clipPath><clipPath id="5e564f613c"><path d="M 98.980469 106.890625 L 244.746094 71.488281 L 278.554688 210.691406 L 132.792969 246.09375 Z M 98.980469 106.890625 " clip-rule="nonzero"/></clipPath><clipPath id="1599684522"><path d="M 98.980469 106.890625 L 244.746094 71.488281 L 278.554688 210.691406 L 132.792969 246.09375 Z M 98.980469 106.890625 " clip-rule="nonzero"/></clipPath><clipPath id="9bd41d68c0"><path d="M 229 74 L 247 74 L 247 92 L 229 92 Z M 229 74 " clip-rule="nonzero"/></clipPath><clipPath id="ec94a19a4f"><path d="M 98.980469 106.890625 L 244.746094 71.488281 L 278.554688 210.691406 L 132.792969 246.09375 Z M 98.980469 106.890625 " clip-rule="nonzero"/></clipPath><clipPath id="9fe7b14a5a"><path d="M 98.980469 106.890625 L 244.746094 71.488281 L 278.554688 210.691406 L 132.792969 246.09375 Z M 98.980469 106.890625 " clip-rule="nonzero"/></clipPath><clipPath id="320065ce04"><path d="M 172.265625 143.550781 L 202.734375 143.550781 L 202.734375 174.019531 L 172.265625 174.019531 Z M 172.265625 143.550781 " clip-rule="nonzero"/></clipPath><clipPath id="86ee1182ed"><path d="M 187.5 143.550781 C 179.085938 143.550781 172.265625 150.371094 172.265625 158.785156 C 172.265625 167.199219 179.085938 174.019531 187.5 174.019531 C 195.914062 174.019531 202.734375 167.199219 202.734375 158.785156 C 202.734375 150.371094 195.914062 143.550781 187.5 143.550781 Z M 187.5 143.550781 " clip-rule="nonzero"/></clipPath><clipPath id="efd578f92e"><path d="M 172.265625 143.550781 L 202.722656 143.550781 L 202.722656 174.007812 L 172.265625 174.007812 Z M 172.265625 143.550781 " clip-rule="nonzero"/></clipPath><clipPath id="917a6919bc"><path d="M 187.496094 143.550781 C 179.085938 143.550781 172.265625 150.371094 172.265625 158.78125 C 172.265625 167.191406 179.085938 174.007812 187.496094 174.007812 C 195.90625 174.007812 202.722656 167.191406 202.722656 158.78125 C 202.722656 150.371094 195.90625 143.550781 187.496094 143.550781 Z M 187.496094 143.550781 " clip-rule="nonzero"/></clipPath></defs><g clip-path="url(#f689be5004)"><path fill="#ffffff" d="M 303.542969 158.761719 C 303.542969 143.140625 279.109375 131.585938 246.578125 125.363281 C 249.234375 117.730469 251.417969 110.335938 252.933594 103.433594 C 257.972656 80.390625 255.539062 64.691406 246.082031 59.230469 C 243.738281 57.878906 241.039062 57.191406 238.058594 57.191406 C 225.140625 57.191406 207.121094 70.210938 188.621094 91.667969 C 170.125 70.210938 152.105469 57.191406 139.175781 57.191406 C 136.203125 57.191406 133.5 57.878906 131.152344 59.230469 C 117.609375 67.046875 119.847656 94.035156 130.75 125.351562 C 98.171875 131.5625 73.691406 143.125 73.691406 158.761719 C 73.691406 174.386719 98.132812 185.933594 130.671875 192.160156 C 128.003906 199.796875 125.820312 207.183594 124.3125 214.085938 C 119.269531 237.132812 121.699219 252.832031 131.152344 258.289062 C 133.5 259.644531 136.203125 260.324219 139.175781 260.324219 C 152.105469 260.324219 170.125 247.300781 188.621094 225.851562 C 207.117188 247.300781 225.132812 260.332031 238.058594 260.332031 C 241.039062 260.332031 243.742188 259.644531 246.082031 258.289062 C 255.539062 252.832031 257.972656 237.132812 252.929688 214.085938 C 251.417969 207.183594 249.234375 199.796875 246.574219 192.160156 C 279.109375 185.9375 303.542969 174.386719 303.542969 158.761719 Z M 238.058594 63.128906 C 239.984375 63.128906 241.6875 63.558594 243.113281 64.378906 C 250.046875 68.378906 251.503906 82.152344 247.128906 102.164062 C 245.609375 109.113281 243.386719 116.5625 240.660156 124.300781 C 231.085938 122.703125 220.929688 121.554688 210.558594 120.875 C 204.648438 111.941406 198.59375 103.71875 192.550781 96.351562 C 209.976562 75.984375 226.878906 63.128906 238.058594 63.128906 Z M 216.917969 175.089844 C 213.757812 180.558594 210.496094 185.859375 207.167969 190.953125 C 201.199219 191.253906 195.015625 191.425781 188.621094 191.425781 C 182.226562 191.425781 176.039062 191.253906 170.078125 190.953125 C 166.738281 185.855469 163.480469 180.558594 160.328125 175.089844 C 157.136719 169.5625 154.191406 164.125 151.480469 158.816406 C 154.246094 153.371094 157.171875 147.890625 160.332031 142.425781 C 163.480469 136.964844 166.746094 131.667969 170.078125 126.566406 C 176.039062 126.261719 182.226562 126.09375 188.621094 126.09375 C 195.015625 126.09375 201.199219 126.261719 207.167969 126.566406 C 210.496094 131.671875 213.753906 136.964844 216.910156 142.425781 C 220.058594 147.875 222.976562 153.339844 225.742188 158.761719 C 222.976562 164.191406 220.0625 169.652344 216.917969 175.089844 Z M 229.003906 165.378906 C 232.652344 172.972656 235.902344 180.453125 238.660156 187.722656 C 231.1875 188.917969 223.125 189.851562 214.550781 190.488281 C 217.089844 186.464844 219.59375 182.316406 222.058594 178.066406 C 224.496094 173.84375 226.789062 169.605469 229.003906 165.378906 Z M 203.085938 197.054688 C 198.332031 203.992188 193.472656 210.511719 188.621094 216.464844 C 183.773438 210.507812 178.917969 203.992188 174.152344 197.054688 C 178.96875 197.257812 183.796875 197.371094 188.621094 197.371094 C 193.445312 197.367188 198.277344 197.257812 203.085938 197.054688 Z M 162.691406 190.488281 C 154.113281 189.851562 146.046875 188.917969 138.582031 187.722656 C 141.34375 180.464844 144.582031 172.980469 148.226562 165.378906 C 150.457031 169.652344 152.777344 173.886719 155.183594 178.066406 C 157.644531 182.316406 160.148438 186.464844 162.691406 190.488281 Z M 148.203125 152.207031 C 144.441406 144.417969 141.199219 136.914062 138.488281 129.816406 C 145.980469 128.621094 154.074219 127.675781 162.691406 127.03125 C 160.148438 131.054688 157.640625 135.199219 155.179688 139.460938 C 152.726562 143.703125 150.433594 147.964844 148.203125 152.207031 Z M 174.160156 120.476562 C 178.917969 113.535156 183.773438 107.019531 188.621094 101.054688 C 193.472656 107.019531 198.332031 113.535156 203.085938 120.476562 C 198.273438 120.265625 193.445312 120.152344 188.621094 120.152344 C 183.796875 120.15625 178.96875 120.265625 174.160156 120.476562 Z M 222.058594 139.460938 C 219.597656 135.1875 217.09375 131.054688 214.550781 127.03125 C 223.125 127.675781 231.1875 128.609375 238.660156 129.800781 C 235.902344 137.058594 232.652344 144.554688 229.003906 152.148438 C 226.789062 147.921875 224.496094 143.683594 222.058594 139.460938 Z M 134.128906 64.378906 C 135.550781 63.550781 137.253906 63.128906 139.175781 63.128906 C 150.355469 63.128906 167.257812 75.984375 184.6875 96.351562 C 178.652344 103.71875 172.59375 111.941406 166.679688 120.875 C 156.277344 121.554688 146.082031 122.71875 136.46875 124.324219 C 125.238281 92.617188 124.890625 69.707031 134.128906 64.378906 Z M 79.632812 158.761719 C 79.632812 148.101562 99.644531 136.941406 132.71875 130.8125 C 136.136719 139.945312 140.230469 149.359375 144.847656 158.714844 C 140.109375 168.234375 136.015625 177.632812 132.613281 186.683594 C 99.597656 180.558594 79.632812 169.40625 79.632812 158.761719 Z M 139.175781 254.390625 C 137.226562 254.390625 135.582031 253.980469 134.128906 253.15625 C 127.199219 249.152344 125.734375 235.378906 130.113281 215.363281 C 131.636719 208.414062 133.851562 200.953125 136.582031 193.21875 C 146.160156 194.820312 156.316406 195.96875 166.675781 196.648438 C 172.59375 205.578125 178.644531 213.800781 184.683594 221.175781 C 167.257812 241.539062 150.355469 254.390625 139.175781 254.390625 Z M 247.121094 215.359375 C 251.503906 235.375 250.042969 249.148438 243.113281 253.152344 C 241.679688 253.96875 239.984375 254.390625 238.058594 254.390625 C 226.878906 254.390625 209.976562 241.539062 192.550781 221.171875 C 198.59375 213.796875 204.648438 205.574219 210.566406 196.644531 C 220.929688 195.964844 231.085938 194.816406 240.660156 193.21875 C 243.386719 200.953125 245.609375 208.410156 247.121094 215.359375 Z M 244.625 186.683594 C 241.230469 177.644531 237.144531 168.265625 232.417969 158.761719 C 237.144531 149.257812 241.230469 139.875 244.628906 130.839844 C 277.636719 136.964844 297.609375 148.121094 297.609375 158.761719 C 297.609375 169.40625 277.636719 180.558594 244.625 186.683594 Z M 244.625 186.683594 " fill-opacity="1" fill-rule="nonzero"/></g><path fill="#ffffff" d="M 201.242188 158.761719 C 201.242188 159.589844 201.164062 160.410156 201 161.222656 C 200.839844 162.035156 200.597656 162.824219 200.28125 163.589844 C 199.964844 164.355469 199.578125 165.085938 199.117188 165.773438 C 198.65625 166.460938 198.132812 167.101562 197.546875 167.6875 C 196.960938 168.273438 196.320312 168.796875 195.632812 169.257812 C 194.945312 169.71875 194.214844 170.105469 193.449219 170.421875 C 192.683594 170.738281 191.894531 170.980469 191.082031 171.140625 C 190.269531 171.304688 189.449219 171.382812 188.621094 171.382812 C 187.789062 171.382812 186.96875 171.304688 186.15625 171.140625 C 185.34375 170.980469 184.554688 170.738281 183.789062 170.421875 C 183.023438 170.105469 182.296875 169.71875 181.605469 169.257812 C 180.917969 168.796875 180.28125 168.273438 179.695312 167.6875 C 179.105469 167.101562 178.585938 166.460938 178.125 165.773438 C 177.664062 165.085938 177.273438 164.355469 176.957031 163.589844 C 176.640625 162.824219 176.398438 162.035156 176.238281 161.222656 C 176.078125 160.410156 175.996094 159.589844 175.996094 158.761719 C 175.996094 157.929688 176.078125 157.109375 176.238281 156.296875 C 176.398438 155.484375 176.640625 154.695312 176.957031 153.929688 C 177.273438 153.164062 177.664062 152.4375 178.125 151.746094 C 178.585938 151.058594 179.105469 150.421875 179.695312 149.835938 C 180.28125 149.246094 180.917969 148.726562 181.605469 148.265625 C 182.296875 147.804688 183.023438 147.414062 183.789062 147.097656 C 184.554688 146.78125 185.34375 146.539062 186.15625 146.378906 C 186.96875 146.21875 187.789062 146.136719 188.621094 146.136719 C 189.449219 146.136719 190.269531 146.21875 191.082031 146.378906 C 191.894531 146.539062 192.683594 146.78125 193.449219 147.097656 C 194.214844 147.414062 194.945312 147.804688 195.632812 148.265625 C 196.320312 148.726562 196.960938 149.246094 197.546875 149.835938 C 198.132812 150.421875 198.65625 151.058594 199.117188 151.746094 C 199.578125 152.4375 199.964844 153.164062 200.28125 153.929688 C 200.597656 154.695312 200.839844 155.484375 201 156.296875 C 201.164062 157.109375 201.242188 157.929688 201.242188 158.761719 Z M 201.242188 158.761719 " fill-opacity="1" fill-rule="nonzero"/><g clip-path="url(#b02822d25b)"><g clip-path="url(#d4d8983ef9)"><g clip-path="url(#4278fb57e3)"><path fill="#ffffff" d="M 156.394531 221.230469 C 156.5625 221.710938 156.898438 221.972656 157.25 221.929688 C 157.441406 221.914062 157.617188 222.0625 157.707031 222.152344 C 157.78125 222.226562 157.890625 222.265625 157.996094 222.242188 C 158 222.246094 158.011719 222.246094 158.015625 222.242188 C 158.109375 222.222656 158.191406 222.152344 158.234375 222.066406 C 159.738281 218.890625 169.308594 202.632812 170.820312 200.539062 C 176.589844 192.648438 182.148438 184.613281 187.335938 176.664062 C 191.59375 170.144531 195.808594 163.441406 199.886719 156.964844 C 202.097656 153.453125 204.304688 149.945312 206.523438 146.449219 C 209.433594 141.886719 212.824219 136.585938 216.28125 131.457031 C 217.207031 130.074219 218.21875 128.679688 219.199219 127.324219 C 221.050781 124.773438 222.964844 122.128906 224.476562 119.363281 C 224.554688 119.226562 224.523438 119.054688 224.398438 118.957031 C 223.917969 118.566406 223.414062 118.214844 222.90625 117.914062 C 222.746094 117.824219 222.550781 117.871094 222.464844 118.027344 C 217.523438 126.3125 212.371094 134.015625 206.917969 142.167969 L 204.3125 146.0625 C 203.097656 147.886719 201.894531 149.769531 200.734375 151.59375 C 198.597656 154.933594 196.398438 158.386719 194.003906 161.605469 C 192.988281 162.980469 191.890625 164.328125 190.835938 165.640625 C 188.59375 168.410156 186.28125 171.277344 184.515625 174.507812 C 181.402344 180.175781 177.808594 185.546875 174.328125 190.746094 C 172.335938 193.730469 170.273438 196.8125 168.3125 199.925781 C 167.304688 201.53125 166.269531 203.140625 165.226562 204.753906 C 162.21875 209.417969 159.101562 214.242188 156.597656 219.199219 C 156.550781 219.292969 156.558594 219.414062 156.613281 219.507812 C 156.742188 219.71875 156.726562 219.9375 156.574219 220.164062 C 156.386719 220.453125 156.230469 220.753906 156.394531 221.230469 " fill-opacity="1" fill-rule="nonzero"/></g></g></g><g clip-path="url(#c15186bb23)"><g clip-path="url(#77fae5e18c)"><g clip-path="url(#32439cc17a)"><path fill="#ffffff" d="M 218.789062 115.414062 C 218.207031 115 217.609375 114.570312 216.972656 114.183594 C 216.644531 113.992188 216.285156 113.761719 215.851562 113.453125 C 215.777344 113.40625 215.683594 113.386719 215.59375 113.402344 C 215.59375 113.402344 215.589844 113.402344 215.589844 113.402344 C 215.503906 113.421875 215.429688 113.484375 215.382812 113.5625 C 213.058594 117.71875 210.292969 121.644531 207.617188 125.441406 C 205.023438 129.121094 202.339844 132.929688 200.054688 136.945312 C 194.578125 146.621094 188.824219 155.675781 182.480469 164.632812 C 176.1875 173.53125 170.261719 182.871094 164.539062 191.898438 C 159.773438 199.417969 154.839844 207.195312 149.734375 214.65625 C 149.6875 214.71875 149.667969 214.796875 149.675781 214.871094 C 149.683594 214.921875 149.691406 214.972656 149.703125 215.023438 C 149.710938 215.0625 149.722656 215.101562 149.71875 215.117188 C 149.621094 216.816406 150.074219 218.160156 151.0625 219.113281 C 151.710938 219.746094 153.109375 219.597656 154.335938 219.300781 C 154.511719 219.257812 154.683594 219.210938 154.847656 219.164062 C 154.9375 219.144531 155.011719 219.078125 155.054688 219 C 158.257812 212.496094 162.445312 206.191406 166.496094 200.089844 L 167.691406 198.289062 C 169.078125 196.195312 170.5625 194.109375 171.996094 192.085938 C 173.398438 190.113281 174.851562 188.070312 176.21875 186.007812 C 177.878906 183.511719 179.320312 180.851562 180.707031 178.277344 C 181.800781 176.265625 182.925781 174.183594 184.144531 172.203125 C 185.863281 169.40625 187.945312 166.808594 189.964844 164.300781 C 191.628906 162.230469 193.351562 160.085938 194.878906 157.820312 C 196.183594 155.871094 197.46875 153.863281 198.714844 151.929688 C 200.433594 149.242188 202.21875 146.46875 204.070312 143.808594 C 210.148438 135.105469 215.738281 126.445312 221.152344 117.339844 C 221.199219 117.265625 221.210938 117.171875 221.1875 117.089844 C 221.164062 117.003906 221.109375 116.933594 221.027344 116.890625 C 220.246094 116.453125 219.507812 115.925781 218.789062 115.414062 " fill-opacity="1" fill-rule="nonzero"/></g></g></g><g clip-path="url(#13a965e366)"><g clip-path="url(#53208f78f9)"><g clip-path="url(#473085ce7b)"><path fill="#ffffff" d="M 212.324219 109.753906 C 212.765625 110.046875 213.21875 110.347656 213.765625 110.539062 C 215.058594 111.007812 216.484375 112.011719 217.722656 112.910156 C 219.304688 114.058594 220.886719 115.078125 222.707031 116.128906 L 223.152344 116.382812 C 223.902344 116.816406 224.601562 117.222656 225.25 117.730469 C 225.371094 117.832031 225.535156 117.753906 225.726562 117.789062 C 225.769531 117.796875 225.816406 117.792969 225.859375 117.78125 C 225.914062 117.769531 225.960938 117.746094 226.003906 117.703125 C 226.410156 117.320312 226.828125 116.753906 227.300781 115.929688 C 227.375 115.796875 227.34375 115.621094 227.226562 115.519531 C 226.566406 114.972656 225.917969 114.371094 225.300781 113.796875 C 223.820312 112.425781 222.285156 111.007812 220.398438 110.058594 C 220.398438 110.054688 220.398438 110.054688 220.398438 110.054688 C 219.179688 109.453125 217.992188 108.746094 216.839844 108.0625 C 215.988281 107.554688 215.109375 107.03125 214.222656 106.554688 C 214.082031 106.476562 213.910156 106.515625 213.8125 106.636719 C 213.300781 107.292969 212.492188 108.007812 211.78125 108.636719 L 211.59375 108.804688 C 211.515625 108.875 211.472656 108.980469 211.484375 109.085938 C 211.496094 109.1875 211.558594 109.28125 211.652344 109.332031 C 211.875 109.460938 212.101562 109.609375 212.324219 109.753906 " fill-opacity="1" fill-rule="nonzero"/></g></g></g><g clip-path="url(#7801f45bc5)"><g clip-path="url(#deffac5e8a)"><g clip-path="url(#fb206b4e12)"><path fill="#ffffff" d="M 136.902344 238.214844 C 137.085938 238.308594 137.277344 238.410156 137.472656 238.488281 C 137.988281 238.699219 138.25 238.980469 138.496094 239.375 C 138.546875 239.453125 138.632812 239.507812 138.722656 239.519531 C 138.765625 239.523438 138.808594 239.523438 138.847656 239.515625 C 138.898438 239.503906 138.949219 239.472656 138.988281 239.4375 C 140.539062 238.058594 142.183594 236.5625 143.773438 234.777344 L 145 233.398438 C 146.878906 231.273438 148.835938 229.078125 150.710938 226.867188 C 151.8125 225.566406 152.960938 224.769531 154.171875 223.929688 C 154.582031 223.640625 155 223.351562 155.429688 223.035156 C 155.496094 222.980469 155.542969 222.90625 155.554688 222.816406 C 155.5625 222.730469 155.542969 222.640625 155.488281 222.574219 C 155.277344 222.308594 155.113281 222.003906 155.019531 221.714844 C 154.9375 221.488281 154.894531 221.269531 154.871094 221.019531 C 154.867188 220.929688 154.816406 220.839844 154.742188 220.785156 C 154.664062 220.726562 154.566406 220.710938 154.472656 220.730469 C 152.285156 221.261719 150.996094 221.320312 150.03125 220.148438 C 148.945312 218.835938 148.371094 217.597656 148.230469 216.261719 C 148.21875 216.171875 148.167969 216.082031 148.089844 216.03125 C 147.945312 215.925781 147.75 215.996094 147.582031 216.035156 C 147.484375 216.050781 147.394531 216.066406 147.238281 216.105469 C 146.566406 216.257812 145.925781 216.398438 145.34375 216.191406 C 145.0625 216.085938 144.839844 215.917969 144.652344 215.679688 C 144.582031 215.589844 144.46875 215.546875 144.355469 215.558594 C 144.246094 215.570312 144.148438 215.640625 144.105469 215.742188 C 143.960938 216.035156 143.820312 216.332031 143.675781 216.625 C 143.136719 217.75 142.574219 218.914062 142.207031 220.144531 C 141.191406 223.46875 139.871094 226.734375 138.582031 229.898438 C 138.28125 230.652344 137.976562 231.398438 137.675781 232.148438 C 136.988281 233.875 136.300781 235.617188 135.621094 237.367188 C 135.585938 237.460938 135.59375 237.5625 135.640625 237.644531 C 135.6875 237.730469 135.769531 237.789062 135.867188 237.804688 C 136.210938 237.867188 136.542969 238.035156 136.902344 238.214844 " fill-opacity="1" fill-rule="nonzero"/></g></g></g><g clip-path="url(#55dc5740c4)"><g clip-path="url(#e93cf0ae7e)"><g clip-path="url(#bd86a95c65)"><path fill="#ffffff" d="M 217.167969 102.617188 C 217.246094 102.660156 217.328125 102.695312 217.402344 102.746094 C 218.609375 103.449219 219.726562 104.332031 220.808594 105.179688 C 221.53125 105.75 222.273438 106.339844 223.042969 106.871094 C 223.753906 107.371094 224.480469 107.925781 225.175781 108.460938 C 226.542969 109.511719 227.960938 110.597656 229.445312 111.417969 C 229.519531 111.457031 229.605469 111.46875 229.679688 111.453125 C 229.71875 111.441406 229.75 111.429688 229.777344 111.410156 C 229.878906 111.347656 229.9375 111.230469 229.925781 111.113281 C 229.921875 111.039062 229.96875 110.964844 230.042969 110.851562 C 230.15625 110.683594 230.339844 110.410156 230.175781 110.042969 C 229.871094 109.371094 229.058594 109.074219 228.34375 108.808594 C 228.035156 108.695312 227.746094 108.589844 227.546875 108.46875 C 227.546875 108.464844 227.546875 108.464844 227.539062 108.464844 C 226.550781 107.894531 225.609375 107 224.703125 106.136719 L 224.140625 105.609375 C 222.90625 104.457031 221.625 103.425781 220.109375 102.382812 C 219.9375 102.261719 219.757812 102.121094 219.578125 101.980469 C 219.109375 101.605469 218.570312 101.179688 217.949219 101.039062 C 217.714844 100.980469 217.074219 100.835938 216.660156 101.289062 C 216.480469 101.503906 216.40625 101.726562 216.449219 101.933594 C 216.519531 102.289062 216.863281 102.460938 217.167969 102.617188 " fill-opacity="1" fill-rule="nonzero"/></g></g></g><g clip-path="url(#76272d610b)"><g clip-path="url(#befb674685)"><g clip-path="url(#4976898df2)"><path fill="#ffffff" d="M 145.636719 214.382812 C 145.660156 214.460938 145.667969 214.511719 145.675781 214.539062 C 145.691406 214.628906 145.765625 214.765625 145.847656 214.8125 C 145.929688 214.859375 146.0625 214.859375 146.152344 214.828125 L 146.179688 214.820312 C 146.183594 214.816406 146.183594 214.816406 146.191406 214.816406 C 146.339844 214.789062 146.5 214.761719 146.667969 214.738281 C 146.960938 214.691406 147.289062 214.640625 147.605469 214.5625 C 147.742188 214.527344 147.878906 214.492188 148.015625 214.445312 C 148.082031 214.421875 148.132812 214.382812 148.171875 214.324219 C 153.273438 206.902344 158.160156 199.160156 162.890625 191.667969 C 168.710938 182.453125 174.730469 172.925781 181.195312 163.902344 C 182.140625 162.59375 183.097656 161.292969 184.050781 159.984375 C 186.617188 156.496094 189.277344 152.882812 191.570312 149.132812 C 193.027344 146.746094 194.371094 144.246094 195.675781 141.832031 C 196.972656 139.425781 198.308594 136.941406 199.761719 134.570312 C 201.761719 131.289062 203.996094 128.109375 206.152344 125.03125 C 208.898438 121.113281 211.742188 117.066406 214.148438 112.757812 C 214.191406 112.679688 214.199219 112.585938 214.175781 112.503906 C 214.152344 112.421875 214.09375 112.351562 214.011719 112.308594 C 213.625 112.113281 213.238281 111.933594 212.816406 111.765625 C 212.558594 111.683594 212.269531 111.460938 211.960938 111.226562 C 211.8125 111.113281 211.667969 110.996094 211.515625 110.894531 C 211.441406 110.84375 211.351562 110.824219 211.269531 110.84375 C 211.207031 110.847656 211.109375 110.910156 211.0625 110.980469 C 209.347656 113.5625 207.574219 116.171875 205.855469 118.699219 C 201.984375 124.386719 197.980469 130.273438 194.417969 136.300781 C 190.367188 143.136719 185.707031 149.625 181.195312 155.898438 C 179.210938 158.667969 177.152344 161.53125 175.167969 164.402344 C 169.3125 172.867188 163.296875 182.378906 156.214844 194.316406 C 154.023438 197.996094 151.71875 201.644531 149.492188 205.179688 C 148.078125 207.417969 146.671875 209.648438 145.277344 211.902344 C 145.230469 211.984375 145.21875 212.085938 145.246094 212.179688 C 145.300781 212.332031 145.308594 212.460938 145.269531 212.617188 C 145.246094 212.6875 145.21875 212.757812 145.214844 212.835938 C 145.207031 212.878906 145.207031 212.921875 145.21875 212.96875 C 145.28125 213.175781 145.339844 213.378906 145.40625 213.582031 C 145.488281 213.84375 145.566406 214.101562 145.636719 214.382812 " fill-opacity="1" fill-rule="nonzero"/></g></g></g><g clip-path="url(#90a2e8bd6a)"><g clip-path="url(#b1e5ed2598)"><g clip-path="url(#b49d1fe610)"><path fill="#ffffff" d="M 133.097656 245.644531 C 133.164062 245.628906 133.226562 245.589844 133.269531 245.535156 C 133.558594 245.179688 133.847656 244.816406 134.132812 244.460938 C 134.996094 243.371094 135.816406 242.335938 136.632812 241.578125 C 136.804688 241.417969 136.976562 241.261719 137.152344 241.105469 L 137.390625 240.890625 C 137.492188 240.796875 137.5 240.59375 137.449219 240.46875 C 137.335938 240.195312 137.261719 240.023438 137.082031 239.910156 L 136.976562 239.863281 C 136.789062 239.777344 136.617188 239.703125 136.4375 239.613281 C 136.4375 239.609375 136.429688 239.609375 136.429688 239.609375 C 136.367188 239.578125 136.304688 239.542969 136.238281 239.507812 C 136.015625 239.378906 135.730469 239.21875 135.382812 239.25 C 135.371094 239.253906 135.347656 239.25 135.292969 239.234375 C 135.285156 239.230469 135.214844 239.214844 135.207031 239.210938 C 135.054688 239.175781 134.890625 239.261719 134.832031 239.410156 C 134.042969 241.464844 133.355469 243.367188 132.714844 245.222656 C 132.664062 245.371094 132.722656 245.539062 132.863281 245.613281 C 132.933594 245.652344 133.019531 245.664062 133.097656 245.644531 " fill-opacity="1" fill-rule="nonzero"/></g></g></g><g clip-path="url(#948b934807)"><g clip-path="url(#c3c55ca3ef)"><g clip-path="url(#f2472f88f6)"><path fill="#ffffff" d="M 218.601562 107.308594 C 219.140625 107.648438 219.738281 107.941406 220.3125 108.230469 C 221.035156 108.585938 221.78125 108.957031 222.386719 109.40625 C 223.660156 110.335938 224.839844 111.410156 225.980469 112.449219 C 226.59375 113.003906 227.195312 113.554688 227.824219 114.09375 C 227.894531 114.152344 227.996094 114.179688 228.085938 114.167969 C 228.097656 114.167969 228.101562 114.164062 228.109375 114.164062 C 228.195312 114.144531 228.269531 114.089844 228.316406 114.015625 C 228.335938 113.972656 228.363281 113.929688 228.382812 113.886719 C 228.40625 113.847656 228.421875 113.804688 228.480469 113.722656 C 228.582031 113.511719 228.691406 113.3125 228.800781 113.113281 C 228.882812 112.96875 228.839844 112.78125 228.699219 112.691406 C 226.347656 111.113281 224.195312 109.59375 222.3125 108.167969 C 221.753906 107.738281 221.210938 107.285156 220.671875 106.84375 C 219.152344 105.589844 217.582031 104.292969 215.679688 103.472656 C 215.527344 103.410156 215.359375 103.460938 215.273438 103.601562 C 215.03125 104 214.800781 104.402344 214.632812 104.738281 C 214.550781 104.898438 214.613281 105.089844 214.765625 105.171875 C 216.207031 105.921875 217.40625 106.574219 218.601562 107.308594 " fill-opacity="1" fill-rule="nonzero"/></g></g></g><g clip-path="url(#84fd627e3a)"><g clip-path="url(#1e83ea2179)"><g clip-path="url(#087c1da4e5)"><path fill="#ffffff" d="M 219.519531 99.09375 C 219.863281 98.429688 220.464844 97.738281 220.953125 97.175781 C 221.324219 96.714844 221.761719 96.296875 222.292969 95.878906 C 222.710938 95.554688 223.210938 95.726562 223.464844 96.046875 C 223.554688 96.15625 223.8125 96.554688 223.375 96.898438 C 222.894531 97.273438 222.339844 97.726562 221.921875 98.296875 C 221.816406 98.429688 221.703125 98.574219 221.589844 98.710938 C 221.289062 99.089844 220.976562 99.480469 220.757812 99.90625 C 220.488281 100.421875 220.03125 100.242188 219.894531 100.171875 C 219.601562 100.015625 219.257812 99.605469 219.519531 99.09375 Z M 226.257812 96.777344 C 226.523438 97.039062 226.652344 97.484375 226.300781 97.847656 C 225.5625 98.605469 224.886719 99.449219 224.230469 100.265625 C 223.949219 100.613281 223.664062 100.964844 223.375 101.304688 C 223.265625 101.441406 223.089844 101.480469 222.972656 101.484375 C 222.742188 101.492188 222.507812 101.40625 222.363281 101.261719 C 222.023438 100.910156 222.164062 100.480469 222.410156 100.183594 C 222.671875 99.871094 222.929688 99.546875 223.183594 99.230469 C 223.855469 98.398438 224.546875 97.539062 225.28125 96.765625 C 225.636719 96.414062 226.023438 96.554688 226.257812 96.777344 Z M 228.109375 97.636719 C 228.175781 97.621094 228.246094 97.621094 228.300781 97.621094 C 228.585938 97.636719 228.875 97.816406 229.003906 98.0625 C 229.109375 98.265625 229.09375 98.496094 228.949219 98.71875 C 228.59375 99.289062 228.167969 99.796875 227.722656 100.328125 L 227.429688 100.6875 C 227.242188 100.898438 227.070312 101.125 226.894531 101.34375 C 226.574219 101.761719 226.269531 102.152344 225.890625 102.496094 C 225.71875 102.644531 225.53125 102.710938 225.335938 102.6875 C 225.152344 102.664062 224.964844 102.5625 224.835938 102.414062 C 224.699219 102.265625 224.628906 102.097656 224.621094 101.925781 C 224.621094 101.75 224.699219 101.585938 224.859375 101.4375 C 224.859375 101.4375 224.863281 101.433594 224.863281 101.433594 C 225.246094 101.082031 225.5625 100.679688 225.863281 100.289062 C 226.007812 100.109375 226.144531 99.929688 226.300781 99.75 L 226.609375 99.375 C 226.976562 98.925781 227.359375 98.460938 227.683594 97.960938 C 227.808594 97.761719 227.964844 97.671875 228.109375 97.636719 Z M 231.066406 99.734375 C 231.230469 99.695312 231.40625 99.710938 231.582031 99.8125 C 231.753906 99.921875 231.890625 100.140625 231.9375 100.371094 C 231.949219 100.46875 231.964844 100.664062 231.851562 100.816406 C 231.589844 101.160156 231.28125 101.492188 230.984375 101.8125 C 230.332031 102.503906 229.65625 103.222656 229.3125 104.191406 C 229.191406 104.535156 228.941406 104.652344 228.757812 104.679688 C 228.46875 104.734375 228.148438 104.628906 227.972656 104.425781 C 227.828125 104.261719 227.804688 104.054688 227.886719 103.8125 C 228.195312 102.957031 228.5625 102.300781 229.054688 101.746094 C 229.246094 101.515625 229.457031 101.304688 229.664062 101.085938 C 229.972656 100.777344 230.277344 100.457031 230.539062 100.097656 C 230.671875 99.929688 230.855469 99.785156 231.066406 99.734375 Z M 232.980469 102.203125 C 233.242188 102.261719 233.488281 102.5 233.570312 102.78125 C 233.625 102.960938 233.644531 103.230469 233.394531 103.5 C 233.394531 103.5 233.394531 103.5 233.390625 103.5 L 233.144531 103.777344 C 232.808594 104.152344 232.464844 104.542969 232.089844 104.816406 C 231.882812 104.957031 231.722656 105.246094 231.535156 105.609375 L 231.453125 105.769531 C 231.3125 106.015625 231.175781 106.195312 231.019531 106.347656 C 230.644531 106.683594 230.203125 106.542969 229.949219 106.257812 C 229.816406 106.113281 229.746094 105.945312 229.742188 105.785156 C 229.738281 105.601562 229.820312 105.4375 229.972656 105.292969 C 230.167969 105.128906 230.300781 104.886719 230.410156 104.675781 C 230.449219 104.609375 230.480469 104.550781 230.511719 104.5 C 230.679688 104.242188 230.859375 104.011719 231.046875 103.769531 L 231.085938 103.71875 C 231.296875 103.472656 231.542969 103.242188 231.804688 103.003906 C 232.007812 102.8125 232.210938 102.621094 232.40625 102.414062 C 232.507812 102.300781 232.617188 102.230469 232.738281 102.203125 C 232.816406 102.183594 232.894531 102.1875 232.980469 102.203125 Z M 219.238281 101.222656 C 221.480469 102.648438 223.605469 103.988281 225.675781 105.640625 C 226.859375 106.578125 228.152344 107.566406 229.574219 108.425781 C 229.769531 108.539062 229.96875 108.644531 230.160156 108.75 C 230.339844 108.84375 230.523438 108.9375 230.699219 109.042969 C 230.773438 109.085938 230.859375 109.09375 230.9375 109.074219 C 230.941406 109.074219 230.949219 109.074219 230.949219 109.074219 C 231.03125 109.050781 231.105469 108.996094 231.144531 108.921875 C 231.433594 108.414062 231.742188 107.925781 232.058594 107.421875 L 232.101562 107.347656 C 232.386719 106.917969 232.804688 106.460938 233.246094 105.980469 C 234.152344 105 235.175781 103.890625 235.277344 102.65625 C 235.308594 102.296875 235.523438 101.976562 235.703125 101.765625 C 235.753906 101.699219 235.785156 101.609375 235.773438 101.523438 C 235.761719 101.4375 235.714844 101.355469 235.652344 101.300781 C 231.457031 98.050781 227.160156 95.609375 222.132812 93.609375 C 221.988281 93.554688 221.828125 93.605469 221.746094 93.734375 C 220.519531 95.574219 219.171875 97.535156 217.621094 99.332031 C 217.5 99.480469 217.4375 99.609375 217.390625 99.734375 C 217.332031 99.878906 217.382812 100.046875 217.515625 100.128906 C 218.089844 100.5 218.664062 100.859375 219.238281 101.222656 " fill-opacity="1" fill-rule="nonzero"/></g></g></g><g clip-path="url(#d911767bdb)"><g clip-path="url(#53c40f346b)"><g clip-path="url(#1a6ac04fe5)"><path fill="#ffffff" d="M 230.960938 96.15625 C 232.96875 97.339844 234.714844 98.691406 236.476562 100.085938 C 236.550781 100.144531 236.648438 100.167969 236.738281 100.152344 C 236.742188 100.152344 236.75 100.148438 236.753906 100.148438 C 236.84375 100.125 236.917969 100.070312 236.957031 99.996094 C 237.417969 99.199219 237.871094 98.285156 237.960938 97.957031 C 238.046875 97.601562 238.535156 97.421875 238.683594 97.375 C 238.792969 97.34375 238.875 97.25 238.902344 97.140625 C 238.925781 97.023438 238.886719 96.90625 238.804688 96.828125 C 237.773438 95.886719 236.6875 95.09375 235.535156 94.257812 L 234.667969 93.625 C 233.847656 93.011719 232.933594 92.628906 232.050781 92.253906 C 231.59375 92.0625 231.132812 91.867188 230.683594 91.640625 C 230.371094 91.480469 230.019531 91.277344 229.644531 91.054688 C 228.304688 90.269531 226.632812 89.292969 225.300781 89.445312 C 225.15625 89.464844 225.042969 89.445312 224.910156 89.394531 C 224.765625 89.339844 224.605469 89.386719 224.523438 89.519531 C 223.984375 90.320312 223.453125 91.117188 222.929688 91.933594 C 222.882812 92.011719 222.867188 92.117188 222.898438 92.207031 C 222.925781 92.300781 222.996094 92.371094 223.085938 92.40625 C 225.625 93.433594 228.339844 94.59375 230.960938 96.15625 " fill-opacity="1" fill-rule="nonzero"/></g></g></g><g clip-path="url(#64cb3abd5f)"><g clip-path="url(#5e564f613c)"><g clip-path="url(#1599684522)"><path fill="#ffffff" d="M 226.125 88.054688 C 227.921875 88.265625 229.71875 89.246094 231.457031 90.191406 C 232.191406 90.59375 232.886719 90.96875 233.5625 91.28125 C 234.675781 91.792969 235.625 92.492188 236.625 93.238281 C 236.980469 93.507812 237.34375 93.773438 237.707031 94.027344 C 237.980469 94.222656 238.285156 94.375 238.582031 94.519531 C 238.964844 94.703125 239.332031 94.878906 239.578125 95.140625 C 239.625 95.179688 239.65625 95.230469 239.695312 95.277344 C 239.742188 95.335938 239.785156 95.394531 239.839844 95.457031 C 239.914062 95.539062 240.027344 95.578125 240.144531 95.554688 C 240.148438 95.554688 240.148438 95.554688 240.152344 95.550781 C 240.261719 95.527344 240.34375 95.449219 240.378906 95.351562 C 240.628906 94.691406 240.875 93.886719 241.113281 92.957031 C 241.144531 92.835938 241.105469 92.703125 241.007812 92.621094 C 240.65625 92.34375 240.320312 92.050781 239.988281 91.753906 C 239.539062 91.363281 239.066406 90.957031 238.574219 90.578125 C 238.195312 90.296875 237.828125 89.910156 237.480469 89.535156 L 237.347656 89.398438 C 236.910156 88.917969 236.425781 88.628906 235.964844 88.351562 C 235.738281 88.214844 235.503906 88.078125 235.273438 87.910156 C 233.996094 86.988281 232.550781 86.039062 230.621094 85.335938 C 230.164062 85.171875 229.75 84.859375 229.308594 84.535156 C 229.179688 84.441406 229.050781 84.347656 228.917969 84.253906 C 228.785156 84.15625 228.605469 84.179688 228.488281 84.300781 C 227.582031 85.335938 226.734375 86.394531 225.902344 87.542969 C 225.835938 87.636719 225.824219 87.757812 225.867188 87.863281 C 225.914062 87.964844 226.011719 88.039062 226.125 88.054688 " fill-opacity="1" fill-rule="nonzero"/></g></g></g><g clip-path="url(#9bd41d68c0)"><g clip-path="url(#ec94a19a4f)"><g clip-path="url(#9fe7b14a5a)"><path fill="#ffffff" d="M 246.292969 81.175781 C 245.75 80.59375 245.179688 79.988281 244.59375 79.457031 C 243.726562 78.675781 242.632812 78.105469 241.582031 77.558594 C 241.324219 77.425781 241.074219 77.296875 240.832031 77.160156 L 240.1875 76.804688 C 239.246094 76.277344 238.273438 75.738281 237.257812 75.28125 C 236.976562 75.148438 236.695312 75.039062 236.410156 74.925781 C 235.972656 74.75 235.5625 74.585938 235.183594 74.363281 C 235.0625 74.292969 234.90625 74.308594 234.800781 74.398438 C 233.449219 75.597656 231.703125 77.40625 231.0625 79.242188 C 230.769531 80.105469 230.332031 80.878906 229.863281 81.703125 C 229.726562 81.949219 229.585938 82.191406 229.453125 82.4375 C 229.414062 82.515625 229.402344 82.609375 229.425781 82.691406 C 229.453125 82.773438 229.511719 82.84375 229.582031 82.882812 C 229.921875 83.058594 230.25 83.25 230.578125 83.441406 C 231.210938 83.804688 231.859375 84.179688 232.558594 84.496094 C 233.207031 84.777344 233.792969 85.191406 234.359375 85.589844 C 234.894531 85.96875 235.449219 86.359375 236.0625 86.648438 C 237.464844 87.324219 238.566406 88.402344 239.734375 89.542969 C 240.238281 90.035156 240.757812 90.539062 241.296875 91.007812 C 241.375 91.078125 241.488281 91.101562 241.585938 91.078125 C 241.589844 91.078125 241.59375 91.078125 241.601562 91.074219 C 241.703125 91.046875 241.785156 90.960938 241.820312 90.859375 C 242.621094 88.304688 244.296875 85.960938 245.914062 83.695312 C 246.265625 83.207031 246.609375 82.714844 246.941406 82.238281 C 247.03125 82.105469 247.019531 81.9375 246.910156 81.824219 C 246.707031 81.613281 246.5 81.390625 246.292969 81.175781 " fill-opacity="1" fill-rule="nonzero"/></g></g></g><g clip-path="url(#320065ce04)"><g clip-path="url(#86ee1182ed)"><path fill="#000000" d="M 172.265625 143.550781 L 202.734375 143.550781 L 202.734375 174.019531 L 172.265625 174.019531 Z M 172.265625 143.550781 " fill-opacity="1" fill-rule="nonzero"/></g></g><g clip-path="url(#efd578f92e)"><g clip-path="url(#917a6919bc)"><path stroke-linecap="butt" transform="matrix(0.75, 0, 0, 0.75, 172.26704, 143.552715)" fill="none" stroke-linejoin="miter" d="M 20.305407 -0.00257776 C 9.091864 -0.00257776 -0.00188612 9.091173 -0.00188612 20.304715 C -0.00188612 31.518258 9.091864 40.6068 20.305407 40.6068 C 31.518949 40.6068 40.607492 31.518258 40.607492 20.304715 C 40.607492 9.091173 31.518949 -0.00257776 20.305407 -0.00257776 Z M 20.305407 -0.00257776 " stroke="#ffffff" stroke-width="4" stroke-opacity="1" stroke-miterlimit="4"/></g></g><g fill="#ffffff" fill-opacity="1"><g transform="translate(73.743355, 312.216528)"><g><path d="M 0.550781 -16.695312 L 0.515625 -16.050781 C 0.515625 -15.660156 0.550781 -15.273438 0.613281 -14.886719 C 0.679688 -14.5 0.871094 -14.078125 1.164062 -13.628906 C 1.453125 -13.175781 1.679688 -12.917969 1.871094 -12.820312 L 1.742188 -12.851562 L 6.363281 -6.425781 C 6.425781 -6.328125 6.585938 -6.199219 6.78125 -6.039062 C 6.976562 -5.878906 7.070312 -5.78125 7.105469 -5.78125 L 7.199219 -4.648438 C 7.199219 -4.519531 7.167969 -4.425781 7.167969 -4.359375 C 7.105469 -4.101562 6.265625 -3.84375 4.648438 -3.519531 L 3.195312 -3.230469 C 2.355469 -3.230469 1.710938 -3.164062 1.292969 -3.066406 C 0.902344 -2.9375 0.742188 -2.582031 0.742188 -2.003906 C 0.742188 -1.679688 0.773438 -1.386719 0.871094 -1.128906 C 1.066406 -0.417969 1.742188 -0.0664062 2.875 -0.0664062 L 5.199219 -0.355469 L 7.199219 -0.808594 C 7.71875 -0.9375 8.523438 -1.324219 9.558594 -1.96875 C 10.589844 -2.617188 11.207031 -3.132812 11.398438 -3.519531 C 11.527344 -3.84375 11.625 -4.261719 11.625 -4.84375 C 11.625 -5.523438 11.527344 -6.265625 11.335938 -7.105469 C 11.207031 -7.683594 10.945312 -8.363281 10.496094 -9.171875 L 7.105469 -12.882812 L 6.976562 -13.046875 C 5.878906 -14.597656 5.296875 -15.628906 5.199219 -16.113281 L 5.199219 -16.210938 C 5.199219 -16.402344 5.328125 -16.628906 5.652344 -16.953125 C 5.714844 -16.984375 5.78125 -17.082031 5.878906 -17.242188 L 7.070312 -17.726562 C 7.460938 -17.855469 7.683594 -17.953125 7.71875 -17.988281 C 7.847656 -18.019531 8.523438 -18.050781 9.753906 -18.050781 L 10.785156 -18.050781 C 11.238281 -18.050781 11.527344 -18.117188 11.722656 -18.308594 L 11.722656 -18.339844 C 12.140625 -18.859375 12.398438 -19.246094 12.496094 -19.503906 C 12.496094 -19.730469 12.335938 -20.148438 12.078125 -20.761719 C 11.820312 -21.378906 11.558594 -21.863281 11.367188 -22.183594 L 11.367188 -22.152344 C 11.171875 -22.410156 10.558594 -22.570312 9.460938 -22.570312 C 8.621094 -22.570312 7.71875 -22.507812 6.8125 -22.441406 L 4.648438 -21.539062 L 3.066406 -20.503906 L 1.777344 -19.214844 C 1.421875 -18.957031 1 -18.117188 0.550781 -16.695312 Z M 0.550781 -16.695312 "/></g></g></g><g fill="#ffffff" fill-opacity="1"><g transform="translate(86.654712, 312.216528)"><g><path d="M 4.292969 -11.429688 L 4.328125 -12.269531 C 4.328125 -12.820312 4.359375 -13.464844 4.457031 -14.175781 C 4.519531 -14.886719 4.648438 -15.371094 4.8125 -15.695312 C 4.972656 -16.113281 5.261719 -16.597656 5.714844 -17.179688 C 6.167969 -17.726562 6.492188 -18.117188 6.75 -18.308594 C 6.878906 -18.40625 7.296875 -18.566406 8.074219 -18.792969 C 8.847656 -19.019531 9.332031 -19.148438 9.527344 -19.179688 C 9.589844 -19.179688 10.816406 -19.214844 13.144531 -19.214844 C 13.335938 -19.214844 13.496094 -19.375 13.691406 -19.730469 L 13.949219 -19.761719 C 14.078125 -19.792969 14.242188 -19.859375 14.402344 -19.988281 C 14.5625 -20.117188 14.660156 -20.246094 14.660156 -20.441406 C 14.660156 -20.828125 14.335938 -21.378906 13.722656 -22.054688 L 13.367188 -22.214844 C 13.109375 -22.347656 12.789062 -22.441406 12.398438 -22.570312 C 12.011719 -22.667969 11.691406 -22.734375 11.429688 -22.734375 L 11.109375 -22.734375 C 8.429688 -22.570312 6.523438 -22.121094 5.425781 -21.378906 C 4.261719 -20.601562 3.488281 -19.925781 3.101562 -19.34375 L 2.90625 -18.988281 C 2.777344 -18.761719 2.617188 -18.472656 2.453125 -18.082031 C 2.261719 -17.695312 2.132812 -17.339844 2.066406 -17.050781 C 1.195312 -14.464844 0.773438 -12.335938 0.773438 -10.6875 C 0.773438 -10.332031 0.773438 -10.105469 0.839844 -10.042969 L 0.902344 -8.847656 C 0.96875 -8.074219 1.128906 -7.167969 1.386719 -6.136719 C 1.648438 -5.101562 1.96875 -4.328125 2.421875 -3.84375 C 3.066406 -3.066406 3.875 -2.355469 4.84375 -1.742188 C 5.8125 -1.128906 6.75 -0.710938 7.621094 -0.515625 C 8.6875 -0.324219 9.492188 -0.226562 10.011719 -0.226562 L 11.300781 -0.386719 L 12.238281 -0.324219 C 12.625 -0.324219 12.851562 -0.386719 12.980469 -0.515625 C 13.078125 -0.644531 13.238281 -0.96875 13.496094 -1.550781 C 13.757812 -2.097656 13.886719 -2.421875 13.886719 -2.488281 C 13.886719 -2.648438 13.820312 -2.9375 13.691406 -3.324219 L 13.757812 -3.421875 C 13.820312 -3.488281 13.851562 -3.550781 13.917969 -3.679688 C 13.980469 -3.777344 14.015625 -3.875 14.015625 -3.941406 C 14.015625 -4.070312 13.886719 -4.132812 13.660156 -4.132812 C 13.464844 -4.132812 13.238281 -4.070312 12.949219 -4.003906 C 11.820312 -3.746094 10.980469 -3.648438 10.460938 -3.648438 C 7.234375 -3.746094 5.425781 -4.777344 4.972656 -6.75 C 4.519531 -8.6875 4.292969 -10.238281 4.292969 -11.429688 Z M 4.292969 -11.429688 "/></g></g></g><g fill="#ffffff" fill-opacity="1"><g transform="translate(101.050859, 312.216528)"><g><path d="M 1.777344 -21.699219 L 1.679688 -21.601562 L 1.519531 -19.730469 C 1.519531 -19.375 1.613281 -19.019531 1.839844 -18.695312 L 2.839844 -18.632812 L 4.359375 -18.632812 L 3.972656 -14.078125 L 3.972656 -4.292969 C 3.972656 -4.132812 3.714844 -3.941406 3.230469 -3.679688 L 3.261719 -3.714844 L 2.195312 -3.550781 C 2.035156 -3.550781 1.871094 -3.292969 1.710938 -2.777344 C 1.519531 -2.261719 1.453125 -1.839844 1.453125 -1.519531 C 1.453125 -0.96875 1.871094 -0.550781 2.746094 -0.289062 L 4.554688 -0.289062 L 9.203125 -0.96875 L 9.71875 -0.96875 L 9.945312 -1.066406 C 10.105469 -1.128906 10.269531 -1.324219 10.460938 -1.648438 C 10.625 -1.96875 10.722656 -2.390625 10.722656 -2.90625 C 10.722656 -3.421875 10.460938 -3.808594 10.011719 -4.035156 C 9.558594 -4.261719 9.042969 -4.390625 8.460938 -4.390625 C 8.203125 -4.390625 8.007812 -4.359375 7.847656 -4.328125 L 7.589844 -4.425781 C 7.492188 -4.425781 7.460938 -4.875 7.460938 -5.714844 L 7.460938 -6.8125 C 7.460938 -6.941406 7.425781 -7.070312 7.394531 -7.136719 L 7.847656 -16.050781 C 7.847656 -16.371094 7.816406 -16.792969 7.78125 -17.371094 L 7.683594 -18.761719 L 7.847656 -18.921875 C 8.039062 -18.921875 8.363281 -18.921875 8.75 -18.988281 C 9.136719 -19.019531 9.460938 -19.050781 9.65625 -19.085938 L 10.398438 -19.085938 L 10.460938 -19.246094 C 10.460938 -19.375 10.496094 -19.570312 10.527344 -19.828125 C 10.558594 -20.085938 10.589844 -20.410156 10.589844 -20.730469 C 10.589844 -21.246094 10.367188 -21.636719 9.976562 -21.894531 C 9.558594 -22.152344 9.042969 -22.28125 8.460938 -22.28125 C 7.878906 -22.28125 7.039062 -22.121094 5.941406 -21.796875 L 3.195312 -21.796875 L 2.839844 -21.570312 L 2.808594 -21.539062 C 2.777344 -21.507812 2.746094 -21.507812 2.746094 -21.507812 C 2.488281 -21.699219 2.261719 -21.828125 2.097656 -21.828125 C 2.035156 -21.828125 1.90625 -21.765625 1.777344 -21.699219 Z M 1.777344 -21.699219 "/></g></g></g><g fill="#ffffff" fill-opacity="1"><g transform="translate(112.606514, 312.216528)"><g><path d="M 5.003906 -13.402344 L 4.425781 -13.464844 L 4.164062 -15.5 C 4.164062 -15.824219 4.164062 -16.308594 4.230469 -16.953125 C 4.261719 -17.597656 4.292969 -18.117188 4.328125 -18.472656 L 4.875 -18.761719 L 7.816406 -18.859375 L 11.335938 -18.601562 L 12.109375 -18.761719 L 12.691406 -18.957031 L 12.789062 -19.117188 C 12.851562 -19.214844 12.882812 -19.308594 12.882812 -19.40625 C 12.882812 -19.503906 12.851562 -19.601562 12.753906 -19.664062 C 12.691406 -19.664062 12.5625 -20.34375 12.367188 -21.699219 L 12.011719 -22.3125 L 8.332031 -22.507812 L 5.878906 -22.121094 C 5.617188 -22.121094 5.261719 -22.152344 4.8125 -22.214844 C 4.359375 -22.25 4.003906 -22.28125 3.808594 -22.28125 L 1.96875 -22.476562 L 1.484375 -21.992188 L 1.519531 -21.992188 L 0.871094 -21.410156 L 0.710938 -21.117188 L 0.773438 -17.761719 L 0.710938 -13.691406 L 0.808594 -11.171875 L 0.515625 -6.363281 L 0.417969 -2.390625 L 0.742188 -0.613281 L 1.96875 -0.453125 L 3.90625 -0.195312 L 8.039062 0.195312 L 10.105469 0.0976562 L 10.429688 -0.160156 L 10.945312 -0.902344 L 11.109375 -1.484375 L 11.011719 -2.875 L 10.785156 -3.035156 C 10.625 -3.132812 10.332031 -3.230469 9.882812 -3.359375 C 9.429688 -3.457031 8.878906 -3.519531 8.300781 -3.519531 L 5.683594 -3.679688 L 4.035156 -3.519531 C 4.035156 -4.003906 4.003906 -4.714844 3.972656 -5.652344 C 3.90625 -6.554688 3.875 -7.296875 3.875 -7.816406 C 3.875 -8.039062 3.941406 -8.429688 4.035156 -8.945312 L 4.230469 -10.105469 L 6.425781 -9.785156 L 7.683594 -9.621094 L 8.167969 -9.785156 L 8.71875 -10.042969 L 8.71875 -10.011719 C 8.816406 -10.011719 8.914062 -10.011719 9.007812 -10.074219 L 9.105469 -10.074219 C 9.136719 -10.074219 9.203125 -10.074219 9.269531 -10.105469 C 9.332031 -10.140625 9.363281 -10.203125 9.429688 -10.269531 L 9.460938 -10.300781 C 9.589844 -10.367188 9.71875 -10.429688 9.882812 -10.496094 C 10.074219 -10.527344 10.171875 -10.785156 10.105469 -11.238281 L 10.011719 -11.335938 C 9.914062 -11.398438 9.816406 -11.496094 9.753906 -11.625 C 9.6875 -11.753906 9.65625 -11.914062 9.65625 -12.078125 C 9.65625 -12.464844 9.527344 -12.851562 9.332031 -13.207031 C 9.105469 -13.5625 8.816406 -13.722656 8.429688 -13.691406 C 7.945312 -13.5625 7.296875 -13.496094 6.457031 -13.496094 Z M 5.003906 -13.402344 "/></g></g></g><g fill="#ffffff" fill-opacity="1"><g transform="translate(125.743812, 312.216528)"><g><path d="M 2.035156 -22.25 L 1.582031 -22.152344 C 1.257812 -22.054688 0.96875 -21.894531 0.710938 -21.667969 C 0.417969 -21.410156 0.289062 -21.152344 0.355469 -20.859375 C 0.417969 -20.34375 0.453125 -19.214844 0.453125 -17.503906 C 0.453125 -16.402344 0.417969 -15.339844 0.417969 -14.304688 L 0.9375 -4.972656 L 1.679688 -0.289062 L 2.679688 -0.289062 L 3.679688 -0.484375 L 4.585938 -0.742188 L 4.8125 -1.679688 L 4.714844 -2.648438 C 4.648438 -3.066406 4.648438 -3.390625 4.648438 -3.585938 L 4.390625 -9.589844 C 4.328125 -9.816406 4.261719 -10.203125 4.164062 -10.722656 C 4.035156 -11.238281 3.972656 -11.625 3.941406 -11.914062 C 3.941406 -12.109375 3.941406 -12.398438 3.972656 -12.820312 C 3.972656 -13.238281 4.003906 -13.5625 4.003906 -13.789062 L 4.035156 -13.789062 L 6.621094 -7.394531 L 9.398438 -1.613281 L 9.65625 -1.324219 C 9.816406 -1.128906 10.011719 -0.902344 10.269531 -0.679688 C 10.527344 -0.453125 10.722656 -0.324219 10.914062 -0.257812 C 10.945312 -0.160156 11.207031 -0.128906 11.691406 -0.195312 C 12.175781 -0.257812 12.527344 -0.289062 12.722656 -0.324219 C 12.917969 -0.355469 13.109375 -0.386719 13.238281 -0.417969 L 14.242188 -1.097656 L 14.5625 -1.613281 L 14.691406 -1.90625 C 14.757812 -2.097656 14.820312 -2.261719 14.820312 -2.453125 C 14.820312 -2.617188 14.757812 -2.710938 14.628906 -2.746094 C 14.5 -2.746094 14.464844 -3.261719 14.53125 -4.359375 C 14.53125 -5.425781 14.5 -7.039062 14.5 -9.203125 C 14.464844 -11.367188 14.464844 -12.980469 14.464844 -14.078125 L 14.597656 -22.121094 L 14.273438 -22.28125 C 14.078125 -22.378906 13.789062 -22.476562 13.402344 -22.539062 C 13.011719 -22.605469 12.660156 -22.636719 12.335938 -22.605469 C 11.59375 -22.476562 11.011719 -22.3125 10.589844 -22.121094 C 10.171875 -21.925781 9.976562 -21.601562 10.011719 -21.152344 C 10.074219 -20.472656 10.269531 -19.890625 10.65625 -19.441406 L 10.722656 -18.117188 L 11.140625 -13.53125 C 11.140625 -12.625 11.140625 -11.269531 11.171875 -9.527344 C 11.171875 -7.75 11.207031 -6.425781 11.207031 -5.554688 L 9.332031 -10.140625 L 5.84375 -17.792969 L 3.617188 -21.539062 L 3.359375 -21.765625 C 3.195312 -21.894531 2.972656 -22.023438 2.710938 -22.152344 C 2.453125 -22.28125 2.226562 -22.3125 2.035156 -22.25 Z M 2.035156 -22.25 "/></g></g></g><g fill="#ffffff" fill-opacity="1"><g transform="translate(141.269701, 312.216528)"><g><path d="M 4.292969 -11.429688 L 4.328125 -12.269531 C 4.328125 -12.820312 4.359375 -13.464844 4.457031 -14.175781 C 4.519531 -14.886719 4.648438 -15.371094 4.8125 -15.695312 C 4.972656 -16.113281 5.261719 -16.597656 5.714844 -17.179688 C 6.167969 -17.726562 6.492188 -18.117188 6.75 -18.308594 C 6.878906 -18.40625 7.296875 -18.566406 8.074219 -18.792969 C 8.847656 -19.019531 9.332031 -19.148438 9.527344 -19.179688 C 9.589844 -19.179688 10.816406 -19.214844 13.144531 -19.214844 C 13.335938 -19.214844 13.496094 -19.375 13.691406 -19.730469 L 13.949219 -19.761719 C 14.078125 -19.792969 14.242188 -19.859375 14.402344 -19.988281 C 14.5625 -20.117188 14.660156 -20.246094 14.660156 -20.441406 C 14.660156 -20.828125 14.335938 -21.378906 13.722656 -22.054688 L 13.367188 -22.214844 C 13.109375 -22.347656 12.789062 -22.441406 12.398438 -22.570312 C 12.011719 -22.667969 11.691406 -22.734375 11.429688 -22.734375 L 11.109375 -22.734375 C 8.429688 -22.570312 6.523438 -22.121094 5.425781 -21.378906 C 4.261719 -20.601562 3.488281 -19.925781 3.101562 -19.34375 L 2.90625 -18.988281 C 2.777344 -18.761719 2.617188 -18.472656 2.453125 -18.082031 C 2.261719 -17.695312 2.132812 -17.339844 2.066406 -17.050781 C 1.195312 -14.464844 0.773438 -12.335938 0.773438 -10.6875 C 0.773438 -10.332031 0.773438 -10.105469 0.839844 -10.042969 L 0.902344 -8.847656 C 0.96875 -8.074219 1.128906 -7.167969 1.386719 -6.136719 C 1.648438 -5.101562 1.96875 -4.328125 2.421875 -3.84375 C 3.066406 -3.066406 3.875 -2.355469 4.84375 -1.742188 C 5.8125 -1.128906 6.75 -0.710938 7.621094 -0.515625 C 8.6875 -0.324219 9.492188 -0.226562 10.011719 -0.226562 L 11.300781 -0.386719 L 12.238281 -0.324219 C 12.625 -0.324219 12.851562 -0.386719 12.980469 -0.515625 C 13.078125 -0.644531 13.238281 -0.96875 13.496094 -1.550781 C 13.757812 -2.097656 13.886719 -2.421875 13.886719 -2.488281 C 13.886719 -2.648438 13.820312 -2.9375 13.691406 -3.324219 L 13.757812 -3.421875 C 13.820312 -3.488281 13.851562 -3.550781 13.917969 -3.679688 C 13.980469 -3.777344 14.015625 -3.875 14.015625 -3.941406 C 14.015625 -4.070312 13.886719 -4.132812 13.660156 -4.132812 C 13.464844 -4.132812 13.238281 -4.070312 12.949219 -4.003906 C 11.820312 -3.746094 10.980469 -3.648438 10.460938 -3.648438 C 7.234375 -3.746094 5.425781 -4.777344 4.972656 -6.75 C 4.519531 -8.6875 4.292969 -10.238281 4.292969 -11.429688 Z M 4.292969 -11.429688 "/></g></g></g><g fill="#ffffff" fill-opacity="1"><g transform="translate(155.665848, 312.216528)"><g><path d="M 5.003906 -13.402344 L 4.425781 -13.464844 L 4.164062 -15.5 C 4.164062 -15.824219 4.164062 -16.308594 4.230469 -16.953125 C 4.261719 -17.597656 4.292969 -18.117188 4.328125 -18.472656 L 4.875 -18.761719 L 7.816406 -18.859375 L 11.335938 -18.601562 L 12.109375 -18.761719 L 12.691406 -18.957031 L 12.789062 -19.117188 C 12.851562 -19.214844 12.882812 -19.308594 12.882812 -19.40625 C 12.882812 -19.503906 12.851562 -19.601562 12.753906 -19.664062 C 12.691406 -19.664062 12.5625 -20.34375 12.367188 -21.699219 L 12.011719 -22.3125 L 8.332031 -22.507812 L 5.878906 -22.121094 C 5.617188 -22.121094 5.261719 -22.152344 4.8125 -22.214844 C 4.359375 -22.25 4.003906 -22.28125 3.808594 -22.28125 L 1.96875 -22.476562 L 1.484375 -21.992188 L 1.519531 -21.992188 L 0.871094 -21.410156 L 0.710938 -21.117188 L 0.773438 -17.761719 L 0.710938 -13.691406 L 0.808594 -11.171875 L 0.515625 -6.363281 L 0.417969 -2.390625 L 0.742188 -0.613281 L 1.96875 -0.453125 L 3.90625 -0.195312 L 8.039062 0.195312 L 10.105469 0.0976562 L 10.429688 -0.160156 L 10.945312 -0.902344 L 11.109375 -1.484375 L 11.011719 -2.875 L 10.785156 -3.035156 C 10.625 -3.132812 10.332031 -3.230469 9.882812 -3.359375 C 9.429688 -3.457031 8.878906 -3.519531 8.300781 -3.519531 L 5.683594 -3.679688 L 4.035156 -3.519531 C 4.035156 -4.003906 4.003906 -4.714844 3.972656 -5.652344 C 3.90625 -6.554688 3.875 -7.296875 3.875 -7.816406 C 3.875 -8.039062 3.941406 -8.429688 4.035156 -8.945312 L 4.230469 -10.105469 L 6.425781 -9.785156 L 7.683594 -9.621094 L 8.167969 -9.785156 L 8.71875 -10.042969 L 8.71875 -10.011719 C 8.816406 -10.011719 8.914062 -10.011719 9.007812 -10.074219 L 9.105469 -10.074219 C 9.136719 -10.074219 9.203125 -10.074219 9.269531 -10.105469 C 9.332031 -10.140625 9.363281 -10.203125 9.429688 -10.269531 L 9.460938 -10.300781 C 9.589844 -10.367188 9.71875 -10.429688 9.882812 -10.496094 C 10.074219 -10.527344 10.171875 -10.785156 10.105469 -11.238281 L 10.011719 -11.335938 C 9.914062 -11.398438 9.816406 -11.496094 9.753906 -11.625 C 9.6875 -11.753906 9.65625 -11.914062 9.65625 -12.078125 C 9.65625 -12.464844 9.527344 -12.851562 9.332031 -13.207031 C 9.105469 -13.5625 8.816406 -13.722656 8.429688 -13.691406 C 7.945312 -13.5625 7.296875 -13.496094 6.457031 -13.496094 Z M 5.003906 -13.402344 "/></g></g></g><g fill="#ffffff" fill-opacity="1"><g transform="translate(168.803146, 312.216528)"><g/></g></g><g fill="#ffffff" fill-opacity="1"><g transform="translate(176.291732, 312.216528)"><g><path d="M 1.742188 -21.765625 L 1.582031 -21.765625 L 1.292969 -13.238281 L 0.644531 -8.847656 C 0.582031 -8.074219 0.515625 -6.941406 0.417969 -5.457031 C 0.289062 -3.941406 0.226562 -2.839844 0.195312 -2.132812 L 0.03125 -1.324219 L 0.417969 -0.808594 L 0.808594 -0.679688 L 1.550781 -0.613281 L 2.292969 -0.839844 C 2.292969 -0.839844 2.488281 -0.9375 2.839844 -1.128906 L 3.519531 -3.617188 C 3.488281 -4.328125 3.457031 -5.425781 3.390625 -6.910156 C 3.324219 -8.394531 3.261719 -9.492188 3.261719 -10.238281 L 3.679688 -12.789062 C 3.679688 -13.175781 3.648438 -13.820312 3.617188 -14.660156 C 3.550781 -15.5 3.519531 -16.113281 3.519531 -16.566406 L 3.488281 -16.792969 C 3.488281 -16.726562 3.519531 -16.664062 3.550781 -16.597656 C 3.585938 -16.5 3.617188 -16.4375 3.648438 -16.402344 L 3.777344 -16.113281 L 4.972656 -10.753906 L 5.230469 -9.269531 C 5.425781 -8.265625 5.585938 -7.265625 5.78125 -6.296875 C 5.972656 -5.296875 6.070312 -4.8125 6.070312 -4.84375 L 6.070312 -3.875 C 6.070312 -3.550781 6.039062 -3.230469 6.007812 -2.9375 C 6.007812 -2.421875 6.070312 -1.96875 6.265625 -1.519531 C 6.328125 -1.195312 6.554688 -0.902344 6.878906 -0.613281 C 7.199219 -0.324219 7.425781 -0.195312 7.589844 -0.195312 C 8.558594 -0.195312 9.234375 -0.226562 9.558594 -0.355469 C 9.816406 -0.417969 9.945312 -0.613281 9.945312 -0.871094 L 10.011719 -1.164062 C 10.011719 -1.226562 10.042969 -1.324219 10.074219 -1.484375 C 10.074219 -1.613281 10.105469 -1.742188 10.140625 -1.839844 L 10.171875 -1.96875 L 12.464844 -12.304688 L 12.496094 -13.109375 L 12.496094 -5.652344 L 12.527344 -0.582031 C 12.527344 -0.417969 12.660156 -0.257812 12.917969 -0.128906 C 13.175781 0 13.464844 0.0664062 13.789062 0.0664062 C 13.980469 0.0664062 14.113281 0.0664062 14.175781 0.03125 C 14.820312 -0.0976562 15.371094 -0.417969 15.789062 -0.902344 C 15.917969 -1.066406 15.984375 -1.582031 15.984375 -2.488281 C 15.984375 -2.746094 15.953125 -3.101562 15.953125 -3.550781 C 15.917969 -3.972656 15.917969 -4.199219 15.917969 -4.230469 L 16.144531 -6.007812 L 16.144531 -12.367188 L 16.402344 -16.242188 L 16.46875 -19.019531 C 16.46875 -19.117188 16.4375 -19.308594 16.402344 -19.632812 C 16.308594 -20.054688 16.273438 -20.375 16.273438 -20.570312 L 16.273438 -20.730469 C 16.273438 -20.828125 16.308594 -21.023438 16.308594 -21.3125 C 16.308594 -21.828125 16.082031 -22.28125 15.695312 -22.667969 C 15.242188 -23.054688 14.691406 -23.25 14.015625 -23.25 C 13.949219 -23.25 13.886719 -23.21875 13.820312 -23.21875 C 13.757812 -23.21875 13.691406 -23.21875 13.691406 -23.21875 C 13.628906 -23.21875 13.53125 -23.183594 13.402344 -23.121094 C 13.273438 -23.054688 13.175781 -22.960938 13.078125 -22.894531 C 12.949219 -22.796875 12.851562 -22.699219 12.753906 -22.636719 C 12.660156 -22.539062 12.59375 -22.507812 12.59375 -22.507812 L 10.980469 -21.925781 C 10.980469 -21.863281 10.945312 -21.765625 10.945312 -21.601562 C 10.945312 -21.441406 10.945312 -21.34375 10.945312 -21.28125 L 9.882812 -14.691406 L 9.105469 -11.851562 L 8.300781 -7.976562 L 7.296875 -13.335938 L 6.652344 -17.179688 L 6.296875 -18.601562 C 6.101562 -19.050781 5.941406 -19.632812 5.78125 -20.277344 C 5.617188 -20.730469 5.425781 -21.183594 5.167969 -21.601562 C 4.910156 -21.992188 4.714844 -22.28125 4.554688 -22.441406 C 4.359375 -22.605469 4.261719 -22.699219 4.230469 -22.699219 C 3.972656 -22.832031 3.421875 -22.894531 2.582031 -22.894531 L 2.292969 -22.894531 C 1.90625 -22.832031 1.742188 -22.476562 1.742188 -21.765625 Z M 1.742188 -21.765625 "/></g></g></g><g fill="#ffffff" fill-opacity="1"><g transform="translate(194.206232, 312.216528)"><g><path d="M 17.855469 -0.515625 L 16.824219 -6.167969 L 16.050781 -8.105469 L 16.050781 -8.074219 L 14.597656 -14.886719 L 14.046875 -16.242188 L 13.789062 -16.855469 L 12.175781 -21.601562 L 10.851562 -23.734375 L 10.65625 -23.800781 C 10.527344 -23.832031 10.332031 -23.863281 10.042969 -23.929688 C 9.71875 -23.960938 9.398438 -23.992188 9.007812 -23.992188 C 8.75 -23.992188 8.460938 -23.863281 8.136719 -23.667969 C 7.78125 -23.476562 7.589844 -23.25 7.589844 -23.023438 C 7.554688 -22.765625 7.363281 -21.925781 7.007812 -20.570312 L 7.007812 -20.601562 L 4.164062 -13.851562 L 0.808594 -3.359375 C 0.871094 -3.132812 0.773438 -2.648438 0.582031 -1.9375 C 0.582031 -1.90625 0.550781 -1.871094 0.550781 -1.808594 C 0.515625 -1.742188 0.515625 -1.679688 0.515625 -1.679688 C 0.453125 -1.292969 0.386719 -1.128906 0.386719 -1.128906 C 0.386719 -0.902344 0.644531 -0.355469 1.097656 0.484375 L 2.164062 0.582031 C 2.488281 0.582031 2.9375 0.355469 3.488281 -0.128906 C 3.808594 -2.355469 4.035156 -3.679688 4.101562 -4.132812 C 4.230469 -4.585938 4.488281 -5.296875 4.8125 -6.265625 L 6.554688 -6.492188 L 9.171875 -6.199219 L 12.980469 -6.199219 L 13.433594 -3.457031 L 14.144531 -0.417969 L 14.273438 -0.128906 C 14.371094 0.0664062 14.53125 0.226562 14.757812 0.386719 C 14.984375 0.582031 15.242188 0.644531 15.53125 0.644531 C 15.726562 0.644531 15.855469 0.644531 15.917969 0.613281 C 16.535156 0.355469 17.179688 0 17.855469 -0.515625 Z M 11.59375 -10.042969 L 11.496094 -9.976562 L 10.722656 -9.914062 L 7.910156 -9.914062 L 7.332031 -9.785156 C 7.136719 -9.71875 6.941406 -9.6875 6.683594 -9.65625 L 6.457031 -9.785156 L 7.039062 -11.042969 L 8.105469 -16.402344 L 8.105469 -16.371094 L 8.6875 -17.535156 L 9.136719 -18.792969 L 9.429688 -18.117188 L 9.429688 -18.148438 C 10.332031 -14.789062 10.945312 -12.527344 11.335938 -11.335938 C 11.335938 -11.171875 11.398438 -10.945312 11.464844 -10.65625 C 11.527344 -10.367188 11.558594 -10.171875 11.59375 -10.042969 Z M 11.59375 -10.042969 "/></g></g></g><g fill="#ffffff" fill-opacity="1"><g transform="translate(212.508069, 312.216528)"><g><path d="M -0.289062 -21.925781 L 0.226562 -20.375 L 1.257812 -16.855469 L 1.710938 -14.726562 L 3.679688 -9.203125 L 6.007812 -3.003906 C 6.199219 -2.421875 6.554688 -1.777344 7.070312 -1.066406 C 7.589844 -0.355469 8.007812 0.03125 8.332031 0.03125 C 8.976562 0.03125 9.621094 -0.226562 10.269531 -0.808594 C 10.558594 -1.066406 10.882812 -1.519531 11.238281 -2.226562 C 11.558594 -2.90625 11.820312 -3.457031 11.949219 -3.875 L 12.011719 -3.972656 L 13.464844 -7.878906 L 14.078125 -9.429688 C 14.078125 -9.460938 14.078125 -9.527344 14.144531 -9.621094 C 14.597656 -10.816406 14.886719 -11.65625 15.015625 -12.140625 L 15.210938 -13.109375 C 15.339844 -13.628906 15.402344 -14.015625 15.46875 -14.273438 C 15.46875 -14.335938 15.5 -14.464844 15.566406 -14.660156 C 15.597656 -14.855469 15.628906 -14.984375 15.628906 -15.082031 L 15.953125 -16.664062 L 16.339844 -18.761719 L 16.5 -19.761719 L 16.664062 -19.890625 C 16.726562 -19.988281 16.824219 -20.117188 16.921875 -20.3125 C 16.984375 -20.472656 17.050781 -20.632812 17.050781 -20.761719 L 17.050781 -20.957031 C 16.953125 -21.410156 16.566406 -21.667969 15.855469 -21.667969 C 15.824219 -21.667969 15.789062 -21.636719 15.757812 -21.636719 L 15.695312 -21.636719 C 15.597656 -21.636719 15.566406 -21.601562 15.566406 -21.601562 C 15.082031 -21.992188 14.660156 -22.183594 14.335938 -22.25 C 13.949219 -22.25 13.5625 -22.054688 13.144531 -21.699219 C 12.722656 -21.3125 12.527344 -21.054688 12.527344 -20.894531 C 12.527344 -19.925781 12.433594 -19.214844 12.304688 -18.730469 L 12.207031 -18.339844 C 12.140625 -18.082031 12.011719 -17.632812 11.882812 -17.019531 C 11.722656 -16.371094 11.59375 -15.824219 11.496094 -15.371094 C 11.367188 -14.886719 11.335938 -14.597656 11.335938 -14.53125 C 11.335938 -14.402344 11.207031 -13.851562 11.011719 -12.949219 C 10.785156 -12.042969 10.558594 -11.074219 10.332031 -10.105469 C 10.074219 -9.105469 9.945312 -8.523438 9.945312 -8.363281 L 8.945312 -5.132812 C 8.785156 -4.457031 8.652344 -4.003906 8.589844 -3.808594 C 8.492188 -4.070312 8.363281 -4.617188 8.203125 -5.457031 C 8.039062 -6.265625 7.976562 -6.714844 7.976562 -6.847656 C 7.976562 -6.910156 7.847656 -7.363281 7.621094 -8.136719 C 7.394531 -8.914062 7.167969 -9.6875 6.941406 -10.429688 C 6.683594 -11.171875 6.585938 -11.527344 6.585938 -11.527344 L 5.101562 -16.242188 C 5.003906 -16.695312 4.910156 -17.113281 4.84375 -17.503906 L 4.554688 -18.957031 L 4.519531 -19.246094 C 4.488281 -19.40625 4.457031 -19.601562 4.390625 -19.792969 C 4.328125 -19.988281 4.292969 -20.085938 4.261719 -20.117188 C 4.230469 -20.117188 4.164062 -20.214844 4.070312 -20.375 C 3.941406 -20.503906 3.90625 -20.601562 3.90625 -20.667969 L 3.90625 -20.828125 C 3.90625 -20.828125 3.90625 -20.859375 3.941406 -20.925781 L 3.941406 -20.988281 C 4.199219 -21.3125 4.328125 -21.636719 4.328125 -21.957031 C 4.328125 -22.410156 3.808594 -22.667969 2.808594 -22.667969 C 2.746094 -22.667969 2.648438 -22.699219 2.519531 -22.765625 L 2.195312 -22.765625 L 1.582031 -22.570312 C 1.550781 -22.539062 1.484375 -22.539062 1.421875 -22.539062 C 1.355469 -22.539062 1.355469 -22.539062 1.355469 -22.570312 C 1.257812 -22.636719 1.097656 -22.699219 0.871094 -22.699219 L 0.773438 -22.667969 C 0.613281 -22.636719 0.386719 -22.507812 0.128906 -22.3125 C -0.160156 -22.121094 -0.289062 -21.992188 -0.289062 -21.925781 Z M -0.289062 -21.925781 "/></g></g></g><g fill="#ffffff" fill-opacity="1"><g transform="translate(229.486495, 312.216528)"><g><path d="M 5.003906 -13.402344 L 4.425781 -13.464844 L 4.164062 -15.5 C 4.164062 -15.824219 4.164062 -16.308594 4.230469 -16.953125 C 4.261719 -17.597656 4.292969 -18.117188 4.328125 -18.472656 L 4.875 -18.761719 L 7.816406 -18.859375 L 11.335938 -18.601562 L 12.109375 -18.761719 L 12.691406 -18.957031 L 12.789062 -19.117188 C 12.851562 -19.214844 12.882812 -19.308594 12.882812 -19.40625 C 12.882812 -19.503906 12.851562 -19.601562 12.753906 -19.664062 C 12.691406 -19.664062 12.5625 -20.34375 12.367188 -21.699219 L 12.011719 -22.3125 L 8.332031 -22.507812 L 5.878906 -22.121094 C 5.617188 -22.121094 5.261719 -22.152344 4.8125 -22.214844 C 4.359375 -22.25 4.003906 -22.28125 3.808594 -22.28125 L 1.96875 -22.476562 L 1.484375 -21.992188 L 1.519531 -21.992188 L 0.871094 -21.410156 L 0.710938 -21.117188 L 0.773438 -17.761719 L 0.710938 -13.691406 L 0.808594 -11.171875 L 0.515625 -6.363281 L 0.417969 -2.390625 L 0.742188 -0.613281 L 1.96875 -0.453125 L 3.90625 -0.195312 L 8.039062 0.195312 L 10.105469 0.0976562 L 10.429688 -0.160156 L 10.945312 -0.902344 L 11.109375 -1.484375 L 11.011719 -2.875 L 10.785156 -3.035156 C 10.625 -3.132812 10.332031 -3.230469 9.882812 -3.359375 C 9.429688 -3.457031 8.878906 -3.519531 8.300781 -3.519531 L 5.683594 -3.679688 L 4.035156 -3.519531 C 4.035156 -4.003906 4.003906 -4.714844 3.972656 -5.652344 C 3.90625 -6.554688 3.875 -7.296875 3.875 -7.816406 C 3.875 -8.039062 3.941406 -8.429688 4.035156 -8.945312 L 4.230469 -10.105469 L 6.425781 -9.785156 L 7.683594 -9.621094 L 8.167969 -9.785156 L 8.71875 -10.042969 L 8.71875 -10.011719 C 8.816406 -10.011719 8.914062 -10.011719 9.007812 -10.074219 L 9.105469 -10.074219 C 9.136719 -10.074219 9.203125 -10.074219 9.269531 -10.105469 C 9.332031 -10.140625 9.363281 -10.203125 9.429688 -10.269531 L 9.460938 -10.300781 C 9.589844 -10.367188 9.71875 -10.429688 9.882812 -10.496094 C 10.074219 -10.527344 10.171875 -10.785156 10.105469 -11.238281 L 10.011719 -11.335938 C 9.914062 -11.398438 9.816406 -11.496094 9.753906 -11.625 C 9.6875 -11.753906 9.65625 -11.914062 9.65625 -12.078125 C 9.65625 -12.464844 9.527344 -12.851562 9.332031 -13.207031 C 9.105469 -13.5625 8.816406 -13.722656 8.429688 -13.691406 C 7.945312 -13.5625 7.296875 -13.496094 6.457031 -13.496094 Z M 5.003906 -13.402344 "/></g></g></g><g fill="#ffffff" fill-opacity="1"><g transform="translate(242.623793, 312.216528)"><g><path d="M 15.824219 -1.257812 L 15.789062 -1.355469 L 14.917969 -2.808594 L 14.917969 -2.777344 L 13.046875 -6.296875 L 10.722656 -10.105469 C 12.140625 -10.816406 12.917969 -11.171875 13.046875 -11.171875 L 12.917969 -11.207031 C 13.046875 -11.207031 13.175781 -11.335938 13.335938 -11.59375 C 13.789062 -12.625 14.046875 -13.433594 14.144531 -14.046875 C 14.144531 -14.207031 14.175781 -14.53125 14.175781 -15.015625 C 14.175781 -15.46875 14.144531 -15.984375 14.144531 -16.5 C 14.046875 -17.179688 13.917969 -17.761719 13.757812 -18.210938 C 13.5625 -18.664062 13.238281 -19.308594 12.722656 -20.085938 C 12.207031 -20.828125 11.140625 -21.539062 9.558594 -22.214844 C 7.945312 -22.894531 6.847656 -23.25 6.265625 -23.25 C 5.878906 -23.21875 5.101562 -23.152344 3.875 -23.023438 C 2.648438 -22.894531 2.003906 -22.832031 1.90625 -22.832031 L 1.097656 -22.667969 L 0.679688 -22.570312 C 0.613281 -22.539062 0.550781 -22.539062 0.484375 -22.539062 C -0.160156 -22.410156 -0.453125 -22.023438 -0.453125 -21.34375 C -0.453125 -20.699219 -0.289062 -20.246094 0.03125 -19.925781 L 0.453125 -19.699219 C 0.515625 -19.699219 0.644531 -19.699219 0.808594 -19.730469 C 0.9375 -19.730469 1.066406 -19.761719 1.164062 -19.761719 L 1.164062 -10.496094 L 0.679688 -10.429688 L -0.289062 -10.429688 L -1.257812 -10.011719 L -1.355469 -9.234375 C -1.355469 -8.785156 -1.324219 -8.394531 -1.195312 -8.074219 L -1.195312 -8.105469 C -1.035156 -7.589844 -0.582031 -7.332031 0.160156 -7.332031 C 0.417969 -7.332031 0.644531 -7.332031 0.871094 -7.394531 C 1.097656 -7.460938 1.257812 -7.523438 1.324219 -7.589844 L 1.324219 -5.003906 C 1.292969 -4.777344 1.292969 -4.070312 1.292969 -2.875 C 1.292969 -1.808594 1.292969 -1.128906 1.324219 -0.871094 C 1.386719 -0.0976562 1.808594 0.289062 2.648438 0.289062 C 3.230469 0.289062 3.617188 0.289062 3.808594 0.257812 C 3.808594 0.257812 3.84375 0.257812 3.875 0.257812 C 3.90625 0.257812 3.941406 0.226562 3.972656 0.226562 L 4.164062 0.226562 C 4.554688 0.195312 5.003906 -0.0664062 5.523438 -0.582031 L 5.523438 -1.839844 L 5.039062 -5.425781 L 5.039062 -8.234375 L 6.652344 -8.332031 C 6.847656 -8.074219 7.136719 -7.683594 7.523438 -7.199219 C 7.910156 -6.714844 8.203125 -6.363281 8.394531 -6.101562 L 8.363281 -6.136719 L 8.71875 -5.230469 L 11.980469 -0.324219 L 12.207031 -0.195312 C 12.335938 -0.128906 12.464844 -0.03125 12.660156 0.03125 C 12.851562 0.0976562 12.980469 0.128906 13.078125 0.128906 L 13.59375 0.128906 C 14.242188 0.128906 14.757812 0.0664062 15.082031 -0.0976562 C 15.566406 -0.324219 15.824219 -0.710938 15.824219 -1.257812 Z M 8.234375 -12.335938 L 7.75 -12.011719 C 7.652344 -11.949219 7.492188 -11.882812 7.265625 -11.820312 C 7.039062 -11.753906 6.8125 -11.722656 6.585938 -11.691406 L 6.199219 -11.625 L 5.003906 -11.464844 L 5.003906 -12.660156 C 4.972656 -12.820312 4.941406 -13.078125 4.910156 -13.433594 C 4.84375 -13.789062 4.84375 -14.046875 4.84375 -14.242188 L 4.84375 -19.601562 L 5.457031 -19.601562 C 6.039062 -19.601562 6.457031 -19.570312 6.714844 -19.570312 C 7.296875 -19.441406 8.039062 -19.148438 9.007812 -18.664062 C 9.398438 -18.601562 9.6875 -18.210938 9.882812 -17.566406 C 10.074219 -16.886719 10.171875 -16.308594 10.171875 -15.855469 C 10.171875 -14.984375 10.011719 -14.242188 9.71875 -13.628906 C 9.558594 -13.175781 9.074219 -12.753906 8.234375 -12.335938 Z M 8.234375 -12.335938 "/></g></g></g><g fill="#ffffff" fill-opacity="1"><g transform="translate(257.956013, 312.216528)"><g><path d="M 1.777344 -21.699219 L 1.679688 -21.601562 L 1.519531 -19.730469 C 1.519531 -19.375 1.613281 -19.019531 1.839844 -18.695312 L 2.839844 -18.632812 L 4.359375 -18.632812 L 3.972656 -14.078125 L 3.972656 -4.292969 C 3.972656 -4.132812 3.714844 -3.941406 3.230469 -3.679688 L 3.261719 -3.714844 L 2.195312 -3.550781 C 2.035156 -3.550781 1.871094 -3.292969 1.710938 -2.777344 C 1.519531 -2.261719 1.453125 -1.839844 1.453125 -1.519531 C 1.453125 -0.96875 1.871094 -0.550781 2.746094 -0.289062 L 4.554688 -0.289062 L 9.203125 -0.96875 L 9.71875 -0.96875 L 9.945312 -1.066406 C 10.105469 -1.128906 10.269531 -1.324219 10.460938 -1.648438 C 10.625 -1.96875 10.722656 -2.390625 10.722656 -2.90625 C 10.722656 -3.421875 10.460938 -3.808594 10.011719 -4.035156 C 9.558594 -4.261719 9.042969 -4.390625 8.460938 -4.390625 C 8.203125 -4.390625 8.007812 -4.359375 7.847656 -4.328125 L 7.589844 -4.425781 C 7.492188 -4.425781 7.460938 -4.875 7.460938 -5.714844 L 7.460938 -6.8125 C 7.460938 -6.941406 7.425781 -7.070312 7.394531 -7.136719 L 7.847656 -16.050781 C 7.847656 -16.371094 7.816406 -16.792969 7.78125 -17.371094 L 7.683594 -18.761719 L 7.847656 -18.921875 C 8.039062 -18.921875 8.363281 -18.921875 8.75 -18.988281 C 9.136719 -19.019531 9.460938 -19.050781 9.65625 -19.085938 L 10.398438 -19.085938 L 10.460938 -19.246094 C 10.460938 -19.375 10.496094 -19.570312 10.527344 -19.828125 C 10.558594 -20.085938 10.589844 -20.410156 10.589844 -20.730469 C 10.589844 -21.246094 10.367188 -21.636719 9.976562 -21.894531 C 9.558594 -22.152344 9.042969 -22.28125 8.460938 -22.28125 C 7.878906 -22.28125 7.039062 -22.121094 5.941406 -21.796875 L 3.195312 -21.796875 L 2.839844 -21.570312 L 2.808594 -21.539062 C 2.777344 -21.507812 2.746094 -21.507812 2.746094 -21.507812 C 2.488281 -21.699219 2.261719 -21.828125 2.097656 -21.828125 C 2.035156 -21.828125 1.90625 -21.765625 1.777344 -21.699219 Z M 1.777344 -21.699219 "/></g></g></g><g fill="#ffffff" fill-opacity="1"><g transform="translate(269.511668, 312.216528)"><g><path d="M 4.292969 -11.429688 L 4.328125 -12.269531 C 4.328125 -12.820312 4.359375 -13.464844 4.457031 -14.175781 C 4.519531 -14.886719 4.648438 -15.371094 4.8125 -15.695312 C 4.972656 -16.113281 5.261719 -16.597656 5.714844 -17.179688 C 6.167969 -17.726562 6.492188 -18.117188 6.75 -18.308594 C 6.878906 -18.40625 7.296875 -18.566406 8.074219 -18.792969 C 8.847656 -19.019531 9.332031 -19.148438 9.527344 -19.179688 C 9.589844 -19.179688 10.816406 -19.214844 13.144531 -19.214844 C 13.335938 -19.214844 13.496094 -19.375 13.691406 -19.730469 L 13.949219 -19.761719 C 14.078125 -19.792969 14.242188 -19.859375 14.402344 -19.988281 C 14.5625 -20.117188 14.660156 -20.246094 14.660156 -20.441406 C 14.660156 -20.828125 14.335938 -21.378906 13.722656 -22.054688 L 13.367188 -22.214844 C 13.109375 -22.347656 12.789062 -22.441406 12.398438 -22.570312 C 12.011719 -22.667969 11.691406 -22.734375 11.429688 -22.734375 L 11.109375 -22.734375 C 8.429688 -22.570312 6.523438 -22.121094 5.425781 -21.378906 C 4.261719 -20.601562 3.488281 -19.925781 3.101562 -19.34375 L 2.90625 -18.988281 C 2.777344 -18.761719 2.617188 -18.472656 2.453125 -18.082031 C 2.261719 -17.695312 2.132812 -17.339844 2.066406 -17.050781 C 1.195312 -14.464844 0.773438 -12.335938 0.773438 -10.6875 C 0.773438 -10.332031 0.773438 -10.105469 0.839844 -10.042969 L 0.902344 -8.847656 C 0.96875 -8.074219 1.128906 -7.167969 1.386719 -6.136719 C 1.648438 -5.101562 1.96875 -4.328125 2.421875 -3.84375 C 3.066406 -3.066406 3.875 -2.355469 4.84375 -1.742188 C 5.8125 -1.128906 6.75 -0.710938 7.621094 -0.515625 C 8.6875 -0.324219 9.492188 -0.226562 10.011719 -0.226562 L 11.300781 -0.386719 L 12.238281 -0.324219 C 12.625 -0.324219 12.851562 -0.386719 12.980469 -0.515625 C 13.078125 -0.644531 13.238281 -0.96875 13.496094 -1.550781 C 13.757812 -2.097656 13.886719 -2.421875 13.886719 -2.488281 C 13.886719 -2.648438 13.820312 -2.9375 13.691406 -3.324219 L 13.757812 -3.421875 C 13.820312 -3.488281 13.851562 -3.550781 13.917969 -3.679688 C 13.980469 -3.777344 14.015625 -3.875 14.015625 -3.941406 C 14.015625 -4.070312 13.886719 -4.132812 13.660156 -4.132812 C 13.464844 -4.132812 13.238281 -4.070312 12.949219 -4.003906 C 11.820312 -3.746094 10.980469 -3.648438 10.460938 -3.648438 C 7.234375 -3.746094 5.425781 -4.777344 4.972656 -6.75 C 4.519531 -8.6875 4.292969 -10.238281 4.292969 -11.429688 Z M 4.292969 -11.429688 "/></g></g></g><g fill="#ffffff" fill-opacity="1"><g transform="translate(283.907815, 312.216528)"><g><path d="M 3.84375 -22.894531 L 3.777344 -22.894531 L 3.035156 -22.605469 C 2.90625 -22.605469 2.777344 -22.570312 2.582031 -22.570312 C 2.390625 -22.539062 2.261719 -22.539062 2.164062 -22.539062 L 1.386719 -22.765625 L 0.902344 -22.214844 L 0.902344 -6.265625 L 0.679688 -2.292969 L 0.742188 -2.066406 C 0.773438 -1.9375 0.871094 -1.777344 1 -1.582031 C 1.128906 -1.386719 1.257812 -1.226562 1.453125 -1.164062 L 1.519531 -0.484375 L 2.035156 -0.324219 L 3.164062 -0.386719 L 3.777344 -0.773438 L 4.8125 -1.257812 L 4.941406 -1.839844 L 4.746094 -5.972656 C 4.648438 -7.847656 4.585938 -9.234375 4.585938 -10.074219 L 4.875 -10.460938 L 5.328125 -10.851562 L 5.359375 -10.882812 L 5.394531 -10.851562 L 5.523438 -10.851562 L 5.8125 -10.625 C 5.878906 -10.429688 6.101562 -10.140625 6.425781 -9.6875 C 6.75 -9.234375 7.105469 -8.785156 7.425781 -8.394531 L 7.910156 -7.78125 L 7.910156 -7.816406 L 9.363281 -5.394531 L 11.238281 -2.875 L 13.628906 -0.613281 L 15.082031 -0.03125 L 15.886719 -0.0976562 L 16.339844 -0.289062 L 16.726562 -0.871094 L 16.726562 -1.226562 L 16.757812 -1.613281 C 16.757812 -1.679688 16.792969 -1.777344 16.921875 -1.9375 C 17.050781 -2.132812 17.113281 -2.324219 17.113281 -2.519531 C 17.113281 -2.550781 17.148438 -2.746094 17.277344 -3.132812 L 17.242188 -3.292969 C 17.210938 -3.359375 17.148438 -3.488281 17.082031 -3.617188 C 17.019531 -3.746094 16.921875 -3.875 16.792969 -3.972656 L 16.726562 -4.003906 C 16.664062 -4.035156 16.628906 -4.070312 16.566406 -4.132812 C 16.5 -4.199219 16.4375 -4.230469 16.402344 -4.261719 C 16.371094 -4.261719 16.339844 -4.292969 16.339844 -4.328125 C 15.695312 -4.84375 15.144531 -5.261719 14.757812 -5.652344 C 14.691406 -5.683594 14.5 -5.878906 14.113281 -6.230469 C 13.722656 -6.585938 13.464844 -6.847656 13.273438 -7.039062 L 10.851562 -9.816406 C 10.140625 -10.589844 9.363281 -11.496094 8.460938 -12.5625 L 10.785156 -14.207031 L 12.691406 -16.4375 L 13.304688 -17.179688 C 13.722656 -17.695312 14.144531 -18.210938 14.5625 -18.761719 C 14.949219 -19.277344 15.175781 -19.601562 15.175781 -19.664062 L 15.144531 -19.664062 C 15.273438 -19.859375 15.433594 -20.183594 15.597656 -20.570312 L 14.949219 -21.570312 L 13.757812 -22.28125 L 13.660156 -21.992188 C 13.660156 -21.992188 13.660156 -22.023438 13.59375 -22.121094 C 13.53125 -22.214844 13.464844 -22.3125 13.367188 -22.410156 C 13.238281 -22.476562 13.144531 -22.539062 13.078125 -22.539062 L 12.980469 -22.507812 C 12.851562 -22.441406 12.625 -22.378906 12.367188 -22.378906 L 11.851562 -22.023438 C 11.109375 -21.117188 10.367188 -20.148438 9.621094 -19.117188 C 8.785156 -17.988281 8.332031 -17.371094 8.234375 -17.242188 L 7.234375 -16.597656 L 6.457031 -15.757812 L 6.136719 -15.210938 L 5.585938 -14.464844 L 5.585938 -14.5 L 4.777344 -13.757812 L 4.941406 -21.667969 L 4.875 -22.214844 C 4.875 -22.378906 4.714844 -22.539062 4.425781 -22.667969 C 4.101562 -22.796875 3.90625 -22.894531 3.84375 -22.894531 Z M 3.84375 -22.894531 "/></g></g></g></svg>