<svg xmlns="http://www.w3.org/2000/svg" xmlns:xlink="http://www.w3.org/1999/xlink" width="500" zoomAndPan="magnify" viewBox="0 0 375 374.999991" height="500" preserveAspectRatio="xMidYMid meet" version="1.0"><defs><g/><clipPath id="e61ee47ae4"><path d="M 73.171875 57.191406 L 304 57.191406 L 304 260.441406 L 73.171875 260.441406 Z M 73.171875 57.191406 " clip-rule="nonzero"/></clipPath><clipPath id="1287b72efb"><path d="M 156 117 L 225 117 L 225 223 L 156 223 Z M 156 117 " clip-rule="nonzero"/></clipPath><clipPath id="5faedc813a"><path d="M 98.980469 106.890625 L 244.746094 71.488281 L 278.554688 210.691406 L 132.792969 246.09375 Z M 98.980469 106.890625 " clip-rule="nonzero"/></clipPath><clipPath id="44777fd2f4"><path d="M 98.980469 106.890625 L 244.746094 71.488281 L 278.554688 210.691406 L 132.792969 246.09375 Z M 98.980469 106.890625 " clip-rule="nonzero"/></clipPath><clipPath id="0f2f6fda74"><path d="M 98.980469 106.890625 L 244.746094 71.488281 L 278.554688 210.691406 L 132.792969 246.09375 Z M 98.980469 106.890625 " clip-rule="nonzero"/></clipPath><clipPath id="c73703671e"><path d="M 149 113 L 222 113 L 222 220 L 149 220 Z M 149 113 " clip-rule="nonzero"/></clipPath><clipPath id="cd8ca656be"><path d="M 98.980469 106.890625 L 244.746094 71.488281 L 278.554688 210.691406 L 132.792969 246.09375 Z M 98.980469 106.890625 " clip-rule="nonzero"/></clipPath><clipPath id="886b02391c"><path d="M 98.980469 106.890625 L 244.746094 71.488281 L 278.554688 210.691406 L 132.792969 246.09375 Z M 98.980469 106.890625 " clip-rule="nonzero"/></clipPath><clipPath id="fed7ecc4ac"><path d="M 98.980469 106.890625 L 244.746094 71.488281 L 278.554688 210.691406 L 132.792969 246.09375 Z M 98.980469 106.890625 " clip-rule="nonzero"/></clipPath><clipPath id="0b716e85d4"><path d="M 211 106 L 228 106 L 228 118 L 211 118 Z M 211 106 " clip-rule="nonzero"/></clipPath><clipPath id="43ac14a272"><path d="M 98.980469 106.890625 L 244.746094 71.488281 L 278.554688 210.691406 L 132.792969 246.09375 Z M 98.980469 106.890625 " clip-rule="nonzero"/></clipPath><clipPath id="960339607b"><path d="M 98.980469 106.890625 L 244.746094 71.488281 L 278.554688 210.691406 L 132.792969 246.09375 Z M 98.980469 106.890625 " clip-rule="nonzero"/></clipPath><clipPath id="ef7f2cf669"><path d="M 98.980469 106.890625 L 244.746094 71.488281 L 278.554688 210.691406 L 132.792969 246.09375 Z M 98.980469 106.890625 " clip-rule="nonzero"/></clipPath><clipPath id="372929182d"><path d="M 135 215 L 156 215 L 156 240 L 135 240 Z M 135 215 " clip-rule="nonzero"/></clipPath><clipPath id="39b2c75665"><path d="M 98.980469 106.890625 L 244.746094 71.488281 L 278.554688 210.691406 L 132.792969 246.09375 Z M 98.980469 106.890625 " clip-rule="nonzero"/></clipPath><clipPath id="6635d9bcf8"><path d="M 98.980469 106.890625 L 244.746094 71.488281 L 278.554688 210.691406 L 132.792969 246.09375 Z M 98.980469 106.890625 " clip-rule="nonzero"/></clipPath><clipPath id="fe24d63464"><path d="M 98.980469 106.890625 L 244.746094 71.488281 L 278.554688 210.691406 L 132.792969 246.09375 Z M 98.980469 106.890625 " clip-rule="nonzero"/></clipPath><clipPath id="205f10a3a5"><path d="M 216 100 L 231 100 L 231 112 L 216 112 Z M 216 100 " clip-rule="nonzero"/></clipPath><clipPath id="1ea044e6b1"><path d="M 98.980469 106.890625 L 244.746094 71.488281 L 278.554688 210.691406 L 132.792969 246.09375 Z M 98.980469 106.890625 " clip-rule="nonzero"/></clipPath><clipPath id="8a88551e4b"><path d="M 98.980469 106.890625 L 244.746094 71.488281 L 278.554688 210.691406 L 132.792969 246.09375 Z M 98.980469 106.890625 " clip-rule="nonzero"/></clipPath><clipPath id="d9bf3329fc"><path d="M 98.980469 106.890625 L 244.746094 71.488281 L 278.554688 210.691406 L 132.792969 246.09375 Z M 98.980469 106.890625 " clip-rule="nonzero"/></clipPath><clipPath id="5e98328eb5"><path d="M 145 110 L 215 110 L 215 215 L 145 215 Z M 145 110 " clip-rule="nonzero"/></clipPath><clipPath id="132db36242"><path d="M 98.980469 106.890625 L 244.746094 71.488281 L 278.554688 210.691406 L 132.792969 246.09375 Z M 98.980469 106.890625 " clip-rule="nonzero"/></clipPath><clipPath id="1b185953f8"><path d="M 98.980469 106.890625 L 244.746094 71.488281 L 278.554688 210.691406 L 132.792969 246.09375 Z M 98.980469 106.890625 " clip-rule="nonzero"/></clipPath><clipPath id="29e0e2fcd6"><path d="M 98.980469 106.890625 L 244.746094 71.488281 L 278.554688 210.691406 L 132.792969 246.09375 Z M 98.980469 106.890625 " clip-rule="nonzero"/></clipPath><clipPath id="60d683773d"><path d="M 132 239 L 138 239 L 138 246 L 132 246 Z M 132 239 " clip-rule="nonzero"/></clipPath><clipPath id="3c35bc143d"><path d="M 98.980469 106.890625 L 244.746094 71.488281 L 278.554688 210.691406 L 132.792969 246.09375 Z M 98.980469 106.890625 " clip-rule="nonzero"/></clipPath><clipPath id="5e9088fdc6"><path d="M 98.980469 106.890625 L 244.746094 71.488281 L 278.554688 210.691406 L 132.792969 246.09375 Z M 98.980469 106.890625 " clip-rule="nonzero"/></clipPath><clipPath id="d1633d6ee4"><path d="M 98.980469 106.890625 L 244.746094 71.488281 L 278.554688 210.691406 L 132.792969 246.09375 Z M 98.980469 106.890625 " clip-rule="nonzero"/></clipPath><clipPath id="ca8ba968b3"><path d="M 214 103 L 230 103 L 230 115 L 214 115 Z M 214 103 " clip-rule="nonzero"/></clipPath><clipPath id="79351a7baf"><path d="M 98.980469 106.890625 L 244.746094 71.488281 L 278.554688 210.691406 L 132.792969 246.09375 Z M 98.980469 106.890625 " clip-rule="nonzero"/></clipPath><clipPath id="5cae29d980"><path d="M 98.980469 106.890625 L 244.746094 71.488281 L 278.554688 210.691406 L 132.792969 246.09375 Z M 98.980469 106.890625 " clip-rule="nonzero"/></clipPath><clipPath id="9127f434a8"><path d="M 98.980469 106.890625 L 244.746094 71.488281 L 278.554688 210.691406 L 132.792969 246.09375 Z M 98.980469 106.890625 " clip-rule="nonzero"/></clipPath><clipPath id="a40c9c5d9e"><path d="M 217 93 L 237 93 L 237 110 L 217 110 Z M 217 93 " clip-rule="nonzero"/></clipPath><clipPath id="608cc24301"><path d="M 98.980469 106.890625 L 244.746094 71.488281 L 278.554688 210.691406 L 132.792969 246.09375 Z M 98.980469 106.890625 " clip-rule="nonzero"/></clipPath><clipPath id="890f7df148"><path d="M 98.980469 106.890625 L 244.746094 71.488281 L 278.554688 210.691406 L 132.792969 246.09375 Z M 98.980469 106.890625 " clip-rule="nonzero"/></clipPath><clipPath id="ba7757a13e"><path d="M 98.980469 106.890625 L 244.746094 71.488281 L 278.554688 210.691406 L 132.792969 246.09375 Z M 98.980469 106.890625 " clip-rule="nonzero"/></clipPath><clipPath id="fa4f634e34"><path d="M 223 89 L 240 89 L 240 101 L 223 101 Z M 223 89 " clip-rule="nonzero"/></clipPath><clipPath id="b9f236dcae"><path d="M 98.980469 106.890625 L 244.746094 71.488281 L 278.554688 210.691406 L 132.792969 246.09375 Z M 98.980469 106.890625 " clip-rule="nonzero"/></clipPath><clipPath id="828d6c3585"><path d="M 98.980469 106.890625 L 244.746094 71.488281 L 278.554688 210.691406 L 132.792969 246.09375 Z M 98.980469 106.890625 " clip-rule="nonzero"/></clipPath><clipPath id="c26f7c1b6a"><path d="M 98.980469 106.890625 L 244.746094 71.488281 L 278.554688 210.691406 L 132.792969 246.09375 Z M 98.980469 106.890625 " clip-rule="nonzero"/></clipPath><clipPath id="79c0a465b6"><path d="M 226 84 L 242 84 L 242 96 L 226 96 Z M 226 84 " clip-rule="nonzero"/></clipPath><clipPath id="86846d6828"><path d="M 98.980469 106.890625 L 244.746094 71.488281 L 278.554688 210.691406 L 132.792969 246.09375 Z M 98.980469 106.890625 " clip-rule="nonzero"/></clipPath><clipPath id="c1f62544da"><path d="M 98.980469 106.890625 L 244.746094 71.488281 L 278.554688 210.691406 L 132.792969 246.09375 Z M 98.980469 106.890625 " clip-rule="nonzero"/></clipPath><clipPath id="f6aafe2e47"><path d="M 98.980469 106.890625 L 244.746094 71.488281 L 278.554688 210.691406 L 132.792969 246.09375 Z M 98.980469 106.890625 " clip-rule="nonzero"/></clipPath><clipPath id="d6b974878e"><path d="M 229 74 L 248 74 L 248 92 L 229 92 Z M 229 74 " clip-rule="nonzero"/></clipPath><clipPath id="8ddf499575"><path d="M 98.980469 106.890625 L 244.746094 71.488281 L 278.554688 210.691406 L 132.792969 246.09375 Z M 98.980469 106.890625 " clip-rule="nonzero"/></clipPath><clipPath id="afc1f784f2"><path d="M 98.980469 106.890625 L 244.746094 71.488281 L 278.554688 210.691406 L 132.792969 246.09375 Z M 98.980469 106.890625 " clip-rule="nonzero"/></clipPath><clipPath id="ad77c25f62"><path d="M 98.980469 106.890625 L 244.746094 71.488281 L 278.554688 210.691406 L 132.792969 246.09375 Z M 98.980469 106.890625 " clip-rule="nonzero"/></clipPath><clipPath id="26a553dd63"><path d="M 172.265625 143.550781 L 202.734375 143.550781 L 202.734375 174.019531 L 172.265625 174.019531 Z M 172.265625 143.550781 " clip-rule="nonzero"/></clipPath><clipPath id="181242a721"><path d="M 187.5 143.550781 C 179.085938 143.550781 172.265625 150.371094 172.265625 158.785156 C 172.265625 167.199219 179.085938 174.019531 187.5 174.019531 C 195.914062 174.019531 202.734375 167.199219 202.734375 158.785156 C 202.734375 150.371094 195.914062 143.550781 187.5 143.550781 Z M 187.5 143.550781 " clip-rule="nonzero"/></clipPath><clipPath id="2a8bd9055c"><path d="M 172.265625 143.550781 L 202.722656 143.550781 L 202.722656 174.007812 L 172.265625 174.007812 Z M 172.265625 143.550781 " clip-rule="nonzero"/></clipPath><clipPath id="024de1fbdc"><path d="M 187.496094 143.550781 C 179.085938 143.550781 172.265625 150.371094 172.265625 158.78125 C 172.265625 167.191406 179.085938 174.007812 187.496094 174.007812 C 195.90625 174.007812 202.722656 167.191406 202.722656 158.78125 C 202.722656 150.371094 195.90625 143.550781 187.496094 143.550781 Z M 187.496094 143.550781 " clip-rule="nonzero"/></clipPath></defs><g clip-path="url(#e61ee47ae4)"><path fill="#000000" d="M 303.648438 158.789062 C 303.648438 143.164062 279.207031 131.609375 246.660156 125.382812 C 249.316406 117.746094 251.5 110.351562 253.015625 103.449219 C 258.058594 80.398438 255.621094 64.691406 246.160156 59.230469 C 243.816406 57.878906 241.117188 57.191406 238.132812 57.191406 C 225.210938 57.191406 207.183594 70.214844 188.671875 91.679688 C 170.167969 70.214844 152.140625 57.191406 139.207031 57.191406 C 136.230469 57.191406 133.527344 57.878906 131.179688 59.230469 C 117.632812 67.050781 119.867188 94.042969 130.777344 125.371094 C 98.183594 131.582031 73.691406 143.148438 73.691406 158.789062 C 73.691406 174.421875 98.144531 185.972656 130.699219 192.199219 C 128.027344 199.839844 125.84375 207.226562 124.335938 214.132812 C 119.289062 237.1875 121.722656 252.890625 131.179688 258.347656 C 133.527344 259.703125 136.230469 260.382812 139.207031 260.382812 C 152.140625 260.382812 170.167969 247.355469 188.671875 225.902344 C 207.175781 247.355469 225.203125 260.390625 238.132812 260.390625 C 241.117188 260.390625 243.820312 259.703125 246.160156 258.347656 C 255.621094 252.890625 258.058594 237.1875 253.011719 214.132812 C 251.5 207.226562 249.316406 199.839844 246.652344 192.199219 C 279.207031 185.972656 303.648438 174.421875 303.648438 158.789062 Z M 238.132812 63.132812 C 240.0625 63.132812 241.765625 63.5625 243.191406 64.378906 C 250.125 68.382812 251.585938 82.160156 247.207031 102.179688 C 245.6875 109.125 243.464844 116.582031 240.738281 124.320312 C 231.15625 122.722656 220.996094 121.574219 210.621094 120.894531 C 204.707031 111.957031 198.648438 103.734375 192.605469 96.363281 C 210.039062 75.988281 226.949219 63.132812 238.132812 63.132812 Z M 216.984375 175.125 C 213.820312 180.59375 210.558594 185.894531 207.226562 190.988281 C 201.253906 191.292969 195.070312 191.464844 188.671875 191.464844 C 182.273438 191.464844 176.085938 191.292969 170.121094 190.988281 C 166.78125 185.894531 163.523438 180.59375 160.367188 175.125 C 157.175781 169.59375 154.230469 164.15625 151.515625 158.84375 C 154.285156 153.398438 157.210938 147.917969 160.371094 142.453125 C 163.523438 136.984375 166.789062 131.691406 170.121094 126.585938 C 176.085938 126.285156 182.273438 126.113281 188.671875 126.113281 C 195.070312 126.113281 201.257812 126.285156 207.226562 126.585938 C 210.558594 131.695312 213.820312 136.984375 216.976562 142.453125 C 220.125 147.902344 223.046875 153.367188 225.8125 158.789062 C 223.046875 164.21875 220.128906 169.6875 216.984375 175.125 Z M 229.078125 165.410156 C 232.726562 173.003906 235.976562 180.488281 238.734375 187.757812 C 231.261719 188.957031 223.195312 189.890625 214.617188 190.527344 C 217.15625 186.503906 219.660156 182.355469 222.125 178.101562 C 224.566406 173.878906 226.859375 169.636719 229.078125 165.410156 Z M 203.144531 197.09375 C 198.386719 204.035156 193.527344 210.554688 188.671875 216.507812 C 183.824219 210.550781 178.96875 204.035156 174.199219 197.09375 C 179.015625 197.296875 183.847656 197.410156 188.671875 197.410156 C 193.5 197.410156 198.332031 197.296875 203.144531 197.09375 Z M 162.734375 190.527344 C 154.148438 189.890625 146.082031 188.957031 138.609375 187.757812 C 141.375 180.5 144.613281 173.011719 148.261719 165.410156 C 150.492188 169.683594 152.8125 173.921875 155.21875 178.101562 C 157.683594 182.355469 160.191406 186.503906 162.734375 190.527344 Z M 148.238281 152.234375 C 144.472656 144.441406 141.230469 136.9375 138.519531 129.839844 C 146.015625 128.640625 154.113281 127.699219 162.734375 127.050781 C 160.1875 131.078125 157.679688 135.21875 155.21875 139.484375 C 152.765625 143.730469 150.46875 147.992188 148.238281 152.234375 Z M 174.207031 120.492188 C 178.96875 113.550781 183.824219 107.03125 188.671875 101.066406 C 193.527344 107.03125 198.386719 113.550781 203.144531 120.492188 C 198.332031 120.285156 193.5 120.171875 188.671875 120.171875 C 183.847656 120.175781 179.015625 120.285156 174.207031 120.492188 Z M 222.125 139.484375 C 219.664062 135.207031 217.15625 131.078125 214.617188 127.050781 C 223.195312 127.699219 231.261719 128.632812 238.734375 129.820312 C 235.976562 137.082031 232.726562 144.582031 229.078125 152.175781 C 226.859375 147.949219 224.566406 143.707031 222.125 139.484375 Z M 134.15625 64.378906 C 135.578125 63.554688 137.285156 63.132812 139.207031 63.132812 C 150.390625 63.132812 167.300781 75.988281 184.738281 96.363281 C 178.699219 103.734375 172.636719 111.957031 166.722656 120.894531 C 156.316406 121.574219 146.113281 122.738281 136.496094 124.34375 C 125.261719 92.628906 124.917969 69.710938 134.15625 64.378906 Z M 79.636719 158.789062 C 79.636719 148.128906 99.65625 136.964844 132.746094 130.832031 C 136.164062 139.96875 140.261719 149.386719 144.882812 158.746094 C 140.140625 168.265625 136.042969 177.667969 132.640625 186.71875 C 99.609375 180.59375 79.636719 169.441406 79.636719 158.789062 Z M 139.207031 254.449219 C 137.253906 254.449219 135.609375 254.039062 134.15625 253.210938 C 127.222656 249.207031 125.757812 235.429688 130.140625 215.40625 C 131.664062 208.457031 133.878906 200.992188 136.613281 193.257812 C 146.191406 194.859375 156.355469 196.007812 166.71875 196.6875 C 172.636719 205.621094 178.691406 213.84375 184.734375 221.222656 C 167.300781 241.59375 150.390625 254.449219 139.207031 254.449219 Z M 247.199219 215.40625 C 251.585938 235.425781 250.125 249.203125 243.191406 253.207031 C 241.757812 254.023438 240.0625 254.449219 238.132812 254.449219 C 226.949219 254.449219 210.039062 241.589844 192.605469 221.21875 C 198.648438 213.84375 204.707031 205.617188 210.628906 196.683594 C 220.996094 196.003906 231.15625 194.855469 240.738281 193.257812 C 243.464844 200.992188 245.6875 208.453125 247.199219 215.40625 Z M 244.703125 186.722656 C 241.308594 177.679688 237.21875 168.296875 232.492188 158.792969 C 237.21875 149.285156 241.308594 139.898438 244.707031 130.859375 C 277.730469 136.988281 297.710938 148.148438 297.710938 158.792969 C 297.710938 169.441406 277.730469 180.59375 244.703125 186.722656 Z M 244.703125 186.722656 " fill-opacity="1" fill-rule="nonzero"/></g><path fill="#000000" d="M 201.300781 158.789062 C 201.300781 159.617188 201.222656 160.441406 201.058594 161.253906 C 200.898438 162.066406 200.65625 162.855469 200.339844 163.621094 C 200.023438 164.386719 199.632812 165.117188 199.171875 165.804688 C 198.710938 166.496094 198.1875 167.132812 197.601562 167.71875 C 197.015625 168.304688 196.378906 168.828125 195.6875 169.289062 C 195 169.75 194.273438 170.136719 193.503906 170.457031 C 192.738281 170.773438 191.949219 171.011719 191.136719 171.175781 C 190.324219 171.335938 189.5 171.417969 188.671875 171.417969 C 187.84375 171.417969 187.023438 171.335938 186.207031 171.175781 C 185.394531 171.011719 184.605469 170.773438 183.839844 170.457031 C 183.074219 170.136719 182.34375 169.75 181.65625 169.289062 C 180.964844 168.828125 180.328125 168.304688 179.742188 167.71875 C 179.15625 167.132812 178.632812 166.496094 178.171875 165.804688 C 177.710938 165.117188 177.320312 164.386719 177.003906 163.621094 C 176.6875 162.855469 176.449219 162.066406 176.285156 161.253906 C 176.125 160.441406 176.042969 159.617188 176.042969 158.789062 C 176.042969 157.960938 176.125 157.140625 176.285156 156.328125 C 176.449219 155.511719 176.6875 154.722656 177.003906 153.957031 C 177.320312 153.191406 177.710938 152.464844 178.171875 151.773438 C 178.632812 151.085938 179.15625 150.445312 179.742188 149.859375 C 180.328125 149.273438 180.964844 148.75 181.65625 148.289062 C 182.34375 147.828125 183.074219 147.441406 183.839844 147.125 C 184.605469 146.804688 185.394531 146.566406 186.207031 146.40625 C 187.023438 146.242188 187.84375 146.164062 188.671875 146.164062 C 189.5 146.164062 190.324219 146.242188 191.136719 146.40625 C 191.949219 146.566406 192.738281 146.804688 193.503906 147.125 C 194.273438 147.441406 195 147.828125 195.6875 148.289062 C 196.378906 148.75 197.015625 149.273438 197.601562 149.859375 C 198.1875 150.445312 198.710938 151.085938 199.171875 151.773438 C 199.632812 152.464844 200.023438 153.191406 200.339844 153.957031 C 200.65625 154.722656 200.898438 155.511719 201.058594 156.328125 C 201.222656 157.140625 201.300781 157.960938 201.300781 158.789062 Z M 201.300781 158.789062 " fill-opacity="1" fill-rule="nonzero"/><g clip-path="url(#1287b72efb)"><g clip-path="url(#5faedc813a)"><g clip-path="url(#44777fd2f4)"><g clip-path="url(#0f2f6fda74)"><path fill="#000000" d="M 156.46875 221.296875 C 156.636719 221.777344 156.972656 222.039062 157.328125 221.996094 C 157.515625 221.980469 157.695312 222.128906 157.785156 222.21875 C 157.859375 222.292969 157.96875 222.332031 158.074219 222.308594 C 158.078125 222.3125 158.089844 222.3125 158.09375 222.308594 C 158.1875 222.289062 158.269531 222.21875 158.3125 222.132812 C 159.816406 218.953125 169.414062 202.679688 170.925781 200.585938 C 176.710938 192.6875 182.28125 184.644531 187.480469 176.6875 C 191.75 170.160156 195.976562 163.453125 200.058594 156.972656 C 202.28125 153.457031 204.488281 149.945312 206.714844 146.445312 C 209.628906 141.878906 213.027344 136.574219 216.492188 131.4375 C 217.421875 130.054688 218.4375 128.660156 219.417969 127.304688 C 221.277344 124.75 223.191406 122.105469 224.710938 119.335938 C 224.785156 119.195312 224.753906 119.027344 224.632812 118.925781 C 224.152344 118.539062 223.648438 118.183594 223.136719 117.886719 C 222.976562 117.792969 222.78125 117.84375 222.691406 118 C 217.742188 126.292969 212.578125 134.003906 207.113281 142.160156 L 204.5 146.0625 C 203.28125 147.886719 202.074219 149.769531 200.914062 151.597656 C 198.773438 154.941406 196.566406 158.394531 194.167969 161.617188 C 193.148438 162.992188 192.046875 164.34375 190.992188 165.652344 C 188.746094 168.429688 186.429688 171.296875 184.65625 174.53125 C 181.535156 180.203125 177.933594 185.582031 174.445312 190.785156 C 172.449219 193.769531 170.382812 196.855469 168.417969 199.972656 C 167.40625 201.582031 166.367188 203.191406 165.320312 204.804688 C 162.304688 209.472656 159.183594 214.300781 156.675781 219.261719 C 156.625 219.359375 156.632812 219.476562 156.6875 219.574219 C 156.816406 219.78125 156.800781 220.003906 156.648438 220.230469 C 156.460938 220.519531 156.304688 220.820312 156.46875 221.296875 " fill-opacity="1" fill-rule="nonzero"/></g></g></g></g><g clip-path="url(#c73703671e)"><g clip-path="url(#cd8ca656be)"><g clip-path="url(#886b02391c)"><g clip-path="url(#fed7ecc4ac)"><path fill="#000000" d="M 219.011719 115.386719 C 218.429688 114.96875 217.828125 114.542969 217.191406 114.152344 C 216.863281 113.960938 216.503906 113.730469 216.070312 113.425781 C 215.996094 113.375 215.902344 113.355469 215.8125 113.371094 C 215.8125 113.371094 215.804688 113.375 215.804688 113.375 C 215.722656 113.394531 215.648438 113.453125 215.597656 113.53125 C 213.269531 117.695312 210.5 121.621094 207.816406 125.421875 C 205.214844 129.105469 202.527344 132.914062 200.238281 136.9375 C 194.746094 146.621094 188.980469 155.6875 182.617188 164.652344 C 176.3125 173.554688 170.375 182.902344 164.636719 191.941406 C 159.859375 199.46875 154.917969 207.25 149.796875 214.71875 C 149.75 214.78125 149.730469 214.859375 149.738281 214.9375 C 149.746094 214.984375 149.753906 215.035156 149.765625 215.085938 C 149.773438 215.125 149.785156 215.164062 149.785156 215.179688 C 149.683594 216.878906 150.136719 218.226562 151.125 219.179688 C 151.777344 219.8125 153.175781 219.664062 154.40625 219.367188 C 154.582031 219.320312 154.753906 219.273438 154.921875 219.230469 C 155.007812 219.207031 155.082031 219.144531 155.125 219.066406 C 158.335938 212.554688 162.535156 206.246094 166.597656 200.140625 L 167.792969 198.335938 C 169.183594 196.238281 170.671875 194.152344 172.105469 192.125 C 173.511719 190.152344 174.972656 188.105469 176.339844 186.042969 C 178.007812 183.542969 179.449219 180.882812 180.839844 178.304688 C 181.933594 176.292969 183.0625 174.207031 184.285156 172.226562 C 186.011719 169.425781 188.097656 166.828125 190.121094 164.316406 C 191.789062 162.242188 193.515625 160.09375 195.042969 157.828125 C 196.351562 155.878906 197.640625 153.871094 198.890625 151.933594 C 200.613281 149.242188 202.398438 146.46875 204.253906 143.804688 C 210.347656 135.089844 215.949219 126.425781 221.382812 117.308594 C 221.425781 117.238281 221.441406 117.144531 221.414062 117.0625 C 221.394531 116.972656 221.335938 116.902344 221.257812 116.859375 C 220.472656 116.425781 219.730469 115.894531 219.011719 115.386719 " fill-opacity="1" fill-rule="nonzero"/></g></g></g></g><g clip-path="url(#0b716e85d4)"><g clip-path="url(#43ac14a272)"><g clip-path="url(#960339607b)"><g clip-path="url(#ef7f2cf669)"><path fill="#000000" d="M 212.535156 109.722656 C 212.980469 110.015625 213.433594 110.316406 213.980469 110.507812 C 215.277344 110.976562 216.707031 111.980469 217.941406 112.878906 C 219.527344 114.027344 221.113281 115.046875 222.9375 116.097656 L 223.386719 116.355469 C 224.132812 116.789062 224.835938 117.191406 225.484375 117.703125 C 225.605469 117.800781 225.773438 117.726562 225.960938 117.757812 C 226.007812 117.769531 226.050781 117.761719 226.097656 117.75 C 226.152344 117.738281 226.199219 117.714844 226.238281 117.675781 C 226.648438 117.289062 227.0625 116.722656 227.539062 115.898438 C 227.617188 115.765625 227.582031 115.589844 227.464844 115.488281 C 226.804688 114.9375 226.15625 114.339844 225.535156 113.765625 C 224.054688 112.394531 222.519531 110.976562 220.625 110.027344 C 220.625 110.023438 220.625 110.023438 220.625 110.023438 C 219.40625 109.417969 218.214844 108.710938 217.0625 108.027344 C 216.207031 107.519531 215.328125 106.996094 214.4375 106.519531 C 214.300781 106.445312 214.125 106.480469 214.03125 106.601562 C 213.515625 107.261719 212.707031 107.972656 211.992188 108.605469 L 211.804688 108.773438 C 211.726562 108.84375 211.683594 108.945312 211.695312 109.054688 C 211.710938 109.15625 211.769531 109.25 211.863281 109.300781 C 212.089844 109.429688 212.3125 109.578125 212.535156 109.722656 " fill-opacity="1" fill-rule="nonzero"/></g></g></g></g><g clip-path="url(#372929182d)"><g clip-path="url(#39b2c75665)"><g clip-path="url(#6635d9bcf8)"><g clip-path="url(#fe24d63464)"><path fill="#000000" d="M 136.933594 238.296875 C 137.117188 238.394531 137.308594 238.492188 137.507812 238.570312 C 138.023438 238.785156 138.285156 239.066406 138.53125 239.460938 C 138.582031 239.535156 138.667969 239.59375 138.757812 239.601562 C 138.800781 239.609375 138.84375 239.609375 138.882812 239.597656 C 138.933594 239.585938 138.984375 239.558594 139.023438 239.523438 C 140.578125 238.144531 142.226562 236.640625 143.820312 234.855469 L 145.046875 233.476562 C 146.933594 231.351562 148.890625 229.152344 150.773438 226.9375 C 151.878906 225.636719 153.027344 224.839844 154.238281 223.996094 C 154.652344 223.710938 155.070312 223.421875 155.5 223.101562 C 155.566406 223.050781 155.617188 222.972656 155.625 222.882812 C 155.636719 222.796875 155.613281 222.707031 155.5625 222.644531 C 155.351562 222.375 155.183594 222.074219 155.089844 221.78125 C 155.011719 221.554688 154.96875 221.335938 154.945312 221.085938 C 154.9375 220.996094 154.890625 220.90625 154.8125 220.851562 C 154.734375 220.792969 154.636719 220.773438 154.542969 220.796875 C 152.351562 221.328125 151.0625 221.386719 150.089844 220.214844 C 149.003906 218.902344 148.433594 217.664062 148.289062 216.328125 C 148.277344 216.234375 148.226562 216.148438 148.152344 216.09375 C 148.003906 215.988281 147.808594 216.0625 147.640625 216.097656 C 147.542969 216.117188 147.453125 216.132812 147.296875 216.171875 C 146.625 216.324219 145.984375 216.464844 145.398438 216.257812 C 145.117188 216.152344 144.894531 215.980469 144.707031 215.746094 C 144.636719 215.652344 144.523438 215.613281 144.410156 215.625 C 144.296875 215.636719 144.199219 215.707031 144.15625 215.804688 C 144.015625 216.101562 143.871094 216.398438 143.730469 216.691406 C 143.1875 217.816406 142.625 218.980469 142.253906 220.214844 C 141.238281 223.539062 139.910156 226.808594 138.621094 229.976562 C 138.316406 230.730469 138.015625 231.476562 137.710938 232.226562 C 137.023438 233.957031 136.332031 235.699219 135.652344 237.453125 C 135.617188 237.542969 135.625 237.644531 135.671875 237.726562 C 135.71875 237.816406 135.800781 237.875 135.898438 237.886719 C 136.242188 237.949219 136.574219 238.117188 136.933594 238.296875 " fill-opacity="1" fill-rule="nonzero"/></g></g></g></g><g clip-path="url(#205f10a3a5)"><g clip-path="url(#1ea044e6b1)"><g clip-path="url(#8a88551e4b)"><g clip-path="url(#d9bf3329fc)"><path fill="#000000" d="M 217.390625 102.578125 C 217.46875 102.621094 217.550781 102.660156 217.625 102.707031 C 218.835938 103.410156 219.953125 104.292969 221.039062 105.140625 C 221.761719 105.710938 222.507812 106.304688 223.277344 106.835938 C 223.988281 107.335938 224.714844 107.890625 225.414062 108.425781 C 226.78125 109.476562 228.199219 110.5625 229.691406 111.382812 C 229.765625 111.421875 229.851562 111.433594 229.925781 111.414062 C 229.964844 111.40625 229.996094 111.394531 230.023438 111.375 C 230.121094 111.308594 230.183594 111.195312 230.171875 111.078125 C 230.167969 111 230.214844 110.929688 230.289062 110.816406 C 230.402344 110.648438 230.585938 110.375 230.421875 110.003906 C 230.117188 109.332031 229.304688 109.035156 228.585938 108.769531 C 228.277344 108.660156 227.988281 108.550781 227.789062 108.433594 C 227.789062 108.429688 227.789062 108.429688 227.78125 108.429688 C 226.792969 107.855469 225.847656 106.960938 224.9375 106.097656 L 224.375 105.570312 C 223.140625 104.417969 221.855469 103.386719 220.335938 102.34375 C 220.167969 102.222656 219.988281 102.082031 219.804688 101.9375 C 219.339844 101.566406 218.796875 101.140625 218.175781 101 C 217.9375 100.941406 217.296875 100.796875 216.882812 101.25 C 216.703125 101.464844 216.628906 101.6875 216.671875 101.898438 C 216.742188 102.25 217.085938 102.421875 217.390625 102.578125 " fill-opacity="1" fill-rule="nonzero"/></g></g></g></g><g clip-path="url(#5e98328eb5)"><g clip-path="url(#132db36242)"><g clip-path="url(#1b185953f8)"><g clip-path="url(#29e0e2fcd6)"><path fill="#000000" d="M 145.691406 214.449219 C 145.714844 214.523438 145.722656 214.574219 145.730469 214.605469 C 145.746094 214.695312 145.820312 214.828125 145.90625 214.875 C 145.984375 214.925781 146.121094 214.921875 146.207031 214.890625 L 146.238281 214.882812 C 146.242188 214.882812 146.242188 214.882812 146.246094 214.882812 C 146.398438 214.855469 146.558594 214.828125 146.722656 214.800781 C 147.019531 214.757812 147.347656 214.703125 147.664062 214.625 C 147.800781 214.59375 147.9375 214.554688 148.074219 214.511719 C 148.140625 214.484375 148.195312 214.445312 148.234375 214.386719 C 153.347656 206.957031 158.246094 199.207031 162.988281 191.710938 C 168.820312 182.488281 174.851562 172.949219 181.332031 163.917969 C 182.28125 162.609375 183.238281 161.308594 184.195312 160 C 186.769531 156.503906 189.433594 152.886719 191.730469 149.136719 C 193.191406 146.746094 194.539062 144.242188 195.847656 141.828125 C 197.144531 139.421875 198.484375 136.933594 199.941406 134.5625 C 201.949219 131.277344 204.1875 128.09375 206.347656 125.011719 C 209.101562 121.089844 211.953125 117.039062 214.363281 112.726562 C 214.40625 112.648438 214.417969 112.558594 214.390625 112.476562 C 214.367188 112.390625 214.308594 112.324219 214.230469 112.28125 C 213.839844 112.082031 213.453125 111.902344 213.03125 111.734375 C 212.769531 111.652344 212.480469 111.429688 212.171875 111.199219 C 212.027344 111.082031 211.878906 110.964844 211.726562 110.863281 C 211.652344 110.8125 211.5625 110.792969 211.480469 110.8125 C 211.417969 110.816406 211.316406 110.878906 211.273438 110.953125 C 209.554688 113.535156 207.773438 116.148438 206.054688 118.675781 C 202.175781 124.371094 198.160156 130.261719 194.589844 136.292969 C 190.527344 143.136719 185.855469 149.628906 181.335938 155.910156 C 179.347656 158.683594 177.28125 161.546875 175.296875 164.421875 C 169.425781 172.894531 163.394531 182.414062 156.296875 194.363281 C 154.101562 198.042969 151.792969 201.699219 149.558594 205.238281 C 148.140625 207.476562 146.730469 209.707031 145.335938 211.964844 C 145.285156 212.046875 145.273438 212.148438 145.300781 212.242188 C 145.355469 212.394531 145.367188 212.523438 145.324219 212.679688 C 145.300781 212.753906 145.277344 212.820312 145.269531 212.902344 C 145.265625 212.945312 145.265625 212.984375 145.273438 213.03125 C 145.335938 213.238281 145.394531 213.445312 145.460938 213.648438 C 145.546875 213.910156 145.625 214.167969 145.691406 214.449219 " fill-opacity="1" fill-rule="nonzero"/></g></g></g></g><g clip-path="url(#60d683773d)"><g clip-path="url(#3c35bc143d)"><g clip-path="url(#5e9088fdc6)"><g clip-path="url(#d1633d6ee4)"><path fill="#000000" d="M 133.121094 245.734375 C 133.1875 245.71875 133.25 245.679688 133.292969 245.625 C 133.582031 245.269531 133.871094 244.90625 134.15625 244.550781 C 135.023438 243.457031 135.84375 242.425781 136.664062 241.667969 C 136.832031 241.503906 137.011719 241.347656 137.1875 241.191406 L 137.421875 240.976562 C 137.523438 240.882812 137.53125 240.679688 137.480469 240.554688 C 137.367188 240.28125 137.292969 240.109375 137.117188 239.996094 L 137.011719 239.949219 C 136.820312 239.863281 136.648438 239.789062 136.46875 239.699219 C 136.46875 239.695312 136.460938 239.695312 136.460938 239.695312 C 136.398438 239.664062 136.335938 239.628906 136.269531 239.589844 C 136.046875 239.464844 135.761719 239.304688 135.414062 239.335938 C 135.398438 239.339844 135.375 239.332031 135.320312 239.320312 C 135.316406 239.316406 135.242188 239.296875 135.238281 239.292969 C 135.082031 239.257812 134.917969 239.347656 134.863281 239.496094 C 134.070312 241.550781 133.378906 243.457031 132.738281 245.3125 C 132.683594 245.460938 132.746094 245.628906 132.886719 245.707031 C 132.957031 245.746094 133.042969 245.753906 133.121094 245.734375 " fill-opacity="1" fill-rule="nonzero"/></g></g></g></g><g clip-path="url(#ca8ba968b3)"><g clip-path="url(#79351a7baf)"><g clip-path="url(#5cae29d980)"><g clip-path="url(#9127f434a8)"><path fill="#000000" d="M 218.828125 107.273438 C 219.367188 107.613281 219.964844 107.90625 220.542969 108.195312 C 221.265625 108.550781 222.015625 108.921875 222.617188 109.371094 C 223.894531 110.300781 225.078125 111.378906 226.214844 112.414062 C 226.832031 112.96875 227.4375 113.523438 228.0625 114.058594 C 228.136719 114.121094 228.234375 114.148438 228.328125 114.136719 C 228.335938 114.132812 228.34375 114.132812 228.351562 114.128906 C 228.4375 114.109375 228.511719 114.054688 228.554688 113.980469 C 228.578125 113.941406 228.605469 113.898438 228.625 113.855469 C 228.644531 113.8125 228.664062 113.773438 228.722656 113.691406 C 228.824219 113.476562 228.933594 113.277344 229.042969 113.082031 C 229.128906 112.933594 229.082031 112.746094 228.941406 112.65625 C 226.585938 111.078125 224.429688 109.554688 222.542969 108.132812 C 221.984375 107.703125 221.441406 107.25 220.898438 106.808594 C 219.378906 105.554688 217.808594 104.253906 215.898438 103.433594 C 215.75 103.371094 215.578125 103.425781 215.492188 103.566406 C 215.25 103.964844 215.019531 104.363281 214.847656 104.703125 C 214.769531 104.863281 214.828125 105.050781 214.984375 105.132812 C 216.425781 105.886719 217.628906 106.539062 218.828125 107.273438 " fill-opacity="1" fill-rule="nonzero"/></g></g></g></g><g clip-path="url(#a40c9c5d9e)"><g clip-path="url(#608cc24301)"><g clip-path="url(#890f7df148)"><g clip-path="url(#ba7757a13e)"><path fill="#000000" d="M 219.746094 99.050781 C 220.09375 98.390625 220.699219 97.695312 221.1875 97.132812 C 221.558594 96.671875 222 96.25 222.527344 95.835938 C 222.945312 95.507812 223.449219 95.679688 223.703125 96.003906 C 223.792969 96.113281 224.050781 96.507812 223.613281 96.855469 C 223.128906 97.230469 222.574219 97.679688 222.15625 98.253906 C 222.050781 98.386719 221.933594 98.53125 221.820312 98.667969 C 221.523438 99.046875 221.210938 99.4375 220.988281 99.867188 C 220.71875 100.382812 220.261719 100.199219 220.125 100.128906 C 219.832031 99.976562 219.484375 99.5625 219.746094 99.050781 Z M 226.5 96.734375 C 226.765625 96.992188 226.894531 97.441406 226.542969 97.804688 C 225.804688 98.5625 225.125 99.40625 224.46875 100.222656 C 224.1875 100.574219 223.902344 100.921875 223.613281 101.265625 C 223.5 101.402344 223.324219 101.4375 223.207031 101.441406 C 222.980469 101.449219 222.742188 101.367188 222.597656 101.21875 C 222.257812 100.867188 222.398438 100.4375 222.644531 100.144531 C 222.910156 99.828125 223.164062 99.503906 223.421875 99.1875 C 224.09375 98.355469 224.785156 97.492188 225.523438 96.71875 C 225.878906 96.367188 226.265625 96.507812 226.5 96.734375 Z M 228.355469 97.59375 C 228.421875 97.578125 228.492188 97.574219 228.546875 97.578125 C 228.835938 97.589844 229.125 97.769531 229.25 98.015625 C 229.359375 98.21875 229.339844 98.449219 229.195312 98.671875 C 228.839844 99.246094 228.414062 99.753906 227.96875 100.285156 L 227.671875 100.644531 C 227.484375 100.855469 227.316406 101.082031 227.136719 101.300781 C 226.816406 101.71875 226.507812 102.109375 226.132812 102.453125 C 225.960938 102.605469 225.773438 102.671875 225.574219 102.644531 C 225.390625 102.621094 225.203125 102.523438 225.074219 102.371094 C 224.9375 102.226562 224.867188 102.054688 224.859375 101.886719 C 224.859375 101.707031 224.941406 101.542969 225.097656 101.394531 C 225.097656 101.394531 225.101562 101.394531 225.101562 101.394531 C 225.484375 101.039062 225.800781 100.640625 226.105469 100.246094 C 226.246094 100.066406 226.386719 99.886719 226.542969 99.707031 L 226.851562 99.328125 C 227.21875 98.878906 227.601562 98.417969 227.929688 97.914062 C 228.054688 97.71875 228.210938 97.628906 228.355469 97.59375 Z M 231.320312 99.691406 C 231.480469 99.652344 231.65625 99.664062 231.835938 99.769531 C 232.007812 99.878906 232.144531 100.09375 232.1875 100.324219 C 232.203125 100.425781 232.21875 100.621094 232.105469 100.773438 C 231.84375 101.117188 231.53125 101.449219 231.234375 101.765625 C 230.582031 102.464844 229.902344 103.179688 229.558594 104.152344 C 229.4375 104.492188 229.1875 104.613281 229.003906 104.640625 C 228.714844 104.695312 228.390625 104.585938 228.214844 104.382812 C 228.070312 104.222656 228.046875 104.011719 228.128906 103.773438 C 228.441406 102.914062 228.808594 102.257812 229.300781 101.703125 C 229.496094 101.476562 229.703125 101.261719 229.914062 101.042969 C 230.21875 100.734375 230.527344 100.414062 230.789062 100.054688 C 230.921875 99.886719 231.105469 99.742188 231.320312 99.691406 Z M 233.234375 102.15625 C 233.496094 102.21875 233.742188 102.457031 233.824219 102.738281 C 233.878906 102.917969 233.898438 103.1875 233.648438 103.457031 C 233.648438 103.457031 233.648438 103.457031 233.644531 103.457031 L 233.398438 103.734375 C 233.0625 104.109375 232.71875 104.5 232.339844 104.777344 C 232.132812 104.914062 231.972656 105.203125 231.785156 105.566406 L 231.703125 105.730469 C 231.558594 105.976562 231.425781 106.15625 231.269531 106.308594 C 230.890625 106.644531 230.449219 106.503906 230.199219 106.21875 C 230.0625 106.074219 229.992188 105.90625 229.988281 105.742188 C 229.984375 105.5625 230.066406 105.394531 230.21875 105.253906 C 230.414062 105.085938 230.550781 104.84375 230.660156 104.636719 C 230.695312 104.570312 230.730469 104.507812 230.757812 104.460938 C 230.929688 104.199219 231.109375 103.96875 231.296875 103.730469 L 231.335938 103.679688 C 231.546875 103.429688 231.796875 103.203125 232.054688 102.960938 C 232.261719 102.769531 232.464844 102.578125 232.660156 102.371094 C 232.761719 102.257812 232.871094 102.1875 232.988281 102.160156 C 233.070312 102.140625 233.148438 102.144531 233.234375 102.15625 Z M 219.464844 101.179688 C 221.714844 102.609375 223.839844 103.949219 225.914062 105.601562 C 227.097656 106.539062 228.394531 107.527344 229.820312 108.386719 C 230.015625 108.503906 230.214844 108.605469 230.40625 108.710938 C 230.585938 108.808594 230.769531 108.898438 230.949219 109.007812 C 231.019531 109.046875 231.105469 109.058594 231.1875 109.039062 C 231.191406 109.035156 231.195312 109.035156 231.195312 109.035156 C 231.28125 109.015625 231.355469 108.960938 231.394531 108.882812 C 231.683594 108.375 231.992188 107.886719 232.308594 107.382812 L 232.355469 107.308594 C 232.636719 106.878906 233.058594 106.421875 233.5 105.9375 C 234.40625 104.957031 235.433594 103.847656 235.535156 102.613281 C 235.566406 102.253906 235.78125 101.929688 235.960938 101.71875 C 236.011719 101.65625 236.042969 101.566406 236.03125 101.476562 C 236.023438 101.390625 235.976562 101.308594 235.910156 101.257812 C 231.707031 98.003906 227.40625 95.5625 222.367188 93.5625 C 222.226562 93.507812 222.066406 93.558594 221.980469 93.6875 C 220.753906 95.53125 219.398438 97.492188 217.84375 99.289062 C 217.726562 99.4375 217.664062 99.570312 217.613281 99.695312 C 217.554688 99.839844 217.605469 100.003906 217.742188 100.085938 C 218.316406 100.457031 218.890625 100.820312 219.464844 101.179688 " fill-opacity="1" fill-rule="nonzero"/></g></g></g></g><g clip-path="url(#fa4f634e34)"><g clip-path="url(#b9f236dcae)"><g clip-path="url(#828d6c3585)"><g clip-path="url(#c26f7c1b6a)"><path fill="#000000" d="M 231.210938 96.109375 C 233.222656 97.292969 234.972656 98.644531 236.738281 100.039062 C 236.8125 100.101562 236.910156 100.121094 237 100.105469 C 237.003906 100.105469 237.011719 100.101562 237.015625 100.101562 C 237.105469 100.082031 237.179688 100.027344 237.21875 99.949219 C 237.683594 99.152344 238.136719 98.238281 238.226562 97.910156 C 238.3125 97.554688 238.800781 97.371094 238.949219 97.328125 C 239.058594 97.292969 239.140625 97.199219 239.167969 97.089844 C 239.191406 96.976562 239.152344 96.859375 239.070312 96.78125 C 238.039062 95.835938 236.953125 95.046875 235.796875 94.210938 L 234.929688 93.574219 C 234.105469 92.960938 233.191406 92.578125 232.304688 92.203125 C 231.847656 92.011719 231.386719 91.816406 230.933594 91.589844 C 230.625 91.433594 230.269531 91.226562 229.894531 91.003906 C 228.554688 90.21875 226.878906 89.242188 225.542969 89.394531 C 225.402344 89.414062 225.285156 89.394531 225.152344 89.34375 C 225.007812 89.289062 224.847656 89.339844 224.765625 89.46875 C 224.222656 90.273438 223.691406 91.070312 223.167969 91.886719 C 223.121094 91.964844 223.105469 92.070312 223.136719 92.160156 C 223.164062 92.253906 223.234375 92.324219 223.324219 92.359375 C 225.867188 93.386719 228.585938 94.546875 231.210938 96.109375 " fill-opacity="1" fill-rule="nonzero"/></g></g></g></g><g clip-path="url(#79c0a465b6)"><g clip-path="url(#86846d6828)"><g clip-path="url(#c1f62544da)"><g clip-path="url(#f6aafe2e47)"><path fill="#000000" d="M 226.371094 88.003906 C 228.171875 88.214844 229.972656 89.195312 231.710938 90.140625 C 232.445312 90.539062 233.144531 90.917969 233.820312 91.230469 C 234.9375 91.742188 235.886719 92.441406 236.886719 93.1875 C 237.246094 93.457031 237.609375 93.722656 237.972656 93.976562 C 238.246094 94.171875 238.554688 94.324219 238.851562 94.46875 C 239.234375 94.652344 239.601562 94.828125 239.847656 95.089844 C 239.894531 95.128906 239.925781 95.179688 239.964844 95.226562 C 240.007812 95.285156 240.054688 95.347656 240.105469 95.40625 C 240.183594 95.488281 240.296875 95.527344 240.414062 95.503906 C 240.417969 95.503906 240.417969 95.503906 240.421875 95.5 C 240.53125 95.476562 240.613281 95.398438 240.652344 95.300781 C 240.898438 94.640625 241.144531 93.832031 241.386719 92.902344 C 241.417969 92.78125 241.375 92.652344 241.277344 92.570312 C 240.929688 92.289062 240.589844 91.996094 240.257812 91.703125 C 239.808594 91.308594 239.335938 90.902344 238.84375 90.527344 C 238.460938 90.242188 238.09375 89.855469 237.75 89.484375 L 237.613281 89.34375 C 237.175781 88.863281 236.691406 88.574219 236.226562 88.296875 C 236 88.160156 235.769531 88.023438 235.535156 87.855469 C 234.253906 86.933594 232.808594 85.984375 230.875 85.28125 C 230.417969 85.117188 230.003906 84.804688 229.5625 84.476562 C 229.429688 84.386719 229.304688 84.289062 229.171875 84.199219 C 229.039062 84.097656 228.855469 84.121094 228.738281 84.246094 C 227.828125 85.28125 226.980469 86.34375 226.144531 87.488281 C 226.078125 87.582031 226.066406 87.707031 226.113281 87.808594 C 226.160156 87.914062 226.257812 87.988281 226.371094 88.003906 " fill-opacity="1" fill-rule="nonzero"/></g></g></g></g><g clip-path="url(#d6b974878e)"><g clip-path="url(#8ddf499575)"><g clip-path="url(#afc1f784f2)"><g clip-path="url(#ad77c25f62)"><path fill="#000000" d="M 246.578125 81.113281 C 246.035156 80.53125 245.464844 79.925781 244.875 79.390625 C 244.007812 78.613281 242.910156 78.042969 241.859375 77.496094 C 241.601562 77.363281 241.351562 77.230469 241.109375 77.097656 L 240.464844 76.742188 C 239.519531 76.214844 238.542969 75.675781 237.527344 75.21875 C 237.246094 75.082031 236.960938 74.972656 236.679688 74.859375 C 236.238281 74.683594 235.828125 74.523438 235.449219 74.296875 C 235.328125 74.226562 235.171875 74.246094 235.066406 74.332031 C 233.710938 75.53125 231.964844 77.347656 231.316406 79.183594 C 231.027344 80.046875 230.585938 80.820312 230.117188 81.644531 C 229.980469 81.894531 229.839844 82.136719 229.707031 82.382812 C 229.667969 82.460938 229.652344 82.550781 229.679688 82.632812 C 229.703125 82.714844 229.761719 82.785156 229.835938 82.824219 C 230.175781 83.003906 230.503906 83.195312 230.832031 83.386719 C 231.464844 83.75 232.117188 84.125 232.820312 84.4375 C 233.46875 84.71875 234.054688 85.136719 234.621094 85.535156 C 235.15625 85.910156 235.710938 86.304688 236.324219 86.59375 C 237.734375 87.269531 238.835938 88.347656 240.007812 89.488281 C 240.507812 89.980469 241.027344 90.484375 241.570312 90.953125 C 241.648438 91.023438 241.761719 91.050781 241.859375 91.023438 C 241.863281 91.023438 241.867188 91.023438 241.875 91.023438 C 241.976562 90.992188 242.0625 90.910156 242.09375 90.808594 C 242.898438 88.246094 244.574219 85.902344 246.199219 83.636719 C 246.550781 83.144531 246.894531 82.652344 247.230469 82.175781 C 247.316406 82.042969 247.308594 81.875 247.195312 81.761719 C 246.992188 81.550781 246.789062 81.328125 246.578125 81.113281 " fill-opacity="1" fill-rule="nonzero"/></g></g></g></g><g clip-path="url(#26a553dd63)"><g clip-path="url(#181242a721)"><path fill="#000000" d="M 172.265625 143.550781 L 202.734375 143.550781 L 202.734375 174.019531 L 172.265625 174.019531 Z M 172.265625 143.550781 " fill-opacity="1" fill-rule="nonzero"/></g></g><g clip-path="url(#2a8bd9055c)"><g clip-path="url(#024de1fbdc)"><path stroke-linecap="butt" transform="matrix(0.75, 0, 0, 0.75, 172.26704, 143.552686)" fill="none" stroke-linejoin="miter" d="M 20.305407 -0.00253936 C 9.091864 -0.00253936 -0.00188612 9.091211 -0.00188612 20.304754 C -0.00188612 31.518296 9.091864 40.606838 20.305407 40.606838 C 31.518949 40.606838 40.607492 31.518296 40.607492 20.304754 C 40.607492 9.091211 31.518949 -0.00253936 20.305407 -0.00253936 Z M 20.305407 -0.00253936 " stroke="#ffffff" stroke-width="4" stroke-opacity="1" stroke-miterlimit="4"/></g></g><g fill="#000000" fill-opacity="1"><g transform="translate(73.743355, 312.216556)"><g><path d="M 0.550781 -16.695312 L 0.515625 -16.050781 C 0.515625 -15.660156 0.550781 -15.273438 0.613281 -14.886719 C 0.679688 -14.5 0.871094 -14.078125 1.164062 -13.628906 C 1.453125 -13.175781 1.679688 -12.917969 1.871094 -12.820312 L 1.742188 -12.851562 L 6.363281 -6.425781 C 6.425781 -6.328125 6.585938 -6.199219 6.78125 -6.039062 C 6.976562 -5.878906 7.070312 -5.78125 7.105469 -5.78125 L 7.199219 -4.648438 C 7.199219 -4.519531 7.167969 -4.425781 7.167969 -4.359375 C 7.105469 -4.101562 6.265625 -3.84375 4.648438 -3.519531 L 3.195312 -3.230469 C 2.355469 -3.230469 1.710938 -3.164062 1.292969 -3.066406 C 0.902344 -2.9375 0.742188 -2.582031 0.742188 -2.003906 C 0.742188 -1.679688 0.773438 -1.386719 0.871094 -1.128906 C 1.066406 -0.417969 1.742188 -0.0664062 2.875 -0.0664062 L 5.199219 -0.355469 L 7.199219 -0.808594 C 7.71875 -0.9375 8.523438 -1.324219 9.558594 -1.96875 C 10.589844 -2.617188 11.207031 -3.132812 11.398438 -3.519531 C 11.527344 -3.84375 11.625 -4.261719 11.625 -4.84375 C 11.625 -5.523438 11.527344 -6.265625 11.335938 -7.105469 C 11.207031 -7.683594 10.945312 -8.363281 10.496094 -9.171875 L 7.105469 -12.882812 L 6.976562 -13.046875 C 5.878906 -14.597656 5.296875 -15.628906 5.199219 -16.113281 L 5.199219 -16.210938 C 5.199219 -16.402344 5.328125 -16.628906 5.652344 -16.953125 C 5.714844 -16.984375 5.78125 -17.082031 5.878906 -17.242188 L 7.070312 -17.726562 C 7.460938 -17.855469 7.683594 -17.953125 7.71875 -17.988281 C 7.847656 -18.019531 8.523438 -18.050781 9.753906 -18.050781 L 10.785156 -18.050781 C 11.238281 -18.050781 11.527344 -18.117188 11.722656 -18.308594 L 11.722656 -18.339844 C 12.140625 -18.859375 12.398438 -19.246094 12.496094 -19.503906 C 12.496094 -19.730469 12.335938 -20.148438 12.078125 -20.761719 C 11.820312 -21.378906 11.558594 -21.863281 11.367188 -22.183594 L 11.367188 -22.152344 C 11.171875 -22.410156 10.558594 -22.570312 9.460938 -22.570312 C 8.621094 -22.570312 7.71875 -22.507812 6.8125 -22.441406 L 4.648438 -21.539062 L 3.066406 -20.503906 L 1.777344 -19.214844 C 1.421875 -18.957031 1 -18.117188 0.550781 -16.695312 Z M 0.550781 -16.695312 "/></g></g></g><g fill="#000000" fill-opacity="1"><g transform="translate(86.654712, 312.216556)"><g><path d="M 4.292969 -11.429688 L 4.328125 -12.269531 C 4.328125 -12.820312 4.359375 -13.464844 4.457031 -14.175781 C 4.519531 -14.886719 4.648438 -15.371094 4.8125 -15.695312 C 4.972656 -16.113281 5.261719 -16.597656 5.714844 -17.179688 C 6.167969 -17.726562 6.492188 -18.117188 6.75 -18.308594 C 6.878906 -18.40625 7.296875 -18.566406 8.074219 -18.792969 C 8.847656 -19.019531 9.332031 -19.148438 9.527344 -19.179688 C 9.589844 -19.179688 10.816406 -19.214844 13.144531 -19.214844 C 13.335938 -19.214844 13.496094 -19.375 13.691406 -19.730469 L 13.949219 -19.761719 C 14.078125 -19.792969 14.242188 -19.859375 14.402344 -19.988281 C 14.5625 -20.117188 14.660156 -20.246094 14.660156 -20.441406 C 14.660156 -20.828125 14.335938 -21.378906 13.722656 -22.054688 L 13.367188 -22.214844 C 13.109375 -22.347656 12.789062 -22.441406 12.398438 -22.570312 C 12.011719 -22.667969 11.691406 -22.734375 11.429688 -22.734375 L 11.109375 -22.734375 C 8.429688 -22.570312 6.523438 -22.121094 5.425781 -21.378906 C 4.261719 -20.601562 3.488281 -19.925781 3.101562 -19.34375 L 2.90625 -18.988281 C 2.777344 -18.761719 2.617188 -18.472656 2.453125 -18.082031 C 2.261719 -17.695312 2.132812 -17.339844 2.066406 -17.050781 C 1.195312 -14.464844 0.773438 -12.335938 0.773438 -10.6875 C 0.773438 -10.332031 0.773438 -10.105469 0.839844 -10.042969 L 0.902344 -8.847656 C 0.96875 -8.074219 1.128906 -7.167969 1.386719 -6.136719 C 1.648438 -5.101562 1.96875 -4.328125 2.421875 -3.84375 C 3.066406 -3.066406 3.875 -2.355469 4.84375 -1.742188 C 5.8125 -1.128906 6.75 -0.710938 7.621094 -0.515625 C 8.6875 -0.324219 9.492188 -0.226562 10.011719 -0.226562 L 11.300781 -0.386719 L 12.238281 -0.324219 C 12.625 -0.324219 12.851562 -0.386719 12.980469 -0.515625 C 13.078125 -0.644531 13.238281 -0.96875 13.496094 -1.550781 C 13.757812 -2.097656 13.886719 -2.421875 13.886719 -2.488281 C 13.886719 -2.648438 13.820312 -2.9375 13.691406 -3.324219 L 13.757812 -3.421875 C 13.820312 -3.488281 13.851562 -3.550781 13.917969 -3.679688 C 13.980469 -3.777344 14.015625 -3.875 14.015625 -3.941406 C 14.015625 -4.070312 13.886719 -4.132812 13.660156 -4.132812 C 13.464844 -4.132812 13.238281 -4.070312 12.949219 -4.003906 C 11.820312 -3.746094 10.980469 -3.648438 10.460938 -3.648438 C 7.234375 -3.746094 5.425781 -4.777344 4.972656 -6.75 C 4.519531 -8.6875 4.292969 -10.238281 4.292969 -11.429688 Z M 4.292969 -11.429688 "/></g></g></g><g fill="#000000" fill-opacity="1"><g transform="translate(101.050859, 312.216556)"><g><path d="M 1.777344 -21.699219 L 1.679688 -21.601562 L 1.519531 -19.730469 C 1.519531 -19.375 1.613281 -19.019531 1.839844 -18.695312 L 2.839844 -18.632812 L 4.359375 -18.632812 L 3.972656 -14.078125 L 3.972656 -4.292969 C 3.972656 -4.132812 3.714844 -3.941406 3.230469 -3.679688 L 3.261719 -3.714844 L 2.195312 -3.550781 C 2.035156 -3.550781 1.871094 -3.292969 1.710938 -2.777344 C 1.519531 -2.261719 1.453125 -1.839844 1.453125 -1.519531 C 1.453125 -0.96875 1.871094 -0.550781 2.746094 -0.289062 L 4.554688 -0.289062 L 9.203125 -0.96875 L 9.71875 -0.96875 L 9.945312 -1.066406 C 10.105469 -1.128906 10.269531 -1.324219 10.460938 -1.648438 C 10.625 -1.96875 10.722656 -2.390625 10.722656 -2.90625 C 10.722656 -3.421875 10.460938 -3.808594 10.011719 -4.035156 C 9.558594 -4.261719 9.042969 -4.390625 8.460938 -4.390625 C 8.203125 -4.390625 8.007812 -4.359375 7.847656 -4.328125 L 7.589844 -4.425781 C 7.492188 -4.425781 7.460938 -4.875 7.460938 -5.714844 L 7.460938 -6.8125 C 7.460938 -6.941406 7.425781 -7.070312 7.394531 -7.136719 L 7.847656 -16.050781 C 7.847656 -16.371094 7.816406 -16.792969 7.78125 -17.371094 L 7.683594 -18.761719 L 7.847656 -18.921875 C 8.039062 -18.921875 8.363281 -18.921875 8.75 -18.988281 C 9.136719 -19.019531 9.460938 -19.050781 9.65625 -19.085938 L 10.398438 -19.085938 L 10.460938 -19.246094 C 10.460938 -19.375 10.496094 -19.570312 10.527344 -19.828125 C 10.558594 -20.085938 10.589844 -20.410156 10.589844 -20.730469 C 10.589844 -21.246094 10.367188 -21.636719 9.976562 -21.894531 C 9.558594 -22.152344 9.042969 -22.28125 8.460938 -22.28125 C 7.878906 -22.28125 7.039062 -22.121094 5.941406 -21.796875 L 3.195312 -21.796875 L 2.839844 -21.570312 L 2.808594 -21.539062 C 2.777344 -21.507812 2.746094 -21.507812 2.746094 -21.507812 C 2.488281 -21.699219 2.261719 -21.828125 2.097656 -21.828125 C 2.035156 -21.828125 1.90625 -21.765625 1.777344 -21.699219 Z M 1.777344 -21.699219 "/></g></g></g><g fill="#000000" fill-opacity="1"><g transform="translate(112.606514, 312.216556)"><g><path d="M 5.003906 -13.402344 L 4.425781 -13.464844 L 4.164062 -15.5 C 4.164062 -15.824219 4.164062 -16.308594 4.230469 -16.953125 C 4.261719 -17.597656 4.292969 -18.117188 4.328125 -18.472656 L 4.875 -18.761719 L 7.816406 -18.859375 L 11.335938 -18.601562 L 12.109375 -18.761719 L 12.691406 -18.957031 L 12.789062 -19.117188 C 12.851562 -19.214844 12.882812 -19.308594 12.882812 -19.40625 C 12.882812 -19.503906 12.851562 -19.601562 12.753906 -19.664062 C 12.691406 -19.664062 12.5625 -20.34375 12.367188 -21.699219 L 12.011719 -22.3125 L 8.332031 -22.507812 L 5.878906 -22.121094 C 5.617188 -22.121094 5.261719 -22.152344 4.8125 -22.214844 C 4.359375 -22.25 4.003906 -22.28125 3.808594 -22.28125 L 1.96875 -22.476562 L 1.484375 -21.992188 L 1.519531 -21.992188 L 0.871094 -21.410156 L 0.710938 -21.117188 L 0.773438 -17.761719 L 0.710938 -13.691406 L 0.808594 -11.171875 L 0.515625 -6.363281 L 0.417969 -2.390625 L 0.742188 -0.613281 L 1.96875 -0.453125 L 3.90625 -0.195312 L 8.039062 0.195312 L 10.105469 0.0976562 L 10.429688 -0.160156 L 10.945312 -0.902344 L 11.109375 -1.484375 L 11.011719 -2.875 L 10.785156 -3.035156 C 10.625 -3.132812 10.332031 -3.230469 9.882812 -3.359375 C 9.429688 -3.457031 8.878906 -3.519531 8.300781 -3.519531 L 5.683594 -3.679688 L 4.035156 -3.519531 C 4.035156 -4.003906 4.003906 -4.714844 3.972656 -5.652344 C 3.90625 -6.554688 3.875 -7.296875 3.875 -7.816406 C 3.875 -8.039062 3.941406 -8.429688 4.035156 -8.945312 L 4.230469 -10.105469 L 6.425781 -9.785156 L 7.683594 -9.621094 L 8.167969 -9.785156 L 8.71875 -10.042969 L 8.71875 -10.011719 C 8.816406 -10.011719 8.914062 -10.011719 9.007812 -10.074219 L 9.105469 -10.074219 C 9.136719 -10.074219 9.203125 -10.074219 9.269531 -10.105469 C 9.332031 -10.140625 9.363281 -10.203125 9.429688 -10.269531 L 9.460938 -10.300781 C 9.589844 -10.367188 9.71875 -10.429688 9.882812 -10.496094 C 10.074219 -10.527344 10.171875 -10.785156 10.105469 -11.238281 L 10.011719 -11.335938 C 9.914062 -11.398438 9.816406 -11.496094 9.753906 -11.625 C 9.6875 -11.753906 9.65625 -11.914062 9.65625 -12.078125 C 9.65625 -12.464844 9.527344 -12.851562 9.332031 -13.207031 C 9.105469 -13.5625 8.816406 -13.722656 8.429688 -13.691406 C 7.945312 -13.5625 7.296875 -13.496094 6.457031 -13.496094 Z M 5.003906 -13.402344 "/></g></g></g><g fill="#000000" fill-opacity="1"><g transform="translate(125.743812, 312.216556)"><g><path d="M 2.035156 -22.25 L 1.582031 -22.152344 C 1.257812 -22.054688 0.96875 -21.894531 0.710938 -21.667969 C 0.417969 -21.410156 0.289062 -21.152344 0.355469 -20.859375 C 0.417969 -20.34375 0.453125 -19.214844 0.453125 -17.503906 C 0.453125 -16.402344 0.417969 -15.339844 0.417969 -14.304688 L 0.9375 -4.972656 L 1.679688 -0.289062 L 2.679688 -0.289062 L 3.679688 -0.484375 L 4.585938 -0.742188 L 4.8125 -1.679688 L 4.714844 -2.648438 C 4.648438 -3.066406 4.648438 -3.390625 4.648438 -3.585938 L 4.390625 -9.589844 C 4.328125 -9.816406 4.261719 -10.203125 4.164062 -10.722656 C 4.035156 -11.238281 3.972656 -11.625 3.941406 -11.914062 C 3.941406 -12.109375 3.941406 -12.398438 3.972656 -12.820312 C 3.972656 -13.238281 4.003906 -13.5625 4.003906 -13.789062 L 4.035156 -13.789062 L 6.621094 -7.394531 L 9.398438 -1.613281 L 9.65625 -1.324219 C 9.816406 -1.128906 10.011719 -0.902344 10.269531 -0.679688 C 10.527344 -0.453125 10.722656 -0.324219 10.914062 -0.257812 C 10.945312 -0.160156 11.207031 -0.128906 11.691406 -0.195312 C 12.175781 -0.257812 12.527344 -0.289062 12.722656 -0.324219 C 12.917969 -0.355469 13.109375 -0.386719 13.238281 -0.417969 L 14.242188 -1.097656 L 14.5625 -1.613281 L 14.691406 -1.90625 C 14.757812 -2.097656 14.820312 -2.261719 14.820312 -2.453125 C 14.820312 -2.617188 14.757812 -2.710938 14.628906 -2.746094 C 14.5 -2.746094 14.464844 -3.261719 14.53125 -4.359375 C 14.53125 -5.425781 14.5 -7.039062 14.5 -9.203125 C 14.464844 -11.367188 14.464844 -12.980469 14.464844 -14.078125 L 14.597656 -22.121094 L 14.273438 -22.28125 C 14.078125 -22.378906 13.789062 -22.476562 13.402344 -22.539062 C 13.011719 -22.605469 12.660156 -22.636719 12.335938 -22.605469 C 11.59375 -22.476562 11.011719 -22.3125 10.589844 -22.121094 C 10.171875 -21.925781 9.976562 -21.601562 10.011719 -21.152344 C 10.074219 -20.472656 10.269531 -19.890625 10.65625 -19.441406 L 10.722656 -18.117188 L 11.140625 -13.53125 C 11.140625 -12.625 11.140625 -11.269531 11.171875 -9.527344 C 11.171875 -7.75 11.207031 -6.425781 11.207031 -5.554688 L 9.332031 -10.140625 L 5.84375 -17.792969 L 3.617188 -21.539062 L 3.359375 -21.765625 C 3.195312 -21.894531 2.972656 -22.023438 2.710938 -22.152344 C 2.453125 -22.28125 2.226562 -22.3125 2.035156 -22.25 Z M 2.035156 -22.25 "/></g></g></g><g fill="#000000" fill-opacity="1"><g transform="translate(141.269701, 312.216556)"><g><path d="M 4.292969 -11.429688 L 4.328125 -12.269531 C 4.328125 -12.820312 4.359375 -13.464844 4.457031 -14.175781 C 4.519531 -14.886719 4.648438 -15.371094 4.8125 -15.695312 C 4.972656 -16.113281 5.261719 -16.597656 5.714844 -17.179688 C 6.167969 -17.726562 6.492188 -18.117188 6.75 -18.308594 C 6.878906 -18.40625 7.296875 -18.566406 8.074219 -18.792969 C 8.847656 -19.019531 9.332031 -19.148438 9.527344 -19.179688 C 9.589844 -19.179688 10.816406 -19.214844 13.144531 -19.214844 C 13.335938 -19.214844 13.496094 -19.375 13.691406 -19.730469 L 13.949219 -19.761719 C 14.078125 -19.792969 14.242188 -19.859375 14.402344 -19.988281 C 14.5625 -20.117188 14.660156 -20.246094 14.660156 -20.441406 C 14.660156 -20.828125 14.335938 -21.378906 13.722656 -22.054688 L 13.367188 -22.214844 C 13.109375 -22.347656 12.789062 -22.441406 12.398438 -22.570312 C 12.011719 -22.667969 11.691406 -22.734375 11.429688 -22.734375 L 11.109375 -22.734375 C 8.429688 -22.570312 6.523438 -22.121094 5.425781 -21.378906 C 4.261719 -20.601562 3.488281 -19.925781 3.101562 -19.34375 L 2.90625 -18.988281 C 2.777344 -18.761719 2.617188 -18.472656 2.453125 -18.082031 C 2.261719 -17.695312 2.132812 -17.339844 2.066406 -17.050781 C 1.195312 -14.464844 0.773438 -12.335938 0.773438 -10.6875 C 0.773438 -10.332031 0.773438 -10.105469 0.839844 -10.042969 L 0.902344 -8.847656 C 0.96875 -8.074219 1.128906 -7.167969 1.386719 -6.136719 C 1.648438 -5.101562 1.96875 -4.328125 2.421875 -3.84375 C 3.066406 -3.066406 3.875 -2.355469 4.84375 -1.742188 C 5.8125 -1.128906 6.75 -0.710938 7.621094 -0.515625 C 8.6875 -0.324219 9.492188 -0.226562 10.011719 -0.226562 L 11.300781 -0.386719 L 12.238281 -0.324219 C 12.625 -0.324219 12.851562 -0.386719 12.980469 -0.515625 C 13.078125 -0.644531 13.238281 -0.96875 13.496094 -1.550781 C 13.757812 -2.097656 13.886719 -2.421875 13.886719 -2.488281 C 13.886719 -2.648438 13.820312 -2.9375 13.691406 -3.324219 L 13.757812 -3.421875 C 13.820312 -3.488281 13.851562 -3.550781 13.917969 -3.679688 C 13.980469 -3.777344 14.015625 -3.875 14.015625 -3.941406 C 14.015625 -4.070312 13.886719 -4.132812 13.660156 -4.132812 C 13.464844 -4.132812 13.238281 -4.070312 12.949219 -4.003906 C 11.820312 -3.746094 10.980469 -3.648438 10.460938 -3.648438 C 7.234375 -3.746094 5.425781 -4.777344 4.972656 -6.75 C 4.519531 -8.6875 4.292969 -10.238281 4.292969 -11.429688 Z M 4.292969 -11.429688 "/></g></g></g><g fill="#000000" fill-opacity="1"><g transform="translate(155.665848, 312.216556)"><g><path d="M 5.003906 -13.402344 L 4.425781 -13.464844 L 4.164062 -15.5 C 4.164062 -15.824219 4.164062 -16.308594 4.230469 -16.953125 C 4.261719 -17.597656 4.292969 -18.117188 4.328125 -18.472656 L 4.875 -18.761719 L 7.816406 -18.859375 L 11.335938 -18.601562 L 12.109375 -18.761719 L 12.691406 -18.957031 L 12.789062 -19.117188 C 12.851562 -19.214844 12.882812 -19.308594 12.882812 -19.40625 C 12.882812 -19.503906 12.851562 -19.601562 12.753906 -19.664062 C 12.691406 -19.664062 12.5625 -20.34375 12.367188 -21.699219 L 12.011719 -22.3125 L 8.332031 -22.507812 L 5.878906 -22.121094 C 5.617188 -22.121094 5.261719 -22.152344 4.8125 -22.214844 C 4.359375 -22.25 4.003906 -22.28125 3.808594 -22.28125 L 1.96875 -22.476562 L 1.484375 -21.992188 L 1.519531 -21.992188 L 0.871094 -21.410156 L 0.710938 -21.117188 L 0.773438 -17.761719 L 0.710938 -13.691406 L 0.808594 -11.171875 L 0.515625 -6.363281 L 0.417969 -2.390625 L 0.742188 -0.613281 L 1.96875 -0.453125 L 3.90625 -0.195312 L 8.039062 0.195312 L 10.105469 0.0976562 L 10.429688 -0.160156 L 10.945312 -0.902344 L 11.109375 -1.484375 L 11.011719 -2.875 L 10.785156 -3.035156 C 10.625 -3.132812 10.332031 -3.230469 9.882812 -3.359375 C 9.429688 -3.457031 8.878906 -3.519531 8.300781 -3.519531 L 5.683594 -3.679688 L 4.035156 -3.519531 C 4.035156 -4.003906 4.003906 -4.714844 3.972656 -5.652344 C 3.90625 -6.554688 3.875 -7.296875 3.875 -7.816406 C 3.875 -8.039062 3.941406 -8.429688 4.035156 -8.945312 L 4.230469 -10.105469 L 6.425781 -9.785156 L 7.683594 -9.621094 L 8.167969 -9.785156 L 8.71875 -10.042969 L 8.71875 -10.011719 C 8.816406 -10.011719 8.914062 -10.011719 9.007812 -10.074219 L 9.105469 -10.074219 C 9.136719 -10.074219 9.203125 -10.074219 9.269531 -10.105469 C 9.332031 -10.140625 9.363281 -10.203125 9.429688 -10.269531 L 9.460938 -10.300781 C 9.589844 -10.367188 9.71875 -10.429688 9.882812 -10.496094 C 10.074219 -10.527344 10.171875 -10.785156 10.105469 -11.238281 L 10.011719 -11.335938 C 9.914062 -11.398438 9.816406 -11.496094 9.753906 -11.625 C 9.6875 -11.753906 9.65625 -11.914062 9.65625 -12.078125 C 9.65625 -12.464844 9.527344 -12.851562 9.332031 -13.207031 C 9.105469 -13.5625 8.816406 -13.722656 8.429688 -13.691406 C 7.945312 -13.5625 7.296875 -13.496094 6.457031 -13.496094 Z M 5.003906 -13.402344 "/></g></g></g><g fill="#000000" fill-opacity="1"><g transform="translate(168.803146, 312.216556)"><g/></g></g><g fill="#000000" fill-opacity="1"><g transform="translate(176.291732, 312.216556)"><g><path d="M 1.742188 -21.765625 L 1.582031 -21.765625 L 1.292969 -13.238281 L 0.644531 -8.847656 C 0.582031 -8.074219 0.515625 -6.941406 0.417969 -5.457031 C 0.289062 -3.941406 0.226562 -2.839844 0.195312 -2.132812 L 0.03125 -1.324219 L 0.417969 -0.808594 L 0.808594 -0.679688 L 1.550781 -0.613281 L 2.292969 -0.839844 C 2.292969 -0.839844 2.488281 -0.9375 2.839844 -1.128906 L 3.519531 -3.617188 C 3.488281 -4.328125 3.457031 -5.425781 3.390625 -6.910156 C 3.324219 -8.394531 3.261719 -9.492188 3.261719 -10.238281 L 3.679688 -12.789062 C 3.679688 -13.175781 3.648438 -13.820312 3.617188 -14.660156 C 3.550781 -15.5 3.519531 -16.113281 3.519531 -16.566406 L 3.488281 -16.792969 C 3.488281 -16.726562 3.519531 -16.664062 3.550781 -16.597656 C 3.585938 -16.5 3.617188 -16.4375 3.648438 -16.402344 L 3.777344 -16.113281 L 4.972656 -10.753906 L 5.230469 -9.269531 C 5.425781 -8.265625 5.585938 -7.265625 5.78125 -6.296875 C 5.972656 -5.296875 6.070312 -4.8125 6.070312 -4.84375 L 6.070312 -3.875 C 6.070312 -3.550781 6.039062 -3.230469 6.007812 -2.9375 C 6.007812 -2.421875 6.070312 -1.96875 6.265625 -1.519531 C 6.328125 -1.195312 6.554688 -0.902344 6.878906 -0.613281 C 7.199219 -0.324219 7.425781 -0.195312 7.589844 -0.195312 C 8.558594 -0.195312 9.234375 -0.226562 9.558594 -0.355469 C 9.816406 -0.417969 9.945312 -0.613281 9.945312 -0.871094 L 10.011719 -1.164062 C 10.011719 -1.226562 10.042969 -1.324219 10.074219 -1.484375 C 10.074219 -1.613281 10.105469 -1.742188 10.140625 -1.839844 L 10.171875 -1.96875 L 12.464844 -12.304688 L 12.496094 -13.109375 L 12.496094 -5.652344 L 12.527344 -0.582031 C 12.527344 -0.417969 12.660156 -0.257812 12.917969 -0.128906 C 13.175781 0 13.464844 0.0664062 13.789062 0.0664062 C 13.980469 0.0664062 14.113281 0.0664062 14.175781 0.03125 C 14.820312 -0.0976562 15.371094 -0.417969 15.789062 -0.902344 C 15.917969 -1.066406 15.984375 -1.582031 15.984375 -2.488281 C 15.984375 -2.746094 15.953125 -3.101562 15.953125 -3.550781 C 15.917969 -3.972656 15.917969 -4.199219 15.917969 -4.230469 L 16.144531 -6.007812 L 16.144531 -12.367188 L 16.402344 -16.242188 L 16.46875 -19.019531 C 16.46875 -19.117188 16.4375 -19.308594 16.402344 -19.632812 C 16.308594 -20.054688 16.273438 -20.375 16.273438 -20.570312 L 16.273438 -20.730469 C 16.273438 -20.828125 16.308594 -21.023438 16.308594 -21.3125 C 16.308594 -21.828125 16.082031 -22.28125 15.695312 -22.667969 C 15.242188 -23.054688 14.691406 -23.25 14.015625 -23.25 C 13.949219 -23.25 13.886719 -23.21875 13.820312 -23.21875 C 13.757812 -23.21875 13.691406 -23.21875 13.691406 -23.21875 C 13.628906 -23.21875 13.53125 -23.183594 13.402344 -23.121094 C 13.273438 -23.054688 13.175781 -22.960938 13.078125 -22.894531 C 12.949219 -22.796875 12.851562 -22.699219 12.753906 -22.636719 C 12.660156 -22.539062 12.59375 -22.507812 12.59375 -22.507812 L 10.980469 -21.925781 C 10.980469 -21.863281 10.945312 -21.765625 10.945312 -21.601562 C 10.945312 -21.441406 10.945312 -21.34375 10.945312 -21.28125 L 9.882812 -14.691406 L 9.105469 -11.851562 L 8.300781 -7.976562 L 7.296875 -13.335938 L 6.652344 -17.179688 L 6.296875 -18.601562 C 6.101562 -19.050781 5.941406 -19.632812 5.78125 -20.277344 C 5.617188 -20.730469 5.425781 -21.183594 5.167969 -21.601562 C 4.910156 -21.992188 4.714844 -22.28125 4.554688 -22.441406 C 4.359375 -22.605469 4.261719 -22.699219 4.230469 -22.699219 C 3.972656 -22.832031 3.421875 -22.894531 2.582031 -22.894531 L 2.292969 -22.894531 C 1.90625 -22.832031 1.742188 -22.476562 1.742188 -21.765625 Z M 1.742188 -21.765625 "/></g></g></g><g fill="#000000" fill-opacity="1"><g transform="translate(194.206232, 312.216556)"><g><path d="M 17.855469 -0.515625 L 16.824219 -6.167969 L 16.050781 -8.105469 L 16.050781 -8.074219 L 14.597656 -14.886719 L 14.046875 -16.242188 L 13.789062 -16.855469 L 12.175781 -21.601562 L 10.851562 -23.734375 L 10.65625 -23.800781 C 10.527344 -23.832031 10.332031 -23.863281 10.042969 -23.929688 C 9.71875 -23.960938 9.398438 -23.992188 9.007812 -23.992188 C 8.75 -23.992188 8.460938 -23.863281 8.136719 -23.667969 C 7.78125 -23.476562 7.589844 -23.25 7.589844 -23.023438 C 7.554688 -22.765625 7.363281 -21.925781 7.007812 -20.570312 L 7.007812 -20.601562 L 4.164062 -13.851562 L 0.808594 -3.359375 C 0.871094 -3.132812 0.773438 -2.648438 0.582031 -1.9375 C 0.582031 -1.90625 0.550781 -1.871094 0.550781 -1.808594 C 0.515625 -1.742188 0.515625 -1.679688 0.515625 -1.679688 C 0.453125 -1.292969 0.386719 -1.128906 0.386719 -1.128906 C 0.386719 -0.902344 0.644531 -0.355469 1.097656 0.484375 L 2.164062 0.582031 C 2.488281 0.582031 2.9375 0.355469 3.488281 -0.128906 C 3.808594 -2.355469 4.035156 -3.679688 4.101562 -4.132812 C 4.230469 -4.585938 4.488281 -5.296875 4.8125 -6.265625 L 6.554688 -6.492188 L 9.171875 -6.199219 L 12.980469 -6.199219 L 13.433594 -3.457031 L 14.144531 -0.417969 L 14.273438 -0.128906 C 14.371094 0.0664062 14.53125 0.226562 14.757812 0.386719 C 14.984375 0.582031 15.242188 0.644531 15.53125 0.644531 C 15.726562 0.644531 15.855469 0.644531 15.917969 0.613281 C 16.535156 0.355469 17.179688 0 17.855469 -0.515625 Z M 11.59375 -10.042969 L 11.496094 -9.976562 L 10.722656 -9.914062 L 7.910156 -9.914062 L 7.332031 -9.785156 C 7.136719 -9.71875 6.941406 -9.6875 6.683594 -9.65625 L 6.457031 -9.785156 L 7.039062 -11.042969 L 8.105469 -16.402344 L 8.105469 -16.371094 L 8.6875 -17.535156 L 9.136719 -18.792969 L 9.429688 -18.117188 L 9.429688 -18.148438 C 10.332031 -14.789062 10.945312 -12.527344 11.335938 -11.335938 C 11.335938 -11.171875 11.398438 -10.945312 11.464844 -10.65625 C 11.527344 -10.367188 11.558594 -10.171875 11.59375 -10.042969 Z M 11.59375 -10.042969 "/></g></g></g><g fill="#000000" fill-opacity="1"><g transform="translate(212.508069, 312.216556)"><g><path d="M -0.289062 -21.925781 L 0.226562 -20.375 L 1.257812 -16.855469 L 1.710938 -14.726562 L 3.679688 -9.203125 L 6.007812 -3.003906 C 6.199219 -2.421875 6.554688 -1.777344 7.070312 -1.066406 C 7.589844 -0.355469 8.007812 0.03125 8.332031 0.03125 C 8.976562 0.03125 9.621094 -0.226562 10.269531 -0.808594 C 10.558594 -1.066406 10.882812 -1.519531 11.238281 -2.226562 C 11.558594 -2.90625 11.820312 -3.457031 11.949219 -3.875 L 12.011719 -3.972656 L 13.464844 -7.878906 L 14.078125 -9.429688 C 14.078125 -9.460938 14.078125 -9.527344 14.144531 -9.621094 C 14.597656 -10.816406 14.886719 -11.65625 15.015625 -12.140625 L 15.210938 -13.109375 C 15.339844 -13.628906 15.402344 -14.015625 15.46875 -14.273438 C 15.46875 -14.335938 15.5 -14.464844 15.566406 -14.660156 C 15.597656 -14.855469 15.628906 -14.984375 15.628906 -15.082031 L 15.953125 -16.664062 L 16.339844 -18.761719 L 16.5 -19.761719 L 16.664062 -19.890625 C 16.726562 -19.988281 16.824219 -20.117188 16.921875 -20.3125 C 16.984375 -20.472656 17.050781 -20.632812 17.050781 -20.761719 L 17.050781 -20.957031 C 16.953125 -21.410156 16.566406 -21.667969 15.855469 -21.667969 C 15.824219 -21.667969 15.789062 -21.636719 15.757812 -21.636719 L 15.695312 -21.636719 C 15.597656 -21.636719 15.566406 -21.601562 15.566406 -21.601562 C 15.082031 -21.992188 14.660156 -22.183594 14.335938 -22.25 C 13.949219 -22.25 13.5625 -22.054688 13.144531 -21.699219 C 12.722656 -21.3125 12.527344 -21.054688 12.527344 -20.894531 C 12.527344 -19.925781 12.433594 -19.214844 12.304688 -18.730469 L 12.207031 -18.339844 C 12.140625 -18.082031 12.011719 -17.632812 11.882812 -17.019531 C 11.722656 -16.371094 11.59375 -15.824219 11.496094 -15.371094 C 11.367188 -14.886719 11.335938 -14.597656 11.335938 -14.53125 C 11.335938 -14.402344 11.207031 -13.851562 11.011719 -12.949219 C 10.785156 -12.042969 10.558594 -11.074219 10.332031 -10.105469 C 10.074219 -9.105469 9.945312 -8.523438 9.945312 -8.363281 L 8.945312 -5.132812 C 8.785156 -4.457031 8.652344 -4.003906 8.589844 -3.808594 C 8.492188 -4.070312 8.363281 -4.617188 8.203125 -5.457031 C 8.039062 -6.265625 7.976562 -6.714844 7.976562 -6.847656 C 7.976562 -6.910156 7.847656 -7.363281 7.621094 -8.136719 C 7.394531 -8.914062 7.167969 -9.6875 6.941406 -10.429688 C 6.683594 -11.171875 6.585938 -11.527344 6.585938 -11.527344 L 5.101562 -16.242188 C 5.003906 -16.695312 4.910156 -17.113281 4.84375 -17.503906 L 4.554688 -18.957031 L 4.519531 -19.246094 C 4.488281 -19.40625 4.457031 -19.601562 4.390625 -19.792969 C 4.328125 -19.988281 4.292969 -20.085938 4.261719 -20.117188 C 4.230469 -20.117188 4.164062 -20.214844 4.070312 -20.375 C 3.941406 -20.503906 3.90625 -20.601562 3.90625 -20.667969 L 3.90625 -20.828125 C 3.90625 -20.828125 3.90625 -20.859375 3.941406 -20.925781 L 3.941406 -20.988281 C 4.199219 -21.3125 4.328125 -21.636719 4.328125 -21.957031 C 4.328125 -22.410156 3.808594 -22.667969 2.808594 -22.667969 C 2.746094 -22.667969 2.648438 -22.699219 2.519531 -22.765625 L 2.195312 -22.765625 L 1.582031 -22.570312 C 1.550781 -22.539062 1.484375 -22.539062 1.421875 -22.539062 C 1.355469 -22.539062 1.355469 -22.539062 1.355469 -22.570312 C 1.257812 -22.636719 1.097656 -22.699219 0.871094 -22.699219 L 0.773438 -22.667969 C 0.613281 -22.636719 0.386719 -22.507812 0.128906 -22.3125 C -0.160156 -22.121094 -0.289062 -21.992188 -0.289062 -21.925781 Z M -0.289062 -21.925781 "/></g></g></g><g fill="#000000" fill-opacity="1"><g transform="translate(229.486495, 312.216556)"><g><path d="M 5.003906 -13.402344 L 4.425781 -13.464844 L 4.164062 -15.5 C 4.164062 -15.824219 4.164062 -16.308594 4.230469 -16.953125 C 4.261719 -17.597656 4.292969 -18.117188 4.328125 -18.472656 L 4.875 -18.761719 L 7.816406 -18.859375 L 11.335938 -18.601562 L 12.109375 -18.761719 L 12.691406 -18.957031 L 12.789062 -19.117188 C 12.851562 -19.214844 12.882812 -19.308594 12.882812 -19.40625 C 12.882812 -19.503906 12.851562 -19.601562 12.753906 -19.664062 C 12.691406 -19.664062 12.5625 -20.34375 12.367188 -21.699219 L 12.011719 -22.3125 L 8.332031 -22.507812 L 5.878906 -22.121094 C 5.617188 -22.121094 5.261719 -22.152344 4.8125 -22.214844 C 4.359375 -22.25 4.003906 -22.28125 3.808594 -22.28125 L 1.96875 -22.476562 L 1.484375 -21.992188 L 1.519531 -21.992188 L 0.871094 -21.410156 L 0.710938 -21.117188 L 0.773438 -17.761719 L 0.710938 -13.691406 L 0.808594 -11.171875 L 0.515625 -6.363281 L 0.417969 -2.390625 L 0.742188 -0.613281 L 1.96875 -0.453125 L 3.90625 -0.195312 L 8.039062 0.195312 L 10.105469 0.0976562 L 10.429688 -0.160156 L 10.945312 -0.902344 L 11.109375 -1.484375 L 11.011719 -2.875 L 10.785156 -3.035156 C 10.625 -3.132812 10.332031 -3.230469 9.882812 -3.359375 C 9.429688 -3.457031 8.878906 -3.519531 8.300781 -3.519531 L 5.683594 -3.679688 L 4.035156 -3.519531 C 4.035156 -4.003906 4.003906 -4.714844 3.972656 -5.652344 C 3.90625 -6.554688 3.875 -7.296875 3.875 -7.816406 C 3.875 -8.039062 3.941406 -8.429688 4.035156 -8.945312 L 4.230469 -10.105469 L 6.425781 -9.785156 L 7.683594 -9.621094 L 8.167969 -9.785156 L 8.71875 -10.042969 L 8.71875 -10.011719 C 8.816406 -10.011719 8.914062 -10.011719 9.007812 -10.074219 L 9.105469 -10.074219 C 9.136719 -10.074219 9.203125 -10.074219 9.269531 -10.105469 C 9.332031 -10.140625 9.363281 -10.203125 9.429688 -10.269531 L 9.460938 -10.300781 C 9.589844 -10.367188 9.71875 -10.429688 9.882812 -10.496094 C 10.074219 -10.527344 10.171875 -10.785156 10.105469 -11.238281 L 10.011719 -11.335938 C 9.914062 -11.398438 9.816406 -11.496094 9.753906 -11.625 C 9.6875 -11.753906 9.65625 -11.914062 9.65625 -12.078125 C 9.65625 -12.464844 9.527344 -12.851562 9.332031 -13.207031 C 9.105469 -13.5625 8.816406 -13.722656 8.429688 -13.691406 C 7.945312 -13.5625 7.296875 -13.496094 6.457031 -13.496094 Z M 5.003906 -13.402344 "/></g></g></g><g fill="#000000" fill-opacity="1"><g transform="translate(242.623793, 312.216556)"><g><path d="M 15.824219 -1.257812 L 15.789062 -1.355469 L 14.917969 -2.808594 L 14.917969 -2.777344 L 13.046875 -6.296875 L 10.722656 -10.105469 C 12.140625 -10.816406 12.917969 -11.171875 13.046875 -11.171875 L 12.917969 -11.207031 C 13.046875 -11.207031 13.175781 -11.335938 13.335938 -11.59375 C 13.789062 -12.625 14.046875 -13.433594 14.144531 -14.046875 C 14.144531 -14.207031 14.175781 -14.53125 14.175781 -15.015625 C 14.175781 -15.46875 14.144531 -15.984375 14.144531 -16.5 C 14.046875 -17.179688 13.917969 -17.761719 13.757812 -18.210938 C 13.5625 -18.664062 13.238281 -19.308594 12.722656 -20.085938 C 12.207031 -20.828125 11.140625 -21.539062 9.558594 -22.214844 C 7.945312 -22.894531 6.847656 -23.25 6.265625 -23.25 C 5.878906 -23.21875 5.101562 -23.152344 3.875 -23.023438 C 2.648438 -22.894531 2.003906 -22.832031 1.90625 -22.832031 L 1.097656 -22.667969 L 0.679688 -22.570312 C 0.613281 -22.539062 0.550781 -22.539062 0.484375 -22.539062 C -0.160156 -22.410156 -0.453125 -22.023438 -0.453125 -21.34375 C -0.453125 -20.699219 -0.289062 -20.246094 0.03125 -19.925781 L 0.453125 -19.699219 C 0.515625 -19.699219 0.644531 -19.699219 0.808594 -19.730469 C 0.9375 -19.730469 1.066406 -19.761719 1.164062 -19.761719 L 1.164062 -10.496094 L 0.679688 -10.429688 L -0.289062 -10.429688 L -1.257812 -10.011719 L -1.355469 -9.234375 C -1.355469 -8.785156 -1.324219 -8.394531 -1.195312 -8.074219 L -1.195312 -8.105469 C -1.035156 -7.589844 -0.582031 -7.332031 0.160156 -7.332031 C 0.417969 -7.332031 0.644531 -7.332031 0.871094 -7.394531 C 1.097656 -7.460938 1.257812 -7.523438 1.324219 -7.589844 L 1.324219 -5.003906 C 1.292969 -4.777344 1.292969 -4.070312 1.292969 -2.875 C 1.292969 -1.808594 1.292969 -1.128906 1.324219 -0.871094 C 1.386719 -0.0976562 1.808594 0.289062 2.648438 0.289062 C 3.230469 0.289062 3.617188 0.289062 3.808594 0.257812 C 3.808594 0.257812 3.84375 0.257812 3.875 0.257812 C 3.90625 0.257812 3.941406 0.226562 3.972656 0.226562 L 4.164062 0.226562 C 4.554688 0.195312 5.003906 -0.0664062 5.523438 -0.582031 L 5.523438 -1.839844 L 5.039062 -5.425781 L 5.039062 -8.234375 L 6.652344 -8.332031 C 6.847656 -8.074219 7.136719 -7.683594 7.523438 -7.199219 C 7.910156 -6.714844 8.203125 -6.363281 8.394531 -6.101562 L 8.363281 -6.136719 L 8.71875 -5.230469 L 11.980469 -0.324219 L 12.207031 -0.195312 C 12.335938 -0.128906 12.464844 -0.03125 12.660156 0.03125 C 12.851562 0.0976562 12.980469 0.128906 13.078125 0.128906 L 13.59375 0.128906 C 14.242188 0.128906 14.757812 0.0664062 15.082031 -0.0976562 C 15.566406 -0.324219 15.824219 -0.710938 15.824219 -1.257812 Z M 8.234375 -12.335938 L 7.75 -12.011719 C 7.652344 -11.949219 7.492188 -11.882812 7.265625 -11.820312 C 7.039062 -11.753906 6.8125 -11.722656 6.585938 -11.691406 L 6.199219 -11.625 L 5.003906 -11.464844 L 5.003906 -12.660156 C 4.972656 -12.820312 4.941406 -13.078125 4.910156 -13.433594 C 4.84375 -13.789062 4.84375 -14.046875 4.84375 -14.242188 L 4.84375 -19.601562 L 5.457031 -19.601562 C 6.039062 -19.601562 6.457031 -19.570312 6.714844 -19.570312 C 7.296875 -19.441406 8.039062 -19.148438 9.007812 -18.664062 C 9.398438 -18.601562 9.6875 -18.210938 9.882812 -17.566406 C 10.074219 -16.886719 10.171875 -16.308594 10.171875 -15.855469 C 10.171875 -14.984375 10.011719 -14.242188 9.71875 -13.628906 C 9.558594 -13.175781 9.074219 -12.753906 8.234375 -12.335938 Z M 8.234375 -12.335938 "/></g></g></g><g fill="#000000" fill-opacity="1"><g transform="translate(257.956013, 312.216556)"><g><path d="M 1.777344 -21.699219 L 1.679688 -21.601562 L 1.519531 -19.730469 C 1.519531 -19.375 1.613281 -19.019531 1.839844 -18.695312 L 2.839844 -18.632812 L 4.359375 -18.632812 L 3.972656 -14.078125 L 3.972656 -4.292969 C 3.972656 -4.132812 3.714844 -3.941406 3.230469 -3.679688 L 3.261719 -3.714844 L 2.195312 -3.550781 C 2.035156 -3.550781 1.871094 -3.292969 1.710938 -2.777344 C 1.519531 -2.261719 1.453125 -1.839844 1.453125 -1.519531 C 1.453125 -0.96875 1.871094 -0.550781 2.746094 -0.289062 L 4.554688 -0.289062 L 9.203125 -0.96875 L 9.71875 -0.96875 L 9.945312 -1.066406 C 10.105469 -1.128906 10.269531 -1.324219 10.460938 -1.648438 C 10.625 -1.96875 10.722656 -2.390625 10.722656 -2.90625 C 10.722656 -3.421875 10.460938 -3.808594 10.011719 -4.035156 C 9.558594 -4.261719 9.042969 -4.390625 8.460938 -4.390625 C 8.203125 -4.390625 8.007812 -4.359375 7.847656 -4.328125 L 7.589844 -4.425781 C 7.492188 -4.425781 7.460938 -4.875 7.460938 -5.714844 L 7.460938 -6.8125 C 7.460938 -6.941406 7.425781 -7.070312 7.394531 -7.136719 L 7.847656 -16.050781 C 7.847656 -16.371094 7.816406 -16.792969 7.78125 -17.371094 L 7.683594 -18.761719 L 7.847656 -18.921875 C 8.039062 -18.921875 8.363281 -18.921875 8.75 -18.988281 C 9.136719 -19.019531 9.460938 -19.050781 9.65625 -19.085938 L 10.398438 -19.085938 L 10.460938 -19.246094 C 10.460938 -19.375 10.496094 -19.570312 10.527344 -19.828125 C 10.558594 -20.085938 10.589844 -20.410156 10.589844 -20.730469 C 10.589844 -21.246094 10.367188 -21.636719 9.976562 -21.894531 C 9.558594 -22.152344 9.042969 -22.28125 8.460938 -22.28125 C 7.878906 -22.28125 7.039062 -22.121094 5.941406 -21.796875 L 3.195312 -21.796875 L 2.839844 -21.570312 L 2.808594 -21.539062 C 2.777344 -21.507812 2.746094 -21.507812 2.746094 -21.507812 C 2.488281 -21.699219 2.261719 -21.828125 2.097656 -21.828125 C 2.035156 -21.828125 1.90625 -21.765625 1.777344 -21.699219 Z M 1.777344 -21.699219 "/></g></g></g><g fill="#000000" fill-opacity="1"><g transform="translate(269.511668, 312.216556)"><g><path d="M 4.292969 -11.429688 L 4.328125 -12.269531 C 4.328125 -12.820312 4.359375 -13.464844 4.457031 -14.175781 C 4.519531 -14.886719 4.648438 -15.371094 4.8125 -15.695312 C 4.972656 -16.113281 5.261719 -16.597656 5.714844 -17.179688 C 6.167969 -17.726562 6.492188 -18.117188 6.75 -18.308594 C 6.878906 -18.40625 7.296875 -18.566406 8.074219 -18.792969 C 8.847656 -19.019531 9.332031 -19.148438 9.527344 -19.179688 C 9.589844 -19.179688 10.816406 -19.214844 13.144531 -19.214844 C 13.335938 -19.214844 13.496094 -19.375 13.691406 -19.730469 L 13.949219 -19.761719 C 14.078125 -19.792969 14.242188 -19.859375 14.402344 -19.988281 C 14.5625 -20.117188 14.660156 -20.246094 14.660156 -20.441406 C 14.660156 -20.828125 14.335938 -21.378906 13.722656 -22.054688 L 13.367188 -22.214844 C 13.109375 -22.347656 12.789062 -22.441406 12.398438 -22.570312 C 12.011719 -22.667969 11.691406 -22.734375 11.429688 -22.734375 L 11.109375 -22.734375 C 8.429688 -22.570312 6.523438 -22.121094 5.425781 -21.378906 C 4.261719 -20.601562 3.488281 -19.925781 3.101562 -19.34375 L 2.90625 -18.988281 C 2.777344 -18.761719 2.617188 -18.472656 2.453125 -18.082031 C 2.261719 -17.695312 2.132812 -17.339844 2.066406 -17.050781 C 1.195312 -14.464844 0.773438 -12.335938 0.773438 -10.6875 C 0.773438 -10.332031 0.773438 -10.105469 0.839844 -10.042969 L 0.902344 -8.847656 C 0.96875 -8.074219 1.128906 -7.167969 1.386719 -6.136719 C 1.648438 -5.101562 1.96875 -4.328125 2.421875 -3.84375 C 3.066406 -3.066406 3.875 -2.355469 4.84375 -1.742188 C 5.8125 -1.128906 6.75 -0.710938 7.621094 -0.515625 C 8.6875 -0.324219 9.492188 -0.226562 10.011719 -0.226562 L 11.300781 -0.386719 L 12.238281 -0.324219 C 12.625 -0.324219 12.851562 -0.386719 12.980469 -0.515625 C 13.078125 -0.644531 13.238281 -0.96875 13.496094 -1.550781 C 13.757812 -2.097656 13.886719 -2.421875 13.886719 -2.488281 C 13.886719 -2.648438 13.820312 -2.9375 13.691406 -3.324219 L 13.757812 -3.421875 C 13.820312 -3.488281 13.851562 -3.550781 13.917969 -3.679688 C 13.980469 -3.777344 14.015625 -3.875 14.015625 -3.941406 C 14.015625 -4.070312 13.886719 -4.132812 13.660156 -4.132812 C 13.464844 -4.132812 13.238281 -4.070312 12.949219 -4.003906 C 11.820312 -3.746094 10.980469 -3.648438 10.460938 -3.648438 C 7.234375 -3.746094 5.425781 -4.777344 4.972656 -6.75 C 4.519531 -8.6875 4.292969 -10.238281 4.292969 -11.429688 Z M 4.292969 -11.429688 "/></g></g></g><g fill="#000000" fill-opacity="1"><g transform="translate(283.907815, 312.216556)"><g><path d="M 3.84375 -22.894531 L 3.777344 -22.894531 L 3.035156 -22.605469 C 2.90625 -22.605469 2.777344 -22.570312 2.582031 -22.570312 C 2.390625 -22.539062 2.261719 -22.539062 2.164062 -22.539062 L 1.386719 -22.765625 L 0.902344 -22.214844 L 0.902344 -6.265625 L 0.679688 -2.292969 L 0.742188 -2.066406 C 0.773438 -1.9375 0.871094 -1.777344 1 -1.582031 C 1.128906 -1.386719 1.257812 -1.226562 1.453125 -1.164062 L 1.519531 -0.484375 L 2.035156 -0.324219 L 3.164062 -0.386719 L 3.777344 -0.773438 L 4.8125 -1.257812 L 4.941406 -1.839844 L 4.746094 -5.972656 C 4.648438 -7.847656 4.585938 -9.234375 4.585938 -10.074219 L 4.875 -10.460938 L 5.328125 -10.851562 L 5.359375 -10.882812 L 5.394531 -10.851562 L 5.523438 -10.851562 L 5.8125 -10.625 C 5.878906 -10.429688 6.101562 -10.140625 6.425781 -9.6875 C 6.75 -9.234375 7.105469 -8.785156 7.425781 -8.394531 L 7.910156 -7.78125 L 7.910156 -7.816406 L 9.363281 -5.394531 L 11.238281 -2.875 L 13.628906 -0.613281 L 15.082031 -0.03125 L 15.886719 -0.0976562 L 16.339844 -0.289062 L 16.726562 -0.871094 L 16.726562 -1.226562 L 16.757812 -1.613281 C 16.757812 -1.679688 16.792969 -1.777344 16.921875 -1.9375 C 17.050781 -2.132812 17.113281 -2.324219 17.113281 -2.519531 C 17.113281 -2.550781 17.148438 -2.746094 17.277344 -3.132812 L 17.242188 -3.292969 C 17.210938 -3.359375 17.148438 -3.488281 17.082031 -3.617188 C 17.019531 -3.746094 16.921875 -3.875 16.792969 -3.972656 L 16.726562 -4.003906 C 16.664062 -4.035156 16.628906 -4.070312 16.566406 -4.132812 C 16.5 -4.199219 16.4375 -4.230469 16.402344 -4.261719 C 16.371094 -4.261719 16.339844 -4.292969 16.339844 -4.328125 C 15.695312 -4.84375 15.144531 -5.261719 14.757812 -5.652344 C 14.691406 -5.683594 14.5 -5.878906 14.113281 -6.230469 C 13.722656 -6.585938 13.464844 -6.847656 13.273438 -7.039062 L 10.851562 -9.816406 C 10.140625 -10.589844 9.363281 -11.496094 8.460938 -12.5625 L 10.785156 -14.207031 L 12.691406 -16.4375 L 13.304688 -17.179688 C 13.722656 -17.695312 14.144531 -18.210938 14.5625 -18.761719 C 14.949219 -19.277344 15.175781 -19.601562 15.175781 -19.664062 L 15.144531 -19.664062 C 15.273438 -19.859375 15.433594 -20.183594 15.597656 -20.570312 L 14.949219 -21.570312 L 13.757812 -22.28125 L 13.660156 -21.992188 C 13.660156 -21.992188 13.660156 -22.023438 13.59375 -22.121094 C 13.53125 -22.214844 13.464844 -22.3125 13.367188 -22.410156 C 13.238281 -22.476562 13.144531 -22.539062 13.078125 -22.539062 L 12.980469 -22.507812 C 12.851562 -22.441406 12.625 -22.378906 12.367188 -22.378906 L 11.851562 -22.023438 C 11.109375 -21.117188 10.367188 -20.148438 9.621094 -19.117188 C 8.785156 -17.988281 8.332031 -17.371094 8.234375 -17.242188 L 7.234375 -16.597656 L 6.457031 -15.757812 L 6.136719 -15.210938 L 5.585938 -14.464844 L 5.585938 -14.5 L 4.777344 -13.757812 L 4.941406 -21.667969 L 4.875 -22.214844 C 4.875 -22.378906 4.714844 -22.539062 4.425781 -22.667969 C 4.101562 -22.796875 3.90625 -22.894531 3.84375 -22.894531 Z M 3.84375 -22.894531 "/></g></g></g></svg>