<svg xmlns="http://www.w3.org/2000/svg" xmlns:xlink="http://www.w3.org/1999/xlink" width="500" zoomAndPan="magnify" viewBox="0 0 375 374.999991" height="500" preserveAspectRatio="xMidYMid meet" version="1.0"><defs><clipPath id="4f4b3ac750"><path d="M 136.371094 142.507812 L 238.371094 142.507812 L 238.371094 232.507812 L 136.371094 232.507812 Z M 136.371094 142.507812 " clip-rule="nonzero"/></clipPath><clipPath id="c800b3b809"><path d="M 173 169 L 204 169 L 204 216 L 173 216 Z M 173 169 " clip-rule="nonzero"/></clipPath><clipPath id="bc0fa92dfd"><path d="M 147.804688 164.515625 L 211.9375 148.941406 L 226.984375 210.890625 L 162.847656 226.464844 Z M 147.804688 164.515625 " clip-rule="nonzero"/></clipPath><clipPath id="4d8f56fd26"><path d="M 147.804688 164.515625 L 211.9375 148.941406 L 226.984375 210.890625 L 162.847656 226.464844 Z M 147.804688 164.515625 " clip-rule="nonzero"/></clipPath><clipPath id="7fdf6ce262"><path d="M 170 167 L 202 167 L 202 215 L 170 215 Z M 170 167 " clip-rule="nonzero"/></clipPath><clipPath id="cc2792c5d0"><path d="M 147.804688 164.515625 L 211.9375 148.941406 L 226.984375 210.890625 L 162.847656 226.464844 Z M 147.804688 164.515625 " clip-rule="nonzero"/></clipPath><clipPath id="8e623738ae"><path d="M 147.804688 164.515625 L 211.9375 148.941406 L 226.984375 210.890625 L 162.847656 226.464844 Z M 147.804688 164.515625 " clip-rule="nonzero"/></clipPath><clipPath id="436933d6df"><path d="M 197 164 L 205 164 L 205 170 L 197 170 Z M 197 164 " clip-rule="nonzero"/></clipPath><clipPath id="e761dfe8d0"><path d="M 147.804688 164.515625 L 211.9375 148.941406 L 226.984375 210.890625 L 162.847656 226.464844 Z M 147.804688 164.515625 " clip-rule="nonzero"/></clipPath><clipPath id="fe8ac7a4aa"><path d="M 147.804688 164.515625 L 211.9375 148.941406 L 226.984375 210.890625 L 162.847656 226.464844 Z M 147.804688 164.515625 " clip-rule="nonzero"/></clipPath><clipPath id="d3b82063e0"><path d="M 164 212 L 173 212 L 173 224 L 164 224 Z M 164 212 " clip-rule="nonzero"/></clipPath><clipPath id="48fba875ed"><path d="M 147.804688 164.515625 L 211.9375 148.941406 L 226.984375 210.890625 L 162.847656 226.464844 Z M 147.804688 164.515625 " clip-rule="nonzero"/></clipPath><clipPath id="21d646a740"><path d="M 147.804688 164.515625 L 211.9375 148.941406 L 226.984375 210.890625 L 162.847656 226.464844 Z M 147.804688 164.515625 " clip-rule="nonzero"/></clipPath><clipPath id="cce421299d"><path d="M 199 161 L 206 161 L 206 167 L 199 167 Z M 199 161 " clip-rule="nonzero"/></clipPath><clipPath id="7e6eb8dfd2"><path d="M 147.804688 164.515625 L 211.9375 148.941406 L 226.984375 210.890625 L 162.847656 226.464844 Z M 147.804688 164.515625 " clip-rule="nonzero"/></clipPath><clipPath id="64213309cb"><path d="M 147.804688 164.515625 L 211.9375 148.941406 L 226.984375 210.890625 L 162.847656 226.464844 Z M 147.804688 164.515625 " clip-rule="nonzero"/></clipPath><clipPath id="87fab9576f"><path d="M 168 166 L 199 166 L 199 213 L 168 213 Z M 168 166 " clip-rule="nonzero"/></clipPath><clipPath id="57e5533c39"><path d="M 147.804688 164.515625 L 211.9375 148.941406 L 226.984375 210.890625 L 162.847656 226.464844 Z M 147.804688 164.515625 " clip-rule="nonzero"/></clipPath><clipPath id="296a001bc0"><path d="M 147.804688 164.515625 L 211.9375 148.941406 L 226.984375 210.890625 L 162.847656 226.464844 Z M 147.804688 164.515625 " clip-rule="nonzero"/></clipPath><clipPath id="339a510170"><path d="M 162 223 L 165 223 L 165 226 L 162 226 Z M 162 223 " clip-rule="nonzero"/></clipPath><clipPath id="e6150689d2"><path d="M 147.804688 164.515625 L 211.9375 148.941406 L 226.984375 210.890625 L 162.847656 226.464844 Z M 147.804688 164.515625 " clip-rule="nonzero"/></clipPath><clipPath id="2af69d3f00"><path d="M 147.804688 164.515625 L 211.9375 148.941406 L 226.984375 210.890625 L 162.847656 226.464844 Z M 147.804688 164.515625 " clip-rule="nonzero"/></clipPath><clipPath id="751e0ac4e2"><path d="M 199 162 L 206 162 L 206 168 L 199 168 Z M 199 162 " clip-rule="nonzero"/></clipPath><clipPath id="c79d22eaea"><path d="M 147.804688 164.515625 L 211.9375 148.941406 L 226.984375 210.890625 L 162.847656 226.464844 Z M 147.804688 164.515625 " clip-rule="nonzero"/></clipPath><clipPath id="6b64bbb565"><path d="M 147.804688 164.515625 L 211.9375 148.941406 L 226.984375 210.890625 L 162.847656 226.464844 Z M 147.804688 164.515625 " clip-rule="nonzero"/></clipPath><clipPath id="9ed8d1d2a5"><path d="M 200 158 L 209 158 L 209 166 L 200 166 Z M 200 158 " clip-rule="nonzero"/></clipPath><clipPath id="1fcaf9e35f"><path d="M 147.804688 164.515625 L 211.9375 148.941406 L 226.984375 210.890625 L 162.847656 226.464844 Z M 147.804688 164.515625 " clip-rule="nonzero"/></clipPath><clipPath id="4af2fb2f63"><path d="M 147.804688 164.515625 L 211.9375 148.941406 L 226.984375 210.890625 L 162.847656 226.464844 Z M 147.804688 164.515625 " clip-rule="nonzero"/></clipPath><clipPath id="5211bdb7be"><path d="M 202 156 L 210 156 L 210 162 L 202 162 Z M 202 156 " clip-rule="nonzero"/></clipPath><clipPath id="bafefbebec"><path d="M 147.804688 164.515625 L 211.9375 148.941406 L 226.984375 210.890625 L 162.847656 226.464844 Z M 147.804688 164.515625 " clip-rule="nonzero"/></clipPath><clipPath id="0272c5486c"><path d="M 147.804688 164.515625 L 211.9375 148.941406 L 226.984375 210.890625 L 162.847656 226.464844 Z M 147.804688 164.515625 " clip-rule="nonzero"/></clipPath><clipPath id="7682122694"><path d="M 203 154 L 211 154 L 211 160 L 203 160 Z M 203 154 " clip-rule="nonzero"/></clipPath><clipPath id="32eb723ebc"><path d="M 147.804688 164.515625 L 211.9375 148.941406 L 226.984375 210.890625 L 162.847656 226.464844 Z M 147.804688 164.515625 " clip-rule="nonzero"/></clipPath><clipPath id="4f97c86ee5"><path d="M 147.804688 164.515625 L 211.9375 148.941406 L 226.984375 210.890625 L 162.847656 226.464844 Z M 147.804688 164.515625 " clip-rule="nonzero"/></clipPath><clipPath id="ec6d5705c0"><path d="M 205 150 L 214 150 L 214 158 L 205 158 Z M 205 150 " clip-rule="nonzero"/></clipPath><clipPath id="f0fcdf6629"><path d="M 147.804688 164.515625 L 211.9375 148.941406 L 226.984375 210.890625 L 162.847656 226.464844 Z M 147.804688 164.515625 " clip-rule="nonzero"/></clipPath><clipPath id="5bce022bff"><path d="M 147.804688 164.515625 L 211.9375 148.941406 L 226.984375 210.890625 L 162.847656 226.464844 Z M 147.804688 164.515625 " clip-rule="nonzero"/></clipPath><clipPath id="e57dc97e30"><path d="M 180.257812 180.753906 L 193.75 180.753906 L 193.75 194.246094 L 180.257812 194.246094 Z M 180.257812 180.753906 " clip-rule="nonzero"/></clipPath><clipPath id="023fecf56d"><path d="M 187.003906 180.753906 C 183.277344 180.753906 180.257812 183.773438 180.257812 187.5 C 180.257812 191.226562 183.277344 194.246094 187.003906 194.246094 C 190.730469 194.246094 193.75 191.226562 193.75 187.5 C 193.75 183.773438 190.730469 180.753906 187.003906 180.753906 Z M 187.003906 180.753906 " clip-rule="nonzero"/></clipPath><clipPath id="2029cdf72e"><path d="M 180.257812 180.753906 L 193.746094 180.753906 L 193.746094 194.242188 L 180.257812 194.242188 Z M 180.257812 180.753906 " clip-rule="nonzero"/></clipPath><clipPath id="530fa8a39a"><path d="M 187.003906 180.753906 C 183.277344 180.753906 180.257812 183.773438 180.257812 187.5 C 180.257812 191.222656 183.277344 194.242188 187.003906 194.242188 C 190.726562 194.242188 193.746094 191.222656 193.746094 187.5 C 193.746094 183.773438 190.726562 180.753906 187.003906 180.753906 Z M 187.003906 180.753906 " clip-rule="nonzero"/></clipPath></defs><g clip-path="url(#4f4b3ac750)"><path fill="#ffffff" d="M 238.386719 187.484375 C 238.386719 180.566406 227.566406 175.453125 213.164062 172.695312 C 214.339844 169.316406 215.304688 166.042969 215.976562 162.984375 C 218.207031 152.78125 217.128906 145.828125 212.941406 143.410156 C 211.90625 142.8125 210.710938 142.507812 209.390625 142.507812 C 203.667969 142.507812 195.691406 148.273438 187.496094 157.777344 C 179.308594 148.273438 171.328125 142.507812 165.601562 142.507812 C 164.285156 142.507812 163.089844 142.8125 162.050781 143.410156 C 156.054688 146.871094 157.042969 158.824219 161.871094 172.691406 C 147.445312 175.441406 136.605469 180.5625 136.605469 187.484375 C 136.605469 194.40625 147.429688 199.519531 161.835938 202.273438 C 160.65625 205.65625 159.6875 208.929688 159.019531 211.984375 C 156.785156 222.191406 157.863281 229.140625 162.050781 231.558594 C 163.089844 232.15625 164.285156 232.460938 165.601562 232.460938 C 171.328125 232.460938 179.304688 226.691406 187.496094 217.195312 C 195.6875 226.691406 203.667969 232.460938 209.390625 232.460938 C 210.710938 232.460938 211.90625 232.15625 212.941406 231.558594 C 217.128906 229.140625 218.207031 222.191406 215.976562 211.984375 C 215.304688 208.929688 214.339844 205.65625 213.160156 202.273438 C 227.566406 199.519531 238.386719 194.40625 238.386719 187.484375 Z M 209.390625 145.136719 C 210.242188 145.136719 210.996094 145.328125 211.628906 145.691406 C 214.699219 147.464844 215.34375 153.5625 213.40625 162.425781 C 212.734375 165.5 211.75 168.800781 210.542969 172.226562 C 206.300781 171.519531 201.804688 171.011719 197.210938 170.710938 C 194.59375 166.753906 191.914062 163.113281 189.238281 159.847656 C 196.953125 150.828125 204.4375 145.136719 209.390625 145.136719 Z M 200.027344 194.71875 C 198.628906 197.136719 197.183594 199.484375 195.710938 201.738281 C 193.066406 201.875 190.328125 201.949219 187.496094 201.949219 C 184.664062 201.949219 181.925781 201.875 179.285156 201.738281 C 177.808594 199.484375 176.363281 197.136719 174.96875 194.71875 C 173.554688 192.269531 172.25 189.859375 171.050781 187.507812 C 172.277344 185.097656 173.570312 182.671875 174.96875 180.253906 C 176.363281 177.832031 177.808594 175.488281 179.285156 173.226562 C 181.925781 173.09375 184.664062 173.019531 187.496094 173.019531 C 190.328125 173.019531 193.066406 173.09375 195.710938 173.226562 C 197.183594 175.488281 198.625 177.832031 200.023438 180.253906 C 201.417969 182.664062 202.710938 185.085938 203.933594 187.484375 C 202.710938 189.890625 201.417969 192.308594 200.027344 194.71875 Z M 205.378906 190.417969 C 206.996094 193.777344 208.433594 197.089844 209.65625 200.308594 C 206.347656 200.839844 202.777344 201.253906 198.980469 201.535156 C 200.105469 199.753906 201.214844 197.917969 202.304688 196.035156 C 203.382812 194.164062 204.398438 192.289062 205.378906 190.417969 Z M 193.902344 204.441406 C 191.796875 207.515625 189.644531 210.402344 187.496094 213.035156 C 185.351562 210.398438 183.203125 207.515625 181.089844 204.441406 C 183.222656 204.53125 185.363281 204.582031 187.496094 204.582031 C 189.632812 204.582031 191.773438 204.53125 193.902344 204.441406 Z M 176.015625 201.535156 C 172.214844 201.253906 168.644531 200.839844 165.339844 200.308594 C 166.5625 197.097656 167.996094 193.78125 169.609375 190.417969 C 170.597656 192.308594 171.625 194.183594 172.691406 196.035156 C 173.78125 197.917969 174.890625 199.753906 176.015625 201.535156 Z M 169.597656 184.582031 C 167.933594 181.132812 166.5 177.8125 165.296875 174.667969 C 168.617188 174.140625 172.199219 173.722656 176.015625 173.433594 C 174.890625 175.21875 173.78125 177.050781 172.691406 178.9375 C 171.601562 180.820312 170.585938 182.707031 169.597656 184.582031 Z M 181.09375 170.53125 C 183.203125 167.460938 185.351562 164.574219 187.496094 161.933594 C 189.644531 164.574219 191.796875 167.460938 193.902344 170.53125 C 191.773438 170.441406 189.632812 170.390625 187.496094 170.390625 C 185.363281 170.390625 183.222656 170.441406 181.09375 170.53125 Z M 202.304688 178.9375 C 201.214844 177.046875 200.105469 175.21875 198.980469 173.433594 C 202.777344 173.722656 206.347656 174.132812 209.65625 174.660156 C 208.433594 177.875 206.996094 181.195312 205.378906 184.558594 C 204.398438 182.6875 203.382812 180.808594 202.304688 178.9375 Z M 163.367188 145.691406 C 163.996094 145.324219 164.75 145.136719 165.601562 145.136719 C 170.554688 145.136719 178.039062 150.828125 185.753906 159.847656 C 183.082031 163.113281 180.398438 166.753906 177.78125 170.710938 C 173.175781 171.011719 168.660156 171.527344 164.402344 172.234375 C 159.429688 158.195312 159.277344 148.050781 163.367188 145.691406 Z M 139.234375 187.484375 C 139.234375 182.765625 148.097656 177.824219 162.742188 175.109375 C 164.257812 179.152344 166.070312 183.324219 168.113281 187.464844 C 166.015625 191.679688 164.203125 195.839844 162.695312 199.851562 C 148.078125 197.136719 139.234375 192.199219 139.234375 187.484375 Z M 165.601562 229.832031 C 164.738281 229.832031 164.011719 229.652344 163.367188 229.285156 C 160.296875 227.511719 159.648438 221.414062 161.589844 212.550781 C 162.265625 209.472656 163.246094 206.167969 164.453125 202.746094 C 168.695312 203.453125 173.191406 203.960938 177.78125 204.261719 C 180.398438 208.214844 183.078125 211.855469 185.753906 215.125 C 178.039062 224.140625 170.554688 229.832031 165.601562 229.832031 Z M 213.402344 212.546875 C 215.34375 221.410156 214.695312 227.511719 211.628906 229.285156 C 210.992188 229.644531 210.242188 229.832031 209.390625 229.832031 C 204.4375 229.832031 196.953125 224.140625 189.238281 215.121094 C 191.914062 211.855469 194.59375 208.214844 197.214844 204.261719 C 201.804688 203.960938 206.300781 203.453125 210.542969 202.742188 C 211.75 206.167969 212.734375 209.472656 213.402344 212.546875 Z M 212.296875 199.851562 C 210.792969 195.847656 208.984375 191.695312 206.890625 187.484375 C 208.984375 183.277344 210.792969 179.121094 212.296875 175.121094 C 226.914062 177.835938 235.757812 182.773438 235.757812 187.484375 C 235.757812 192.199219 226.914062 197.136719 212.296875 199.851562 Z M 212.296875 199.851562 " fill-opacity="1" fill-rule="nonzero"/></g><path fill="#ffffff" d="M 193.085938 187.484375 C 193.085938 187.851562 193.050781 188.214844 192.980469 188.574219 C 192.90625 188.9375 192.800781 189.285156 192.660156 189.625 C 192.519531 189.964844 192.347656 190.285156 192.144531 190.589844 C 191.941406 190.894531 191.710938 191.179688 191.449219 191.4375 C 191.191406 191.699219 190.90625 191.929688 190.601562 192.132812 C 190.296875 192.335938 189.976562 192.507812 189.636719 192.648438 C 189.296875 192.789062 188.949219 192.894531 188.585938 192.96875 C 188.226562 193.039062 187.863281 193.074219 187.496094 193.074219 C 187.128906 193.074219 186.765625 193.039062 186.40625 192.96875 C 186.046875 192.894531 185.695312 192.789062 185.359375 192.648438 C 185.019531 192.507812 184.695312 192.335938 184.390625 192.132812 C 184.085938 191.929688 183.804688 191.699219 183.542969 191.4375 C 183.285156 191.179688 183.054688 190.894531 182.847656 190.589844 C 182.644531 190.285156 182.472656 189.964844 182.332031 189.625 C 182.191406 189.285156 182.085938 188.9375 182.015625 188.574219 C 181.941406 188.214844 181.90625 187.851562 181.90625 187.484375 C 181.90625 187.117188 181.941406 186.753906 182.015625 186.394531 C 182.085938 186.035156 182.191406 185.683594 182.332031 185.347656 C 182.472656 185.007812 182.644531 184.683594 182.847656 184.378906 C 183.054688 184.074219 183.285156 183.792969 183.542969 183.53125 C 183.804688 183.273438 184.085938 183.042969 184.390625 182.835938 C 184.695312 182.632812 185.019531 182.460938 185.359375 182.320312 C 185.695312 182.179688 186.046875 182.074219 186.40625 182.003906 C 186.765625 181.929688 187.128906 181.894531 187.496094 181.894531 C 187.863281 181.894531 188.226562 181.929688 188.585938 182.003906 C 188.949219 182.074219 189.296875 182.179688 189.636719 182.320312 C 189.976562 182.460938 190.296875 182.632812 190.601562 182.835938 C 190.90625 183.042969 191.191406 183.273438 191.449219 183.53125 C 191.710938 183.792969 191.941406 184.074219 192.144531 184.378906 C 192.347656 184.683594 192.519531 185.007812 192.660156 185.347656 C 192.800781 185.683594 192.90625 186.035156 192.980469 186.394531 C 193.050781 186.753906 193.085938 187.117188 193.085938 187.484375 Z M 193.085938 187.484375 " fill-opacity="1" fill-rule="nonzero"/><g clip-path="url(#c800b3b809)"><g clip-path="url(#bc0fa92dfd)"><g clip-path="url(#4d8f56fd26)"><path fill="#ffffff" d="M 173.226562 215.152344 C 173.300781 215.363281 173.449219 215.480469 173.605469 215.460938 C 173.691406 215.457031 173.769531 215.523438 173.808594 215.5625 C 173.84375 215.59375 173.890625 215.609375 173.9375 215.601562 C 173.9375 215.601562 173.945312 215.601562 173.945312 215.601562 C 173.988281 215.589844 174.023438 215.5625 174.042969 215.523438 C 174.707031 214.117188 178.945312 206.917969 179.613281 205.988281 C 182.171875 202.496094 184.632812 198.9375 186.929688 195.417969 C 188.8125 192.53125 190.679688 189.5625 192.484375 186.695312 C 193.464844 185.140625 194.441406 183.585938 195.425781 182.039062 C 196.714844 180.015625 198.214844 177.671875 199.746094 175.398438 C 200.15625 174.785156 200.605469 174.167969 201.039062 173.570312 C 201.859375 172.441406 202.707031 171.269531 203.375 170.042969 C 203.410156 169.984375 203.394531 169.90625 203.339844 169.863281 C 203.128906 169.691406 202.90625 169.535156 202.679688 169.402344 C 202.609375 169.363281 202.523438 169.382812 202.484375 169.453125 C 200.296875 173.121094 198.015625 176.53125 195.601562 180.140625 L 194.445312 181.867188 C 193.910156 182.675781 193.375 183.507812 192.863281 184.316406 C 191.917969 185.796875 190.941406 187.324219 189.882812 188.75 C 189.429688 189.359375 188.945312 189.957031 188.480469 190.535156 C 187.488281 191.761719 186.460938 193.03125 185.679688 194.460938 C 184.300781 196.972656 182.710938 199.351562 181.167969 201.652344 C 180.285156 202.972656 179.375 204.339844 178.503906 205.71875 C 178.058594 206.429688 177.601562 207.140625 177.136719 207.855469 C 175.804688 209.921875 174.425781 212.058594 173.316406 214.253906 C 173.296875 214.296875 173.300781 214.347656 173.324219 214.390625 C 173.378906 214.480469 173.375 214.582031 173.304688 214.679688 C 173.222656 214.808594 173.15625 214.941406 173.226562 215.152344 " fill-opacity="1" fill-rule="nonzero"/></g></g></g><g clip-path="url(#7fdf6ce262)"><g clip-path="url(#cc2792c5d0)"><g clip-path="url(#8e623738ae)"><path fill="#ffffff" d="M 200.855469 168.296875 C 200.597656 168.109375 200.332031 167.921875 200.050781 167.75 C 199.90625 167.664062 199.746094 167.5625 199.554688 167.425781 C 199.523438 167.40625 199.480469 167.398438 199.441406 167.402344 C 199.441406 167.402344 199.4375 167.40625 199.4375 167.40625 C 199.402344 167.414062 199.371094 167.441406 199.347656 167.476562 C 198.320312 169.316406 197.09375 171.054688 195.910156 172.734375 C 194.761719 174.363281 193.574219 176.050781 192.5625 177.828125 C 190.136719 182.113281 187.589844 186.125 184.777344 190.089844 C 181.992188 194.03125 179.367188 198.164062 176.835938 202.164062 C 174.722656 205.492188 172.539062 208.9375 170.277344 212.242188 C 170.257812 212.269531 170.25 212.304688 170.253906 212.335938 C 170.253906 212.359375 170.257812 212.382812 170.265625 212.402344 C 170.269531 212.421875 170.273438 212.4375 170.273438 212.445312 C 170.226562 213.199219 170.429688 213.792969 170.867188 214.214844 C 171.152344 214.496094 171.773438 214.429688 172.316406 214.296875 C 172.394531 214.277344 172.46875 214.257812 172.542969 214.238281 C 172.582031 214.226562 172.613281 214.199219 172.632812 214.164062 C 174.050781 211.285156 175.90625 208.492188 177.703125 205.792969 L 178.230469 204.992188 C 178.84375 204.066406 179.5 203.140625 180.136719 202.246094 C 180.757812 201.375 181.402344 200.46875 182.003906 199.554688 C 182.742188 198.449219 183.378906 197.273438 183.992188 196.132812 C 184.476562 195.242188 184.976562 194.320312 185.515625 193.441406 C 186.277344 192.203125 187.199219 191.054688 188.09375 189.945312 C 188.832031 189.023438 189.59375 188.074219 190.269531 187.074219 C 190.847656 186.210938 191.414062 185.320312 191.96875 184.464844 C 192.730469 183.273438 193.519531 182.046875 194.339844 180.867188 C 197.03125 177.015625 199.503906 173.179688 201.902344 169.148438 C 201.925781 169.113281 201.929688 169.074219 201.917969 169.039062 C 201.910156 169 201.882812 168.96875 201.847656 168.949219 C 201.5 168.753906 201.175781 168.519531 200.855469 168.296875 " fill-opacity="1" fill-rule="nonzero"/></g></g></g><g clip-path="url(#436933d6df)"><g clip-path="url(#e761dfe8d0)"><g clip-path="url(#fe8ac7a4aa)"><path fill="#ffffff" d="M 197.992188 165.789062 C 198.1875 165.917969 198.390625 166.050781 198.632812 166.136719 C 199.203125 166.34375 199.835938 166.789062 200.382812 167.1875 C 201.085938 167.695312 201.785156 168.144531 202.589844 168.609375 L 202.789062 168.722656 C 203.121094 168.917969 203.433594 169.09375 203.71875 169.320312 C 203.773438 169.367188 203.84375 169.332031 203.929688 169.347656 C 203.949219 169.351562 203.96875 169.347656 203.988281 169.34375 C 204.011719 169.335938 204.03125 169.328125 204.050781 169.308594 C 204.230469 169.140625 204.414062 168.886719 204.625 168.523438 C 204.660156 168.464844 204.644531 168.386719 204.59375 168.34375 C 204.300781 168.097656 204.015625 167.832031 203.738281 167.578125 C 203.085938 166.972656 202.40625 166.34375 201.570312 165.925781 C 201.570312 165.921875 201.570312 165.921875 201.570312 165.921875 C 201.03125 165.65625 200.503906 165.34375 199.992188 165.039062 C 199.617188 164.816406 199.226562 164.582031 198.835938 164.371094 C 198.773438 164.339844 198.695312 164.355469 198.652344 164.410156 C 198.425781 164.699219 198.070312 165.015625 197.753906 165.292969 L 197.671875 165.367188 C 197.636719 165.398438 197.617188 165.445312 197.621094 165.492188 C 197.628906 165.539062 197.65625 165.578125 197.695312 165.601562 C 197.796875 165.660156 197.894531 165.722656 197.992188 165.789062 " fill-opacity="1" fill-rule="nonzero"/></g></g></g><g clip-path="url(#d3b82063e0)"><g clip-path="url(#48fba875ed)"><g clip-path="url(#21d646a740)"><path fill="#ffffff" d="M 164.59375 222.671875 C 164.675781 222.714844 164.761719 222.757812 164.847656 222.792969 C 165.078125 222.886719 165.191406 223.011719 165.300781 223.1875 C 165.324219 223.222656 165.363281 223.246094 165.402344 223.25 C 165.421875 223.253906 165.441406 223.253906 165.457031 223.25 C 165.480469 223.242188 165.503906 223.230469 165.519531 223.214844 C 166.207031 222.605469 166.933594 221.941406 167.636719 221.152344 L 168.179688 220.542969 C 169.015625 219.601562 169.878906 218.628906 170.710938 217.648438 C 171.199219 217.070312 171.707031 216.71875 172.242188 216.347656 C 172.425781 216.21875 172.609375 216.09375 172.800781 215.949219 C 172.828125 215.929688 172.851562 215.894531 172.855469 215.855469 C 172.859375 215.816406 172.851562 215.777344 172.828125 215.75 C 172.734375 215.628906 172.660156 215.496094 172.617188 215.367188 C 172.582031 215.265625 172.5625 215.171875 172.554688 215.058594 C 172.550781 215.019531 172.53125 214.980469 172.496094 214.957031 C 172.460938 214.929688 172.417969 214.921875 172.375 214.929688 C 171.410156 215.167969 170.835938 215.191406 170.410156 214.671875 C 169.929688 214.09375 169.675781 213.542969 169.613281 212.953125 C 169.605469 212.910156 169.582031 212.875 169.550781 212.847656 C 169.484375 212.800781 169.398438 212.835938 169.324219 212.851562 C 169.28125 212.859375 169.242188 212.867188 169.171875 212.882812 C 168.875 212.949219 168.59375 213.011719 168.335938 212.921875 C 168.210938 212.875 168.109375 212.800781 168.027344 212.695312 C 167.996094 212.652344 167.945312 212.636719 167.898438 212.640625 C 167.847656 212.644531 167.804688 212.675781 167.785156 212.722656 C 167.722656 212.851562 167.660156 212.984375 167.597656 213.113281 C 167.355469 213.609375 167.109375 214.125 166.945312 214.671875 C 166.496094 216.144531 165.910156 217.589844 165.339844 218.992188 C 165.207031 219.324219 165.070312 219.65625 164.9375 219.988281 C 164.632812 220.75 164.328125 221.523438 164.027344 222.296875 C 164.011719 222.339844 164.015625 222.382812 164.039062 222.421875 C 164.058594 222.460938 164.09375 222.484375 164.136719 222.492188 C 164.289062 222.519531 164.4375 222.59375 164.59375 222.671875 " fill-opacity="1" fill-rule="nonzero"/></g></g></g><g clip-path="url(#cce421299d)"><g clip-path="url(#7e6eb8dfd2)"><g clip-path="url(#64213309cb)"><path fill="#ffffff" d="M 200.136719 162.628906 C 200.171875 162.648438 200.210938 162.664062 200.242188 162.6875 C 200.777344 162.996094 201.273438 163.386719 201.75 163.761719 C 202.070312 164.015625 202.398438 164.277344 202.742188 164.511719 C 203.054688 164.734375 203.375 164.980469 203.6875 165.214844 C 204.289062 165.679688 204.917969 166.160156 205.578125 166.527344 C 205.609375 166.542969 205.644531 166.546875 205.679688 166.539062 C 205.695312 166.535156 205.710938 166.53125 205.722656 166.523438 C 205.765625 166.492188 205.792969 166.441406 205.789062 166.390625 C 205.785156 166.355469 205.808594 166.324219 205.839844 166.273438 C 205.890625 166.199219 205.972656 166.078125 205.898438 165.917969 C 205.765625 165.617188 205.40625 165.488281 205.085938 165.371094 C 204.949219 165.320312 204.824219 165.273438 204.734375 165.21875 C 204.734375 165.21875 204.734375 165.21875 204.730469 165.21875 C 204.292969 164.964844 203.878906 164.570312 203.476562 164.1875 L 203.226562 163.953125 C 202.679688 163.441406 202.113281 162.988281 201.441406 162.523438 C 201.367188 162.472656 201.285156 162.410156 201.207031 162.34375 C 201 162.179688 200.757812 161.992188 200.484375 161.929688 C 200.378906 161.902344 200.097656 161.839844 199.914062 162.039062 C 199.835938 162.136719 199.800781 162.234375 199.820312 162.328125 C 199.851562 162.484375 200.003906 162.558594 200.136719 162.628906 " fill-opacity="1" fill-rule="nonzero"/></g></g></g><g clip-path="url(#87fab9576f)"><g clip-path="url(#57e5533c39)"><g clip-path="url(#296a001bc0)"><path fill="#ffffff" d="M 168.464844 212.121094 C 168.472656 212.15625 168.476562 212.175781 168.480469 212.191406 C 168.488281 212.230469 168.519531 212.289062 168.558594 212.308594 C 168.59375 212.332031 168.652344 212.332031 168.691406 212.316406 L 168.703125 212.3125 C 168.707031 212.3125 168.707031 212.3125 168.707031 212.3125 C 168.773438 212.300781 168.847656 212.289062 168.917969 212.277344 C 169.050781 212.257812 169.195312 212.234375 169.335938 212.199219 C 169.394531 212.183594 169.457031 212.167969 169.515625 212.148438 C 169.546875 212.136719 169.570312 212.121094 169.585938 212.09375 C 171.84375 208.808594 174.011719 205.378906 176.105469 202.0625 C 178.679688 197.980469 181.347656 193.761719 184.210938 189.765625 C 184.628906 189.1875 185.050781 188.609375 185.472656 188.03125 C 186.613281 186.484375 187.789062 184.886719 188.804688 183.226562 C 189.449219 182.167969 190.042969 181.0625 190.621094 179.992188 C 191.195312 178.929688 191.789062 177.828125 192.429688 176.777344 C 193.316406 175.324219 194.304688 173.917969 195.261719 172.554688 C 196.476562 170.820312 197.738281 169.027344 198.800781 167.117188 C 198.820312 167.082031 198.824219 167.042969 198.8125 167.007812 C 198.804688 166.96875 198.777344 166.941406 198.742188 166.921875 C 198.570312 166.832031 198.398438 166.753906 198.210938 166.679688 C 198.097656 166.644531 197.96875 166.542969 197.832031 166.441406 C 197.769531 166.390625 197.703125 166.339844 197.636719 166.292969 C 197.601562 166.269531 197.5625 166.261719 197.527344 166.269531 C 197.5 166.273438 197.457031 166.300781 197.4375 166.332031 C 196.675781 167.476562 195.890625 168.632812 195.128906 169.75 C 193.417969 172.269531 191.644531 174.875 190.066406 177.542969 C 188.269531 180.570312 186.207031 183.445312 184.210938 186.222656 C 183.332031 187.449219 182.417969 188.714844 181.539062 189.988281 C 178.949219 193.738281 176.285156 197.949219 173.148438 203.234375 C 172.179688 204.863281 171.15625 206.480469 170.171875 208.046875 C 169.546875 209.035156 168.921875 210.023438 168.304688 211.023438 C 168.285156 211.058594 168.277344 211.101562 168.289062 211.144531 C 168.3125 211.210938 168.320312 211.269531 168.300781 211.335938 C 168.289062 211.371094 168.28125 211.402344 168.277344 211.4375 C 168.273438 211.453125 168.273438 211.472656 168.277344 211.492188 C 168.304688 211.585938 168.332031 211.675781 168.359375 211.765625 C 168.398438 211.882812 168.433594 211.996094 168.464844 212.121094 " fill-opacity="1" fill-rule="nonzero"/></g></g></g><g clip-path="url(#339a510170)"><g clip-path="url(#e6150689d2)"><g clip-path="url(#2af69d3f00)"><path fill="#ffffff" d="M 162.910156 225.964844 C 162.941406 225.957031 162.96875 225.9375 162.988281 225.914062 C 163.117188 225.757812 163.242188 225.597656 163.367188 225.441406 C 163.753906 224.957031 164.113281 224.5 164.476562 224.164062 C 164.550781 224.09375 164.628906 224.023438 164.707031 223.953125 L 164.8125 223.859375 C 164.855469 223.816406 164.859375 223.726562 164.835938 223.671875 C 164.789062 223.550781 164.753906 223.476562 164.675781 223.425781 L 164.628906 223.402344 C 164.546875 223.367188 164.46875 223.332031 164.390625 223.292969 C 164.390625 223.292969 164.386719 223.292969 164.386719 223.292969 C 164.359375 223.277344 164.332031 223.261719 164.300781 223.246094 C 164.203125 223.1875 164.078125 223.117188 163.921875 223.132812 C 163.917969 223.132812 163.90625 223.132812 163.882812 223.125 C 163.878906 223.125 163.847656 223.117188 163.84375 223.113281 C 163.777344 223.097656 163.707031 223.136719 163.679688 223.203125 C 163.332031 224.113281 163.023438 224.953125 162.742188 225.777344 C 162.71875 225.84375 162.746094 225.917969 162.808594 225.949219 C 162.839844 225.96875 162.878906 225.972656 162.910156 225.964844 " fill-opacity="1" fill-rule="nonzero"/></g></g></g><g clip-path="url(#751e0ac4e2)"><g clip-path="url(#c79d22eaea)"><g clip-path="url(#6b64bbb565)"><path fill="#ffffff" d="M 200.773438 164.707031 C 201.011719 164.855469 201.277344 164.984375 201.53125 165.113281 C 201.851562 165.273438 202.183594 165.4375 202.449219 165.632812 C 203.015625 166.046875 203.535156 166.523438 204.039062 166.980469 C 204.3125 167.226562 204.578125 167.472656 204.855469 167.710938 C 204.890625 167.738281 204.933594 167.75 204.972656 167.742188 C 204.976562 167.742188 204.980469 167.742188 204.984375 167.742188 C 205.023438 167.730469 205.054688 167.707031 205.074219 167.675781 C 205.085938 167.65625 205.097656 167.636719 205.105469 167.621094 C 205.113281 167.601562 205.121094 167.582031 205.148438 167.546875 C 205.195312 167.453125 205.242188 167.363281 205.289062 167.277344 C 205.328125 167.210938 205.308594 167.128906 205.246094 167.089844 C 204.203125 166.390625 203.25 165.71875 202.417969 165.085938 C 202.167969 164.894531 201.929688 164.695312 201.691406 164.5 C 201.015625 163.945312 200.324219 163.371094 199.480469 163.007812 C 199.414062 162.980469 199.335938 163.003906 199.300781 163.066406 C 199.191406 163.242188 199.089844 163.417969 199.015625 163.566406 C 198.980469 163.640625 199.007812 163.722656 199.074219 163.757812 C 199.714844 164.089844 200.246094 164.378906 200.773438 164.707031 " fill-opacity="1" fill-rule="nonzero"/></g></g></g><g clip-path="url(#9ed8d1d2a5)"><g clip-path="url(#1fcaf9e35f)"><g clip-path="url(#4af2fb2f63)"><path fill="#ffffff" d="M 201.179688 161.066406 C 201.332031 160.773438 201.597656 160.46875 201.816406 160.21875 C 201.980469 160.015625 202.175781 159.828125 202.410156 159.644531 C 202.59375 159.5 202.816406 159.578125 202.929688 159.71875 C 202.96875 159.769531 203.082031 159.941406 202.886719 160.097656 C 202.675781 160.261719 202.429688 160.460938 202.242188 160.714844 C 202.199219 160.773438 202.148438 160.835938 202.097656 160.898438 C 201.964844 161.066406 201.824219 161.238281 201.730469 161.429688 C 201.609375 161.65625 201.40625 161.578125 201.347656 161.542969 C 201.214844 161.476562 201.0625 161.292969 201.179688 161.066406 Z M 204.164062 160.042969 C 204.28125 160.15625 204.339844 160.355469 204.183594 160.515625 C 203.855469 160.851562 203.558594 161.226562 203.265625 161.585938 C 203.140625 161.742188 203.015625 161.898438 202.886719 162.046875 C 202.839844 162.109375 202.761719 162.125 202.707031 162.125 C 202.609375 162.128906 202.503906 162.09375 202.441406 162.027344 C 202.289062 161.871094 202.351562 161.683594 202.460938 161.550781 C 202.578125 161.414062 202.691406 161.269531 202.804688 161.128906 C 203.101562 160.761719 203.40625 160.378906 203.734375 160.035156 C 203.886719 159.882812 204.0625 159.941406 204.164062 160.042969 Z M 204.984375 160.421875 C 205.015625 160.417969 205.042969 160.414062 205.070312 160.417969 C 205.195312 160.421875 205.324219 160.503906 205.378906 160.609375 C 205.425781 160.703125 205.417969 160.800781 205.355469 160.902344 C 205.199219 161.15625 205.011719 161.378906 204.8125 161.613281 L 204.683594 161.773438 C 204.601562 161.867188 204.523438 161.964844 204.445312 162.0625 C 204.304688 162.25 204.167969 162.421875 204.003906 162.574219 C 203.925781 162.640625 203.84375 162.671875 203.753906 162.660156 C 203.675781 162.648438 203.589844 162.605469 203.535156 162.539062 C 203.472656 162.472656 203.441406 162.398438 203.441406 162.324219 C 203.441406 162.242188 203.476562 162.171875 203.542969 162.105469 C 203.542969 162.105469 203.546875 162.105469 203.546875 162.105469 C 203.714844 161.949219 203.855469 161.769531 203.988281 161.597656 C 204.054688 161.519531 204.113281 161.4375 204.183594 161.359375 L 204.320312 161.191406 C 204.480469 160.992188 204.652344 160.789062 204.796875 160.566406 C 204.851562 160.480469 204.921875 160.4375 204.984375 160.421875 Z M 206.292969 161.351562 C 206.367188 161.335938 206.445312 161.339844 206.523438 161.386719 C 206.597656 161.433594 206.660156 161.53125 206.679688 161.632812 C 206.683594 161.675781 206.691406 161.761719 206.640625 161.832031 C 206.527344 161.984375 206.386719 162.128906 206.257812 162.269531 C 205.96875 162.578125 205.667969 162.894531 205.515625 163.324219 C 205.464844 163.476562 205.351562 163.53125 205.273438 163.542969 C 205.144531 163.566406 205 163.519531 204.921875 163.429688 C 204.859375 163.355469 204.847656 163.265625 204.886719 163.160156 C 205.023438 162.777344 205.183594 162.488281 205.402344 162.242188 C 205.488281 162.140625 205.582031 162.046875 205.671875 161.949219 C 205.808594 161.8125 205.945312 161.671875 206.0625 161.511719 C 206.117188 161.4375 206.199219 161.375 206.292969 161.351562 Z M 207.140625 162.445312 C 207.257812 162.472656 207.367188 162.578125 207.402344 162.703125 C 207.425781 162.78125 207.433594 162.898438 207.324219 163.019531 L 207.214844 163.140625 C 207.066406 163.308594 206.914062 163.480469 206.746094 163.601562 C 206.65625 163.664062 206.585938 163.792969 206.5 163.953125 L 206.464844 164.023438 C 206.402344 164.132812 206.34375 164.214844 206.273438 164.28125 C 206.105469 164.429688 205.910156 164.367188 205.800781 164.242188 C 205.742188 164.175781 205.707031 164.101562 205.707031 164.03125 C 205.707031 163.949219 205.742188 163.875 205.808594 163.8125 C 205.894531 163.738281 205.953125 163.632812 206.003906 163.539062 C 206.019531 163.511719 206.035156 163.484375 206.046875 163.460938 C 206.121094 163.347656 206.203125 163.246094 206.285156 163.140625 L 206.300781 163.117188 C 206.394531 163.007812 206.503906 162.90625 206.621094 162.800781 C 206.710938 162.714844 206.800781 162.628906 206.886719 162.539062 C 206.933594 162.488281 206.980469 162.457031 207.03125 162.445312 C 207.066406 162.4375 207.101562 162.4375 207.140625 162.445312 Z M 201.054688 162.011719 C 202.050781 162.640625 202.988281 163.234375 203.90625 163.964844 C 204.429688 164.382812 205.003906 164.820312 205.632812 165.199219 C 205.71875 165.25 205.808594 165.296875 205.890625 165.34375 C 205.972656 165.386719 206.054688 165.425781 206.132812 165.472656 C 206.164062 165.492188 206.203125 165.496094 206.238281 165.488281 C 206.238281 165.488281 206.242188 165.488281 206.242188 165.488281 C 206.277344 165.476562 206.3125 165.453125 206.328125 165.417969 C 206.457031 165.195312 206.59375 164.980469 206.734375 164.753906 L 206.753906 164.722656 C 206.878906 164.535156 207.0625 164.332031 207.257812 164.117188 C 207.660156 163.683594 208.113281 163.191406 208.15625 162.644531 C 208.171875 162.488281 208.265625 162.34375 208.347656 162.25 C 208.367188 162.222656 208.382812 162.183594 208.378906 162.144531 C 208.375 162.105469 208.351562 162.070312 208.324219 162.046875 C 206.464844 160.605469 204.5625 159.527344 202.335938 158.640625 C 202.273438 158.617188 202.203125 158.636719 202.167969 158.695312 C 201.625 159.511719 201.027344 160.378906 200.339844 161.171875 C 200.285156 161.238281 200.257812 161.296875 200.238281 161.351562 C 200.210938 161.417969 200.234375 161.488281 200.292969 161.527344 C 200.546875 161.691406 200.800781 161.851562 201.054688 162.011719 " fill-opacity="1" fill-rule="nonzero"/></g></g></g><g clip-path="url(#5211bdb7be)"><g clip-path="url(#bafefbebec)"><g clip-path="url(#0272c5486c)"><path fill="#ffffff" d="M 206.246094 159.769531 C 207.136719 160.292969 207.910156 160.890625 208.691406 161.507812 C 208.722656 161.535156 208.765625 161.542969 208.804688 161.535156 C 208.808594 161.535156 208.808594 161.535156 208.8125 161.535156 C 208.851562 161.527344 208.882812 161.5 208.902344 161.46875 C 209.105469 161.113281 209.308594 160.710938 209.347656 160.566406 C 209.386719 160.40625 209.601562 160.328125 209.664062 160.308594 C 209.714844 160.292969 209.75 160.25 209.761719 160.203125 C 209.773438 160.152344 209.757812 160.101562 209.71875 160.066406 C 209.261719 159.648438 208.785156 159.296875 208.273438 158.925781 L 207.886719 158.648438 C 207.523438 158.375 207.121094 158.203125 206.730469 158.039062 C 206.527344 157.953125 206.324219 157.867188 206.125 157.769531 C 205.984375 157.699219 205.832031 157.605469 205.664062 157.507812 C 205.070312 157.160156 204.332031 156.726562 203.738281 156.796875 C 203.675781 156.804688 203.625 156.796875 203.566406 156.773438 C 203.503906 156.75 203.433594 156.769531 203.398438 156.828125 C 203.15625 157.183594 202.921875 157.535156 202.691406 157.898438 C 202.667969 157.933594 202.664062 157.976562 202.675781 158.019531 C 202.6875 158.058594 202.71875 158.089844 202.761719 158.105469 C 203.882812 158.5625 205.085938 159.074219 206.246094 159.769531 " fill-opacity="1" fill-rule="nonzero"/></g></g></g><g clip-path="url(#7682122694)"><g clip-path="url(#32eb723ebc)"><g clip-path="url(#4f97c86ee5)"><path fill="#ffffff" d="M 204.105469 156.179688 C 204.902344 156.273438 205.699219 156.707031 206.464844 157.125 C 206.792969 157.304688 207.101562 157.472656 207.398438 157.609375 C 207.890625 157.835938 208.3125 158.144531 208.753906 158.476562 C 208.914062 158.59375 209.074219 158.710938 209.234375 158.824219 C 209.355469 158.910156 209.492188 158.976562 209.621094 159.042969 C 209.792969 159.125 209.953125 159.203125 210.0625 159.316406 C 210.082031 159.335938 210.097656 159.355469 210.113281 159.378906 C 210.132812 159.402344 210.15625 159.429688 210.175781 159.457031 C 210.210938 159.492188 210.261719 159.511719 210.3125 159.5 C 210.316406 159.5 210.316406 159.5 210.316406 159.5 C 210.367188 159.488281 210.402344 159.453125 210.417969 159.410156 C 210.527344 159.117188 210.636719 158.761719 210.742188 158.351562 C 210.757812 158.296875 210.738281 158.238281 210.695312 158.203125 C 210.539062 158.078125 210.390625 157.949219 210.242188 157.816406 C 210.042969 157.644531 209.835938 157.464844 209.617188 157.296875 C 209.449219 157.171875 209.289062 157 209.132812 156.835938 L 209.074219 156.773438 C 208.882812 156.5625 208.667969 156.433594 208.460938 156.3125 C 208.363281 156.25 208.257812 156.191406 208.15625 156.117188 C 207.589844 155.707031 206.949219 155.289062 206.097656 154.976562 C 205.894531 154.902344 205.710938 154.765625 205.515625 154.621094 C 205.457031 154.578125 205.402344 154.539062 205.34375 154.496094 C 205.285156 154.453125 205.203125 154.464844 205.152344 154.515625 C 204.75 154.976562 204.375 155.445312 204.007812 155.953125 C 203.976562 155.996094 203.972656 156.046875 203.992188 156.09375 C 204.011719 156.140625 204.054688 156.171875 204.105469 156.179688 " fill-opacity="1" fill-rule="nonzero"/></g></g></g><g clip-path="url(#ec6d5705c0)"><g clip-path="url(#f0fcdf6629)"><g clip-path="url(#5bce022bff)"><path fill="#ffffff" d="M 213.035156 153.132812 C 212.796875 152.875 212.542969 152.609375 212.28125 152.371094 C 211.898438 152.027344 211.414062 151.773438 210.949219 151.53125 C 210.835938 151.472656 210.726562 151.414062 210.617188 151.355469 L 210.332031 151.199219 C 209.917969 150.964844 209.484375 150.726562 209.035156 150.523438 C 208.910156 150.464844 208.785156 150.414062 208.660156 150.367188 C 208.464844 150.289062 208.285156 150.214844 208.117188 150.117188 C 208.0625 150.085938 207.992188 150.09375 207.949219 150.132812 C 207.347656 150.664062 206.574219 151.464844 206.289062 152.277344 C 206.164062 152.660156 205.96875 153.003906 205.761719 153.367188 C 205.699219 153.476562 205.636719 153.582031 205.578125 153.691406 C 205.5625 153.726562 205.554688 153.769531 205.566406 153.804688 C 205.578125 153.839844 205.605469 153.871094 205.636719 153.890625 C 205.785156 153.96875 205.933594 154.054688 206.078125 154.136719 C 206.355469 154.296875 206.644531 154.464844 206.957031 154.601562 C 207.242188 154.726562 207.5 154.910156 207.75 155.089844 C 207.988281 155.253906 208.234375 155.429688 208.503906 155.558594 C 209.128906 155.855469 209.617188 156.332031 210.132812 156.839844 C 210.355469 157.058594 210.585938 157.28125 210.824219 157.488281 C 210.859375 157.519531 210.90625 157.53125 210.953125 157.519531 C 210.953125 157.519531 210.957031 157.519531 210.957031 157.519531 C 211.003906 157.503906 211.039062 157.46875 211.054688 157.421875 C 211.410156 156.289062 212.152344 155.253906 212.867188 154.25 C 213.023438 154.03125 213.175781 153.816406 213.324219 153.605469 C 213.363281 153.546875 213.359375 153.472656 213.308594 153.421875 C 213.21875 153.328125 213.128906 153.230469 213.035156 153.132812 " fill-opacity="1" fill-rule="nonzero"/></g></g></g><g clip-path="url(#e57dc97e30)"><g clip-path="url(#023fecf56d)"><path fill="#000000" d="M 180.257812 180.753906 L 193.75 180.753906 L 193.75 194.246094 L 180.257812 194.246094 Z M 180.257812 180.753906 " fill-opacity="1" fill-rule="nonzero"/></g></g><g clip-path="url(#2029cdf72e)"><g clip-path="url(#530fa8a39a)"><path stroke-linecap="butt" transform="matrix(0.75, 0, 0, 0.75, 180.258098, 180.754032)" fill="none" stroke-linejoin="miter" d="M 8.994411 -0.000167841 C 4.025661 -0.000167841 -0.000381017 4.025874 -0.000381017 8.994624 C -0.000381017 13.958166 4.025661 17.984208 8.994411 17.984208 C 13.957953 17.984208 17.983995 13.958166 17.983995 8.994624 C 17.983995 4.025874 13.957953 -0.000167841 8.994411 -0.000167841 Z M 8.994411 -0.000167841 " stroke="#ffffff" stroke-width="4" stroke-opacity="1" stroke-miterlimit="4"/></g></g></svg>