<svg xmlns="http://www.w3.org/2000/svg" xmlns:xlink="http://www.w3.org/1999/xlink" width="500" zoomAndPan="magnify" viewBox="0 0 375 374.999991" height="500" preserveAspectRatio="xMidYMid meet" version="1.0"><defs><clipPath id="e8178bdbea"><path d="M 136.371094 142.507812 L 238.371094 142.507812 L 238.371094 232.507812 L 136.371094 232.507812 Z M 136.371094 142.507812 " clip-rule="nonzero"/></clipPath><clipPath id="8d644fa50a"><path d="M 173 169 L 204 169 L 204 216 L 173 216 Z M 173 169 " clip-rule="nonzero"/></clipPath><clipPath id="1f480be06b"><path d="M 147.804688 164.515625 L 211.9375 148.941406 L 226.984375 210.890625 L 162.847656 226.464844 Z M 147.804688 164.515625 " clip-rule="nonzero"/></clipPath><clipPath id="ba52cdcb81"><path d="M 147.804688 164.515625 L 211.9375 148.941406 L 226.984375 210.890625 L 162.847656 226.464844 Z M 147.804688 164.515625 " clip-rule="nonzero"/></clipPath><clipPath id="997083786d"><path d="M 147.804688 164.515625 L 211.9375 148.941406 L 226.984375 210.890625 L 162.847656 226.464844 Z M 147.804688 164.515625 " clip-rule="nonzero"/></clipPath><clipPath id="ba086b48dc"><path d="M 170 167 L 202 167 L 202 215 L 170 215 Z M 170 167 " clip-rule="nonzero"/></clipPath><clipPath id="f786c98abf"><path d="M 147.804688 164.515625 L 211.9375 148.941406 L 226.984375 210.890625 L 162.847656 226.464844 Z M 147.804688 164.515625 " clip-rule="nonzero"/></clipPath><clipPath id="791a0156ff"><path d="M 147.804688 164.515625 L 211.9375 148.941406 L 226.984375 210.890625 L 162.847656 226.464844 Z M 147.804688 164.515625 " clip-rule="nonzero"/></clipPath><clipPath id="00b0c6b0ac"><path d="M 147.804688 164.515625 L 211.9375 148.941406 L 226.984375 210.890625 L 162.847656 226.464844 Z M 147.804688 164.515625 " clip-rule="nonzero"/></clipPath><clipPath id="bc959ef0cb"><path d="M 197 164 L 205 164 L 205 170 L 197 170 Z M 197 164 " clip-rule="nonzero"/></clipPath><clipPath id="613db91c63"><path d="M 147.804688 164.515625 L 211.9375 148.941406 L 226.984375 210.890625 L 162.847656 226.464844 Z M 147.804688 164.515625 " clip-rule="nonzero"/></clipPath><clipPath id="f6ee7a5962"><path d="M 147.804688 164.515625 L 211.9375 148.941406 L 226.984375 210.890625 L 162.847656 226.464844 Z M 147.804688 164.515625 " clip-rule="nonzero"/></clipPath><clipPath id="21158653d3"><path d="M 147.804688 164.515625 L 211.9375 148.941406 L 226.984375 210.890625 L 162.847656 226.464844 Z M 147.804688 164.515625 " clip-rule="nonzero"/></clipPath><clipPath id="0cca444e2b"><path d="M 164 212 L 173 212 L 173 224 L 164 224 Z M 164 212 " clip-rule="nonzero"/></clipPath><clipPath id="f8552e69f8"><path d="M 147.804688 164.515625 L 211.9375 148.941406 L 226.984375 210.890625 L 162.847656 226.464844 Z M 147.804688 164.515625 " clip-rule="nonzero"/></clipPath><clipPath id="39a248dac2"><path d="M 147.804688 164.515625 L 211.9375 148.941406 L 226.984375 210.890625 L 162.847656 226.464844 Z M 147.804688 164.515625 " clip-rule="nonzero"/></clipPath><clipPath id="b9ddd18005"><path d="M 147.804688 164.515625 L 211.9375 148.941406 L 226.984375 210.890625 L 162.847656 226.464844 Z M 147.804688 164.515625 " clip-rule="nonzero"/></clipPath><clipPath id="45e9ce433e"><path d="M 199 162 L 206 162 L 206 167 L 199 167 Z M 199 162 " clip-rule="nonzero"/></clipPath><clipPath id="8e3faa5a9a"><path d="M 147.804688 164.515625 L 211.9375 148.941406 L 226.984375 210.890625 L 162.847656 226.464844 Z M 147.804688 164.515625 " clip-rule="nonzero"/></clipPath><clipPath id="00ff74c83f"><path d="M 147.804688 164.515625 L 211.9375 148.941406 L 226.984375 210.890625 L 162.847656 226.464844 Z M 147.804688 164.515625 " clip-rule="nonzero"/></clipPath><clipPath id="121dddff73"><path d="M 147.804688 164.515625 L 211.9375 148.941406 L 226.984375 210.890625 L 162.847656 226.464844 Z M 147.804688 164.515625 " clip-rule="nonzero"/></clipPath><clipPath id="d3873713f5"><path d="M 168 166 L 199 166 L 199 213 L 168 213 Z M 168 166 " clip-rule="nonzero"/></clipPath><clipPath id="0d92bfad49"><path d="M 147.804688 164.515625 L 211.9375 148.941406 L 226.984375 210.890625 L 162.847656 226.464844 Z M 147.804688 164.515625 " clip-rule="nonzero"/></clipPath><clipPath id="20eae2a2c7"><path d="M 147.804688 164.515625 L 211.9375 148.941406 L 226.984375 210.890625 L 162.847656 226.464844 Z M 147.804688 164.515625 " clip-rule="nonzero"/></clipPath><clipPath id="e79436b2ee"><path d="M 147.804688 164.515625 L 211.9375 148.941406 L 226.984375 210.890625 L 162.847656 226.464844 Z M 147.804688 164.515625 " clip-rule="nonzero"/></clipPath><clipPath id="cfea3f235f"><path d="M 162 223 L 165 223 L 165 227 L 162 227 Z M 162 223 " clip-rule="nonzero"/></clipPath><clipPath id="e72fd607bc"><path d="M 147.804688 164.515625 L 211.9375 148.941406 L 226.984375 210.890625 L 162.847656 226.464844 Z M 147.804688 164.515625 " clip-rule="nonzero"/></clipPath><clipPath id="9edea7f651"><path d="M 147.804688 164.515625 L 211.9375 148.941406 L 226.984375 210.890625 L 162.847656 226.464844 Z M 147.804688 164.515625 " clip-rule="nonzero"/></clipPath><clipPath id="4ea852935b"><path d="M 147.804688 164.515625 L 211.9375 148.941406 L 226.984375 210.890625 L 162.847656 226.464844 Z M 147.804688 164.515625 " clip-rule="nonzero"/></clipPath><clipPath id="b9658e61d1"><path d="M 198 163 L 206 163 L 206 168 L 198 168 Z M 198 163 " clip-rule="nonzero"/></clipPath><clipPath id="1687420812"><path d="M 147.804688 164.515625 L 211.9375 148.941406 L 226.984375 210.890625 L 162.847656 226.464844 Z M 147.804688 164.515625 " clip-rule="nonzero"/></clipPath><clipPath id="b2f7a16048"><path d="M 147.804688 164.515625 L 211.9375 148.941406 L 226.984375 210.890625 L 162.847656 226.464844 Z M 147.804688 164.515625 " clip-rule="nonzero"/></clipPath><clipPath id="045688dc6a"><path d="M 147.804688 164.515625 L 211.9375 148.941406 L 226.984375 210.890625 L 162.847656 226.464844 Z M 147.804688 164.515625 " clip-rule="nonzero"/></clipPath><clipPath id="17a1c4cb86"><path d="M 200 158 L 209 158 L 209 166 L 200 166 Z M 200 158 " clip-rule="nonzero"/></clipPath><clipPath id="44e91ed8d2"><path d="M 147.804688 164.515625 L 211.9375 148.941406 L 226.984375 210.890625 L 162.847656 226.464844 Z M 147.804688 164.515625 " clip-rule="nonzero"/></clipPath><clipPath id="23f33adad5"><path d="M 147.804688 164.515625 L 211.9375 148.941406 L 226.984375 210.890625 L 162.847656 226.464844 Z M 147.804688 164.515625 " clip-rule="nonzero"/></clipPath><clipPath id="c9241c22a7"><path d="M 147.804688 164.515625 L 211.9375 148.941406 L 226.984375 210.890625 L 162.847656 226.464844 Z M 147.804688 164.515625 " clip-rule="nonzero"/></clipPath><clipPath id="eddfc21a56"><path d="M 202 156 L 210 156 L 210 162 L 202 162 Z M 202 156 " clip-rule="nonzero"/></clipPath><clipPath id="9fd092201b"><path d="M 147.804688 164.515625 L 211.9375 148.941406 L 226.984375 210.890625 L 162.847656 226.464844 Z M 147.804688 164.515625 " clip-rule="nonzero"/></clipPath><clipPath id="8514f9578b"><path d="M 147.804688 164.515625 L 211.9375 148.941406 L 226.984375 210.890625 L 162.847656 226.464844 Z M 147.804688 164.515625 " clip-rule="nonzero"/></clipPath><clipPath id="665f02f39b"><path d="M 147.804688 164.515625 L 211.9375 148.941406 L 226.984375 210.890625 L 162.847656 226.464844 Z M 147.804688 164.515625 " clip-rule="nonzero"/></clipPath><clipPath id="10377ad6da"><path d="M 203 154 L 211 154 L 211 160 L 203 160 Z M 203 154 " clip-rule="nonzero"/></clipPath><clipPath id="672e3c1e4a"><path d="M 147.804688 164.515625 L 211.9375 148.941406 L 226.984375 210.890625 L 162.847656 226.464844 Z M 147.804688 164.515625 " clip-rule="nonzero"/></clipPath><clipPath id="52f480206f"><path d="M 147.804688 164.515625 L 211.9375 148.941406 L 226.984375 210.890625 L 162.847656 226.464844 Z M 147.804688 164.515625 " clip-rule="nonzero"/></clipPath><clipPath id="dd4fa67298"><path d="M 147.804688 164.515625 L 211.9375 148.941406 L 226.984375 210.890625 L 162.847656 226.464844 Z M 147.804688 164.515625 " clip-rule="nonzero"/></clipPath><clipPath id="6fec2097e1"><path d="M 205 150 L 214 150 L 214 158 L 205 158 Z M 205 150 " clip-rule="nonzero"/></clipPath><clipPath id="69c7cf21c4"><path d="M 147.804688 164.515625 L 211.9375 148.941406 L 226.984375 210.890625 L 162.847656 226.464844 Z M 147.804688 164.515625 " clip-rule="nonzero"/></clipPath><clipPath id="c4500d99b9"><path d="M 147.804688 164.515625 L 211.9375 148.941406 L 226.984375 210.890625 L 162.847656 226.464844 Z M 147.804688 164.515625 " clip-rule="nonzero"/></clipPath><clipPath id="c03a93b5f4"><path d="M 147.804688 164.515625 L 211.9375 148.941406 L 226.984375 210.890625 L 162.847656 226.464844 Z M 147.804688 164.515625 " clip-rule="nonzero"/></clipPath><clipPath id="7b2f8f5397"><path d="M 180.257812 180.753906 L 193.75 180.753906 L 193.75 194.246094 L 180.257812 194.246094 Z M 180.257812 180.753906 " clip-rule="nonzero"/></clipPath><clipPath id="a2b4d370a0"><path d="M 187.003906 180.753906 C 183.277344 180.753906 180.257812 183.773438 180.257812 187.5 C 180.257812 191.226562 183.277344 194.246094 187.003906 194.246094 C 190.730469 194.246094 193.75 191.226562 193.75 187.5 C 193.75 183.773438 190.730469 180.753906 187.003906 180.753906 Z M 187.003906 180.753906 " clip-rule="nonzero"/></clipPath><clipPath id="8ab4a41675"><path d="M 180.257812 180.753906 L 193.746094 180.753906 L 193.746094 194.242188 L 180.257812 194.242188 Z M 180.257812 180.753906 " clip-rule="nonzero"/></clipPath><clipPath id="94d7c07e2e"><path d="M 187.003906 180.753906 C 183.277344 180.753906 180.257812 183.773438 180.257812 187.5 C 180.257812 191.222656 183.277344 194.242188 187.003906 194.242188 C 190.726562 194.242188 193.746094 191.222656 193.746094 187.5 C 193.746094 183.773438 190.726562 180.753906 187.003906 180.753906 Z M 187.003906 180.753906 " clip-rule="nonzero"/></clipPath></defs><g clip-path="url(#e8178bdbea)"><path fill="#000000" d="M 238.140625 187.496094 C 238.140625 180.578125 227.347656 175.460938 212.976562 172.703125 C 214.152344 169.324219 215.113281 166.046875 215.785156 162.992188 C 218.011719 152.785156 216.933594 145.832031 212.757812 143.414062 C 211.722656 142.8125 210.53125 142.507812 209.214844 142.507812 C 203.507812 142.507812 195.546875 148.277344 187.375 157.78125 C 179.203125 148.277344 171.242188 142.507812 165.53125 142.507812 C 164.21875 142.507812 163.023438 142.8125 161.988281 143.414062 C 156.003906 146.875 156.992188 158.828125 161.808594 172.699219 C 147.417969 175.449219 136.605469 180.570312 136.605469 187.496094 C 136.605469 194.417969 147.402344 199.53125 161.773438 202.289062 C 160.597656 205.675781 159.632812 208.945312 158.964844 212.003906 C 156.738281 222.210938 157.8125 229.164062 161.988281 231.582031 C 163.023438 232.179688 164.21875 232.484375 165.53125 232.484375 C 171.242188 232.484375 179.203125 226.714844 187.375 217.214844 C 195.542969 226.714844 203.503906 232.484375 209.214844 232.484375 C 210.53125 232.484375 211.722656 232.179688 212.757812 231.582031 C 216.933594 229.164062 218.011719 222.210938 215.785156 212.003906 C 215.113281 208.945312 214.152344 205.675781 212.976562 202.289062 C 227.347656 199.535156 238.140625 194.417969 238.140625 187.496094 Z M 209.214844 145.140625 C 210.066406 145.140625 210.816406 145.328125 211.445312 145.691406 C 214.507812 147.464844 215.152344 153.566406 213.21875 162.429688 C 212.550781 165.507812 211.566406 168.808594 210.363281 172.234375 C 206.132812 171.527344 201.644531 171.019531 197.066406 170.714844 C 194.453125 166.757812 191.78125 163.117188 189.109375 159.855469 C 196.808594 150.832031 204.273438 145.140625 209.214844 145.140625 Z M 199.875 194.730469 C 198.476562 197.152344 197.039062 199.5 195.566406 201.753906 C 192.929688 201.890625 190.199219 201.964844 187.375 201.964844 C 184.550781 201.964844 181.816406 201.890625 179.183594 201.753906 C 177.707031 199.5 176.269531 197.152344 174.875 194.730469 C 173.464844 192.28125 172.164062 189.875 170.96875 187.519531 C 172.191406 185.109375 173.480469 182.683594 174.878906 180.261719 C 176.269531 177.84375 177.710938 175.496094 179.183594 173.238281 C 181.816406 173.101562 184.550781 173.027344 187.375 173.027344 C 190.199219 173.027344 192.929688 173.101562 195.566406 173.238281 C 197.039062 175.5 198.476562 177.84375 199.871094 180.261719 C 201.261719 182.675781 202.550781 185.09375 203.773438 187.496094 C 202.550781 189.902344 201.261719 192.320312 199.875 194.730469 Z M 205.214844 190.429688 C 206.824219 193.792969 208.261719 197.105469 209.480469 200.324219 C 206.179688 200.855469 202.617188 201.269531 198.828125 201.550781 C 199.949219 199.769531 201.058594 197.929688 202.144531 196.046875 C 203.222656 194.179688 204.234375 192.300781 205.214844 190.429688 Z M 193.765625 204.457031 C 191.664062 207.53125 189.515625 210.417969 187.375 213.054688 C 185.230469 210.417969 183.089844 207.53125 180.984375 204.457031 C 183.109375 204.546875 185.242188 204.597656 187.375 204.597656 C 189.503906 204.597656 191.640625 204.546875 193.765625 204.457031 Z M 175.921875 201.550781 C 172.128906 201.269531 168.566406 200.855469 165.269531 200.324219 C 166.488281 197.109375 167.921875 193.796875 169.53125 190.429688 C 170.515625 192.320312 171.539062 194.195312 172.601562 196.046875 C 173.691406 197.929688 174.796875 199.769531 175.921875 201.550781 Z M 169.519531 184.59375 C 167.859375 181.144531 166.425781 177.820312 165.226562 174.675781 C 168.539062 174.148438 172.113281 173.730469 175.921875 173.441406 C 174.796875 175.226562 173.691406 177.058594 172.601562 178.949219 C 171.519531 180.828125 170.503906 182.714844 169.519531 184.59375 Z M 180.988281 170.539062 C 183.089844 167.464844 185.230469 164.578125 187.375 161.9375 C 189.515625 164.578125 191.664062 167.464844 193.765625 170.539062 C 191.636719 170.445312 189.503906 170.398438 187.375 170.398438 C 185.242188 170.398438 183.109375 170.445312 180.988281 170.539062 Z M 202.144531 178.949219 C 201.058594 177.054688 199.953125 175.226562 198.828125 173.441406 C 202.617188 173.730469 206.179688 174.144531 209.480469 174.671875 C 208.261719 177.882812 206.824219 181.207031 205.214844 184.566406 C 204.234375 182.695312 203.222656 180.816406 202.144531 178.949219 Z M 163.300781 145.691406 C 163.929688 145.328125 164.683594 145.140625 165.53125 145.140625 C 170.472656 145.140625 177.9375 150.832031 185.636719 159.855469 C 182.96875 163.117188 180.292969 166.757812 177.683594 170.714844 C 173.085938 171.019531 168.582031 171.53125 164.335938 172.242188 C 159.375 158.199219 159.222656 148.050781 163.300781 145.691406 Z M 139.226562 187.496094 C 139.226562 182.777344 148.070312 177.832031 162.679688 175.117188 C 164.191406 179.164062 165.996094 183.332031 168.039062 187.476562 C 165.945312 191.691406 164.136719 195.855469 162.632812 199.863281 C 148.046875 197.152344 139.226562 192.210938 139.226562 187.496094 Z M 165.53125 229.855469 C 164.671875 229.855469 163.945312 229.671875 163.300781 229.308594 C 160.242188 227.535156 159.59375 221.433594 161.527344 212.566406 C 162.203125 209.488281 163.179688 206.183594 164.386719 202.761719 C 168.617188 203.46875 173.105469 203.976562 177.679688 204.277344 C 180.292969 208.234375 182.96875 211.875 185.632812 215.140625 C 177.9375 224.164062 170.472656 229.855469 165.53125 229.855469 Z M 213.214844 212.566406 C 215.152344 221.433594 214.507812 227.53125 211.445312 229.304688 C 210.8125 229.667969 210.066406 229.855469 209.214844 229.855469 C 204.273438 229.855469 196.808594 224.160156 189.109375 215.140625 C 191.78125 211.875 194.453125 208.234375 197.070312 204.277344 C 201.644531 203.976562 206.132812 203.46875 210.363281 202.757812 C 211.566406 206.183594 212.550781 209.488281 213.214844 212.566406 Z M 212.113281 199.867188 C 210.613281 195.863281 208.808594 191.707031 206.722656 187.496094 C 208.808594 183.289062 210.613281 179.132812 212.117188 175.128906 C 226.699219 177.84375 235.519531 182.785156 235.519531 187.496094 C 235.519531 192.210938 226.699219 197.152344 212.113281 199.867188 Z M 212.113281 199.867188 " fill-opacity="1" fill-rule="nonzero"/></g><path fill="#000000" d="M 192.949219 187.496094 C 192.949219 187.863281 192.914062 188.226562 192.84375 188.585938 C 192.773438 188.949219 192.664062 189.296875 192.527344 189.636719 C 192.386719 189.976562 192.214844 190.296875 192.011719 190.601562 C 191.808594 190.910156 191.574219 191.191406 191.316406 191.449219 C 191.058594 191.710938 190.777344 191.941406 190.472656 192.144531 C 190.167969 192.351562 189.847656 192.523438 189.507812 192.664062 C 189.167969 192.804688 188.820312 192.910156 188.460938 192.980469 C 188.101562 193.050781 187.738281 193.089844 187.375 193.089844 C 187.007812 193.089844 186.644531 193.050781 186.285156 192.980469 C 185.925781 192.910156 185.578125 192.804688 185.238281 192.664062 C 184.902344 192.523438 184.582031 192.351562 184.277344 192.144531 C 183.972656 191.941406 183.691406 191.710938 183.429688 191.449219 C 183.171875 191.191406 182.941406 190.910156 182.738281 190.601562 C 182.535156 190.296875 182.363281 189.976562 182.222656 189.636719 C 182.082031 189.296875 181.976562 188.949219 181.90625 188.585938 C 181.832031 188.226562 181.796875 187.863281 181.796875 187.496094 C 181.796875 187.128906 181.832031 186.765625 181.90625 186.40625 C 181.976562 186.046875 182.082031 185.695312 182.222656 185.355469 C 182.363281 185.019531 182.535156 184.695312 182.738281 184.390625 C 182.941406 184.085938 183.171875 183.804688 183.429688 183.542969 C 183.691406 183.285156 183.972656 183.050781 184.277344 182.847656 C 184.582031 182.644531 184.902344 182.472656 185.238281 182.332031 C 185.578125 182.191406 185.925781 182.085938 186.285156 182.011719 C 186.644531 181.941406 187.007812 181.90625 187.375 181.90625 C 187.738281 181.90625 188.101562 181.941406 188.460938 182.011719 C 188.820312 182.085938 189.167969 182.191406 189.507812 182.332031 C 189.847656 182.472656 190.167969 182.644531 190.472656 182.847656 C 190.777344 183.050781 191.058594 183.285156 191.316406 183.542969 C 191.574219 183.804688 191.808594 184.085938 192.011719 184.390625 C 192.214844 184.695312 192.386719 185.019531 192.527344 185.355469 C 192.664062 185.695312 192.773438 186.046875 192.84375 186.40625 C 192.914062 186.765625 192.949219 187.128906 192.949219 187.496094 Z M 192.949219 187.496094 " fill-opacity="1" fill-rule="nonzero"/><g clip-path="url(#8d644fa50a)"><g clip-path="url(#1f480be06b)"><g clip-path="url(#ba52cdcb81)"><g clip-path="url(#997083786d)"><path fill="#000000" d="M 173.246094 215.464844 C 173.320312 215.675781 173.46875 215.792969 173.625 215.773438 C 173.707031 215.769531 173.785156 215.835938 173.824219 215.875 C 173.859375 215.910156 173.90625 215.925781 173.953125 215.914062 C 173.953125 215.917969 173.960938 215.917969 173.960938 215.914062 C 174.003906 215.90625 174.039062 215.875 174.058594 215.835938 C 174.714844 214.425781 178.921875 207.199219 179.585938 206.269531 C 182.125 202.765625 184.566406 199.195312 186.847656 195.660156 C 188.71875 192.765625 190.574219 189.785156 192.363281 186.90625 C 193.335938 185.347656 194.304688 183.789062 195.28125 182.234375 C 196.558594 180.207031 198.050781 177.851562 199.570312 175.570312 C 199.976562 174.957031 200.421875 174.339844 200.851562 173.738281 C 201.667969 172.601562 202.507812 171.429688 203.171875 170.199219 C 203.207031 170.136719 203.191406 170.0625 203.136719 170.015625 C 202.925781 169.84375 202.703125 169.6875 202.480469 169.550781 C 202.410156 169.511719 202.320312 169.53125 202.285156 169.601562 C 200.113281 173.285156 197.847656 176.707031 195.453125 180.328125 L 194.304688 182.0625 C 193.773438 182.871094 193.242188 183.707031 192.734375 184.519531 C 191.792969 186.003906 190.828125 187.535156 189.773438 188.964844 C 189.328125 189.578125 188.84375 190.175781 188.382812 190.757812 C 187.394531 191.988281 186.378906 193.261719 185.601562 194.699219 C 184.234375 197.21875 182.652344 199.605469 181.125 201.914062 C 180.25 203.242188 179.34375 204.609375 178.480469 205.996094 C 178.039062 206.707031 177.582031 207.421875 177.125 208.140625 C 175.800781 210.210938 174.433594 212.355469 173.332031 214.558594 C 173.3125 214.601562 173.316406 214.652344 173.339844 214.695312 C 173.394531 214.789062 173.390625 214.890625 173.324219 214.988281 C 173.242188 215.117188 173.171875 215.25 173.246094 215.464844 " fill-opacity="1" fill-rule="nonzero"/></g></g></g></g><g clip-path="url(#ba086b48dc)"><g clip-path="url(#f786c98abf)"><g clip-path="url(#791a0156ff)"><g clip-path="url(#00b0c6b0ac)"><path fill="#000000" d="M 200.660156 168.4375 C 200.402344 168.25 200.140625 168.058594 199.859375 167.886719 C 199.710938 167.800781 199.554688 167.695312 199.363281 167.558594 C 199.328125 167.539062 199.289062 167.527344 199.25 167.535156 C 199.25 167.535156 199.246094 167.535156 199.246094 167.535156 C 199.210938 167.546875 199.175781 167.574219 199.15625 167.609375 C 198.136719 169.457031 196.917969 171.199219 195.742188 172.886719 C 194.601562 174.519531 193.421875 176.210938 192.417969 178 C 190.011719 182.296875 187.484375 186.324219 184.695312 190.300781 C 181.925781 194.253906 179.324219 198.40625 176.808594 202.417969 C 174.714844 205.761719 172.546875 209.214844 170.300781 212.53125 C 170.277344 212.558594 170.269531 212.59375 170.273438 212.625 C 170.277344 212.648438 170.28125 212.671875 170.285156 212.695312 C 170.289062 212.710938 170.296875 212.730469 170.292969 212.734375 C 170.253906 213.492188 170.453125 214.089844 170.890625 214.515625 C 171.175781 214.796875 171.792969 214.734375 172.335938 214.601562 C 172.414062 214.582031 172.488281 214.5625 172.5625 214.542969 C 172.601562 214.53125 172.632812 214.503906 172.652344 214.46875 C 174.058594 211.578125 175.898438 208.777344 177.679688 206.066406 L 178.203125 205.265625 C 178.8125 204.335938 179.464844 203.40625 180.097656 202.507812 C 180.714844 201.632812 181.351562 200.726562 181.953125 199.808594 C 182.683594 198.699219 183.316406 197.515625 183.925781 196.371094 C 184.40625 195.480469 184.902344 194.550781 185.4375 193.671875 C 186.191406 192.429688 187.109375 191.277344 187.996094 190.164062 C 188.726562 189.242188 189.484375 188.289062 190.15625 187.28125 C 190.730469 186.417969 191.292969 185.523438 191.84375 184.664062 C 192.597656 183.472656 193.382812 182.238281 194.195312 181.054688 C 196.867188 177.1875 199.324219 173.339844 201.707031 169.292969 C 201.726562 169.261719 201.730469 169.21875 201.71875 169.183594 C 201.710938 169.144531 201.683594 169.113281 201.648438 169.09375 C 201.304688 168.898438 200.976562 168.664062 200.660156 168.4375 " fill-opacity="1" fill-rule="nonzero"/></g></g></g></g><g clip-path="url(#bc959ef0cb)"><g clip-path="url(#613db91c63)"><g clip-path="url(#f6ee7a5962)"><g clip-path="url(#21158653d3)"><path fill="#000000" d="M 197.804688 165.910156 C 197.996094 166.039062 198.199219 166.175781 198.441406 166.261719 C 199.011719 166.46875 199.640625 166.917969 200.1875 167.320312 C 200.886719 167.832031 201.585938 168.289062 202.390625 168.757812 L 202.585938 168.871094 C 202.917969 169.066406 203.226562 169.246094 203.511719 169.472656 C 203.566406 169.519531 203.640625 169.484375 203.722656 169.5 C 203.742188 169.503906 203.761719 169.5 203.78125 169.496094 C 203.804688 169.488281 203.828125 169.480469 203.84375 169.460938 C 204.023438 169.289062 204.207031 169.039062 204.414062 168.671875 C 204.449219 168.613281 204.433594 168.535156 204.382812 168.492188 C 204.089844 168.246094 203.804688 167.980469 203.53125 167.722656 C 202.875 167.109375 202.199219 166.480469 201.363281 166.054688 C 201.363281 166.050781 201.363281 166.050781 201.363281 166.050781 C 200.828125 165.78125 200.300781 165.46875 199.792969 165.160156 C 199.417969 164.933594 199.027344 164.703125 198.636719 164.488281 C 198.574219 164.453125 198.5 164.46875 198.457031 164.523438 C 198.230469 164.816406 197.875 165.132812 197.5625 165.414062 L 197.480469 165.484375 C 197.445312 165.519531 197.425781 165.5625 197.429688 165.613281 C 197.4375 165.65625 197.464844 165.699219 197.507812 165.722656 C 197.605469 165.777344 197.703125 165.84375 197.804688 165.910156 " fill-opacity="1" fill-rule="nonzero"/></g></g></g></g><g clip-path="url(#0cca444e2b)"><g clip-path="url(#f8552e69f8)"><g clip-path="url(#39a248dac2)"><g clip-path="url(#b9ddd18005)"><path fill="#000000" d="M 164.664062 223 C 164.746094 223.042969 164.828125 223.089844 164.914062 223.125 C 165.144531 223.21875 165.257812 223.34375 165.367188 223.519531 C 165.390625 223.554688 165.429688 223.578125 165.46875 223.582031 C 165.488281 223.585938 165.507812 223.585938 165.523438 223.582031 C 165.546875 223.578125 165.566406 223.566406 165.585938 223.546875 C 166.269531 222.9375 166.992188 222.269531 167.691406 221.480469 L 168.230469 220.867188 C 169.058594 219.921875 169.917969 218.949219 170.742188 217.964844 C 171.230469 217.386719 171.734375 217.035156 172.265625 216.660156 C 172.445312 216.535156 172.632812 216.40625 172.820312 216.265625 C 172.851562 216.242188 172.871094 216.207031 172.875 216.167969 C 172.878906 216.128906 172.871094 216.089844 172.847656 216.0625 C 172.753906 215.941406 172.679688 215.808594 172.640625 215.675781 C 172.601562 215.578125 172.585938 215.480469 172.574219 215.367188 C 172.570312 215.328125 172.550781 215.289062 172.515625 215.265625 C 172.480469 215.238281 172.4375 215.230469 172.398438 215.238281 C 171.433594 215.472656 170.863281 215.496094 170.4375 214.976562 C 169.957031 214.390625 169.703125 213.839844 169.636719 213.242188 C 169.632812 213.203125 169.609375 213.164062 169.578125 213.140625 C 169.511719 213.09375 169.425781 213.125 169.351562 213.140625 C 169.308594 213.148438 169.269531 213.15625 169.199219 213.171875 C 168.90625 213.242188 168.621094 213.300781 168.367188 213.210938 C 168.242188 213.164062 168.144531 213.085938 168.058594 212.980469 C 168.027344 212.941406 167.980469 212.921875 167.929688 212.925781 C 167.878906 212.933594 167.835938 212.964844 167.816406 213.007812 C 167.753906 213.140625 167.691406 213.269531 167.628906 213.402344 C 167.394531 213.898438 167.148438 214.417969 166.984375 214.964844 C 166.542969 216.441406 165.960938 217.894531 165.398438 219.304688 C 165.265625 219.636719 165.132812 219.96875 165 220.304688 C 164.699219 221.070312 164.394531 221.84375 164.097656 222.625 C 164.082031 222.664062 164.085938 222.710938 164.105469 222.746094 C 164.128906 222.785156 164.164062 222.8125 164.207031 222.816406 C 164.359375 222.847656 164.503906 222.921875 164.664062 223 " fill-opacity="1" fill-rule="nonzero"/></g></g></g></g><g clip-path="url(#45e9ce433e)"><g clip-path="url(#8e3faa5a9a)"><g clip-path="url(#00ff74c83f)"><g clip-path="url(#121dddff73)"><path fill="#000000" d="M 199.933594 162.738281 C 199.964844 162.757812 200.003906 162.773438 200.035156 162.796875 C 200.570312 163.109375 201.0625 163.503906 201.539062 163.882812 C 201.859375 164.136719 202.1875 164.402344 202.527344 164.636719 C 202.84375 164.863281 203.164062 165.109375 203.472656 165.347656 C 204.074219 165.816406 204.699219 166.300781 205.359375 166.667969 C 205.390625 166.6875 205.425781 166.691406 205.460938 166.683594 C 205.476562 166.679688 205.492188 166.671875 205.503906 166.664062 C 205.546875 166.636719 205.574219 166.585938 205.570312 166.535156 C 205.566406 166.5 205.585938 166.464844 205.621094 166.417969 C 205.667969 166.339844 205.75 166.21875 205.679688 166.054688 C 205.542969 165.757812 205.183594 165.625 204.867188 165.503906 C 204.730469 165.453125 204.605469 165.40625 204.515625 165.355469 C 204.515625 165.351562 204.515625 165.351562 204.515625 165.351562 C 204.078125 165.097656 203.660156 164.699219 203.257812 164.3125 L 203.011719 164.078125 C 202.464844 163.5625 201.898438 163.101562 201.230469 162.636719 C 201.152344 162.582031 201.074219 162.519531 200.996094 162.457031 C 200.789062 162.289062 200.550781 162.101562 200.277344 162.035156 C 200.171875 162.011719 199.886719 161.945312 199.707031 162.148438 C 199.628906 162.242188 199.597656 162.339844 199.613281 162.433594 C 199.644531 162.589844 199.796875 162.667969 199.933594 162.738281 " fill-opacity="1" fill-rule="nonzero"/></g></g></g></g><g clip-path="url(#d3873713f5)"><g clip-path="url(#0d92bfad49)"><g clip-path="url(#20eae2a2c7)"><g clip-path="url(#e79436b2ee)"><path fill="#000000" d="M 168.492188 212.40625 C 168.503906 212.441406 168.507812 212.460938 168.507812 212.476562 C 168.515625 212.515625 168.550781 212.574219 168.585938 212.597656 C 168.621094 212.617188 168.683594 212.617188 168.71875 212.601562 L 168.734375 212.601562 C 168.734375 212.597656 168.734375 212.597656 168.738281 212.597656 C 168.804688 212.585938 168.875 212.574219 168.945312 212.5625 C 169.078125 212.542969 169.222656 212.519531 169.359375 212.488281 C 169.421875 212.472656 169.480469 212.453125 169.542969 212.4375 C 169.570312 212.425781 169.59375 212.40625 169.609375 212.382812 C 171.855469 209.082031 174.003906 205.644531 176.082031 202.3125 C 178.640625 198.21875 181.285156 193.984375 184.125 189.976562 C 184.542969 189.394531 184.960938 188.816406 185.382812 188.234375 C 186.511719 186.683594 187.679688 185.078125 188.6875 183.414062 C 189.328125 182.351562 189.917969 181.242188 190.492188 180.167969 C 191.0625 179.097656 191.648438 177.996094 192.285156 176.941406 C 193.167969 175.484375 194.148438 174.070312 195.097656 172.703125 C 196.304688 170.960938 197.554688 169.164062 198.609375 167.246094 C 198.628906 167.214844 198.632812 167.171875 198.621094 167.136719 C 198.613281 167.097656 198.585938 167.066406 198.550781 167.046875 C 198.378906 166.960938 198.207031 166.882812 198.023438 166.804688 C 197.90625 166.769531 197.78125 166.667969 197.644531 166.566406 C 197.578125 166.515625 197.515625 166.460938 197.449219 166.414062 C 197.414062 166.394531 197.375 166.382812 197.339844 166.394531 C 197.3125 166.394531 197.269531 166.421875 197.246094 166.453125 C 196.496094 167.601562 195.714844 168.761719 194.957031 169.882812 C 193.257812 172.410156 191.496094 175.027344 189.929688 177.707031 C 188.152344 180.742188 186.101562 183.625 184.121094 186.414062 C 183.246094 187.644531 182.339844 188.917969 181.46875 190.191406 C 178.894531 193.953125 176.25 198.179688 173.136719 203.484375 C 172.175781 205.121094 171.164062 206.742188 170.183594 208.3125 C 169.5625 209.308594 168.945312 210.296875 168.332031 211.300781 C 168.3125 211.335938 168.304688 211.382812 168.316406 211.421875 C 168.34375 211.492188 168.347656 211.550781 168.328125 211.617188 C 168.320312 211.652344 168.308594 211.679688 168.304688 211.71875 C 168.300781 211.734375 168.300781 211.753906 168.308594 211.773438 C 168.335938 211.867188 168.359375 211.957031 168.390625 212.050781 C 168.425781 212.164062 168.460938 212.28125 168.492188 212.40625 " fill-opacity="1" fill-rule="nonzero"/></g></g></g></g><g clip-path="url(#cfea3f235f)"><g clip-path="url(#e72fd607bc)"><g clip-path="url(#9edea7f651)"><g clip-path="url(#4ea852935b)"><path fill="#000000" d="M 162.992188 226.304688 C 163.023438 226.296875 163.050781 226.28125 163.070312 226.257812 C 163.195312 226.097656 163.324219 225.9375 163.449219 225.777344 C 163.828125 225.292969 164.1875 224.835938 164.546875 224.5 C 164.625 224.429688 164.699219 224.359375 164.777344 224.289062 L 164.882812 224.191406 C 164.925781 224.152344 164.929688 224.0625 164.90625 224.007812 C 164.855469 223.882812 164.824219 223.808594 164.746094 223.757812 L 164.699219 223.734375 C 164.617188 223.699219 164.539062 223.664062 164.460938 223.625 C 164.460938 223.621094 164.457031 223.621094 164.457031 223.621094 C 164.429688 223.609375 164.402344 223.59375 164.371094 223.574219 C 164.273438 223.519531 164.148438 223.445312 163.996094 223.460938 C 163.988281 223.460938 163.980469 223.460938 163.953125 223.453125 C 163.953125 223.453125 163.921875 223.445312 163.917969 223.441406 C 163.847656 223.425781 163.777344 223.464844 163.753906 223.53125 C 163.40625 224.445312 163.105469 225.292969 162.824219 226.117188 C 162.800781 226.183594 162.828125 226.257812 162.890625 226.289062 C 162.921875 226.308594 162.960938 226.3125 162.992188 226.304688 " fill-opacity="1" fill-rule="nonzero"/></g></g></g></g><g clip-path="url(#b9658e61d1)"><g clip-path="url(#1687420812)"><g clip-path="url(#b2f7a16048)"><g clip-path="url(#045688dc6a)"><path fill="#000000" d="M 200.570312 164.828125 C 200.808594 164.980469 201.070312 165.109375 201.324219 165.238281 C 201.644531 165.398438 201.976562 165.566406 202.242188 165.765625 C 202.804688 166.179688 203.324219 166.660156 203.828125 167.121094 C 204.101562 167.371094 204.367188 167.617188 204.644531 167.855469 C 204.675781 167.882812 204.71875 167.894531 204.761719 167.890625 C 204.765625 167.890625 204.765625 167.890625 204.769531 167.886719 C 204.808594 167.878906 204.839844 167.855469 204.859375 167.820312 C 204.871094 167.804688 204.882812 167.785156 204.890625 167.765625 C 204.898438 167.746094 204.90625 167.730469 204.933594 167.691406 C 204.980469 167.597656 205.027344 167.511719 205.074219 167.421875 C 205.109375 167.355469 205.089844 167.273438 205.027344 167.234375 C 203.992188 166.527344 203.039062 165.847656 202.207031 165.214844 C 201.960938 165.023438 201.71875 164.820312 201.480469 164.625 C 200.808594 164.0625 200.117188 163.484375 199.277344 163.117188 C 199.210938 163.089844 199.136719 163.113281 199.097656 163.175781 C 198.992188 163.351562 198.890625 163.53125 198.816406 163.679688 C 198.78125 163.75 198.808594 163.835938 198.875 163.871094 C 199.511719 164.207031 200.042969 164.5 200.570312 164.828125 " fill-opacity="1" fill-rule="nonzero"/></g></g></g></g><g clip-path="url(#17a1c4cb86)"><g clip-path="url(#44e91ed8d2)"><g clip-path="url(#23f33adad5)"><g clip-path="url(#c9241c22a7)"><path fill="#000000" d="M 200.964844 161.171875 C 201.117188 160.878906 201.382812 160.570312 201.597656 160.320312 C 201.757812 160.117188 201.953125 159.929688 202.1875 159.746094 C 202.371094 159.601562 202.589844 159.675781 202.703125 159.820312 C 202.742188 159.871094 202.859375 160.046875 202.664062 160.199219 C 202.453125 160.367188 202.210938 160.566406 202.023438 160.820312 C 201.980469 160.878906 201.929688 160.945312 201.878906 161.003906 C 201.746094 161.171875 201.609375 161.347656 201.511719 161.535156 C 201.394531 161.765625 201.191406 161.683594 201.132812 161.652344 C 201.003906 161.582031 200.851562 161.398438 200.964844 161.171875 Z M 203.933594 160.148438 C 204.054688 160.265625 204.109375 160.464844 203.957031 160.625 C 203.632812 160.960938 203.332031 161.335938 203.046875 161.699219 C 202.921875 161.855469 202.796875 162.011719 202.671875 162.160156 C 202.621094 162.222656 202.542969 162.238281 202.492188 162.238281 C 202.390625 162.242188 202.289062 162.207031 202.222656 162.140625 C 202.074219 161.984375 202.132812 161.792969 202.242188 161.660156 C 202.359375 161.523438 202.46875 161.378906 202.582031 161.238281 C 202.878906 160.867188 203.183594 160.484375 203.507812 160.140625 C 203.660156 159.984375 203.832031 160.050781 203.933594 160.148438 Z M 204.753906 160.535156 C 204.785156 160.527344 204.8125 160.527344 204.839844 160.527344 C 204.964844 160.535156 205.09375 160.613281 205.148438 160.722656 C 205.195312 160.8125 205.1875 160.914062 205.125 161.015625 C 204.96875 161.269531 204.78125 161.496094 204.585938 161.730469 L 204.457031 161.890625 C 204.375 161.984375 204.300781 162.082031 204.222656 162.179688 C 204.082031 162.367188 203.945312 162.539062 203.78125 162.691406 C 203.703125 162.757812 203.621094 162.789062 203.535156 162.777344 C 203.453125 162.765625 203.371094 162.722656 203.3125 162.65625 C 203.253906 162.589844 203.222656 162.515625 203.21875 162.4375 C 203.21875 162.359375 203.253906 162.285156 203.324219 162.222656 C 203.324219 162.222656 203.324219 162.21875 203.324219 162.21875 C 203.496094 162.0625 203.632812 161.886719 203.765625 161.710938 C 203.828125 161.632812 203.890625 161.550781 203.957031 161.472656 L 204.09375 161.304688 C 204.253906 161.105469 204.421875 160.898438 204.566406 160.675781 C 204.621094 160.589844 204.691406 160.550781 204.753906 160.535156 Z M 206.0625 161.46875 C 206.132812 161.453125 206.210938 161.460938 206.289062 161.503906 C 206.363281 161.554688 206.425781 161.652344 206.445312 161.753906 C 206.449219 161.796875 206.457031 161.882812 206.40625 161.953125 C 206.292969 162.105469 206.15625 162.253906 206.027344 162.394531 C 205.738281 162.703125 205.441406 163.019531 205.292969 163.453125 C 205.238281 163.605469 205.128906 163.65625 205.046875 163.667969 C 204.921875 163.691406 204.777344 163.644531 204.699219 163.554688 C 204.636719 163.480469 204.625 163.386719 204.660156 163.28125 C 204.796875 162.902344 204.957031 162.609375 205.175781 162.363281 C 205.261719 162.261719 205.351562 162.167969 205.445312 162.070312 C 205.578125 161.933594 205.714844 161.792969 205.828125 161.632812 C 205.886719 161.554688 205.96875 161.492188 206.0625 161.46875 Z M 206.90625 162.570312 C 207.023438 162.597656 207.128906 162.703125 207.167969 162.828125 C 207.191406 162.910156 207.199219 163.027344 207.089844 163.148438 L 206.980469 163.269531 C 206.832031 163.4375 206.683594 163.609375 206.515625 163.734375 C 206.425781 163.792969 206.355469 163.921875 206.273438 164.085938 L 206.238281 164.15625 C 206.175781 164.265625 206.117188 164.34375 206.046875 164.414062 C 205.882812 164.5625 205.6875 164.5 205.574219 164.371094 C 205.515625 164.308594 205.484375 164.230469 205.480469 164.160156 C 205.480469 164.078125 205.515625 164.003906 205.582031 163.941406 C 205.667969 163.867188 205.726562 163.761719 205.777344 163.667969 C 205.792969 163.640625 205.804688 163.613281 205.820312 163.589844 C 205.894531 163.476562 205.972656 163.371094 206.054688 163.265625 L 206.074219 163.242188 C 206.164062 163.132812 206.273438 163.03125 206.390625 162.925781 C 206.480469 162.839844 206.570312 162.757812 206.652344 162.664062 C 206.699219 162.613281 206.746094 162.582031 206.800781 162.570312 C 206.835938 162.5625 206.867188 162.5625 206.90625 162.570312 Z M 200.84375 162.121094 C 201.835938 162.757812 202.773438 163.355469 203.6875 164.09375 C 204.210938 164.511719 204.78125 164.953125 205.410156 165.335938 C 205.496094 165.386719 205.585938 165.433594 205.667969 165.480469 C 205.75 165.523438 205.828125 165.5625 205.910156 165.613281 C 205.941406 165.628906 205.976562 165.636719 206.011719 165.625 C 206.015625 165.625 206.015625 165.625 206.015625 165.625 C 206.054688 165.617188 206.085938 165.59375 206.105469 165.558594 C 206.230469 165.332031 206.367188 165.117188 206.503906 164.890625 L 206.523438 164.859375 C 206.648438 164.667969 206.835938 164.464844 207.027344 164.25 C 207.425781 163.816406 207.875 163.324219 207.921875 162.773438 C 207.933594 162.613281 208.027344 162.472656 208.105469 162.378906 C 208.128906 162.347656 208.144531 162.308594 208.136719 162.269531 C 208.132812 162.230469 208.113281 162.195312 208.085938 162.171875 C 206.230469 160.71875 204.332031 159.628906 202.113281 158.734375 C 202.050781 158.710938 201.980469 158.730469 201.941406 158.789062 C 201.402344 159.609375 200.8125 160.480469 200.128906 161.277344 C 200.074219 161.34375 200.046875 161.398438 200.027344 161.457031 C 200 161.519531 200.023438 161.59375 200.082031 161.628906 C 200.335938 161.796875 200.589844 161.957031 200.84375 162.121094 " fill-opacity="1" fill-rule="nonzero"/></g></g></g></g><g clip-path="url(#eddfc21a56)"><g clip-path="url(#9fd092201b)"><g clip-path="url(#8514f9578b)"><g clip-path="url(#665f02f39b)"><path fill="#000000" d="M 206.011719 159.878906 C 206.898438 160.40625 207.667969 161.011719 208.449219 161.632812 C 208.480469 161.660156 208.523438 161.667969 208.5625 161.660156 C 208.566406 161.660156 208.566406 161.660156 208.570312 161.660156 C 208.609375 161.648438 208.640625 161.625 208.660156 161.589844 C 208.863281 161.238281 209.058594 160.832031 209.101562 160.683594 C 209.136719 160.527344 209.351562 160.449219 209.417969 160.425781 C 209.464844 160.414062 209.503906 160.371094 209.511719 160.324219 C 209.523438 160.269531 209.507812 160.21875 209.472656 160.183594 C 209.015625 159.761719 208.535156 159.410156 208.027344 159.039062 L 207.644531 158.753906 C 207.28125 158.480469 206.878906 158.308594 206.488281 158.140625 C 206.285156 158.054688 206.082031 157.96875 205.882812 157.867188 C 205.746094 157.796875 205.589844 157.703125 205.421875 157.605469 C 204.832031 157.253906 204.09375 156.816406 203.503906 156.882812 C 203.445312 156.894531 203.394531 156.882812 203.335938 156.859375 C 203.269531 156.835938 203.199219 156.859375 203.164062 156.917969 C 202.925781 157.273438 202.691406 157.628906 202.464844 157.988281 C 202.441406 158.023438 202.433594 158.070312 202.449219 158.113281 C 202.460938 158.152344 202.492188 158.183594 202.535156 158.199219 C 203.652344 158.660156 204.851562 159.179688 206.011719 159.878906 " fill-opacity="1" fill-rule="nonzero"/></g></g></g></g><g clip-path="url(#10377ad6da)"><g clip-path="url(#672e3c1e4a)"><g clip-path="url(#52f480206f)"><g clip-path="url(#dd4fa67298)"><path fill="#000000" d="M 203.867188 156.265625 C 204.660156 156.363281 205.457031 156.800781 206.222656 157.222656 C 206.546875 157.402344 206.855469 157.570312 207.152344 157.710938 C 207.644531 157.9375 208.0625 158.25 208.503906 158.585938 C 208.664062 158.703125 208.824219 158.824219 208.984375 158.9375 C 209.105469 159.023438 209.238281 159.089844 209.371094 159.15625 C 209.539062 159.238281 209.703125 159.316406 209.808594 159.433594 C 209.832031 159.453125 209.84375 159.472656 209.863281 159.496094 C 209.882812 159.519531 209.902344 159.546875 209.925781 159.574219 C 209.960938 159.609375 210.007812 159.628906 210.058594 159.617188 C 210.0625 159.617188 210.0625 159.617188 210.0625 159.617188 C 210.113281 159.605469 210.148438 159.570312 210.164062 159.527344 C 210.273438 159.234375 210.382812 158.875 210.484375 158.464844 C 210.5 158.410156 210.480469 158.351562 210.4375 158.316406 C 210.28125 158.191406 210.132812 158.058594 209.988281 157.925781 C 209.789062 157.753906 209.582031 157.570312 209.363281 157.402344 C 209.195312 157.277344 209.035156 157.105469 208.878906 156.9375 L 208.820312 156.875 C 208.625 156.664062 208.414062 156.53125 208.207031 156.410156 C 208.109375 156.347656 208.007812 156.285156 207.902344 156.210938 C 207.339844 155.800781 206.699219 155.378906 205.847656 155.0625 C 205.648438 154.988281 205.464844 154.847656 205.269531 154.703125 C 205.210938 154.660156 205.15625 154.621094 205.097656 154.578125 C 205.039062 154.535156 204.957031 154.542969 204.90625 154.597656 C 204.507812 155.058594 204.136719 155.527344 203.769531 156.039062 C 203.742188 156.078125 203.734375 156.132812 203.753906 156.179688 C 203.777344 156.226562 203.820312 156.261719 203.867188 156.265625 " fill-opacity="1" fill-rule="nonzero"/></g></g></g></g><g clip-path="url(#6fec2097e1)"><g clip-path="url(#69c7cf21c4)"><g clip-path="url(#c4500d99b9)"><g clip-path="url(#c03a93b5f4)"><path fill="#000000" d="M 212.757812 153.226562 C 212.519531 152.964844 212.265625 152.695312 212.007812 152.457031 C 211.621094 152.109375 211.140625 151.855469 210.675781 151.609375 C 210.5625 151.554688 210.453125 151.492188 210.347656 151.433594 L 210.0625 151.273438 C 209.644531 151.039062 209.214844 150.796875 208.765625 150.59375 C 208.640625 150.535156 208.515625 150.484375 208.390625 150.433594 C 208.199219 150.355469 208.019531 150.285156 207.851562 150.183594 C 207.796875 150.152344 207.726562 150.160156 207.683594 150.199219 C 207.085938 150.730469 206.320312 151.535156 206.035156 152.351562 C 205.910156 152.734375 205.71875 153.078125 205.511719 153.445312 C 205.449219 153.554688 205.390625 153.660156 205.332031 153.769531 C 205.3125 153.804688 205.308594 153.847656 205.320312 153.882812 C 205.332031 153.917969 205.355469 153.949219 205.386719 153.96875 C 205.539062 154.046875 205.683594 154.132812 205.828125 154.21875 C 206.105469 154.382812 206.394531 154.546875 206.703125 154.6875 C 206.988281 154.816406 207.25 155 207.5 155.179688 C 207.734375 155.347656 207.980469 155.523438 208.25 155.652344 C 208.871094 155.953125 209.359375 156.433594 209.875 156.941406 C 210.09375 157.164062 210.324219 157.386719 210.5625 157.597656 C 210.597656 157.628906 210.648438 157.640625 210.691406 157.628906 C 210.695312 157.628906 210.695312 157.628906 210.699219 157.628906 C 210.742188 157.613281 210.78125 157.578125 210.792969 157.53125 C 211.144531 156.394531 211.882812 155.355469 212.59375 154.347656 C 212.746094 154.128906 212.898438 153.910156 213.046875 153.699219 C 213.085938 153.640625 213.078125 153.566406 213.03125 153.515625 C 212.941406 153.421875 212.851562 153.320312 212.757812 153.226562 " fill-opacity="1" fill-rule="nonzero"/></g></g></g></g><g clip-path="url(#7b2f8f5397)"><g clip-path="url(#a2b4d370a0)"><path fill="#000000" d="M 180.257812 180.753906 L 193.75 180.753906 L 193.75 194.246094 L 180.257812 194.246094 Z M 180.257812 180.753906 " fill-opacity="1" fill-rule="nonzero"/></g></g><g clip-path="url(#8ab4a41675)"><g clip-path="url(#94d7c07e2e)"><path stroke-linecap="butt" transform="matrix(0.75, 0, 0, 0.75, 180.258098, 180.753972)" fill="none" stroke-linejoin="miter" d="M 8.994411 -0.0000878407 C 4.025661 -0.0000878407 -0.000381017 4.025954 -0.000381017 8.994704 C -0.000381017 13.958246 4.025661 17.984288 8.994411 17.984288 C 13.957953 17.984288 17.983995 13.958246 17.983995 8.994704 C 17.983995 4.025954 13.957953 -0.0000878407 8.994411 -0.0000878407 Z M 8.994411 -0.0000878407 " stroke="#ffffff" stroke-width="4" stroke-opacity="1" stroke-miterlimit="4"/></g></g></svg>