<svg xmlns="http://www.w3.org/2000/svg" xmlns:xlink="http://www.w3.org/1999/xlink" width="500" zoomAndPan="magnify" viewBox="0 0 375 374.999991" height="500" preserveAspectRatio="xMidYMid meet" version="1.0"><defs><g/><clipPath id="3083d7b170"><path d="M 57 142.507812 L 158.8125 142.507812 L 158.8125 232.507812 L 57 232.507812 Z M 57 142.507812 " clip-rule="nonzero"/></clipPath><clipPath id="7d501e2209"><path d="M 93 169 L 124 169 L 124 216 L 93 216 Z M 93 169 " clip-rule="nonzero"/></clipPath><clipPath id="451f957fa9"><path d="M 68.246094 164.515625 L 132.378906 148.941406 L 147.425781 210.890625 L 83.289062 226.464844 Z M 68.246094 164.515625 " clip-rule="nonzero"/></clipPath><clipPath id="2ba6d353e2"><path d="M 68.246094 164.515625 L 132.378906 148.941406 L 147.425781 210.890625 L 83.289062 226.464844 Z M 68.246094 164.515625 " clip-rule="nonzero"/></clipPath><clipPath id="e1f000d32b"><path d="M 90 167 L 123 167 L 123 215 L 90 215 Z M 90 167 " clip-rule="nonzero"/></clipPath><clipPath id="1ea7bc7308"><path d="M 68.246094 164.515625 L 132.378906 148.941406 L 147.425781 210.890625 L 83.289062 226.464844 Z M 68.246094 164.515625 " clip-rule="nonzero"/></clipPath><clipPath id="7632a1397c"><path d="M 68.246094 164.515625 L 132.378906 148.941406 L 147.425781 210.890625 L 83.289062 226.464844 Z M 68.246094 164.515625 " clip-rule="nonzero"/></clipPath><clipPath id="f7791fe809"><path d="M 118 164 L 126 164 L 126 170 L 118 170 Z M 118 164 " clip-rule="nonzero"/></clipPath><clipPath id="6fe8164c98"><path d="M 68.246094 164.515625 L 132.378906 148.941406 L 147.425781 210.890625 L 83.289062 226.464844 Z M 68.246094 164.515625 " clip-rule="nonzero"/></clipPath><clipPath id="c9a0276e64"><path d="M 68.246094 164.515625 L 132.378906 148.941406 L 147.425781 210.890625 L 83.289062 226.464844 Z M 68.246094 164.515625 " clip-rule="nonzero"/></clipPath><clipPath id="31d83939aa"><path d="M 84 212 L 94 212 L 94 224 L 84 224 Z M 84 212 " clip-rule="nonzero"/></clipPath><clipPath id="b150032f07"><path d="M 68.246094 164.515625 L 132.378906 148.941406 L 147.425781 210.890625 L 83.289062 226.464844 Z M 68.246094 164.515625 " clip-rule="nonzero"/></clipPath><clipPath id="16761aed3b"><path d="M 68.246094 164.515625 L 132.378906 148.941406 L 147.425781 210.890625 L 83.289062 226.464844 Z M 68.246094 164.515625 " clip-rule="nonzero"/></clipPath><clipPath id="30e09c5286"><path d="M 120 161 L 127 161 L 127 167 L 120 167 Z M 120 161 " clip-rule="nonzero"/></clipPath><clipPath id="4ffea95ae0"><path d="M 68.246094 164.515625 L 132.378906 148.941406 L 147.425781 210.890625 L 83.289062 226.464844 Z M 68.246094 164.515625 " clip-rule="nonzero"/></clipPath><clipPath id="12faec1930"><path d="M 68.246094 164.515625 L 132.378906 148.941406 L 147.425781 210.890625 L 83.289062 226.464844 Z M 68.246094 164.515625 " clip-rule="nonzero"/></clipPath><clipPath id="b36d7a0767"><path d="M 88 166 L 120 166 L 120 213 L 88 213 Z M 88 166 " clip-rule="nonzero"/></clipPath><clipPath id="b7c1edafee"><path d="M 68.246094 164.515625 L 132.378906 148.941406 L 147.425781 210.890625 L 83.289062 226.464844 Z M 68.246094 164.515625 " clip-rule="nonzero"/></clipPath><clipPath id="d2b638c9b3"><path d="M 68.246094 164.515625 L 132.378906 148.941406 L 147.425781 210.890625 L 83.289062 226.464844 Z M 68.246094 164.515625 " clip-rule="nonzero"/></clipPath><clipPath id="ee2c8119fc"><path d="M 83 223 L 86 223 L 86 226 L 83 226 Z M 83 223 " clip-rule="nonzero"/></clipPath><clipPath id="c74c283515"><path d="M 68.246094 164.515625 L 132.378906 148.941406 L 147.425781 210.890625 L 83.289062 226.464844 Z M 68.246094 164.515625 " clip-rule="nonzero"/></clipPath><clipPath id="89c8a330c3"><path d="M 68.246094 164.515625 L 132.378906 148.941406 L 147.425781 210.890625 L 83.289062 226.464844 Z M 68.246094 164.515625 " clip-rule="nonzero"/></clipPath><clipPath id="af18dad1e1"><path d="M 119 162 L 126 162 L 126 168 L 119 168 Z M 119 162 " clip-rule="nonzero"/></clipPath><clipPath id="491f88a441"><path d="M 68.246094 164.515625 L 132.378906 148.941406 L 147.425781 210.890625 L 83.289062 226.464844 Z M 68.246094 164.515625 " clip-rule="nonzero"/></clipPath><clipPath id="2c85c63f01"><path d="M 68.246094 164.515625 L 132.378906 148.941406 L 147.425781 210.890625 L 83.289062 226.464844 Z M 68.246094 164.515625 " clip-rule="nonzero"/></clipPath><clipPath id="fb3bc1536d"><path d="M 120 158 L 129 158 L 129 166 L 120 166 Z M 120 158 " clip-rule="nonzero"/></clipPath><clipPath id="611f1f3dc5"><path d="M 68.246094 164.515625 L 132.378906 148.941406 L 147.425781 210.890625 L 83.289062 226.464844 Z M 68.246094 164.515625 " clip-rule="nonzero"/></clipPath><clipPath id="d57ee18b35"><path d="M 68.246094 164.515625 L 132.378906 148.941406 L 147.425781 210.890625 L 83.289062 226.464844 Z M 68.246094 164.515625 " clip-rule="nonzero"/></clipPath><clipPath id="92c815f58c"><path d="M 123 156 L 131 156 L 131 162 L 123 162 Z M 123 156 " clip-rule="nonzero"/></clipPath><clipPath id="848a9ac479"><path d="M 68.246094 164.515625 L 132.378906 148.941406 L 147.425781 210.890625 L 83.289062 226.464844 Z M 68.246094 164.515625 " clip-rule="nonzero"/></clipPath><clipPath id="57bbed12c3"><path d="M 68.246094 164.515625 L 132.378906 148.941406 L 147.425781 210.890625 L 83.289062 226.464844 Z M 68.246094 164.515625 " clip-rule="nonzero"/></clipPath><clipPath id="2054ed1b7c"><path d="M 124 154 L 132 154 L 132 160 L 124 160 Z M 124 154 " clip-rule="nonzero"/></clipPath><clipPath id="16729a079e"><path d="M 68.246094 164.515625 L 132.378906 148.941406 L 147.425781 210.890625 L 83.289062 226.464844 Z M 68.246094 164.515625 " clip-rule="nonzero"/></clipPath><clipPath id="bab49208c8"><path d="M 68.246094 164.515625 L 132.378906 148.941406 L 147.425781 210.890625 L 83.289062 226.464844 Z M 68.246094 164.515625 " clip-rule="nonzero"/></clipPath><clipPath id="1d67166644"><path d="M 126 150 L 134 150 L 134 158 L 126 158 Z M 126 150 " clip-rule="nonzero"/></clipPath><clipPath id="ad230f934e"><path d="M 68.246094 164.515625 L 132.378906 148.941406 L 147.425781 210.890625 L 83.289062 226.464844 Z M 68.246094 164.515625 " clip-rule="nonzero"/></clipPath><clipPath id="97c1f17ca4"><path d="M 68.246094 164.515625 L 132.378906 148.941406 L 147.425781 210.890625 L 83.289062 226.464844 Z M 68.246094 164.515625 " clip-rule="nonzero"/></clipPath><clipPath id="cc7f94ae8b"><path d="M 100.699219 180.753906 L 114.191406 180.753906 L 114.191406 194.246094 L 100.699219 194.246094 Z M 100.699219 180.753906 " clip-rule="nonzero"/></clipPath><clipPath id="2509ff2f0d"><path d="M 107.445312 180.753906 C 103.71875 180.753906 100.699219 183.773438 100.699219 187.5 C 100.699219 191.226562 103.71875 194.246094 107.445312 194.246094 C 111.171875 194.246094 114.191406 191.226562 114.191406 187.5 C 114.191406 183.773438 111.171875 180.753906 107.445312 180.753906 Z M 107.445312 180.753906 " clip-rule="nonzero"/></clipPath><clipPath id="5b68a0cd10"><path d="M 100.699219 180.753906 L 114.1875 180.753906 L 114.1875 194.242188 L 100.699219 194.242188 Z M 100.699219 180.753906 " clip-rule="nonzero"/></clipPath><clipPath id="9151c630a0"><path d="M 107.445312 180.753906 C 103.71875 180.753906 100.699219 183.773438 100.699219 187.5 C 100.699219 191.222656 103.71875 194.242188 107.445312 194.242188 C 111.167969 194.242188 114.1875 191.222656 114.1875 187.5 C 114.1875 183.773438 111.167969 180.753906 107.445312 180.753906 Z M 107.445312 180.753906 " clip-rule="nonzero"/></clipPath></defs><g clip-path="url(#3083d7b170)"><path fill="#ffffff" d="M 158.828125 187.484375 C 158.828125 180.566406 148.007812 175.453125 133.605469 172.695312 C 134.78125 169.316406 135.746094 166.042969 136.417969 162.984375 C 138.648438 152.78125 137.570312 145.828125 133.382812 143.410156 C 132.347656 142.8125 131.152344 142.507812 129.832031 142.507812 C 124.109375 142.507812 116.132812 148.273438 107.9375 157.777344 C 99.75 148.273438 91.769531 142.507812 86.042969 142.507812 C 84.726562 142.507812 83.53125 142.8125 82.492188 143.410156 C 76.496094 146.871094 77.484375 158.824219 82.3125 172.691406 C 67.886719 175.441406 57.046875 180.5625 57.046875 187.484375 C 57.046875 194.40625 67.871094 199.519531 82.277344 202.273438 C 81.097656 205.65625 80.128906 208.929688 79.460938 211.984375 C 77.226562 222.191406 78.304688 229.140625 82.492188 231.558594 C 83.53125 232.15625 84.726562 232.460938 86.042969 232.460938 C 91.769531 232.460938 99.746094 226.691406 107.9375 217.195312 C 116.128906 226.691406 124.109375 232.460938 129.832031 232.460938 C 131.152344 232.460938 132.347656 232.15625 133.382812 231.558594 C 137.570312 229.140625 138.648438 222.191406 136.417969 211.984375 C 135.746094 208.929688 134.78125 205.65625 133.601562 202.273438 C 148.007812 199.519531 158.828125 194.40625 158.828125 187.484375 Z M 129.832031 145.136719 C 130.683594 145.136719 131.4375 145.328125 132.070312 145.691406 C 135.140625 147.464844 135.785156 153.5625 133.847656 162.425781 C 133.175781 165.5 132.191406 168.800781 130.984375 172.226562 C 126.742188 171.519531 122.246094 171.011719 117.652344 170.710938 C 115.035156 166.753906 112.355469 163.113281 109.679688 159.847656 C 117.394531 150.828125 124.878906 145.136719 129.832031 145.136719 Z M 120.46875 194.71875 C 119.070312 197.136719 117.625 199.484375 116.152344 201.738281 C 113.507812 201.875 110.769531 201.949219 107.9375 201.949219 C 105.105469 201.949219 102.367188 201.875 99.726562 201.738281 C 98.25 199.484375 96.804688 197.136719 95.410156 194.71875 C 93.996094 192.269531 92.691406 189.859375 91.492188 187.507812 C 92.71875 185.097656 94.011719 182.671875 95.410156 180.253906 C 96.804688 177.832031 98.25 175.488281 99.726562 173.226562 C 102.367188 173.09375 105.105469 173.019531 107.9375 173.019531 C 110.769531 173.019531 113.507812 173.09375 116.152344 173.226562 C 117.625 175.488281 119.070312 177.832031 120.464844 180.253906 C 121.859375 182.664062 123.152344 185.085938 124.375 187.484375 C 123.152344 189.890625 121.859375 192.308594 120.46875 194.71875 Z M 125.820312 190.417969 C 127.4375 193.777344 128.875 197.089844 130.097656 200.308594 C 126.789062 200.839844 123.21875 201.253906 119.421875 201.535156 C 120.546875 199.753906 121.65625 197.917969 122.746094 196.035156 C 123.824219 194.164062 124.839844 192.289062 125.820312 190.417969 Z M 114.34375 204.441406 C 112.238281 207.515625 110.085938 210.402344 107.9375 213.035156 C 105.792969 210.398438 103.644531 207.515625 101.53125 204.441406 C 103.664062 204.53125 105.804688 204.582031 107.9375 204.582031 C 110.074219 204.582031 112.214844 204.53125 114.34375 204.441406 Z M 96.457031 201.535156 C 92.65625 201.253906 89.085938 200.839844 85.78125 200.308594 C 87.003906 197.097656 88.4375 193.78125 90.050781 190.417969 C 91.039062 192.308594 92.066406 194.183594 93.132812 196.035156 C 94.222656 197.917969 95.332031 199.753906 96.457031 201.535156 Z M 90.039062 184.582031 C 88.375 181.132812 86.941406 177.8125 85.738281 174.667969 C 89.058594 174.140625 92.640625 173.722656 96.457031 173.433594 C 95.332031 175.21875 94.222656 177.050781 93.132812 178.9375 C 92.042969 180.816406 91.027344 182.707031 90.039062 184.582031 Z M 101.535156 170.53125 C 103.644531 167.460938 105.792969 164.574219 107.9375 161.933594 C 110.085938 164.574219 112.238281 167.460938 114.34375 170.53125 C 112.214844 170.441406 110.074219 170.390625 107.9375 170.390625 C 105.804688 170.390625 103.664062 170.441406 101.535156 170.53125 Z M 122.746094 178.9375 C 121.65625 177.046875 120.546875 175.21875 119.421875 173.433594 C 123.21875 173.722656 126.789062 174.132812 130.097656 174.660156 C 128.875 177.875 127.4375 181.195312 125.820312 184.558594 C 124.839844 182.6875 123.824219 180.808594 122.746094 178.9375 Z M 83.808594 145.691406 C 84.4375 145.324219 85.191406 145.136719 86.042969 145.136719 C 90.996094 145.136719 98.480469 150.828125 106.195312 159.847656 C 103.523438 163.113281 100.839844 166.753906 98.222656 170.710938 C 93.617188 171.011719 89.101562 171.527344 84.84375 172.234375 C 79.871094 158.195312 79.71875 148.050781 83.808594 145.691406 Z M 59.675781 187.484375 C 59.675781 182.765625 68.539062 177.824219 83.183594 175.109375 C 84.699219 179.152344 86.511719 183.320312 88.554688 187.464844 C 86.457031 191.679688 84.644531 195.839844 83.136719 199.851562 C 68.519531 197.136719 59.675781 192.199219 59.675781 187.484375 Z M 86.042969 229.832031 C 85.179688 229.832031 84.453125 229.652344 83.808594 229.285156 C 80.738281 227.511719 80.089844 221.414062 82.03125 212.550781 C 82.707031 209.472656 83.6875 206.167969 84.894531 202.746094 C 89.136719 203.453125 93.632812 203.960938 98.222656 204.261719 C 100.839844 208.214844 103.519531 211.855469 106.195312 215.125 C 98.480469 224.140625 90.996094 229.832031 86.042969 229.832031 Z M 133.84375 212.546875 C 135.785156 221.410156 135.136719 227.511719 132.070312 229.285156 C 131.433594 229.644531 130.683594 229.832031 129.832031 229.832031 C 124.878906 229.832031 117.394531 224.140625 109.679688 215.121094 C 112.355469 211.855469 115.035156 208.214844 117.65625 204.261719 C 122.246094 203.960938 126.742188 203.453125 130.984375 202.742188 C 132.191406 206.167969 133.175781 209.472656 133.84375 212.546875 Z M 132.738281 199.851562 C 131.234375 195.847656 129.425781 191.695312 127.332031 187.484375 C 129.425781 183.277344 131.234375 179.121094 132.738281 175.121094 C 147.355469 177.835938 156.199219 182.773438 156.199219 187.484375 C 156.199219 192.199219 147.355469 197.136719 132.738281 199.851562 Z M 132.738281 199.851562 " fill-opacity="1" fill-rule="nonzero"/></g><path fill="#ffffff" d="M 113.527344 187.484375 C 113.527344 187.851562 113.492188 188.214844 113.421875 188.574219 C 113.347656 188.9375 113.242188 189.285156 113.101562 189.625 C 112.960938 189.964844 112.789062 190.285156 112.585938 190.589844 C 112.382812 190.894531 112.152344 191.179688 111.890625 191.4375 C 111.632812 191.699219 111.347656 191.929688 111.042969 192.132812 C 110.738281 192.335938 110.417969 192.507812 110.078125 192.648438 C 109.738281 192.789062 109.390625 192.894531 109.027344 192.96875 C 108.667969 193.039062 108.304688 193.074219 107.9375 193.074219 C 107.570312 193.074219 107.207031 193.039062 106.847656 192.96875 C 106.488281 192.894531 106.136719 192.789062 105.800781 192.648438 C 105.460938 192.507812 105.136719 192.335938 104.832031 192.132812 C 104.527344 191.929688 104.246094 191.699219 103.984375 191.4375 C 103.726562 191.179688 103.496094 190.894531 103.289062 190.589844 C 103.085938 190.285156 102.914062 189.964844 102.773438 189.625 C 102.632812 189.285156 102.527344 188.9375 102.457031 188.574219 C 102.382812 188.214844 102.347656 187.851562 102.347656 187.484375 C 102.347656 187.117188 102.382812 186.753906 102.457031 186.394531 C 102.527344 186.035156 102.632812 185.683594 102.773438 185.347656 C 102.914062 185.007812 103.085938 184.683594 103.289062 184.378906 C 103.496094 184.074219 103.726562 183.792969 103.984375 183.53125 C 104.246094 183.273438 104.527344 183.042969 104.832031 182.835938 C 105.136719 182.632812 105.460938 182.460938 105.800781 182.320312 C 106.136719 182.179688 106.488281 182.074219 106.847656 182.003906 C 107.207031 181.929688 107.570312 181.894531 107.9375 181.894531 C 108.304688 181.894531 108.667969 181.929688 109.027344 182.003906 C 109.390625 182.074219 109.738281 182.179688 110.078125 182.320312 C 110.417969 182.460938 110.738281 182.632812 111.042969 182.835938 C 111.347656 183.042969 111.632812 183.273438 111.890625 183.53125 C 112.152344 183.792969 112.382812 184.074219 112.585938 184.378906 C 112.789062 184.683594 112.960938 185.007812 113.101562 185.347656 C 113.242188 185.683594 113.347656 186.035156 113.421875 186.394531 C 113.492188 186.753906 113.527344 187.117188 113.527344 187.484375 Z M 113.527344 187.484375 " fill-opacity="1" fill-rule="nonzero"/><g clip-path="url(#7d501e2209)"><g clip-path="url(#451f957fa9)"><g clip-path="url(#2ba6d353e2)"><path fill="#ffffff" d="M 93.667969 215.152344 C 93.742188 215.363281 93.890625 215.480469 94.046875 215.460938 C 94.132812 215.457031 94.210938 215.523438 94.25 215.5625 C 94.285156 215.59375 94.332031 215.609375 94.378906 215.601562 C 94.378906 215.601562 94.386719 215.601562 94.386719 215.601562 C 94.429688 215.589844 94.464844 215.5625 94.484375 215.523438 C 95.148438 214.117188 99.386719 206.917969 100.054688 205.988281 C 102.613281 202.496094 105.074219 198.9375 107.371094 195.417969 C 109.253906 192.53125 111.121094 189.5625 112.925781 186.695312 C 113.90625 185.140625 114.882812 183.585938 115.867188 182.039062 C 117.15625 180.015625 118.65625 177.671875 120.1875 175.398438 C 120.597656 174.785156 121.046875 174.167969 121.480469 173.570312 C 122.300781 172.441406 123.148438 171.269531 123.816406 170.042969 C 123.851562 169.984375 123.835938 169.90625 123.78125 169.863281 C 123.570312 169.691406 123.347656 169.535156 123.121094 169.402344 C 123.050781 169.363281 122.964844 169.382812 122.925781 169.453125 C 120.738281 173.121094 118.457031 176.53125 116.042969 180.140625 L 114.886719 181.867188 C 114.351562 182.675781 113.816406 183.507812 113.304688 184.316406 C 112.359375 185.796875 111.382812 187.324219 110.324219 188.75 C 109.871094 189.359375 109.386719 189.957031 108.921875 190.535156 C 107.929688 191.761719 106.902344 193.03125 106.121094 194.460938 C 104.742188 196.972656 103.152344 199.351562 101.609375 201.652344 C 100.726562 202.972656 99.816406 204.339844 98.945312 205.71875 C 98.5 206.429688 98.042969 207.140625 97.578125 207.855469 C 96.246094 209.921875 94.867188 212.058594 93.757812 214.253906 C 93.738281 214.296875 93.742188 214.347656 93.765625 214.390625 C 93.820312 214.480469 93.816406 214.582031 93.746094 214.679688 C 93.664062 214.808594 93.597656 214.941406 93.667969 215.152344 " fill-opacity="1" fill-rule="nonzero"/></g></g></g><g clip-path="url(#e1f000d32b)"><g clip-path="url(#1ea7bc7308)"><g clip-path="url(#7632a1397c)"><path fill="#ffffff" d="M 121.296875 168.296875 C 121.039062 168.109375 120.777344 167.921875 120.492188 167.75 C 120.347656 167.664062 120.191406 167.5625 119.996094 167.425781 C 119.964844 167.40625 119.921875 167.398438 119.882812 167.402344 C 119.882812 167.402344 119.878906 167.40625 119.878906 167.40625 C 119.84375 167.414062 119.8125 167.441406 119.789062 167.476562 C 118.761719 169.316406 117.535156 171.054688 116.351562 172.734375 C 115.203125 174.363281 114.015625 176.050781 113.003906 177.828125 C 110.578125 182.113281 108.03125 186.125 105.21875 190.089844 C 102.433594 194.03125 99.808594 198.164062 97.277344 202.164062 C 95.164062 205.492188 92.980469 208.9375 90.71875 212.242188 C 90.699219 212.269531 90.691406 212.304688 90.695312 212.335938 C 90.695312 212.359375 90.699219 212.382812 90.707031 212.402344 C 90.710938 212.421875 90.714844 212.4375 90.714844 212.445312 C 90.667969 213.199219 90.871094 213.792969 91.308594 214.214844 C 91.59375 214.496094 92.214844 214.429688 92.757812 214.296875 C 92.835938 214.277344 92.910156 214.257812 92.984375 214.238281 C 93.023438 214.226562 93.054688 214.199219 93.074219 214.164062 C 94.492188 211.285156 96.347656 208.492188 98.144531 205.792969 L 98.671875 204.992188 C 99.285156 204.066406 99.941406 203.140625 100.578125 202.246094 C 101.199219 201.375 101.84375 200.46875 102.445312 199.554688 C 103.183594 198.449219 103.820312 197.273438 104.433594 196.132812 C 104.917969 195.242188 105.417969 194.320312 105.957031 193.441406 C 106.71875 192.203125 107.640625 191.054688 108.535156 189.945312 C 109.273438 189.023438 110.035156 188.074219 110.710938 187.074219 C 111.289062 186.210938 111.855469 185.320312 112.410156 184.464844 C 113.171875 183.273438 113.960938 182.046875 114.78125 180.867188 C 117.472656 177.015625 119.945312 173.179688 122.34375 169.148438 C 122.367188 169.113281 122.371094 169.074219 122.359375 169.039062 C 122.351562 169 122.324219 168.96875 122.289062 168.949219 C 121.941406 168.753906 121.617188 168.519531 121.296875 168.296875 " fill-opacity="1" fill-rule="nonzero"/></g></g></g><g clip-path="url(#f7791fe809)"><g clip-path="url(#6fe8164c98)"><g clip-path="url(#c9a0276e64)"><path fill="#ffffff" d="M 118.433594 165.789062 C 118.628906 165.917969 118.832031 166.050781 119.074219 166.136719 C 119.644531 166.34375 120.277344 166.789062 120.824219 167.1875 C 121.527344 167.695312 122.226562 168.144531 123.03125 168.609375 L 123.230469 168.722656 C 123.5625 168.917969 123.875 169.09375 124.160156 169.320312 C 124.214844 169.367188 124.285156 169.332031 124.371094 169.347656 C 124.390625 169.351562 124.410156 169.347656 124.429688 169.34375 C 124.453125 169.335938 124.472656 169.328125 124.492188 169.308594 C 124.671875 169.140625 124.855469 168.886719 125.066406 168.523438 C 125.101562 168.464844 125.085938 168.386719 125.035156 168.34375 C 124.742188 168.097656 124.457031 167.832031 124.179688 167.578125 C 123.527344 166.972656 122.847656 166.34375 122.011719 165.925781 C 122.011719 165.921875 122.011719 165.921875 122.011719 165.921875 C 121.472656 165.65625 120.945312 165.34375 120.433594 165.039062 C 120.058594 164.816406 119.667969 164.582031 119.277344 164.371094 C 119.214844 164.339844 119.136719 164.355469 119.09375 164.410156 C 118.867188 164.699219 118.511719 165.015625 118.195312 165.292969 L 118.113281 165.367188 C 118.078125 165.398438 118.058594 165.445312 118.0625 165.492188 C 118.070312 165.539062 118.097656 165.578125 118.136719 165.601562 C 118.238281 165.660156 118.335938 165.722656 118.433594 165.789062 " fill-opacity="1" fill-rule="nonzero"/></g></g></g><g clip-path="url(#31d83939aa)"><g clip-path="url(#b150032f07)"><g clip-path="url(#16761aed3b)"><path fill="#ffffff" d="M 85.035156 222.671875 C 85.117188 222.714844 85.203125 222.757812 85.289062 222.792969 C 85.519531 222.886719 85.632812 223.011719 85.742188 223.1875 C 85.765625 223.222656 85.804688 223.246094 85.84375 223.25 C 85.863281 223.253906 85.882812 223.253906 85.898438 223.25 C 85.921875 223.242188 85.945312 223.230469 85.960938 223.214844 C 86.648438 222.605469 87.375 221.941406 88.078125 221.152344 L 88.621094 220.542969 C 89.457031 219.601562 90.320312 218.628906 91.152344 217.648438 C 91.640625 217.070312 92.148438 216.71875 92.683594 216.347656 C 92.867188 216.21875 93.050781 216.09375 93.242188 215.949219 C 93.269531 215.929688 93.292969 215.894531 93.296875 215.855469 C 93.300781 215.816406 93.292969 215.777344 93.269531 215.75 C 93.175781 215.628906 93.101562 215.496094 93.058594 215.367188 C 93.023438 215.265625 93.003906 215.171875 92.996094 215.058594 C 92.992188 215.019531 92.972656 214.980469 92.9375 214.957031 C 92.902344 214.929688 92.859375 214.921875 92.816406 214.929688 C 91.851562 215.167969 91.277344 215.191406 90.851562 214.671875 C 90.371094 214.09375 90.117188 213.542969 90.054688 212.953125 C 90.046875 212.910156 90.023438 212.875 89.992188 212.847656 C 89.925781 212.800781 89.839844 212.835938 89.765625 212.851562 C 89.722656 212.859375 89.683594 212.867188 89.613281 212.882812 C 89.316406 212.949219 89.035156 213.011719 88.777344 212.921875 C 88.652344 212.875 88.550781 212.800781 88.46875 212.695312 C 88.4375 212.652344 88.386719 212.636719 88.339844 212.640625 C 88.289062 212.644531 88.246094 212.675781 88.226562 212.722656 C 88.164062 212.851562 88.101562 212.984375 88.039062 213.113281 C 87.796875 213.609375 87.550781 214.125 87.386719 214.671875 C 86.9375 216.144531 86.351562 217.589844 85.78125 218.992188 C 85.648438 219.324219 85.511719 219.65625 85.378906 219.988281 C 85.074219 220.75 84.769531 221.523438 84.46875 222.296875 C 84.453125 222.339844 84.457031 222.382812 84.480469 222.421875 C 84.5 222.460938 84.535156 222.484375 84.578125 222.492188 C 84.730469 222.519531 84.878906 222.59375 85.035156 222.671875 " fill-opacity="1" fill-rule="nonzero"/></g></g></g><g clip-path="url(#30e09c5286)"><g clip-path="url(#4ffea95ae0)"><g clip-path="url(#12faec1930)"><path fill="#ffffff" d="M 120.578125 162.628906 C 120.613281 162.648438 120.652344 162.664062 120.683594 162.6875 C 121.21875 162.996094 121.714844 163.386719 122.191406 163.761719 C 122.511719 164.015625 122.839844 164.277344 123.183594 164.511719 C 123.496094 164.734375 123.816406 164.980469 124.128906 165.214844 C 124.730469 165.679688 125.359375 166.160156 126.019531 166.527344 C 126.050781 166.542969 126.089844 166.546875 126.121094 166.539062 C 126.136719 166.535156 126.152344 166.53125 126.164062 166.523438 C 126.207031 166.492188 126.234375 166.441406 126.230469 166.390625 C 126.226562 166.355469 126.25 166.324219 126.28125 166.273438 C 126.332031 166.199219 126.414062 166.078125 126.339844 165.917969 C 126.207031 165.617188 125.847656 165.488281 125.527344 165.371094 C 125.390625 165.320312 125.265625 165.273438 125.175781 165.21875 C 125.175781 165.21875 125.175781 165.21875 125.171875 165.21875 C 124.734375 164.964844 124.320312 164.570312 123.917969 164.1875 L 123.667969 163.953125 C 123.121094 163.441406 122.554688 162.988281 121.882812 162.523438 C 121.808594 162.472656 121.726562 162.410156 121.648438 162.34375 C 121.441406 162.179688 121.199219 161.992188 120.925781 161.929688 C 120.820312 161.902344 120.539062 161.839844 120.355469 162.039062 C 120.277344 162.136719 120.242188 162.234375 120.261719 162.328125 C 120.292969 162.484375 120.445312 162.558594 120.578125 162.628906 " fill-opacity="1" fill-rule="nonzero"/></g></g></g><g clip-path="url(#b36d7a0767)"><g clip-path="url(#b7c1edafee)"><g clip-path="url(#d2b638c9b3)"><path fill="#ffffff" d="M 88.90625 212.121094 C 88.914062 212.15625 88.917969 212.175781 88.921875 212.191406 C 88.929688 212.230469 88.960938 212.289062 89 212.308594 C 89.035156 212.332031 89.09375 212.332031 89.132812 212.316406 L 89.144531 212.3125 C 89.148438 212.3125 89.148438 212.3125 89.148438 212.3125 C 89.214844 212.300781 89.289062 212.289062 89.359375 212.277344 C 89.492188 212.257812 89.636719 212.234375 89.777344 212.199219 C 89.835938 212.183594 89.898438 212.167969 89.957031 212.148438 C 89.988281 212.136719 90.011719 212.121094 90.027344 212.09375 C 92.285156 208.808594 94.453125 205.378906 96.546875 202.0625 C 99.125 197.980469 101.789062 193.761719 104.652344 189.765625 C 105.070312 189.1875 105.492188 188.609375 105.914062 188.03125 C 107.054688 186.484375 108.230469 184.886719 109.246094 183.226562 C 109.890625 182.167969 110.484375 181.0625 111.0625 179.992188 C 111.636719 178.929688 112.230469 177.828125 112.871094 176.777344 C 113.757812 175.324219 114.746094 173.917969 115.703125 172.554688 C 116.917969 170.820312 118.179688 169.027344 119.242188 167.117188 C 119.261719 167.082031 119.265625 167.042969 119.253906 167.007812 C 119.246094 166.96875 119.21875 166.941406 119.183594 166.921875 C 119.011719 166.832031 118.839844 166.753906 118.652344 166.679688 C 118.539062 166.644531 118.410156 166.542969 118.273438 166.441406 C 118.210938 166.390625 118.144531 166.339844 118.078125 166.292969 C 118.042969 166.269531 118.003906 166.261719 117.96875 166.269531 C 117.941406 166.273438 117.898438 166.300781 117.878906 166.332031 C 117.117188 167.476562 116.332031 168.632812 115.570312 169.75 C 113.859375 172.269531 112.085938 174.875 110.507812 177.542969 C 108.710938 180.570312 106.648438 183.445312 104.652344 186.222656 C 103.773438 187.449219 102.859375 188.714844 101.980469 189.988281 C 99.390625 193.738281 96.726562 197.949219 93.589844 203.234375 C 92.621094 204.863281 91.597656 206.480469 90.613281 208.046875 C 89.988281 209.035156 89.363281 210.023438 88.746094 211.023438 C 88.726562 211.058594 88.71875 211.101562 88.730469 211.144531 C 88.753906 211.210938 88.761719 211.269531 88.742188 211.335938 C 88.730469 211.371094 88.722656 211.402344 88.71875 211.4375 C 88.714844 211.453125 88.714844 211.472656 88.71875 211.492188 C 88.746094 211.585938 88.773438 211.675781 88.800781 211.765625 C 88.839844 211.882812 88.875 211.996094 88.90625 212.121094 " fill-opacity="1" fill-rule="nonzero"/></g></g></g><g clip-path="url(#ee2c8119fc)"><g clip-path="url(#c74c283515)"><g clip-path="url(#89c8a330c3)"><path fill="#ffffff" d="M 83.351562 225.964844 C 83.382812 225.957031 83.410156 225.9375 83.429688 225.914062 C 83.558594 225.757812 83.683594 225.597656 83.808594 225.441406 C 84.195312 224.957031 84.554688 224.5 84.917969 224.164062 C 84.992188 224.09375 85.070312 224.023438 85.148438 223.953125 L 85.253906 223.859375 C 85.296875 223.816406 85.300781 223.726562 85.277344 223.671875 C 85.230469 223.550781 85.195312 223.476562 85.117188 223.425781 L 85.070312 223.402344 C 84.988281 223.367188 84.910156 223.332031 84.832031 223.292969 C 84.832031 223.292969 84.828125 223.292969 84.828125 223.292969 C 84.800781 223.277344 84.773438 223.261719 84.742188 223.246094 C 84.644531 223.1875 84.519531 223.117188 84.363281 223.132812 C 84.359375 223.132812 84.347656 223.132812 84.324219 223.125 C 84.320312 223.125 84.289062 223.117188 84.285156 223.113281 C 84.21875 223.097656 84.148438 223.136719 84.121094 223.203125 C 83.773438 224.113281 83.464844 224.953125 83.183594 225.777344 C 83.160156 225.84375 83.1875 225.917969 83.25 225.949219 C 83.28125 225.96875 83.320312 225.972656 83.351562 225.964844 " fill-opacity="1" fill-rule="nonzero"/></g></g></g><g clip-path="url(#af18dad1e1)"><g clip-path="url(#491f88a441)"><g clip-path="url(#2c85c63f01)"><path fill="#ffffff" d="M 121.214844 164.707031 C 121.453125 164.855469 121.71875 164.984375 121.972656 165.113281 C 122.292969 165.273438 122.625 165.4375 122.890625 165.632812 C 123.457031 166.046875 123.976562 166.523438 124.480469 166.980469 C 124.753906 167.226562 125.019531 167.472656 125.296875 167.710938 C 125.332031 167.738281 125.375 167.75 125.414062 167.742188 C 125.417969 167.742188 125.421875 167.742188 125.425781 167.742188 C 125.464844 167.730469 125.496094 167.707031 125.515625 167.675781 C 125.527344 167.65625 125.539062 167.636719 125.546875 167.621094 C 125.554688 167.601562 125.5625 167.582031 125.589844 167.546875 C 125.636719 167.453125 125.683594 167.363281 125.730469 167.277344 C 125.769531 167.210938 125.75 167.128906 125.6875 167.089844 C 124.644531 166.390625 123.691406 165.71875 122.859375 165.085938 C 122.609375 164.894531 122.371094 164.695312 122.132812 164.5 C 121.457031 163.945312 120.765625 163.371094 119.921875 163.007812 C 119.855469 162.980469 119.777344 163.003906 119.742188 163.066406 C 119.632812 163.242188 119.53125 163.417969 119.457031 163.566406 C 119.421875 163.640625 119.449219 163.722656 119.515625 163.757812 C 120.15625 164.089844 120.6875 164.378906 121.214844 164.707031 " fill-opacity="1" fill-rule="nonzero"/></g></g></g><g clip-path="url(#fb3bc1536d)"><g clip-path="url(#611f1f3dc5)"><g clip-path="url(#d57ee18b35)"><path fill="#ffffff" d="M 121.621094 161.066406 C 121.773438 160.773438 122.039062 160.46875 122.257812 160.21875 C 122.421875 160.015625 122.617188 159.828125 122.851562 159.644531 C 123.035156 159.5 123.257812 159.578125 123.371094 159.71875 C 123.410156 159.769531 123.523438 159.941406 123.328125 160.097656 C 123.117188 160.261719 122.871094 160.460938 122.683594 160.714844 C 122.640625 160.773438 122.589844 160.835938 122.539062 160.898438 C 122.40625 161.066406 122.265625 161.238281 122.171875 161.429688 C 122.050781 161.65625 121.847656 161.578125 121.789062 161.542969 C 121.65625 161.476562 121.503906 161.292969 121.621094 161.066406 Z M 124.605469 160.042969 C 124.722656 160.15625 124.78125 160.355469 124.625 160.515625 C 124.296875 160.851562 124 161.226562 123.707031 161.585938 C 123.582031 161.742188 123.457031 161.898438 123.328125 162.046875 C 123.28125 162.109375 123.203125 162.125 123.148438 162.125 C 123.050781 162.128906 122.945312 162.09375 122.882812 162.027344 C 122.730469 161.871094 122.792969 161.683594 122.902344 161.550781 C 123.019531 161.414062 123.132812 161.269531 123.246094 161.128906 C 123.542969 160.761719 123.847656 160.378906 124.175781 160.035156 C 124.332031 159.882812 124.503906 159.941406 124.605469 160.042969 Z M 125.425781 160.421875 C 125.457031 160.417969 125.484375 160.414062 125.511719 160.417969 C 125.636719 160.421875 125.765625 160.503906 125.820312 160.609375 C 125.867188 160.703125 125.859375 160.800781 125.796875 160.902344 C 125.640625 161.15625 125.453125 161.378906 125.253906 161.613281 L 125.125 161.773438 C 125.042969 161.867188 124.964844 161.964844 124.886719 162.0625 C 124.746094 162.25 124.609375 162.421875 124.445312 162.574219 C 124.367188 162.640625 124.285156 162.671875 124.195312 162.660156 C 124.117188 162.648438 124.03125 162.605469 123.976562 162.539062 C 123.914062 162.472656 123.882812 162.398438 123.882812 162.324219 C 123.882812 162.242188 123.917969 162.171875 123.984375 162.105469 C 123.984375 162.105469 123.988281 162.105469 123.988281 162.105469 C 124.15625 161.949219 124.296875 161.769531 124.429688 161.597656 C 124.496094 161.519531 124.554688 161.4375 124.625 161.359375 L 124.761719 161.191406 C 124.921875 160.992188 125.09375 160.789062 125.238281 160.566406 C 125.292969 160.480469 125.363281 160.4375 125.425781 160.421875 Z M 126.734375 161.351562 C 126.808594 161.335938 126.886719 161.339844 126.964844 161.386719 C 127.039062 161.433594 127.101562 161.53125 127.121094 161.632812 C 127.125 161.675781 127.132812 161.761719 127.082031 161.832031 C 126.96875 161.984375 126.828125 162.128906 126.699219 162.269531 C 126.410156 162.578125 126.109375 162.894531 125.957031 163.324219 C 125.90625 163.476562 125.792969 163.53125 125.714844 163.542969 C 125.585938 163.566406 125.441406 163.519531 125.363281 163.429688 C 125.300781 163.355469 125.289062 163.265625 125.328125 163.160156 C 125.464844 162.777344 125.625 162.488281 125.84375 162.242188 C 125.929688 162.140625 126.023438 162.046875 126.113281 161.949219 C 126.25 161.8125 126.386719 161.671875 126.503906 161.511719 C 126.558594 161.4375 126.640625 161.375 126.734375 161.351562 Z M 127.582031 162.445312 C 127.699219 162.472656 127.808594 162.578125 127.84375 162.703125 C 127.867188 162.78125 127.875 162.898438 127.765625 163.019531 L 127.65625 163.140625 C 127.507812 163.308594 127.355469 163.480469 127.1875 163.601562 C 127.097656 163.664062 127.027344 163.792969 126.941406 163.953125 L 126.90625 164.023438 C 126.84375 164.132812 126.785156 164.214844 126.714844 164.28125 C 126.546875 164.429688 126.351562 164.367188 126.242188 164.242188 C 126.183594 164.175781 126.148438 164.101562 126.148438 164.03125 C 126.148438 163.949219 126.183594 163.875 126.25 163.8125 C 126.335938 163.738281 126.394531 163.632812 126.445312 163.539062 C 126.460938 163.511719 126.476562 163.484375 126.488281 163.460938 C 126.5625 163.347656 126.644531 163.246094 126.726562 163.140625 L 126.742188 163.117188 C 126.835938 163.007812 126.945312 162.90625 127.0625 162.800781 C 127.152344 162.714844 127.242188 162.628906 127.328125 162.539062 C 127.375 162.488281 127.421875 162.457031 127.472656 162.445312 C 127.507812 162.4375 127.542969 162.4375 127.582031 162.445312 Z M 121.496094 162.011719 C 122.492188 162.640625 123.429688 163.234375 124.347656 163.964844 C 124.871094 164.382812 125.445312 164.820312 126.074219 165.199219 C 126.160156 165.25 126.25 165.296875 126.332031 165.34375 C 126.414062 165.386719 126.496094 165.425781 126.574219 165.472656 C 126.605469 165.492188 126.644531 165.496094 126.679688 165.488281 C 126.679688 165.488281 126.683594 165.488281 126.683594 165.488281 C 126.71875 165.476562 126.753906 165.453125 126.769531 165.417969 C 126.898438 165.195312 127.035156 164.980469 127.175781 164.753906 L 127.195312 164.722656 C 127.320312 164.535156 127.503906 164.332031 127.699219 164.117188 C 128.101562 163.683594 128.554688 163.191406 128.597656 162.644531 C 128.613281 162.488281 128.707031 162.34375 128.789062 162.25 C 128.808594 162.222656 128.824219 162.183594 128.820312 162.144531 C 128.816406 162.105469 128.792969 162.070312 128.765625 162.046875 C 126.90625 160.605469 125.003906 159.527344 122.777344 158.640625 C 122.714844 158.617188 122.644531 158.636719 122.609375 158.695312 C 122.066406 159.511719 121.46875 160.378906 120.78125 161.171875 C 120.726562 161.238281 120.699219 161.296875 120.679688 161.351562 C 120.652344 161.417969 120.675781 161.488281 120.734375 161.527344 C 120.988281 161.691406 121.242188 161.851562 121.496094 162.011719 " fill-opacity="1" fill-rule="nonzero"/></g></g></g><g clip-path="url(#92c815f58c)"><g clip-path="url(#848a9ac479)"><g clip-path="url(#57bbed12c3)"><path fill="#ffffff" d="M 126.6875 159.769531 C 127.578125 160.292969 128.351562 160.890625 129.132812 161.507812 C 129.164062 161.535156 129.207031 161.542969 129.246094 161.535156 C 129.25 161.535156 129.25 161.535156 129.253906 161.535156 C 129.292969 161.527344 129.324219 161.5 129.34375 161.46875 C 129.546875 161.113281 129.75 160.710938 129.789062 160.566406 C 129.828125 160.40625 130.042969 160.328125 130.105469 160.308594 C 130.15625 160.292969 130.191406 160.25 130.203125 160.203125 C 130.214844 160.152344 130.199219 160.101562 130.160156 160.066406 C 129.703125 159.648438 129.226562 159.296875 128.714844 158.925781 L 128.328125 158.648438 C 127.964844 158.375 127.5625 158.203125 127.171875 158.039062 C 126.96875 157.953125 126.765625 157.867188 126.566406 157.769531 C 126.425781 157.699219 126.273438 157.605469 126.105469 157.507812 C 125.511719 157.160156 124.773438 156.726562 124.179688 156.796875 C 124.117188 156.804688 124.066406 156.796875 124.007812 156.773438 C 123.945312 156.75 123.875 156.769531 123.839844 156.828125 C 123.597656 157.183594 123.363281 157.535156 123.132812 157.898438 C 123.109375 157.933594 123.105469 157.976562 123.117188 158.019531 C 123.128906 158.058594 123.160156 158.089844 123.203125 158.105469 C 124.324219 158.5625 125.527344 159.074219 126.6875 159.769531 " fill-opacity="1" fill-rule="nonzero"/></g></g></g><g clip-path="url(#2054ed1b7c)"><g clip-path="url(#16729a079e)"><g clip-path="url(#bab49208c8)"><path fill="#ffffff" d="M 124.546875 156.179688 C 125.34375 156.273438 126.140625 156.707031 126.90625 157.125 C 127.234375 157.304688 127.542969 157.472656 127.839844 157.609375 C 128.332031 157.835938 128.753906 158.144531 129.195312 158.476562 C 129.355469 158.59375 129.515625 158.710938 129.675781 158.824219 C 129.796875 158.910156 129.933594 158.976562 130.0625 159.042969 C 130.234375 159.125 130.394531 159.203125 130.503906 159.316406 C 130.523438 159.335938 130.539062 159.355469 130.554688 159.378906 C 130.574219 159.402344 130.597656 159.429688 130.621094 159.457031 C 130.652344 159.492188 130.703125 159.511719 130.753906 159.5 C 130.757812 159.5 130.757812 159.5 130.757812 159.5 C 130.808594 159.488281 130.84375 159.453125 130.859375 159.410156 C 130.96875 159.117188 131.078125 158.761719 131.183594 158.351562 C 131.199219 158.296875 131.179688 158.238281 131.136719 158.203125 C 130.980469 158.078125 130.832031 157.949219 130.683594 157.816406 C 130.484375 157.644531 130.277344 157.464844 130.058594 157.296875 C 129.890625 157.171875 129.730469 157 129.574219 156.835938 L 129.515625 156.773438 C 129.324219 156.5625 129.109375 156.433594 128.902344 156.3125 C 128.804688 156.25 128.699219 156.191406 128.597656 156.117188 C 128.03125 155.707031 127.390625 155.289062 126.539062 154.976562 C 126.335938 154.902344 126.152344 154.765625 125.957031 154.621094 C 125.898438 154.578125 125.84375 154.539062 125.785156 154.496094 C 125.726562 154.453125 125.644531 154.464844 125.59375 154.515625 C 125.191406 154.976562 124.816406 155.445312 124.449219 155.953125 C 124.417969 155.996094 124.414062 156.046875 124.433594 156.09375 C 124.453125 156.140625 124.496094 156.171875 124.546875 156.179688 " fill-opacity="1" fill-rule="nonzero"/></g></g></g><g clip-path="url(#1d67166644)"><g clip-path="url(#ad230f934e)"><g clip-path="url(#97c1f17ca4)"><path fill="#ffffff" d="M 133.476562 153.132812 C 133.238281 152.875 132.984375 152.609375 132.722656 152.371094 C 132.339844 152.027344 131.855469 151.773438 131.390625 151.53125 C 131.277344 151.472656 131.167969 151.414062 131.058594 151.355469 L 130.773438 151.199219 C 130.359375 150.964844 129.925781 150.726562 129.476562 150.523438 C 129.351562 150.464844 129.226562 150.414062 129.101562 150.367188 C 128.90625 150.289062 128.726562 150.214844 128.558594 150.117188 C 128.503906 150.085938 128.433594 150.09375 128.390625 150.132812 C 127.789062 150.664062 127.019531 151.464844 126.730469 152.277344 C 126.605469 152.660156 126.410156 153.003906 126.203125 153.367188 C 126.140625 153.476562 126.078125 153.582031 126.019531 153.691406 C 126.003906 153.726562 125.996094 153.769531 126.007812 153.804688 C 126.019531 153.839844 126.046875 153.871094 126.078125 153.890625 C 126.226562 153.96875 126.375 154.054688 126.519531 154.136719 C 126.796875 154.296875 127.085938 154.464844 127.398438 154.601562 C 127.683594 154.726562 127.941406 154.910156 128.191406 155.089844 C 128.429688 155.253906 128.675781 155.429688 128.945312 155.558594 C 129.570312 155.855469 130.058594 156.332031 130.574219 156.839844 C 130.796875 157.058594 131.027344 157.28125 131.265625 157.488281 C 131.300781 157.519531 131.347656 157.53125 131.394531 157.519531 C 131.394531 157.519531 131.398438 157.519531 131.398438 157.519531 C 131.445312 157.503906 131.480469 157.46875 131.496094 157.421875 C 131.851562 156.289062 132.59375 155.253906 133.308594 154.25 C 133.464844 154.03125 133.617188 153.816406 133.765625 153.605469 C 133.804688 153.546875 133.800781 153.472656 133.75 153.421875 C 133.660156 153.328125 133.570312 153.230469 133.476562 153.132812 " fill-opacity="1" fill-rule="nonzero"/></g></g></g><g clip-path="url(#cc7f94ae8b)"><g clip-path="url(#2509ff2f0d)"><path fill="#000000" d="M 100.699219 180.753906 L 114.191406 180.753906 L 114.191406 194.246094 L 100.699219 194.246094 Z M 100.699219 180.753906 " fill-opacity="1" fill-rule="nonzero"/></g></g><g clip-path="url(#5b68a0cd10)"><g clip-path="url(#9151c630a0)"><path stroke-linecap="butt" transform="matrix(0.75, 0, 0, 0.75, 100.699539, 180.753972)" fill="none" stroke-linejoin="miter" d="M 8.994366 -0.0000878407 C 4.025615 -0.0000878407 -0.000426583 4.025954 -0.000426583 8.994704 C -0.000426583 13.958246 4.025615 17.984288 8.994366 17.984288 C 13.957908 17.984288 17.98395 13.958246 17.98395 8.994704 C 17.98395 4.025954 13.957908 -0.0000878407 8.994366 -0.0000878407 Z M 8.994366 -0.0000878407 " stroke="#ffffff" stroke-width="4" stroke-opacity="1" stroke-miterlimit="4"/></g></g><g fill="#ffffff" fill-opacity="1"><g transform="translate(181.406109, 195.259453)"><g><path d="M 0.320312 -9.789062 L 0.304688 -9.410156 C 0.304688 -9.183594 0.320312 -8.957031 0.359375 -8.726562 C 0.398438 -8.5 0.511719 -8.253906 0.679688 -7.988281 C 0.851562 -7.726562 0.984375 -7.574219 1.097656 -7.515625 L 1.023438 -7.535156 L 3.730469 -3.769531 C 3.769531 -3.710938 3.863281 -3.636719 3.976562 -3.539062 C 4.089844 -3.445312 4.144531 -3.390625 4.164062 -3.390625 L 4.222656 -2.726562 C 4.222656 -2.652344 4.203125 -2.59375 4.203125 -2.554688 C 4.164062 -2.40625 3.671875 -2.253906 2.726562 -2.0625 L 1.875 -1.894531 C 1.382812 -1.894531 1.003906 -1.855469 0.757812 -1.796875 C 0.53125 -1.722656 0.433594 -1.515625 0.433594 -1.175781 C 0.433594 -0.984375 0.453125 -0.8125 0.511719 -0.664062 C 0.625 -0.246094 1.023438 -0.0390625 1.683594 -0.0390625 L 3.046875 -0.207031 L 4.222656 -0.472656 C 4.523438 -0.550781 5 -0.777344 5.605469 -1.15625 C 6.210938 -1.535156 6.570312 -1.835938 6.683594 -2.0625 C 6.757812 -2.253906 6.816406 -2.5 6.816406 -2.839844 C 6.816406 -3.238281 6.757812 -3.671875 6.644531 -4.164062 C 6.570312 -4.507812 6.417969 -4.902344 6.152344 -5.378906 L 4.164062 -7.554688 L 4.089844 -7.648438 C 3.445312 -8.558594 3.105469 -9.164062 3.046875 -9.449219 L 3.046875 -9.503906 C 3.046875 -9.617188 3.125 -9.75 3.3125 -9.941406 C 3.351562 -9.957031 3.390625 -10.015625 3.445312 -10.109375 L 4.144531 -10.394531 C 4.375 -10.46875 4.507812 -10.527344 4.523438 -10.546875 C 4.601562 -10.566406 5 -10.582031 5.71875 -10.582031 L 6.324219 -10.582031 C 6.589844 -10.582031 6.757812 -10.621094 6.871094 -10.734375 L 6.871094 -10.753906 C 7.117188 -11.058594 7.269531 -11.285156 7.328125 -11.4375 C 7.328125 -11.566406 7.234375 -11.8125 7.082031 -12.175781 C 6.929688 -12.535156 6.777344 -12.816406 6.664062 -13.007812 L 6.664062 -12.988281 C 6.550781 -13.140625 6.191406 -13.234375 5.546875 -13.234375 C 5.054688 -13.234375 4.523438 -13.195312 3.996094 -13.160156 L 2.726562 -12.628906 L 1.796875 -12.023438 L 1.042969 -11.265625 C 0.832031 -11.113281 0.585938 -10.621094 0.320312 -9.789062 Z M 0.320312 -9.789062 "/></g></g></g><g fill="#ffffff" fill-opacity="1"><g transform="translate(188.97634, 195.259453)"><g><path d="M 2.519531 -6.703125 L 2.535156 -7.195312 C 2.535156 -7.515625 2.554688 -7.894531 2.613281 -8.3125 C 2.652344 -8.726562 2.726562 -9.011719 2.820312 -9.203125 C 2.914062 -9.449219 3.085938 -9.730469 3.351562 -10.074219 C 3.617188 -10.394531 3.804688 -10.621094 3.957031 -10.734375 C 4.03125 -10.792969 4.277344 -10.886719 4.734375 -11.019531 C 5.1875 -11.152344 5.472656 -11.226562 5.585938 -11.246094 C 5.625 -11.246094 6.34375 -11.265625 7.707031 -11.265625 C 7.820312 -11.265625 7.914062 -11.359375 8.027344 -11.566406 L 8.179688 -11.585938 C 8.253906 -11.605469 8.347656 -11.644531 8.445312 -11.71875 C 8.539062 -11.796875 8.597656 -11.871094 8.597656 -11.984375 C 8.597656 -12.210938 8.40625 -12.535156 8.046875 -12.929688 L 7.839844 -13.027344 C 7.6875 -13.101562 7.496094 -13.160156 7.269531 -13.234375 C 7.042969 -13.292969 6.855469 -13.328125 6.703125 -13.328125 L 6.511719 -13.328125 C 4.941406 -13.234375 3.824219 -12.96875 3.179688 -12.535156 C 2.5 -12.078125 2.042969 -11.683594 1.816406 -11.339844 L 1.703125 -11.132812 C 1.628906 -11 1.535156 -10.828125 1.4375 -10.601562 C 1.324219 -10.375 1.25 -10.167969 1.210938 -9.996094 C 0.699219 -8.480469 0.453125 -7.234375 0.453125 -6.265625 C 0.453125 -6.058594 0.453125 -5.925781 0.492188 -5.886719 L 0.53125 -5.1875 C 0.566406 -4.734375 0.664062 -4.203125 0.8125 -3.597656 C 0.964844 -2.992188 1.15625 -2.535156 1.421875 -2.253906 C 1.796875 -1.796875 2.273438 -1.382812 2.839844 -1.023438 C 3.40625 -0.664062 3.957031 -0.417969 4.46875 -0.304688 C 5.09375 -0.1875 5.566406 -0.132812 5.871094 -0.132812 L 6.625 -0.226562 L 7.175781 -0.1875 C 7.402344 -0.1875 7.535156 -0.226562 7.609375 -0.304688 C 7.667969 -0.378906 7.761719 -0.566406 7.914062 -0.910156 C 8.066406 -1.230469 8.140625 -1.421875 8.140625 -1.457031 C 8.140625 -1.550781 8.101562 -1.722656 8.027344 -1.949219 L 8.066406 -2.007812 C 8.101562 -2.042969 8.121094 -2.082031 8.160156 -2.160156 C 8.199219 -2.214844 8.21875 -2.273438 8.21875 -2.308594 C 8.21875 -2.386719 8.140625 -2.421875 8.007812 -2.421875 C 7.894531 -2.421875 7.761719 -2.386719 7.59375 -2.347656 C 6.929688 -2.195312 6.4375 -2.140625 6.132812 -2.140625 C 4.242188 -2.195312 3.179688 -2.800781 2.914062 -3.957031 C 2.652344 -5.09375 2.519531 -6 2.519531 -6.703125 Z M 2.519531 -6.703125 "/></g></g></g><g fill="#ffffff" fill-opacity="1"><g transform="translate(197.417137, 195.259453)"><g><path d="M 1.042969 -12.722656 L 0.984375 -12.667969 L 0.890625 -11.566406 C 0.890625 -11.359375 0.945312 -11.152344 1.078125 -10.960938 L 1.667969 -10.925781 L 2.554688 -10.925781 L 2.328125 -8.253906 L 2.328125 -2.519531 C 2.328125 -2.421875 2.175781 -2.308594 1.894531 -2.160156 L 1.914062 -2.175781 L 1.289062 -2.082031 C 1.191406 -2.082031 1.097656 -1.929688 1.003906 -1.628906 C 0.890625 -1.324219 0.851562 -1.078125 0.851562 -0.890625 C 0.851562 -0.566406 1.097656 -0.320312 1.609375 -0.171875 L 2.667969 -0.171875 L 5.394531 -0.566406 L 5.699219 -0.566406 L 5.832031 -0.625 C 5.925781 -0.664062 6.019531 -0.777344 6.132812 -0.964844 C 6.230469 -1.15625 6.285156 -1.402344 6.285156 -1.703125 C 6.285156 -2.007812 6.132812 -2.234375 5.871094 -2.367188 C 5.605469 -2.5 5.300781 -2.574219 4.960938 -2.574219 C 4.808594 -2.574219 4.695312 -2.554688 4.601562 -2.535156 L 4.449219 -2.59375 C 4.390625 -2.59375 4.375 -2.859375 4.375 -3.351562 L 4.375 -3.996094 C 4.375 -4.070312 4.355469 -4.144531 4.335938 -4.183594 L 4.601562 -9.410156 C 4.601562 -9.597656 4.582031 -9.84375 4.5625 -10.1875 L 4.507812 -11 L 4.601562 -11.09375 C 4.714844 -11.09375 4.902344 -11.09375 5.132812 -11.132812 C 5.359375 -11.152344 5.546875 -11.171875 5.660156 -11.191406 L 6.097656 -11.191406 L 6.132812 -11.285156 C 6.132812 -11.359375 6.152344 -11.472656 6.171875 -11.625 C 6.191406 -11.777344 6.210938 -11.964844 6.210938 -12.15625 C 6.210938 -12.457031 6.078125 -12.683594 5.851562 -12.835938 C 5.605469 -12.988281 5.300781 -13.0625 4.960938 -13.0625 C 4.621094 -13.0625 4.128906 -12.96875 3.484375 -12.78125 L 1.875 -12.78125 L 1.667969 -12.648438 L 1.648438 -12.628906 C 1.628906 -12.609375 1.609375 -12.609375 1.609375 -12.609375 C 1.457031 -12.722656 1.324219 -12.800781 1.230469 -12.800781 C 1.191406 -12.800781 1.117188 -12.761719 1.042969 -12.722656 Z M 1.042969 -12.722656 "/></g></g></g><g fill="#ffffff" fill-opacity="1"><g transform="translate(204.192487, 195.259453)"><g><path d="M 2.933594 -7.855469 L 2.59375 -7.894531 L 2.441406 -9.089844 C 2.441406 -9.277344 2.441406 -9.5625 2.480469 -9.941406 C 2.5 -10.320312 2.519531 -10.621094 2.535156 -10.828125 L 2.859375 -11 L 4.582031 -11.058594 L 6.644531 -10.90625 L 7.101562 -11 L 7.441406 -11.113281 L 7.496094 -11.207031 C 7.535156 -11.265625 7.554688 -11.320312 7.554688 -11.378906 C 7.554688 -11.4375 7.535156 -11.492188 7.480469 -11.53125 C 7.441406 -11.53125 7.363281 -11.929688 7.25 -12.722656 L 7.042969 -13.082031 L 4.886719 -13.195312 L 3.445312 -12.96875 C 3.292969 -12.96875 3.085938 -12.988281 2.820312 -13.027344 C 2.554688 -13.046875 2.347656 -13.0625 2.234375 -13.0625 L 1.15625 -13.175781 L 0.871094 -12.894531 L 0.890625 -12.894531 L 0.511719 -12.554688 L 0.417969 -12.382812 L 0.453125 -10.414062 L 0.417969 -8.027344 L 0.472656 -6.550781 L 0.304688 -3.730469 L 0.246094 -1.402344 L 0.433594 -0.359375 L 1.15625 -0.265625 L 2.289062 -0.113281 L 4.714844 0.113281 L 5.925781 0.0585938 L 6.117188 -0.09375 L 6.417969 -0.53125 L 6.511719 -0.871094 L 6.457031 -1.683594 L 6.324219 -1.78125 C 6.230469 -1.835938 6.058594 -1.894531 5.792969 -1.96875 C 5.527344 -2.027344 5.207031 -2.0625 4.867188 -2.0625 L 3.332031 -2.160156 L 2.367188 -2.0625 C 2.367188 -2.347656 2.347656 -2.765625 2.328125 -3.3125 C 2.289062 -3.84375 2.273438 -4.277344 2.273438 -4.582031 C 2.273438 -4.714844 2.308594 -4.941406 2.367188 -5.246094 L 2.480469 -5.925781 L 3.769531 -5.738281 L 4.507812 -5.640625 L 4.789062 -5.738281 L 5.113281 -5.886719 L 5.113281 -5.871094 C 5.167969 -5.871094 5.226562 -5.871094 5.28125 -5.90625 L 5.339844 -5.90625 C 5.359375 -5.90625 5.394531 -5.90625 5.433594 -5.925781 C 5.472656 -5.945312 5.492188 -5.984375 5.527344 -6.019531 L 5.546875 -6.039062 C 5.625 -6.078125 5.699219 -6.117188 5.792969 -6.152344 C 5.90625 -6.171875 5.964844 -6.324219 5.925781 -6.589844 L 5.871094 -6.644531 C 5.8125 -6.683594 5.753906 -6.742188 5.71875 -6.816406 C 5.679688 -6.890625 5.660156 -6.988281 5.660156 -7.082031 C 5.660156 -7.308594 5.585938 -7.535156 5.472656 -7.742188 C 5.339844 -7.953125 5.167969 -8.046875 4.941406 -8.027344 C 4.65625 -7.953125 4.277344 -7.914062 3.785156 -7.914062 Z M 2.933594 -7.855469 "/></g></g></g><g fill="#ffffff" fill-opacity="1"><g transform="translate(211.895192, 195.259453)"><g><path d="M 1.191406 -13.046875 L 0.925781 -12.988281 C 0.738281 -12.929688 0.566406 -12.835938 0.417969 -12.703125 C 0.246094 -12.554688 0.171875 -12.402344 0.207031 -12.230469 C 0.246094 -11.929688 0.265625 -11.265625 0.265625 -10.261719 C 0.265625 -9.617188 0.246094 -8.992188 0.246094 -8.386719 L 0.550781 -2.914062 L 0.984375 -0.171875 L 1.570312 -0.171875 L 2.160156 -0.285156 L 2.6875 -0.433594 L 2.820312 -0.984375 L 2.765625 -1.550781 C 2.726562 -1.796875 2.726562 -1.988281 2.726562 -2.101562 L 2.574219 -5.625 C 2.535156 -5.753906 2.5 -5.984375 2.441406 -6.285156 C 2.367188 -6.589844 2.328125 -6.816406 2.308594 -6.988281 C 2.308594 -7.101562 2.308594 -7.269531 2.328125 -7.515625 C 2.328125 -7.761719 2.347656 -7.953125 2.347656 -8.085938 L 2.367188 -8.085938 L 3.882812 -4.335938 L 5.507812 -0.945312 L 5.660156 -0.777344 C 5.753906 -0.664062 5.871094 -0.53125 6.019531 -0.398438 C 6.171875 -0.265625 6.285156 -0.1875 6.398438 -0.152344 C 6.417969 -0.09375 6.570312 -0.0742188 6.855469 -0.113281 C 7.136719 -0.152344 7.347656 -0.171875 7.460938 -0.1875 C 7.574219 -0.207031 7.6875 -0.226562 7.761719 -0.246094 L 8.347656 -0.644531 L 8.539062 -0.945312 L 8.613281 -1.117188 C 8.652344 -1.230469 8.691406 -1.324219 8.691406 -1.4375 C 8.691406 -1.535156 8.652344 -1.589844 8.578125 -1.609375 C 8.5 -1.609375 8.480469 -1.914062 8.519531 -2.554688 C 8.519531 -3.179688 8.5 -4.128906 8.5 -5.394531 C 8.480469 -6.664062 8.480469 -7.609375 8.480469 -8.253906 L 8.558594 -12.96875 L 8.367188 -13.0625 C 8.253906 -13.121094 8.085938 -13.175781 7.855469 -13.214844 C 7.628906 -13.253906 7.421875 -13.273438 7.234375 -13.253906 C 6.796875 -13.175781 6.457031 -13.082031 6.210938 -12.96875 C 5.964844 -12.855469 5.851562 -12.667969 5.871094 -12.402344 C 5.90625 -12.003906 6.019531 -11.664062 6.246094 -11.398438 L 6.285156 -10.621094 L 6.53125 -7.933594 C 6.53125 -7.402344 6.53125 -6.609375 6.550781 -5.585938 C 6.550781 -4.542969 6.570312 -3.769531 6.570312 -3.257812 L 5.472656 -5.945312 L 3.425781 -10.433594 L 2.121094 -12.628906 L 1.96875 -12.761719 C 1.875 -12.835938 1.742188 -12.914062 1.589844 -12.988281 C 1.4375 -13.0625 1.304688 -13.082031 1.191406 -13.046875 Z M 1.191406 -13.046875 "/></g></g></g><g fill="#ffffff" fill-opacity="1"><g transform="translate(220.998384, 195.259453)"><g><path d="M 2.519531 -6.703125 L 2.535156 -7.195312 C 2.535156 -7.515625 2.554688 -7.894531 2.613281 -8.3125 C 2.652344 -8.726562 2.726562 -9.011719 2.820312 -9.203125 C 2.914062 -9.449219 3.085938 -9.730469 3.351562 -10.074219 C 3.617188 -10.394531 3.804688 -10.621094 3.957031 -10.734375 C 4.03125 -10.792969 4.277344 -10.886719 4.734375 -11.019531 C 5.1875 -11.152344 5.472656 -11.226562 5.585938 -11.246094 C 5.625 -11.246094 6.34375 -11.265625 7.707031 -11.265625 C 7.820312 -11.265625 7.914062 -11.359375 8.027344 -11.566406 L 8.179688 -11.585938 C 8.253906 -11.605469 8.347656 -11.644531 8.445312 -11.71875 C 8.539062 -11.796875 8.597656 -11.871094 8.597656 -11.984375 C 8.597656 -12.210938 8.40625 -12.535156 8.046875 -12.929688 L 7.839844 -13.027344 C 7.6875 -13.101562 7.496094 -13.160156 7.269531 -13.234375 C 7.042969 -13.292969 6.855469 -13.328125 6.703125 -13.328125 L 6.511719 -13.328125 C 4.941406 -13.234375 3.824219 -12.96875 3.179688 -12.535156 C 2.5 -12.078125 2.042969 -11.683594 1.816406 -11.339844 L 1.703125 -11.132812 C 1.628906 -11 1.535156 -10.828125 1.4375 -10.601562 C 1.324219 -10.375 1.25 -10.167969 1.210938 -9.996094 C 0.699219 -8.480469 0.453125 -7.234375 0.453125 -6.265625 C 0.453125 -6.058594 0.453125 -5.925781 0.492188 -5.886719 L 0.53125 -5.1875 C 0.566406 -4.734375 0.664062 -4.203125 0.8125 -3.597656 C 0.964844 -2.992188 1.15625 -2.535156 1.421875 -2.253906 C 1.796875 -1.796875 2.273438 -1.382812 2.839844 -1.023438 C 3.40625 -0.664062 3.957031 -0.417969 4.46875 -0.304688 C 5.09375 -0.1875 5.566406 -0.132812 5.871094 -0.132812 L 6.625 -0.226562 L 7.175781 -0.1875 C 7.402344 -0.1875 7.535156 -0.226562 7.609375 -0.304688 C 7.667969 -0.378906 7.761719 -0.566406 7.914062 -0.910156 C 8.066406 -1.230469 8.140625 -1.421875 8.140625 -1.457031 C 8.140625 -1.550781 8.101562 -1.722656 8.027344 -1.949219 L 8.066406 -2.007812 C 8.101562 -2.042969 8.121094 -2.082031 8.160156 -2.160156 C 8.199219 -2.214844 8.21875 -2.273438 8.21875 -2.308594 C 8.21875 -2.386719 8.140625 -2.421875 8.007812 -2.421875 C 7.894531 -2.421875 7.761719 -2.386719 7.59375 -2.347656 C 6.929688 -2.195312 6.4375 -2.140625 6.132812 -2.140625 C 4.242188 -2.195312 3.179688 -2.800781 2.914062 -3.957031 C 2.652344 -5.09375 2.519531 -6 2.519531 -6.703125 Z M 2.519531 -6.703125 "/></g></g></g><g fill="#ffffff" fill-opacity="1"><g transform="translate(229.439181, 195.259453)"><g><path d="M 2.933594 -7.855469 L 2.59375 -7.894531 L 2.441406 -9.089844 C 2.441406 -9.277344 2.441406 -9.5625 2.480469 -9.941406 C 2.5 -10.320312 2.519531 -10.621094 2.535156 -10.828125 L 2.859375 -11 L 4.582031 -11.058594 L 6.644531 -10.90625 L 7.101562 -11 L 7.441406 -11.113281 L 7.496094 -11.207031 C 7.535156 -11.265625 7.554688 -11.320312 7.554688 -11.378906 C 7.554688 -11.4375 7.535156 -11.492188 7.480469 -11.53125 C 7.441406 -11.53125 7.363281 -11.929688 7.25 -12.722656 L 7.042969 -13.082031 L 4.886719 -13.195312 L 3.445312 -12.96875 C 3.292969 -12.96875 3.085938 -12.988281 2.820312 -13.027344 C 2.554688 -13.046875 2.347656 -13.0625 2.234375 -13.0625 L 1.15625 -13.175781 L 0.871094 -12.894531 L 0.890625 -12.894531 L 0.511719 -12.554688 L 0.417969 -12.382812 L 0.453125 -10.414062 L 0.417969 -8.027344 L 0.472656 -6.550781 L 0.304688 -3.730469 L 0.246094 -1.402344 L 0.433594 -0.359375 L 1.15625 -0.265625 L 2.289062 -0.113281 L 4.714844 0.113281 L 5.925781 0.0585938 L 6.117188 -0.09375 L 6.417969 -0.53125 L 6.511719 -0.871094 L 6.457031 -1.683594 L 6.324219 -1.78125 C 6.230469 -1.835938 6.058594 -1.894531 5.792969 -1.96875 C 5.527344 -2.027344 5.207031 -2.0625 4.867188 -2.0625 L 3.332031 -2.160156 L 2.367188 -2.0625 C 2.367188 -2.347656 2.347656 -2.765625 2.328125 -3.3125 C 2.289062 -3.84375 2.273438 -4.277344 2.273438 -4.582031 C 2.273438 -4.714844 2.308594 -4.941406 2.367188 -5.246094 L 2.480469 -5.925781 L 3.769531 -5.738281 L 4.507812 -5.640625 L 4.789062 -5.738281 L 5.113281 -5.886719 L 5.113281 -5.871094 C 5.167969 -5.871094 5.226562 -5.871094 5.28125 -5.90625 L 5.339844 -5.90625 C 5.359375 -5.90625 5.394531 -5.90625 5.433594 -5.925781 C 5.472656 -5.945312 5.492188 -5.984375 5.527344 -6.019531 L 5.546875 -6.039062 C 5.625 -6.078125 5.699219 -6.117188 5.792969 -6.152344 C 5.90625 -6.171875 5.964844 -6.324219 5.925781 -6.589844 L 5.871094 -6.644531 C 5.8125 -6.683594 5.753906 -6.742188 5.71875 -6.816406 C 5.679688 -6.890625 5.660156 -6.988281 5.660156 -7.082031 C 5.660156 -7.308594 5.585938 -7.535156 5.472656 -7.742188 C 5.339844 -7.953125 5.167969 -8.046875 4.941406 -8.027344 C 4.65625 -7.953125 4.277344 -7.914062 3.785156 -7.914062 Z M 2.933594 -7.855469 "/></g></g></g><g fill="#ffffff" fill-opacity="1"><g transform="translate(237.141885, 195.259453)"><g/></g></g><g fill="#ffffff" fill-opacity="1"><g transform="translate(241.532619, 195.259453)"><g><path d="M 1.023438 -12.761719 L 0.925781 -12.761719 L 0.757812 -7.761719 L 0.378906 -5.1875 C 0.339844 -4.734375 0.304688 -4.070312 0.246094 -3.199219 C 0.171875 -2.308594 0.132812 -1.667969 0.113281 -1.25 L 0.0195312 -0.777344 L 0.246094 -0.472656 L 0.472656 -0.398438 L 0.910156 -0.359375 L 1.34375 -0.492188 C 1.34375 -0.492188 1.457031 -0.550781 1.667969 -0.664062 L 2.0625 -2.121094 C 2.042969 -2.535156 2.027344 -3.179688 1.988281 -4.050781 C 1.949219 -4.921875 1.914062 -5.566406 1.914062 -6 L 2.160156 -7.496094 C 2.160156 -7.726562 2.140625 -8.101562 2.121094 -8.597656 C 2.082031 -9.089844 2.0625 -9.449219 2.0625 -9.710938 L 2.042969 -9.84375 C 2.042969 -9.808594 2.0625 -9.769531 2.082031 -9.730469 C 2.101562 -9.675781 2.121094 -9.636719 2.140625 -9.617188 L 2.214844 -9.449219 L 2.914062 -6.304688 L 3.066406 -5.433594 C 3.179688 -4.847656 3.277344 -4.261719 3.390625 -3.691406 C 3.503906 -3.105469 3.558594 -2.820312 3.558594 -2.839844 L 3.558594 -2.273438 C 3.558594 -2.082031 3.539062 -1.894531 3.523438 -1.722656 C 3.523438 -1.421875 3.558594 -1.15625 3.671875 -0.890625 C 3.710938 -0.699219 3.84375 -0.53125 4.03125 -0.359375 C 4.222656 -0.1875 4.355469 -0.113281 4.449219 -0.113281 C 5.015625 -0.113281 5.414062 -0.132812 5.605469 -0.207031 C 5.753906 -0.246094 5.832031 -0.359375 5.832031 -0.511719 L 5.871094 -0.679688 C 5.871094 -0.71875 5.886719 -0.777344 5.90625 -0.871094 C 5.90625 -0.945312 5.925781 -1.023438 5.945312 -1.078125 L 5.964844 -1.15625 L 7.308594 -7.214844 L 7.328125 -7.6875 L 7.328125 -3.3125 L 7.347656 -0.339844 C 7.347656 -0.246094 7.421875 -0.152344 7.574219 -0.0742188 C 7.726562 0 7.894531 0.0390625 8.085938 0.0390625 C 8.199219 0.0390625 8.273438 0.0390625 8.3125 0.0195312 C 8.691406 -0.0585938 9.011719 -0.246094 9.257812 -0.53125 C 9.335938 -0.625 9.371094 -0.925781 9.371094 -1.457031 C 9.371094 -1.609375 9.351562 -1.816406 9.351562 -2.082031 C 9.335938 -2.328125 9.335938 -2.460938 9.335938 -2.480469 L 9.464844 -3.523438 L 9.464844 -7.25 L 9.617188 -9.523438 L 9.65625 -11.152344 C 9.65625 -11.207031 9.636719 -11.320312 9.617188 -11.511719 C 9.5625 -11.757812 9.542969 -11.945312 9.542969 -12.058594 L 9.542969 -12.15625 C 9.542969 -12.210938 9.5625 -12.324219 9.5625 -12.496094 C 9.5625 -12.800781 9.429688 -13.0625 9.203125 -13.292969 C 8.9375 -13.519531 8.613281 -13.632812 8.21875 -13.632812 C 8.179688 -13.632812 8.140625 -13.613281 8.101562 -13.613281 C 8.066406 -13.613281 8.027344 -13.613281 8.027344 -13.613281 C 7.988281 -13.613281 7.933594 -13.59375 7.855469 -13.554688 C 7.78125 -13.519531 7.726562 -13.460938 7.667969 -13.421875 C 7.59375 -13.367188 7.535156 -13.308594 7.480469 -13.273438 C 7.421875 -13.214844 7.382812 -13.195312 7.382812 -13.195312 L 6.4375 -12.855469 C 6.4375 -12.816406 6.417969 -12.761719 6.417969 -12.667969 C 6.417969 -12.570312 6.417969 -12.515625 6.417969 -12.476562 L 5.792969 -8.613281 L 5.339844 -6.949219 L 4.867188 -4.675781 L 4.277344 -7.820312 L 3.898438 -10.074219 L 3.691406 -10.90625 C 3.578125 -11.171875 3.484375 -11.511719 3.390625 -11.890625 C 3.292969 -12.15625 3.179688 -12.421875 3.03125 -12.667969 C 2.878906 -12.894531 2.765625 -13.0625 2.667969 -13.160156 C 2.554688 -13.253906 2.5 -13.308594 2.480469 -13.308594 C 2.328125 -13.386719 2.007812 -13.421875 1.515625 -13.421875 L 1.34375 -13.421875 C 1.117188 -13.386719 1.023438 -13.175781 1.023438 -12.761719 Z M 1.023438 -12.761719 "/></g></g></g><g fill="#ffffff" fill-opacity="1"><g transform="translate(252.036308, 195.259453)"><g><path d="M 10.46875 -0.304688 L 9.863281 -3.617188 L 9.410156 -4.753906 L 9.410156 -4.734375 L 8.558594 -8.726562 L 8.234375 -9.523438 L 8.085938 -9.882812 L 7.136719 -12.667969 L 6.363281 -13.914062 L 6.246094 -13.953125 C 6.171875 -13.972656 6.058594 -13.992188 5.886719 -14.03125 C 5.699219 -14.046875 5.507812 -14.066406 5.28125 -14.066406 C 5.132812 -14.066406 4.960938 -13.992188 4.769531 -13.878906 C 4.5625 -13.765625 4.449219 -13.632812 4.449219 -13.5 C 4.429688 -13.347656 4.316406 -12.855469 4.109375 -12.058594 L 4.109375 -12.078125 L 2.441406 -8.121094 L 0.472656 -1.96875 C 0.511719 -1.835938 0.453125 -1.550781 0.339844 -1.136719 C 0.339844 -1.117188 0.320312 -1.097656 0.320312 -1.058594 C 0.304688 -1.023438 0.304688 -0.984375 0.304688 -0.984375 C 0.265625 -0.757812 0.226562 -0.664062 0.226562 -0.664062 C 0.226562 -0.53125 0.378906 -0.207031 0.644531 0.285156 L 1.269531 0.339844 C 1.457031 0.339844 1.722656 0.207031 2.042969 -0.0742188 C 2.234375 -1.382812 2.367188 -2.160156 2.40625 -2.421875 C 2.480469 -2.6875 2.632812 -3.105469 2.820312 -3.671875 L 3.84375 -3.804688 L 5.378906 -3.636719 L 7.609375 -3.636719 L 7.875 -2.027344 L 8.292969 -0.246094 L 8.367188 -0.0742188 C 8.425781 0.0390625 8.519531 0.132812 8.652344 0.226562 C 8.785156 0.339844 8.9375 0.378906 9.105469 0.378906 C 9.21875 0.378906 9.296875 0.378906 9.335938 0.359375 C 9.695312 0.207031 10.074219 0 10.46875 -0.304688 Z M 6.796875 -5.886719 L 6.742188 -5.851562 L 6.285156 -5.8125 L 4.636719 -5.8125 L 4.296875 -5.738281 C 4.183594 -5.699219 4.070312 -5.679688 3.917969 -5.660156 L 3.785156 -5.738281 L 4.128906 -6.476562 L 4.753906 -9.617188 L 4.753906 -9.597656 L 5.09375 -10.28125 L 5.359375 -11.019531 L 5.527344 -10.621094 L 5.527344 -10.640625 C 6.058594 -8.671875 6.417969 -7.347656 6.644531 -6.644531 C 6.644531 -6.550781 6.683594 -6.417969 6.722656 -6.246094 C 6.757812 -6.078125 6.777344 -5.964844 6.796875 -5.886719 Z M 6.796875 -5.886719 "/></g></g></g><g fill="#ffffff" fill-opacity="1"><g transform="translate(262.767103, 195.259453)"><g><path d="M -0.171875 -12.855469 L 0.132812 -11.945312 L 0.738281 -9.882812 L 1.003906 -8.632812 L 2.160156 -5.394531 L 3.523438 -1.761719 C 3.636719 -1.421875 3.84375 -1.042969 4.144531 -0.625 C 4.449219 -0.207031 4.695312 0.0195312 4.886719 0.0195312 C 5.261719 0.0195312 5.640625 -0.132812 6.019531 -0.472656 C 6.191406 -0.625 6.378906 -0.890625 6.589844 -1.304688 C 6.777344 -1.703125 6.929688 -2.027344 7.003906 -2.273438 L 7.042969 -2.328125 L 7.894531 -4.621094 L 8.253906 -5.527344 C 8.253906 -5.546875 8.253906 -5.585938 8.292969 -5.640625 C 8.558594 -6.34375 8.726562 -6.835938 8.804688 -7.117188 L 8.917969 -7.6875 C 8.992188 -7.988281 9.03125 -8.21875 9.070312 -8.367188 C 9.070312 -8.40625 9.089844 -8.480469 9.125 -8.597656 C 9.144531 -8.710938 9.164062 -8.785156 9.164062 -8.84375 L 9.351562 -9.769531 L 9.582031 -11 L 9.675781 -11.585938 L 9.769531 -11.664062 C 9.808594 -11.71875 9.863281 -11.796875 9.921875 -11.910156 C 9.957031 -12.003906 9.996094 -12.097656 9.996094 -12.175781 L 9.996094 -12.289062 C 9.941406 -12.554688 9.710938 -12.703125 9.296875 -12.703125 C 9.277344 -12.703125 9.257812 -12.683594 9.238281 -12.683594 L 9.203125 -12.683594 C 9.144531 -12.683594 9.125 -12.667969 9.125 -12.667969 C 8.84375 -12.894531 8.597656 -13.007812 8.40625 -13.046875 C 8.179688 -13.046875 7.953125 -12.929688 7.707031 -12.722656 C 7.460938 -12.496094 7.347656 -12.34375 7.347656 -12.25 C 7.347656 -11.683594 7.289062 -11.265625 7.214844 -10.980469 L 7.15625 -10.753906 C 7.117188 -10.601562 7.042969 -10.335938 6.96875 -9.976562 C 6.871094 -9.597656 6.796875 -9.277344 6.742188 -9.011719 C 6.664062 -8.726562 6.644531 -8.558594 6.644531 -8.519531 C 6.644531 -8.445312 6.570312 -8.121094 6.457031 -7.59375 C 6.324219 -7.0625 6.191406 -6.492188 6.058594 -5.925781 C 5.90625 -5.339844 5.832031 -5 5.832031 -4.902344 L 5.246094 -3.011719 C 5.148438 -2.613281 5.074219 -2.347656 5.035156 -2.234375 C 4.980469 -2.386719 4.902344 -2.707031 4.808594 -3.199219 C 4.714844 -3.671875 4.675781 -3.9375 4.675781 -4.015625 C 4.675781 -4.050781 4.601562 -4.316406 4.46875 -4.769531 C 4.335938 -5.226562 4.203125 -5.679688 4.070312 -6.117188 C 3.917969 -6.550781 3.863281 -6.757812 3.863281 -6.757812 L 2.992188 -9.523438 C 2.933594 -9.789062 2.878906 -10.035156 2.839844 -10.261719 L 2.667969 -11.113281 L 2.652344 -11.285156 C 2.632812 -11.378906 2.613281 -11.492188 2.574219 -11.605469 C 2.535156 -11.71875 2.519531 -11.777344 2.5 -11.796875 C 2.480469 -11.796875 2.441406 -11.851562 2.386719 -11.945312 C 2.308594 -12.023438 2.289062 -12.078125 2.289062 -12.117188 L 2.289062 -12.210938 C 2.289062 -12.210938 2.289062 -12.230469 2.308594 -12.269531 L 2.308594 -12.308594 C 2.460938 -12.496094 2.535156 -12.683594 2.535156 -12.875 C 2.535156 -13.140625 2.234375 -13.292969 1.648438 -13.292969 C 1.609375 -13.292969 1.550781 -13.308594 1.476562 -13.347656 L 1.289062 -13.347656 L 0.925781 -13.234375 C 0.910156 -13.214844 0.871094 -13.214844 0.832031 -13.214844 C 0.796875 -13.214844 0.796875 -13.214844 0.796875 -13.234375 C 0.738281 -13.273438 0.644531 -13.308594 0.511719 -13.308594 L 0.453125 -13.292969 C 0.359375 -13.273438 0.226562 -13.195312 0.0742188 -13.082031 C -0.09375 -12.96875 -0.171875 -12.894531 -0.171875 -12.855469 Z M -0.171875 -12.855469 "/></g></g></g><g fill="#ffffff" fill-opacity="1"><g transform="translate(272.721951, 195.259453)"><g><path d="M 2.933594 -7.855469 L 2.59375 -7.894531 L 2.441406 -9.089844 C 2.441406 -9.277344 2.441406 -9.5625 2.480469 -9.941406 C 2.5 -10.320312 2.519531 -10.621094 2.535156 -10.828125 L 2.859375 -11 L 4.582031 -11.058594 L 6.644531 -10.90625 L 7.101562 -11 L 7.441406 -11.113281 L 7.496094 -11.207031 C 7.535156 -11.265625 7.554688 -11.320312 7.554688 -11.378906 C 7.554688 -11.4375 7.535156 -11.492188 7.480469 -11.53125 C 7.441406 -11.53125 7.363281 -11.929688 7.25 -12.722656 L 7.042969 -13.082031 L 4.886719 -13.195312 L 3.445312 -12.96875 C 3.292969 -12.96875 3.085938 -12.988281 2.820312 -13.027344 C 2.554688 -13.046875 2.347656 -13.0625 2.234375 -13.0625 L 1.15625 -13.175781 L 0.871094 -12.894531 L 0.890625 -12.894531 L 0.511719 -12.554688 L 0.417969 -12.382812 L 0.453125 -10.414062 L 0.417969 -8.027344 L 0.472656 -6.550781 L 0.304688 -3.730469 L 0.246094 -1.402344 L 0.433594 -0.359375 L 1.15625 -0.265625 L 2.289062 -0.113281 L 4.714844 0.113281 L 5.925781 0.0585938 L 6.117188 -0.09375 L 6.417969 -0.53125 L 6.511719 -0.871094 L 6.457031 -1.683594 L 6.324219 -1.78125 C 6.230469 -1.835938 6.058594 -1.894531 5.792969 -1.96875 C 5.527344 -2.027344 5.207031 -2.0625 4.867188 -2.0625 L 3.332031 -2.160156 L 2.367188 -2.0625 C 2.367188 -2.347656 2.347656 -2.765625 2.328125 -3.3125 C 2.289062 -3.84375 2.273438 -4.277344 2.273438 -4.582031 C 2.273438 -4.714844 2.308594 -4.941406 2.367188 -5.246094 L 2.480469 -5.925781 L 3.769531 -5.738281 L 4.507812 -5.640625 L 4.789062 -5.738281 L 5.113281 -5.886719 L 5.113281 -5.871094 C 5.167969 -5.871094 5.226562 -5.871094 5.28125 -5.90625 L 5.339844 -5.90625 C 5.359375 -5.90625 5.394531 -5.90625 5.433594 -5.925781 C 5.472656 -5.945312 5.492188 -5.984375 5.527344 -6.019531 L 5.546875 -6.039062 C 5.625 -6.078125 5.699219 -6.117188 5.792969 -6.152344 C 5.90625 -6.171875 5.964844 -6.324219 5.925781 -6.589844 L 5.871094 -6.644531 C 5.8125 -6.683594 5.753906 -6.742188 5.71875 -6.816406 C 5.679688 -6.890625 5.660156 -6.988281 5.660156 -7.082031 C 5.660156 -7.308594 5.585938 -7.535156 5.472656 -7.742188 C 5.339844 -7.953125 5.167969 -8.046875 4.941406 -8.027344 C 4.65625 -7.953125 4.277344 -7.914062 3.785156 -7.914062 Z M 2.933594 -7.855469 "/></g></g></g><g fill="#ffffff" fill-opacity="1"><g transform="translate(280.424655, 195.259453)"><g><path d="M 9.277344 -0.738281 L 9.257812 -0.796875 L 8.746094 -1.648438 L 8.746094 -1.628906 L 7.648438 -3.691406 L 6.285156 -5.925781 C 7.117188 -6.34375 7.574219 -6.550781 7.648438 -6.550781 L 7.574219 -6.570312 C 7.648438 -6.570312 7.726562 -6.644531 7.820312 -6.796875 C 8.085938 -7.402344 8.234375 -7.875 8.292969 -8.234375 C 8.292969 -8.332031 8.3125 -8.519531 8.3125 -8.804688 C 8.3125 -9.070312 8.292969 -9.371094 8.292969 -9.675781 C 8.234375 -10.074219 8.160156 -10.414062 8.066406 -10.679688 C 7.953125 -10.945312 7.761719 -11.320312 7.460938 -11.777344 C 7.15625 -12.210938 6.53125 -12.628906 5.605469 -13.027344 C 4.65625 -13.421875 4.015625 -13.632812 3.671875 -13.632812 C 3.445312 -13.613281 2.992188 -13.574219 2.273438 -13.5 C 1.550781 -13.421875 1.175781 -13.386719 1.117188 -13.386719 L 0.644531 -13.292969 L 0.398438 -13.234375 C 0.359375 -13.214844 0.320312 -13.214844 0.285156 -13.214844 C -0.09375 -13.140625 -0.265625 -12.914062 -0.265625 -12.515625 C -0.265625 -12.136719 -0.171875 -11.871094 0.0195312 -11.683594 L 0.265625 -11.550781 C 0.304688 -11.550781 0.378906 -11.550781 0.472656 -11.566406 C 0.550781 -11.566406 0.625 -11.585938 0.679688 -11.585938 L 0.679688 -6.152344 L 0.398438 -6.117188 L -0.171875 -6.117188 L -0.738281 -5.871094 L -0.796875 -5.414062 C -0.796875 -5.148438 -0.777344 -4.921875 -0.699219 -4.734375 L -0.699219 -4.753906 C -0.605469 -4.449219 -0.339844 -4.296875 0.09375 -4.296875 C 0.246094 -4.296875 0.378906 -4.296875 0.511719 -4.335938 C 0.644531 -4.375 0.738281 -4.410156 0.777344 -4.449219 L 0.777344 -2.933594 C 0.757812 -2.800781 0.757812 -2.386719 0.757812 -1.683594 C 0.757812 -1.058594 0.757812 -0.664062 0.777344 -0.511719 C 0.8125 -0.0585938 1.058594 0.171875 1.550781 0.171875 C 1.894531 0.171875 2.121094 0.171875 2.234375 0.152344 C 2.234375 0.152344 2.253906 0.152344 2.273438 0.152344 C 2.289062 0.152344 2.308594 0.132812 2.328125 0.132812 L 2.441406 0.132812 C 2.667969 0.113281 2.933594 -0.0390625 3.238281 -0.339844 L 3.238281 -1.078125 L 2.953125 -3.179688 L 2.953125 -4.828125 L 3.898438 -4.886719 C 4.015625 -4.734375 4.183594 -4.507812 4.410156 -4.222656 C 4.636719 -3.9375 4.808594 -3.730469 4.921875 -3.578125 L 4.902344 -3.597656 L 5.113281 -3.066406 L 7.023438 -0.1875 L 7.15625 -0.113281 C 7.234375 -0.0742188 7.308594 -0.0195312 7.421875 0.0195312 C 7.535156 0.0585938 7.609375 0.0742188 7.667969 0.0742188 L 7.972656 0.0742188 C 8.347656 0.0742188 8.652344 0.0390625 8.84375 -0.0585938 C 9.125 -0.1875 9.277344 -0.417969 9.277344 -0.738281 Z M 4.828125 -7.234375 L 4.542969 -7.042969 C 4.488281 -7.003906 4.390625 -6.96875 4.261719 -6.929688 C 4.128906 -6.890625 3.996094 -6.871094 3.863281 -6.855469 L 3.636719 -6.816406 L 2.933594 -6.722656 L 2.933594 -7.421875 C 2.914062 -7.515625 2.898438 -7.667969 2.878906 -7.875 C 2.839844 -8.085938 2.839844 -8.234375 2.839844 -8.347656 L 2.839844 -11.492188 L 3.199219 -11.492188 C 3.539062 -11.492188 3.785156 -11.472656 3.9375 -11.472656 C 4.277344 -11.398438 4.714844 -11.226562 5.28125 -10.945312 C 5.507812 -10.90625 5.679688 -10.679688 5.792969 -10.300781 C 5.90625 -9.902344 5.964844 -9.5625 5.964844 -9.296875 C 5.964844 -8.785156 5.871094 -8.347656 5.699219 -7.988281 C 5.605469 -7.726562 5.320312 -7.480469 4.828125 -7.234375 Z M 4.828125 -7.234375 "/></g></g></g><g fill="#ffffff" fill-opacity="1"><g transform="translate(289.414294, 195.259453)"><g><path d="M 1.042969 -12.722656 L 0.984375 -12.667969 L 0.890625 -11.566406 C 0.890625 -11.359375 0.945312 -11.152344 1.078125 -10.960938 L 1.667969 -10.925781 L 2.554688 -10.925781 L 2.328125 -8.253906 L 2.328125 -2.519531 C 2.328125 -2.421875 2.175781 -2.308594 1.894531 -2.160156 L 1.914062 -2.175781 L 1.289062 -2.082031 C 1.191406 -2.082031 1.097656 -1.929688 1.003906 -1.628906 C 0.890625 -1.324219 0.851562 -1.078125 0.851562 -0.890625 C 0.851562 -0.566406 1.097656 -0.320312 1.609375 -0.171875 L 2.667969 -0.171875 L 5.394531 -0.566406 L 5.699219 -0.566406 L 5.832031 -0.625 C 5.925781 -0.664062 6.019531 -0.777344 6.132812 -0.964844 C 6.230469 -1.15625 6.285156 -1.402344 6.285156 -1.703125 C 6.285156 -2.007812 6.132812 -2.234375 5.871094 -2.367188 C 5.605469 -2.5 5.300781 -2.574219 4.960938 -2.574219 C 4.808594 -2.574219 4.695312 -2.554688 4.601562 -2.535156 L 4.449219 -2.59375 C 4.390625 -2.59375 4.375 -2.859375 4.375 -3.351562 L 4.375 -3.996094 C 4.375 -4.070312 4.355469 -4.144531 4.335938 -4.183594 L 4.601562 -9.410156 C 4.601562 -9.597656 4.582031 -9.84375 4.5625 -10.1875 L 4.507812 -11 L 4.601562 -11.09375 C 4.714844 -11.09375 4.902344 -11.09375 5.132812 -11.132812 C 5.359375 -11.152344 5.546875 -11.171875 5.660156 -11.191406 L 6.097656 -11.191406 L 6.132812 -11.285156 C 6.132812 -11.359375 6.152344 -11.472656 6.171875 -11.625 C 6.191406 -11.777344 6.210938 -11.964844 6.210938 -12.15625 C 6.210938 -12.457031 6.078125 -12.683594 5.851562 -12.835938 C 5.605469 -12.988281 5.300781 -13.0625 4.960938 -13.0625 C 4.621094 -13.0625 4.128906 -12.96875 3.484375 -12.78125 L 1.875 -12.78125 L 1.667969 -12.648438 L 1.648438 -12.628906 C 1.628906 -12.609375 1.609375 -12.609375 1.609375 -12.609375 C 1.457031 -12.722656 1.324219 -12.800781 1.230469 -12.800781 C 1.191406 -12.800781 1.117188 -12.761719 1.042969 -12.722656 Z M 1.042969 -12.722656 "/></g></g></g><g fill="#ffffff" fill-opacity="1"><g transform="translate(296.189645, 195.259453)"><g><path d="M 2.519531 -6.703125 L 2.535156 -7.195312 C 2.535156 -7.515625 2.554688 -7.894531 2.613281 -8.3125 C 2.652344 -8.726562 2.726562 -9.011719 2.820312 -9.203125 C 2.914062 -9.449219 3.085938 -9.730469 3.351562 -10.074219 C 3.617188 -10.394531 3.804688 -10.621094 3.957031 -10.734375 C 4.03125 -10.792969 4.277344 -10.886719 4.734375 -11.019531 C 5.1875 -11.152344 5.472656 -11.226562 5.585938 -11.246094 C 5.625 -11.246094 6.34375 -11.265625 7.707031 -11.265625 C 7.820312 -11.265625 7.914062 -11.359375 8.027344 -11.566406 L 8.179688 -11.585938 C 8.253906 -11.605469 8.347656 -11.644531 8.445312 -11.71875 C 8.539062 -11.796875 8.597656 -11.871094 8.597656 -11.984375 C 8.597656 -12.210938 8.40625 -12.535156 8.046875 -12.929688 L 7.839844 -13.027344 C 7.6875 -13.101562 7.496094 -13.160156 7.269531 -13.234375 C 7.042969 -13.292969 6.855469 -13.328125 6.703125 -13.328125 L 6.511719 -13.328125 C 4.941406 -13.234375 3.824219 -12.96875 3.179688 -12.535156 C 2.5 -12.078125 2.042969 -11.683594 1.816406 -11.339844 L 1.703125 -11.132812 C 1.628906 -11 1.535156 -10.828125 1.4375 -10.601562 C 1.324219 -10.375 1.25 -10.167969 1.210938 -9.996094 C 0.699219 -8.480469 0.453125 -7.234375 0.453125 -6.265625 C 0.453125 -6.058594 0.453125 -5.925781 0.492188 -5.886719 L 0.53125 -5.1875 C 0.566406 -4.734375 0.664062 -4.203125 0.8125 -3.597656 C 0.964844 -2.992188 1.15625 -2.535156 1.421875 -2.253906 C 1.796875 -1.796875 2.273438 -1.382812 2.839844 -1.023438 C 3.40625 -0.664062 3.957031 -0.417969 4.46875 -0.304688 C 5.09375 -0.1875 5.566406 -0.132812 5.871094 -0.132812 L 6.625 -0.226562 L 7.175781 -0.1875 C 7.402344 -0.1875 7.535156 -0.226562 7.609375 -0.304688 C 7.667969 -0.378906 7.761719 -0.566406 7.914062 -0.910156 C 8.066406 -1.230469 8.140625 -1.421875 8.140625 -1.457031 C 8.140625 -1.550781 8.101562 -1.722656 8.027344 -1.949219 L 8.066406 -2.007812 C 8.101562 -2.042969 8.121094 -2.082031 8.160156 -2.160156 C 8.199219 -2.214844 8.21875 -2.273438 8.21875 -2.308594 C 8.21875 -2.386719 8.140625 -2.421875 8.007812 -2.421875 C 7.894531 -2.421875 7.761719 -2.386719 7.59375 -2.347656 C 6.929688 -2.195312 6.4375 -2.140625 6.132812 -2.140625 C 4.242188 -2.195312 3.179688 -2.800781 2.914062 -3.957031 C 2.652344 -5.09375 2.519531 -6 2.519531 -6.703125 Z M 2.519531 -6.703125 "/></g></g></g><g fill="#ffffff" fill-opacity="1"><g transform="translate(304.630442, 195.259453)"><g><path d="M 2.253906 -13.421875 L 2.214844 -13.421875 L 1.78125 -13.253906 C 1.703125 -13.253906 1.628906 -13.234375 1.515625 -13.234375 C 1.402344 -13.214844 1.324219 -13.214844 1.269531 -13.214844 L 0.8125 -13.347656 L 0.53125 -13.027344 L 0.53125 -3.671875 L 0.398438 -1.34375 L 0.433594 -1.210938 C 0.453125 -1.136719 0.511719 -1.042969 0.585938 -0.925781 C 0.664062 -0.8125 0.738281 -0.71875 0.851562 -0.679688 L 0.890625 -0.285156 L 1.191406 -0.1875 L 1.855469 -0.226562 L 2.214844 -0.453125 L 2.820312 -0.738281 L 2.898438 -1.078125 L 2.78125 -3.503906 C 2.726562 -4.601562 2.6875 -5.414062 2.6875 -5.90625 L 2.859375 -6.132812 L 3.125 -6.363281 L 3.144531 -6.378906 L 3.160156 -6.363281 L 3.238281 -6.363281 L 3.40625 -6.230469 C 3.445312 -6.117188 3.578125 -5.945312 3.769531 -5.679688 C 3.957031 -5.414062 4.164062 -5.148438 4.355469 -4.921875 L 4.636719 -4.5625 L 4.636719 -4.582031 L 5.492188 -3.160156 L 6.589844 -1.683594 L 7.988281 -0.359375 L 8.84375 -0.0195312 L 9.316406 -0.0585938 L 9.582031 -0.171875 L 9.808594 -0.511719 L 9.808594 -0.71875 L 9.828125 -0.945312 C 9.828125 -0.984375 9.84375 -1.042969 9.921875 -1.136719 C 9.996094 -1.25 10.035156 -1.363281 10.035156 -1.476562 C 10.035156 -1.496094 10.054688 -1.609375 10.128906 -1.835938 L 10.109375 -1.929688 C 10.089844 -1.96875 10.054688 -2.042969 10.015625 -2.121094 C 9.976562 -2.195312 9.921875 -2.273438 9.84375 -2.328125 L 9.808594 -2.347656 C 9.769531 -2.367188 9.75 -2.386719 9.710938 -2.421875 C 9.675781 -2.460938 9.636719 -2.480469 9.617188 -2.5 C 9.597656 -2.5 9.582031 -2.519531 9.582031 -2.535156 C 9.203125 -2.839844 8.878906 -3.085938 8.652344 -3.3125 C 8.613281 -3.332031 8.5 -3.445312 8.273438 -3.652344 C 8.046875 -3.863281 7.894531 -4.015625 7.78125 -4.128906 L 6.363281 -5.753906 C 5.945312 -6.210938 5.492188 -6.742188 4.960938 -7.363281 L 6.324219 -8.332031 L 7.441406 -9.636719 L 7.800781 -10.074219 C 8.046875 -10.375 8.292969 -10.679688 8.539062 -11 C 8.765625 -11.304688 8.898438 -11.492188 8.898438 -11.53125 L 8.878906 -11.53125 C 8.957031 -11.644531 9.050781 -11.832031 9.144531 -12.058594 L 8.765625 -12.648438 L 8.066406 -13.0625 L 8.007812 -12.894531 C 8.007812 -12.894531 8.007812 -12.914062 7.972656 -12.96875 C 7.933594 -13.027344 7.894531 -13.082031 7.839844 -13.140625 C 7.761719 -13.175781 7.707031 -13.214844 7.667969 -13.214844 L 7.609375 -13.195312 C 7.535156 -13.160156 7.402344 -13.121094 7.25 -13.121094 L 6.949219 -12.914062 C 6.511719 -12.382812 6.078125 -11.8125 5.640625 -11.207031 C 5.148438 -10.546875 4.886719 -10.1875 4.828125 -10.109375 L 4.242188 -9.730469 L 3.785156 -9.238281 L 3.597656 -8.917969 L 3.277344 -8.480469 L 3.277344 -8.5 L 2.800781 -8.066406 L 2.898438 -12.703125 L 2.859375 -13.027344 C 2.859375 -13.121094 2.765625 -13.214844 2.59375 -13.292969 C 2.40625 -13.367188 2.289062 -13.421875 2.253906 -13.421875 Z M 2.253906 -13.421875 "/></g></g></g></svg>