<svg xmlns="http://www.w3.org/2000/svg" xmlns:xlink="http://www.w3.org/1999/xlink" width="500" zoomAndPan="magnify" viewBox="0 0 375 374.999991" height="500" preserveAspectRatio="xMidYMid meet" version="1.0"><defs><g/><clipPath id="e0df7d6b7e"><path d="M 57 142.507812 L 158.8125 142.507812 L 158.8125 232.507812 L 57 232.507812 Z M 57 142.507812 " clip-rule="nonzero"/></clipPath><clipPath id="1b5d888179"><path d="M 93 169 L 124 169 L 124 216 L 93 216 Z M 93 169 " clip-rule="nonzero"/></clipPath><clipPath id="a519f55bff"><path d="M 68.246094 164.515625 L 132.378906 148.941406 L 147.425781 210.890625 L 83.289062 226.464844 Z M 68.246094 164.515625 " clip-rule="nonzero"/></clipPath><clipPath id="6baa77c8c6"><path d="M 68.246094 164.515625 L 132.378906 148.941406 L 147.425781 210.890625 L 83.289062 226.464844 Z M 68.246094 164.515625 " clip-rule="nonzero"/></clipPath><clipPath id="a8f49197af"><path d="M 68.246094 164.515625 L 132.378906 148.941406 L 147.425781 210.890625 L 83.289062 226.464844 Z M 68.246094 164.515625 " clip-rule="nonzero"/></clipPath><clipPath id="0998101706"><path d="M 90 167 L 123 167 L 123 215 L 90 215 Z M 90 167 " clip-rule="nonzero"/></clipPath><clipPath id="1353026aab"><path d="M 68.246094 164.515625 L 132.378906 148.941406 L 147.425781 210.890625 L 83.289062 226.464844 Z M 68.246094 164.515625 " clip-rule="nonzero"/></clipPath><clipPath id="d5ff080124"><path d="M 68.246094 164.515625 L 132.378906 148.941406 L 147.425781 210.890625 L 83.289062 226.464844 Z M 68.246094 164.515625 " clip-rule="nonzero"/></clipPath><clipPath id="0dfaea51c5"><path d="M 68.246094 164.515625 L 132.378906 148.941406 L 147.425781 210.890625 L 83.289062 226.464844 Z M 68.246094 164.515625 " clip-rule="nonzero"/></clipPath><clipPath id="8510e020a8"><path d="M 117 164 L 125 164 L 125 170 L 117 170 Z M 117 164 " clip-rule="nonzero"/></clipPath><clipPath id="627a108994"><path d="M 68.246094 164.515625 L 132.378906 148.941406 L 147.425781 210.890625 L 83.289062 226.464844 Z M 68.246094 164.515625 " clip-rule="nonzero"/></clipPath><clipPath id="4fee58ad92"><path d="M 68.246094 164.515625 L 132.378906 148.941406 L 147.425781 210.890625 L 83.289062 226.464844 Z M 68.246094 164.515625 " clip-rule="nonzero"/></clipPath><clipPath id="bae1e805fa"><path d="M 68.246094 164.515625 L 132.378906 148.941406 L 147.425781 210.890625 L 83.289062 226.464844 Z M 68.246094 164.515625 " clip-rule="nonzero"/></clipPath><clipPath id="86f6b681cf"><path d="M 84 212 L 94 212 L 94 224 L 84 224 Z M 84 212 " clip-rule="nonzero"/></clipPath><clipPath id="7e3faab92f"><path d="M 68.246094 164.515625 L 132.378906 148.941406 L 147.425781 210.890625 L 83.289062 226.464844 Z M 68.246094 164.515625 " clip-rule="nonzero"/></clipPath><clipPath id="19f42526a2"><path d="M 68.246094 164.515625 L 132.378906 148.941406 L 147.425781 210.890625 L 83.289062 226.464844 Z M 68.246094 164.515625 " clip-rule="nonzero"/></clipPath><clipPath id="9b6829f220"><path d="M 68.246094 164.515625 L 132.378906 148.941406 L 147.425781 210.890625 L 83.289062 226.464844 Z M 68.246094 164.515625 " clip-rule="nonzero"/></clipPath><clipPath id="0773c5c27b"><path d="M 120 162 L 127 162 L 127 167 L 120 167 Z M 120 162 " clip-rule="nonzero"/></clipPath><clipPath id="3de0536c31"><path d="M 68.246094 164.515625 L 132.378906 148.941406 L 147.425781 210.890625 L 83.289062 226.464844 Z M 68.246094 164.515625 " clip-rule="nonzero"/></clipPath><clipPath id="16d2411378"><path d="M 68.246094 164.515625 L 132.378906 148.941406 L 147.425781 210.890625 L 83.289062 226.464844 Z M 68.246094 164.515625 " clip-rule="nonzero"/></clipPath><clipPath id="deb430c6a5"><path d="M 68.246094 164.515625 L 132.378906 148.941406 L 147.425781 210.890625 L 83.289062 226.464844 Z M 68.246094 164.515625 " clip-rule="nonzero"/></clipPath><clipPath id="482fddbb69"><path d="M 88 166 L 120 166 L 120 213 L 88 213 Z M 88 166 " clip-rule="nonzero"/></clipPath><clipPath id="429f846bcb"><path d="M 68.246094 164.515625 L 132.378906 148.941406 L 147.425781 210.890625 L 83.289062 226.464844 Z M 68.246094 164.515625 " clip-rule="nonzero"/></clipPath><clipPath id="44f8baa425"><path d="M 68.246094 164.515625 L 132.378906 148.941406 L 147.425781 210.890625 L 83.289062 226.464844 Z M 68.246094 164.515625 " clip-rule="nonzero"/></clipPath><clipPath id="096ecab881"><path d="M 68.246094 164.515625 L 132.378906 148.941406 L 147.425781 210.890625 L 83.289062 226.464844 Z M 68.246094 164.515625 " clip-rule="nonzero"/></clipPath><clipPath id="bccd406b7a"><path d="M 83 223 L 86 223 L 86 227 L 83 227 Z M 83 223 " clip-rule="nonzero"/></clipPath><clipPath id="2ca22ed2ff"><path d="M 68.246094 164.515625 L 132.378906 148.941406 L 147.425781 210.890625 L 83.289062 226.464844 Z M 68.246094 164.515625 " clip-rule="nonzero"/></clipPath><clipPath id="06316e2520"><path d="M 68.246094 164.515625 L 132.378906 148.941406 L 147.425781 210.890625 L 83.289062 226.464844 Z M 68.246094 164.515625 " clip-rule="nonzero"/></clipPath><clipPath id="97984a99ab"><path d="M 68.246094 164.515625 L 132.378906 148.941406 L 147.425781 210.890625 L 83.289062 226.464844 Z M 68.246094 164.515625 " clip-rule="nonzero"/></clipPath><clipPath id="c3bc803d69"><path d="M 119 163 L 126 163 L 126 168 L 119 168 Z M 119 163 " clip-rule="nonzero"/></clipPath><clipPath id="a6c8b810ba"><path d="M 68.246094 164.515625 L 132.378906 148.941406 L 147.425781 210.890625 L 83.289062 226.464844 Z M 68.246094 164.515625 " clip-rule="nonzero"/></clipPath><clipPath id="11e9115c34"><path d="M 68.246094 164.515625 L 132.378906 148.941406 L 147.425781 210.890625 L 83.289062 226.464844 Z M 68.246094 164.515625 " clip-rule="nonzero"/></clipPath><clipPath id="03603c89b5"><path d="M 68.246094 164.515625 L 132.378906 148.941406 L 147.425781 210.890625 L 83.289062 226.464844 Z M 68.246094 164.515625 " clip-rule="nonzero"/></clipPath><clipPath id="bc24a221c7"><path d="M 120 158 L 129 158 L 129 166 L 120 166 Z M 120 158 " clip-rule="nonzero"/></clipPath><clipPath id="8535c13e63"><path d="M 68.246094 164.515625 L 132.378906 148.941406 L 147.425781 210.890625 L 83.289062 226.464844 Z M 68.246094 164.515625 " clip-rule="nonzero"/></clipPath><clipPath id="ad9c5172c5"><path d="M 68.246094 164.515625 L 132.378906 148.941406 L 147.425781 210.890625 L 83.289062 226.464844 Z M 68.246094 164.515625 " clip-rule="nonzero"/></clipPath><clipPath id="9a2cc4cd6c"><path d="M 68.246094 164.515625 L 132.378906 148.941406 L 147.425781 210.890625 L 83.289062 226.464844 Z M 68.246094 164.515625 " clip-rule="nonzero"/></clipPath><clipPath id="8361442d56"><path d="M 122 156 L 130 156 L 130 162 L 122 162 Z M 122 156 " clip-rule="nonzero"/></clipPath><clipPath id="f879d8a2bb"><path d="M 68.246094 164.515625 L 132.378906 148.941406 L 147.425781 210.890625 L 83.289062 226.464844 Z M 68.246094 164.515625 " clip-rule="nonzero"/></clipPath><clipPath id="6a22b82e65"><path d="M 68.246094 164.515625 L 132.378906 148.941406 L 147.425781 210.890625 L 83.289062 226.464844 Z M 68.246094 164.515625 " clip-rule="nonzero"/></clipPath><clipPath id="da9044736c"><path d="M 68.246094 164.515625 L 132.378906 148.941406 L 147.425781 210.890625 L 83.289062 226.464844 Z M 68.246094 164.515625 " clip-rule="nonzero"/></clipPath><clipPath id="9190cf64ce"><path d="M 124 154 L 131 154 L 131 160 L 124 160 Z M 124 154 " clip-rule="nonzero"/></clipPath><clipPath id="13c206e660"><path d="M 68.246094 164.515625 L 132.378906 148.941406 L 147.425781 210.890625 L 83.289062 226.464844 Z M 68.246094 164.515625 " clip-rule="nonzero"/></clipPath><clipPath id="e317700d7e"><path d="M 68.246094 164.515625 L 132.378906 148.941406 L 147.425781 210.890625 L 83.289062 226.464844 Z M 68.246094 164.515625 " clip-rule="nonzero"/></clipPath><clipPath id="3ee565190d"><path d="M 68.246094 164.515625 L 132.378906 148.941406 L 147.425781 210.890625 L 83.289062 226.464844 Z M 68.246094 164.515625 " clip-rule="nonzero"/></clipPath><clipPath id="78fc863f31"><path d="M 125 150 L 134 150 L 134 158 L 125 158 Z M 125 150 " clip-rule="nonzero"/></clipPath><clipPath id="ec7e026cdf"><path d="M 68.246094 164.515625 L 132.378906 148.941406 L 147.425781 210.890625 L 83.289062 226.464844 Z M 68.246094 164.515625 " clip-rule="nonzero"/></clipPath><clipPath id="dbc31a5f23"><path d="M 68.246094 164.515625 L 132.378906 148.941406 L 147.425781 210.890625 L 83.289062 226.464844 Z M 68.246094 164.515625 " clip-rule="nonzero"/></clipPath><clipPath id="0be6621fc5"><path d="M 68.246094 164.515625 L 132.378906 148.941406 L 147.425781 210.890625 L 83.289062 226.464844 Z M 68.246094 164.515625 " clip-rule="nonzero"/></clipPath><clipPath id="2e4b43b648"><path d="M 100.699219 180.753906 L 114.191406 180.753906 L 114.191406 194.246094 L 100.699219 194.246094 Z M 100.699219 180.753906 " clip-rule="nonzero"/></clipPath><clipPath id="efdee648f4"><path d="M 107.445312 180.753906 C 103.71875 180.753906 100.699219 183.773438 100.699219 187.5 C 100.699219 191.226562 103.71875 194.246094 107.445312 194.246094 C 111.171875 194.246094 114.191406 191.226562 114.191406 187.5 C 114.191406 183.773438 111.171875 180.753906 107.445312 180.753906 Z M 107.445312 180.753906 " clip-rule="nonzero"/></clipPath><clipPath id="4845a92559"><path d="M 100.699219 180.753906 L 114.1875 180.753906 L 114.1875 194.242188 L 100.699219 194.242188 Z M 100.699219 180.753906 " clip-rule="nonzero"/></clipPath><clipPath id="0166995678"><path d="M 107.445312 180.753906 C 103.71875 180.753906 100.699219 183.773438 100.699219 187.5 C 100.699219 191.222656 103.71875 194.242188 107.445312 194.242188 C 111.167969 194.242188 114.1875 191.222656 114.1875 187.5 C 114.1875 183.773438 111.167969 180.753906 107.445312 180.753906 Z M 107.445312 180.753906 " clip-rule="nonzero"/></clipPath></defs><g clip-path="url(#e0df7d6b7e)"><path fill="#000000" d="M 158.582031 187.496094 C 158.582031 180.578125 147.789062 175.460938 133.417969 172.703125 C 134.59375 169.324219 135.554688 166.046875 136.226562 162.992188 C 138.453125 152.785156 137.375 145.832031 133.199219 143.414062 C 132.164062 142.8125 130.972656 142.507812 129.65625 142.507812 C 123.949219 142.507812 115.988281 148.277344 107.816406 157.78125 C 99.644531 148.277344 91.683594 142.507812 85.972656 142.507812 C 84.660156 142.507812 83.464844 142.8125 82.429688 143.414062 C 76.445312 146.875 77.433594 158.828125 82.25 172.699219 C 67.859375 175.449219 57.046875 180.570312 57.046875 187.496094 C 57.046875 194.417969 67.84375 199.53125 82.214844 202.289062 C 81.039062 205.675781 80.074219 208.945312 79.40625 212.003906 C 77.179688 222.210938 78.253906 229.164062 82.429688 231.582031 C 83.464844 232.179688 84.660156 232.484375 85.972656 232.484375 C 91.683594 232.484375 99.644531 226.714844 107.816406 217.214844 C 115.984375 226.714844 123.945312 232.484375 129.65625 232.484375 C 130.972656 232.484375 132.164062 232.179688 133.199219 231.582031 C 137.375 229.164062 138.453125 222.210938 136.226562 212.003906 C 135.554688 208.945312 134.59375 205.675781 133.417969 202.289062 C 147.789062 199.535156 158.582031 194.417969 158.582031 187.496094 Z M 129.65625 145.140625 C 130.507812 145.140625 131.257812 145.328125 131.886719 145.691406 C 134.949219 147.464844 135.59375 153.566406 133.660156 162.429688 C 132.992188 165.507812 132.007812 168.804688 130.804688 172.234375 C 126.574219 171.527344 122.085938 171.019531 117.507812 170.714844 C 114.894531 166.757812 112.222656 163.117188 109.550781 159.851562 C 117.25 150.832031 124.714844 145.140625 129.65625 145.140625 Z M 120.316406 194.730469 C 118.917969 197.152344 117.480469 199.5 116.007812 201.753906 C 113.371094 201.890625 110.640625 201.964844 107.816406 201.964844 C 104.992188 201.964844 102.257812 201.890625 99.625 201.753906 C 98.148438 199.5 96.710938 197.152344 95.316406 194.730469 C 93.90625 192.28125 92.605469 189.875 91.410156 187.519531 C 92.632812 185.109375 93.921875 182.683594 95.320312 180.261719 C 96.710938 177.84375 98.152344 175.496094 99.625 173.238281 C 102.257812 173.101562 104.992188 173.027344 107.816406 173.027344 C 110.640625 173.027344 113.371094 173.101562 116.007812 173.238281 C 117.480469 175.5 118.917969 177.84375 120.3125 180.261719 C 121.703125 182.675781 122.992188 185.09375 124.214844 187.496094 C 122.992188 189.902344 121.703125 192.320312 120.316406 194.730469 Z M 125.65625 190.429688 C 127.265625 193.792969 128.703125 197.105469 129.921875 200.324219 C 126.621094 200.855469 123.058594 201.269531 119.269531 201.550781 C 120.390625 199.769531 121.5 197.929688 122.585938 196.046875 C 123.664062 194.175781 124.675781 192.300781 125.65625 190.429688 Z M 114.207031 204.457031 C 112.105469 207.53125 109.957031 210.417969 107.816406 213.054688 C 105.675781 210.417969 103.53125 207.53125 101.425781 204.457031 C 103.550781 204.546875 105.683594 204.597656 107.816406 204.597656 C 109.945312 204.597656 112.082031 204.546875 114.207031 204.457031 Z M 96.363281 201.550781 C 92.570312 201.269531 89.007812 200.855469 85.710938 200.324219 C 86.929688 197.109375 88.363281 193.792969 89.972656 190.429688 C 90.957031 192.320312 91.980469 194.195312 93.042969 196.046875 C 94.132812 197.929688 95.238281 199.769531 96.363281 201.550781 Z M 89.960938 184.59375 C 88.300781 181.144531 86.867188 177.820312 85.667969 174.675781 C 88.980469 174.148438 92.554688 173.730469 96.363281 173.441406 C 95.238281 175.226562 94.132812 177.058594 93.042969 178.949219 C 91.960938 180.828125 90.945312 182.714844 89.960938 184.59375 Z M 101.429688 170.539062 C 103.53125 167.464844 105.675781 164.578125 107.816406 161.9375 C 109.957031 164.578125 112.105469 167.464844 114.207031 170.539062 C 112.078125 170.445312 109.945312 170.398438 107.816406 170.398438 C 105.683594 170.398438 103.550781 170.445312 101.429688 170.539062 Z M 122.585938 178.949219 C 121.5 177.054688 120.394531 175.226562 119.269531 173.441406 C 123.058594 173.730469 126.621094 174.140625 129.921875 174.667969 C 128.703125 177.882812 127.265625 181.203125 125.65625 184.566406 C 124.675781 182.695312 123.664062 180.816406 122.585938 178.949219 Z M 83.742188 145.691406 C 84.371094 145.328125 85.125 145.140625 85.972656 145.140625 C 90.914062 145.140625 98.378906 150.832031 106.078125 159.851562 C 103.410156 163.117188 100.734375 166.757812 98.125 170.714844 C 93.527344 171.019531 89.023438 171.53125 84.777344 172.242188 C 79.816406 158.199219 79.664062 148.050781 83.742188 145.691406 Z M 59.667969 187.496094 C 59.667969 182.777344 68.511719 177.832031 83.121094 175.117188 C 84.632812 179.164062 86.4375 183.332031 88.480469 187.476562 C 86.386719 191.691406 84.578125 195.855469 83.074219 199.863281 C 68.488281 197.152344 59.667969 192.210938 59.667969 187.496094 Z M 85.972656 229.855469 C 85.113281 229.855469 84.386719 229.671875 83.742188 229.308594 C 80.683594 227.535156 80.035156 221.433594 81.972656 212.566406 C 82.644531 209.488281 83.621094 206.183594 84.828125 202.761719 C 89.058594 203.46875 93.546875 203.976562 98.121094 204.277344 C 100.734375 208.234375 103.410156 211.875 106.074219 215.140625 C 98.378906 224.164062 90.914062 229.855469 85.972656 229.855469 Z M 133.65625 212.566406 C 135.59375 221.433594 134.949219 227.53125 131.886719 229.304688 C 131.253906 229.667969 130.507812 229.855469 129.65625 229.855469 C 124.714844 229.855469 117.25 224.160156 109.550781 215.140625 C 112.222656 211.875 114.894531 208.234375 117.511719 204.277344 C 122.085938 203.976562 126.574219 203.46875 130.804688 202.757812 C 132.007812 206.183594 132.992188 209.488281 133.65625 212.566406 Z M 132.554688 199.867188 C 131.054688 195.863281 129.25 191.707031 127.164062 187.496094 C 129.25 183.289062 131.054688 179.132812 132.558594 175.128906 C 147.140625 177.84375 155.960938 182.785156 155.960938 187.496094 C 155.960938 192.210938 147.140625 197.152344 132.554688 199.867188 Z M 132.554688 199.867188 " fill-opacity="1" fill-rule="nonzero"/></g><path fill="#000000" d="M 113.390625 187.496094 C 113.390625 187.863281 113.355469 188.226562 113.285156 188.585938 C 113.214844 188.949219 113.105469 189.296875 112.96875 189.636719 C 112.828125 189.976562 112.65625 190.296875 112.453125 190.601562 C 112.25 190.910156 112.015625 191.191406 111.757812 191.449219 C 111.5 191.710938 111.21875 191.941406 110.914062 192.144531 C 110.609375 192.351562 110.289062 192.523438 109.949219 192.664062 C 109.609375 192.804688 109.261719 192.910156 108.902344 192.980469 C 108.542969 193.050781 108.179688 193.089844 107.816406 193.089844 C 107.449219 193.089844 107.085938 193.050781 106.726562 192.980469 C 106.367188 192.910156 106.019531 192.804688 105.679688 192.664062 C 105.34375 192.523438 105.023438 192.351562 104.71875 192.144531 C 104.414062 191.941406 104.132812 191.710938 103.871094 191.449219 C 103.613281 191.191406 103.382812 190.910156 103.179688 190.601562 C 102.976562 190.296875 102.804688 189.976562 102.664062 189.636719 C 102.523438 189.296875 102.417969 188.949219 102.347656 188.585938 C 102.273438 188.226562 102.238281 187.863281 102.238281 187.496094 C 102.238281 187.128906 102.273438 186.765625 102.347656 186.40625 C 102.417969 186.046875 102.523438 185.695312 102.664062 185.355469 C 102.804688 185.019531 102.976562 184.695312 103.179688 184.390625 C 103.382812 184.085938 103.613281 183.804688 103.871094 183.542969 C 104.132812 183.285156 104.414062 183.050781 104.71875 182.847656 C 105.023438 182.644531 105.34375 182.472656 105.679688 182.332031 C 106.019531 182.191406 106.367188 182.085938 106.726562 182.011719 C 107.085938 181.941406 107.449219 181.90625 107.816406 181.90625 C 108.179688 181.90625 108.542969 181.941406 108.902344 182.011719 C 109.261719 182.085938 109.609375 182.191406 109.949219 182.332031 C 110.289062 182.472656 110.609375 182.644531 110.914062 182.847656 C 111.21875 183.050781 111.5 183.285156 111.757812 183.542969 C 112.015625 183.804688 112.25 184.085938 112.453125 184.390625 C 112.65625 184.695312 112.828125 185.019531 112.96875 185.355469 C 113.105469 185.695312 113.214844 186.046875 113.285156 186.40625 C 113.355469 186.765625 113.390625 187.128906 113.390625 187.496094 Z M 113.390625 187.496094 " fill-opacity="1" fill-rule="nonzero"/><g clip-path="url(#1b5d888179)"><g clip-path="url(#a519f55bff)"><g clip-path="url(#6baa77c8c6)"><g clip-path="url(#a8f49197af)"><path fill="#000000" d="M 93.6875 215.464844 C 93.761719 215.675781 93.910156 215.792969 94.066406 215.773438 C 94.148438 215.769531 94.226562 215.835938 94.265625 215.875 C 94.300781 215.910156 94.347656 215.925781 94.394531 215.914062 C 94.394531 215.917969 94.402344 215.917969 94.402344 215.914062 C 94.445312 215.90625 94.480469 215.875 94.5 215.835938 C 95.15625 214.425781 99.363281 207.199219 100.027344 206.269531 C 102.566406 202.765625 105.007812 199.195312 107.289062 195.660156 C 109.160156 192.765625 111.015625 189.785156 112.804688 186.90625 C 113.777344 185.347656 114.746094 183.789062 115.722656 182.234375 C 117 180.207031 118.492188 177.851562 120.011719 175.570312 C 120.417969 174.957031 120.863281 174.339844 121.292969 173.738281 C 122.109375 172.601562 122.949219 171.429688 123.613281 170.199219 C 123.648438 170.136719 123.632812 170.0625 123.578125 170.015625 C 123.367188 169.84375 123.144531 169.6875 122.921875 169.550781 C 122.851562 169.511719 122.761719 169.53125 122.726562 169.601562 C 120.554688 173.285156 118.289062 176.707031 115.894531 180.328125 L 114.746094 182.058594 C 114.214844 182.871094 113.683594 183.707031 113.175781 184.519531 C 112.234375 186.003906 111.269531 187.535156 110.214844 188.964844 C 109.769531 189.578125 109.285156 190.175781 108.824219 190.757812 C 107.835938 191.988281 106.820312 193.261719 106.042969 194.699219 C 104.675781 197.21875 103.09375 199.605469 101.566406 201.914062 C 100.691406 203.242188 99.785156 204.609375 98.921875 205.996094 C 98.480469 206.707031 98.023438 207.421875 97.566406 208.140625 C 96.242188 210.210938 94.875 212.355469 93.773438 214.558594 C 93.753906 214.601562 93.757812 214.652344 93.78125 214.695312 C 93.835938 214.789062 93.832031 214.890625 93.765625 214.988281 C 93.683594 215.117188 93.613281 215.25 93.6875 215.464844 " fill-opacity="1" fill-rule="nonzero"/></g></g></g></g><g clip-path="url(#0998101706)"><g clip-path="url(#1353026aab)"><g clip-path="url(#d5ff080124)"><g clip-path="url(#0dfaea51c5)"><path fill="#000000" d="M 121.101562 168.4375 C 120.84375 168.25 120.582031 168.058594 120.300781 167.886719 C 120.152344 167.800781 119.996094 167.695312 119.804688 167.558594 C 119.769531 167.539062 119.730469 167.527344 119.691406 167.535156 C 119.691406 167.535156 119.6875 167.535156 119.6875 167.535156 C 119.652344 167.546875 119.617188 167.574219 119.597656 167.609375 C 118.578125 169.457031 117.359375 171.199219 116.183594 172.886719 C 115.042969 174.519531 113.863281 176.210938 112.859375 178 C 110.453125 182.296875 107.925781 186.324219 105.136719 190.300781 C 102.367188 194.253906 99.765625 198.40625 97.25 202.417969 C 95.15625 205.761719 92.988281 209.214844 90.742188 212.53125 C 90.71875 212.558594 90.710938 212.59375 90.714844 212.625 C 90.71875 212.648438 90.722656 212.671875 90.726562 212.695312 C 90.730469 212.710938 90.738281 212.730469 90.734375 212.734375 C 90.695312 213.492188 90.894531 214.089844 91.332031 214.515625 C 91.617188 214.796875 92.234375 214.734375 92.777344 214.601562 C 92.855469 214.582031 92.929688 214.5625 93.003906 214.542969 C 93.042969 214.53125 93.074219 214.503906 93.09375 214.46875 C 94.5 211.578125 96.339844 208.777344 98.121094 206.066406 L 98.648438 205.265625 C 99.253906 204.335938 99.90625 203.40625 100.539062 202.507812 C 101.15625 201.632812 101.792969 200.726562 102.394531 199.808594 C 103.125 198.699219 103.757812 197.515625 104.367188 196.371094 C 104.847656 195.480469 105.34375 194.550781 105.878906 193.671875 C 106.632812 192.429688 107.550781 191.277344 108.4375 190.164062 C 109.167969 189.242188 109.925781 188.289062 110.597656 187.28125 C 111.171875 186.417969 111.734375 185.523438 112.285156 184.664062 C 113.039062 183.472656 113.824219 182.238281 114.636719 181.054688 C 117.308594 177.1875 119.765625 173.339844 122.148438 169.292969 C 122.167969 169.261719 122.171875 169.21875 122.160156 169.183594 C 122.152344 169.144531 122.125 169.113281 122.089844 169.09375 C 121.746094 168.898438 121.417969 168.664062 121.101562 168.4375 " fill-opacity="1" fill-rule="nonzero"/></g></g></g></g><g clip-path="url(#8510e020a8)"><g clip-path="url(#627a108994)"><g clip-path="url(#4fee58ad92)"><g clip-path="url(#bae1e805fa)"><path fill="#000000" d="M 118.246094 165.910156 C 118.4375 166.039062 118.640625 166.175781 118.882812 166.261719 C 119.453125 166.46875 120.082031 166.917969 120.628906 167.320312 C 121.328125 167.832031 122.027344 168.289062 122.832031 168.757812 L 123.027344 168.871094 C 123.359375 169.066406 123.667969 169.246094 123.953125 169.472656 C 124.007812 169.519531 124.082031 169.484375 124.164062 169.5 C 124.183594 169.503906 124.203125 169.5 124.222656 169.496094 C 124.246094 169.488281 124.269531 169.480469 124.285156 169.460938 C 124.464844 169.289062 124.648438 169.039062 124.855469 168.671875 C 124.890625 168.613281 124.875 168.535156 124.824219 168.492188 C 124.53125 168.246094 124.246094 167.980469 123.972656 167.722656 C 123.316406 167.109375 122.640625 166.480469 121.804688 166.054688 C 121.804688 166.050781 121.804688 166.050781 121.804688 166.050781 C 121.269531 165.78125 120.742188 165.46875 120.234375 165.160156 C 119.859375 164.933594 119.46875 164.699219 119.078125 164.488281 C 119.015625 164.453125 118.941406 164.46875 118.898438 164.523438 C 118.671875 164.816406 118.316406 165.132812 118.003906 165.414062 L 117.921875 165.484375 C 117.886719 165.519531 117.867188 165.5625 117.871094 165.613281 C 117.878906 165.65625 117.90625 165.699219 117.949219 165.722656 C 118.046875 165.777344 118.144531 165.84375 118.246094 165.910156 " fill-opacity="1" fill-rule="nonzero"/></g></g></g></g><g clip-path="url(#86f6b681cf)"><g clip-path="url(#7e3faab92f)"><g clip-path="url(#19f42526a2)"><g clip-path="url(#9b6829f220)"><path fill="#000000" d="M 85.105469 223 C 85.1875 223.042969 85.269531 223.089844 85.355469 223.125 C 85.585938 223.21875 85.699219 223.34375 85.808594 223.519531 C 85.832031 223.554688 85.871094 223.578125 85.910156 223.582031 C 85.929688 223.585938 85.949219 223.585938 85.964844 223.582031 C 85.988281 223.578125 86.007812 223.566406 86.027344 223.546875 C 86.710938 222.9375 87.433594 222.269531 88.132812 221.480469 L 88.671875 220.867188 C 89.5 219.921875 90.359375 218.949219 91.183594 217.964844 C 91.671875 217.386719 92.175781 217.035156 92.707031 216.660156 C 92.886719 216.535156 93.074219 216.40625 93.261719 216.265625 C 93.292969 216.242188 93.3125 216.207031 93.316406 216.167969 C 93.320312 216.128906 93.3125 216.089844 93.289062 216.0625 C 93.195312 215.941406 93.121094 215.808594 93.082031 215.675781 C 93.042969 215.578125 93.027344 215.480469 93.015625 215.367188 C 93.011719 215.328125 92.992188 215.289062 92.957031 215.265625 C 92.921875 215.238281 92.878906 215.230469 92.839844 215.238281 C 91.875 215.472656 91.304688 215.496094 90.878906 214.976562 C 90.398438 214.390625 90.144531 213.839844 90.078125 213.242188 C 90.074219 213.203125 90.050781 213.164062 90.019531 213.140625 C 89.953125 213.09375 89.867188 213.125 89.792969 213.140625 C 89.75 213.148438 89.710938 213.15625 89.640625 213.171875 C 89.347656 213.242188 89.0625 213.300781 88.808594 213.210938 C 88.683594 213.164062 88.585938 213.085938 88.5 212.980469 C 88.46875 212.941406 88.421875 212.921875 88.371094 212.925781 C 88.320312 212.933594 88.277344 212.964844 88.257812 213.007812 C 88.195312 213.140625 88.132812 213.269531 88.070312 213.402344 C 87.835938 213.898438 87.589844 214.417969 87.425781 214.964844 C 86.984375 216.441406 86.402344 217.894531 85.839844 219.304688 C 85.707031 219.636719 85.574219 219.96875 85.441406 220.304688 C 85.140625 221.070312 84.835938 221.84375 84.539062 222.625 C 84.523438 222.664062 84.527344 222.710938 84.546875 222.746094 C 84.570312 222.785156 84.605469 222.8125 84.648438 222.816406 C 84.800781 222.847656 84.945312 222.921875 85.105469 223 " fill-opacity="1" fill-rule="nonzero"/></g></g></g></g><g clip-path="url(#0773c5c27b)"><g clip-path="url(#3de0536c31)"><g clip-path="url(#16d2411378)"><g clip-path="url(#deb430c6a5)"><path fill="#000000" d="M 120.375 162.738281 C 120.40625 162.757812 120.445312 162.773438 120.476562 162.796875 C 121.011719 163.109375 121.503906 163.503906 121.980469 163.882812 C 122.300781 164.136719 122.628906 164.402344 122.96875 164.636719 C 123.285156 164.863281 123.605469 165.109375 123.914062 165.347656 C 124.515625 165.816406 125.140625 166.300781 125.800781 166.667969 C 125.832031 166.6875 125.867188 166.691406 125.902344 166.683594 C 125.917969 166.679688 125.933594 166.671875 125.945312 166.664062 C 125.988281 166.636719 126.015625 166.585938 126.011719 166.53125 C 126.007812 166.5 126.027344 166.464844 126.0625 166.417969 C 126.109375 166.339844 126.191406 166.21875 126.121094 166.054688 C 125.984375 165.757812 125.625 165.625 125.308594 165.503906 C 125.171875 165.453125 125.046875 165.40625 124.957031 165.355469 C 124.957031 165.351562 124.957031 165.351562 124.957031 165.351562 C 124.519531 165.097656 124.101562 164.699219 123.699219 164.3125 L 123.453125 164.078125 C 122.90625 163.5625 122.339844 163.101562 121.671875 162.636719 C 121.59375 162.582031 121.515625 162.519531 121.4375 162.457031 C 121.230469 162.289062 120.992188 162.101562 120.71875 162.035156 C 120.613281 162.011719 120.328125 161.945312 120.148438 162.148438 C 120.070312 162.242188 120.039062 162.339844 120.054688 162.433594 C 120.085938 162.589844 120.238281 162.667969 120.375 162.738281 " fill-opacity="1" fill-rule="nonzero"/></g></g></g></g><g clip-path="url(#482fddbb69)"><g clip-path="url(#429f846bcb)"><g clip-path="url(#44f8baa425)"><g clip-path="url(#096ecab881)"><path fill="#000000" d="M 88.933594 212.40625 C 88.945312 212.441406 88.949219 212.460938 88.949219 212.476562 C 88.957031 212.515625 88.992188 212.574219 89.027344 212.59375 C 89.0625 212.617188 89.125 212.617188 89.160156 212.601562 L 89.175781 212.601562 C 89.175781 212.597656 89.175781 212.597656 89.179688 212.597656 C 89.246094 212.585938 89.316406 212.574219 89.386719 212.5625 C 89.519531 212.542969 89.664062 212.519531 89.800781 212.488281 C 89.863281 212.472656 89.921875 212.453125 89.984375 212.4375 C 90.011719 212.425781 90.035156 212.40625 90.050781 212.382812 C 92.296875 209.082031 94.445312 205.640625 96.523438 202.3125 C 99.082031 198.21875 101.726562 193.984375 104.566406 189.976562 C 104.984375 189.394531 105.402344 188.816406 105.824219 188.234375 C 106.953125 186.683594 108.121094 185.078125 109.128906 183.414062 C 109.769531 182.351562 110.359375 181.242188 110.933594 180.167969 C 111.503906 179.097656 112.089844 177.996094 112.726562 176.941406 C 113.609375 175.484375 114.589844 174.070312 115.539062 172.703125 C 116.746094 170.960938 117.996094 169.164062 119.050781 167.246094 C 119.070312 167.214844 119.074219 167.171875 119.0625 167.136719 C 119.054688 167.097656 119.027344 167.066406 118.992188 167.046875 C 118.820312 166.960938 118.648438 166.882812 118.464844 166.804688 C 118.347656 166.769531 118.222656 166.667969 118.085938 166.566406 C 118.019531 166.515625 117.957031 166.460938 117.890625 166.414062 C 117.855469 166.394531 117.816406 166.382812 117.78125 166.394531 C 117.753906 166.394531 117.710938 166.421875 117.6875 166.453125 C 116.9375 167.601562 116.15625 168.761719 115.398438 169.882812 C 113.699219 172.410156 111.9375 175.027344 110.371094 177.707031 C 108.59375 180.742188 106.542969 183.625 104.5625 186.414062 C 103.6875 187.644531 102.78125 188.917969 101.910156 190.191406 C 99.335938 193.953125 96.691406 198.179688 93.578125 203.484375 C 92.617188 205.121094 91.605469 206.742188 90.625 208.3125 C 90.003906 209.308594 89.386719 210.296875 88.773438 211.300781 C 88.753906 211.335938 88.746094 211.382812 88.757812 211.421875 C 88.785156 211.492188 88.789062 211.546875 88.769531 211.617188 C 88.761719 211.652344 88.75 211.679688 88.746094 211.71875 C 88.742188 211.734375 88.742188 211.753906 88.75 211.773438 C 88.777344 211.867188 88.800781 211.957031 88.832031 212.050781 C 88.867188 212.164062 88.902344 212.28125 88.933594 212.40625 " fill-opacity="1" fill-rule="nonzero"/></g></g></g></g><g clip-path="url(#bccd406b7a)"><g clip-path="url(#2ca22ed2ff)"><g clip-path="url(#06316e2520)"><g clip-path="url(#97984a99ab)"><path fill="#000000" d="M 83.433594 226.304688 C 83.464844 226.296875 83.492188 226.28125 83.511719 226.257812 C 83.636719 226.097656 83.765625 225.9375 83.890625 225.777344 C 84.269531 225.292969 84.628906 224.835938 84.988281 224.5 C 85.066406 224.429688 85.140625 224.359375 85.21875 224.289062 L 85.324219 224.191406 C 85.367188 224.152344 85.371094 224.0625 85.347656 224.007812 C 85.296875 223.882812 85.265625 223.808594 85.1875 223.757812 L 85.140625 223.734375 C 85.058594 223.699219 84.980469 223.664062 84.902344 223.625 C 84.902344 223.621094 84.898438 223.621094 84.898438 223.621094 C 84.871094 223.609375 84.84375 223.59375 84.8125 223.574219 C 84.714844 223.519531 84.589844 223.445312 84.4375 223.460938 C 84.429688 223.460938 84.421875 223.460938 84.394531 223.453125 C 84.394531 223.453125 84.363281 223.445312 84.359375 223.441406 C 84.289062 223.425781 84.21875 223.464844 84.195312 223.53125 C 83.847656 224.445312 83.546875 225.292969 83.265625 226.117188 C 83.242188 226.183594 83.269531 226.257812 83.332031 226.289062 C 83.363281 226.308594 83.402344 226.3125 83.433594 226.304688 " fill-opacity="1" fill-rule="nonzero"/></g></g></g></g><g clip-path="url(#c3bc803d69)"><g clip-path="url(#a6c8b810ba)"><g clip-path="url(#11e9115c34)"><g clip-path="url(#03603c89b5)"><path fill="#000000" d="M 121.011719 164.828125 C 121.25 164.980469 121.511719 165.109375 121.765625 165.238281 C 122.085938 165.398438 122.417969 165.566406 122.683594 165.765625 C 123.246094 166.179688 123.765625 166.660156 124.269531 167.121094 C 124.542969 167.371094 124.808594 167.617188 125.085938 167.855469 C 125.117188 167.882812 125.160156 167.894531 125.203125 167.890625 C 125.207031 167.890625 125.207031 167.890625 125.210938 167.886719 C 125.25 167.878906 125.28125 167.855469 125.300781 167.820312 C 125.3125 167.804688 125.324219 167.785156 125.332031 167.765625 C 125.339844 167.746094 125.347656 167.730469 125.375 167.691406 C 125.421875 167.597656 125.46875 167.511719 125.515625 167.421875 C 125.550781 167.355469 125.53125 167.273438 125.46875 167.234375 C 124.433594 166.527344 123.480469 165.847656 122.648438 165.214844 C 122.402344 165.023438 122.160156 164.820312 121.921875 164.625 C 121.25 164.0625 120.558594 163.484375 119.71875 163.117188 C 119.652344 163.089844 119.578125 163.113281 119.539062 163.175781 C 119.433594 163.351562 119.332031 163.53125 119.257812 163.679688 C 119.222656 163.75 119.25 163.835938 119.316406 163.871094 C 119.953125 164.207031 120.484375 164.5 121.011719 164.828125 " fill-opacity="1" fill-rule="nonzero"/></g></g></g></g><g clip-path="url(#bc24a221c7)"><g clip-path="url(#8535c13e63)"><g clip-path="url(#ad9c5172c5)"><g clip-path="url(#9a2cc4cd6c)"><path fill="#000000" d="M 121.40625 161.171875 C 121.558594 160.878906 121.824219 160.570312 122.039062 160.320312 C 122.199219 160.117188 122.394531 159.929688 122.628906 159.746094 C 122.8125 159.601562 123.03125 159.675781 123.144531 159.820312 C 123.183594 159.871094 123.300781 160.046875 123.105469 160.199219 C 122.894531 160.367188 122.652344 160.566406 122.464844 160.820312 C 122.421875 160.878906 122.371094 160.945312 122.320312 161.003906 C 122.1875 161.171875 122.050781 161.347656 121.953125 161.535156 C 121.835938 161.765625 121.632812 161.683594 121.574219 161.652344 C 121.445312 161.582031 121.292969 161.398438 121.40625 161.171875 Z M 124.375 160.148438 C 124.496094 160.265625 124.550781 160.464844 124.398438 160.625 C 124.074219 160.960938 123.773438 161.335938 123.488281 161.699219 C 123.363281 161.855469 123.238281 162.007812 123.113281 162.160156 C 123.0625 162.222656 122.984375 162.238281 122.933594 162.238281 C 122.832031 162.242188 122.730469 162.207031 122.664062 162.140625 C 122.515625 161.984375 122.574219 161.792969 122.683594 161.660156 C 122.800781 161.523438 122.910156 161.378906 123.023438 161.238281 C 123.320312 160.867188 123.625 160.484375 123.949219 160.140625 C 124.101562 159.984375 124.273438 160.050781 124.375 160.148438 Z M 125.195312 160.535156 C 125.226562 160.527344 125.253906 160.527344 125.28125 160.527344 C 125.40625 160.535156 125.535156 160.613281 125.589844 160.722656 C 125.636719 160.8125 125.628906 160.914062 125.566406 161.015625 C 125.410156 161.269531 125.222656 161.496094 125.027344 161.730469 L 124.898438 161.890625 C 124.816406 161.984375 124.742188 162.082031 124.664062 162.179688 C 124.523438 162.367188 124.386719 162.539062 124.222656 162.691406 C 124.144531 162.757812 124.0625 162.789062 123.976562 162.777344 C 123.894531 162.765625 123.8125 162.722656 123.753906 162.65625 C 123.695312 162.589844 123.664062 162.515625 123.660156 162.4375 C 123.660156 162.359375 123.695312 162.285156 123.765625 162.222656 C 123.765625 162.222656 123.765625 162.21875 123.765625 162.21875 C 123.9375 162.0625 124.074219 161.886719 124.207031 161.710938 C 124.269531 161.632812 124.332031 161.550781 124.398438 161.472656 L 124.535156 161.304688 C 124.695312 161.105469 124.863281 160.898438 125.007812 160.675781 C 125.0625 160.589844 125.132812 160.550781 125.195312 160.535156 Z M 126.503906 161.46875 C 126.574219 161.453125 126.652344 161.460938 126.730469 161.503906 C 126.804688 161.554688 126.867188 161.652344 126.886719 161.753906 C 126.890625 161.796875 126.898438 161.882812 126.847656 161.953125 C 126.734375 162.105469 126.597656 162.253906 126.46875 162.394531 C 126.179688 162.703125 125.882812 163.019531 125.734375 163.453125 C 125.679688 163.605469 125.570312 163.65625 125.488281 163.667969 C 125.363281 163.691406 125.21875 163.644531 125.140625 163.554688 C 125.078125 163.480469 125.066406 163.386719 125.101562 163.28125 C 125.238281 162.902344 125.398438 162.609375 125.617188 162.363281 C 125.703125 162.261719 125.792969 162.167969 125.886719 162.070312 C 126.019531 161.933594 126.15625 161.792969 126.269531 161.632812 C 126.328125 161.554688 126.410156 161.492188 126.503906 161.46875 Z M 127.347656 162.570312 C 127.464844 162.597656 127.570312 162.703125 127.609375 162.828125 C 127.632812 162.910156 127.640625 163.027344 127.53125 163.148438 L 127.421875 163.269531 C 127.273438 163.4375 127.125 163.609375 126.957031 163.734375 C 126.867188 163.792969 126.796875 163.921875 126.714844 164.085938 L 126.679688 164.15625 C 126.617188 164.265625 126.558594 164.34375 126.488281 164.414062 C 126.324219 164.5625 126.128906 164.5 126.015625 164.371094 C 125.957031 164.308594 125.925781 164.230469 125.921875 164.160156 C 125.921875 164.078125 125.957031 164.003906 126.023438 163.941406 C 126.109375 163.867188 126.167969 163.761719 126.21875 163.667969 C 126.234375 163.640625 126.246094 163.613281 126.261719 163.589844 C 126.335938 163.476562 126.414062 163.371094 126.496094 163.265625 L 126.515625 163.242188 C 126.605469 163.132812 126.714844 163.03125 126.832031 162.925781 C 126.921875 162.839844 127.011719 162.757812 127.09375 162.664062 C 127.140625 162.613281 127.1875 162.582031 127.242188 162.570312 C 127.277344 162.5625 127.308594 162.5625 127.347656 162.570312 Z M 121.285156 162.121094 C 122.277344 162.757812 123.214844 163.355469 124.128906 164.09375 C 124.652344 164.511719 125.222656 164.953125 125.851562 165.335938 C 125.9375 165.386719 126.027344 165.433594 126.109375 165.480469 C 126.191406 165.523438 126.269531 165.5625 126.351562 165.613281 C 126.382812 165.628906 126.417969 165.636719 126.453125 165.625 C 126.457031 165.625 126.457031 165.625 126.457031 165.625 C 126.496094 165.617188 126.527344 165.59375 126.546875 165.558594 C 126.671875 165.332031 126.808594 165.117188 126.945312 164.890625 L 126.964844 164.859375 C 127.089844 164.667969 127.277344 164.464844 127.46875 164.25 C 127.867188 163.816406 128.316406 163.324219 128.363281 162.773438 C 128.375 162.613281 128.46875 162.472656 128.546875 162.378906 C 128.570312 162.347656 128.585938 162.308594 128.578125 162.269531 C 128.574219 162.230469 128.554688 162.195312 128.527344 162.171875 C 126.671875 160.71875 124.773438 159.628906 122.554688 158.734375 C 122.492188 158.710938 122.421875 158.730469 122.382812 158.789062 C 121.84375 159.609375 121.253906 160.480469 120.570312 161.277344 C 120.515625 161.34375 120.488281 161.398438 120.46875 161.457031 C 120.441406 161.519531 120.464844 161.59375 120.523438 161.628906 C 120.777344 161.796875 121.03125 161.957031 121.285156 162.121094 " fill-opacity="1" fill-rule="nonzero"/></g></g></g></g><g clip-path="url(#8361442d56)"><g clip-path="url(#f879d8a2bb)"><g clip-path="url(#6a22b82e65)"><g clip-path="url(#da9044736c)"><path fill="#000000" d="M 126.453125 159.878906 C 127.339844 160.40625 128.109375 161.011719 128.890625 161.632812 C 128.921875 161.660156 128.964844 161.667969 129.003906 161.660156 C 129.007812 161.660156 129.007812 161.660156 129.011719 161.660156 C 129.050781 161.648438 129.082031 161.625 129.101562 161.589844 C 129.304688 161.238281 129.5 160.832031 129.542969 160.683594 C 129.578125 160.527344 129.792969 160.449219 129.859375 160.425781 C 129.90625 160.414062 129.945312 160.371094 129.953125 160.324219 C 129.964844 160.269531 129.949219 160.21875 129.914062 160.183594 C 129.457031 159.761719 128.976562 159.410156 128.46875 159.039062 L 128.085938 158.753906 C 127.722656 158.480469 127.320312 158.308594 126.929688 158.140625 C 126.726562 158.054688 126.523438 157.96875 126.324219 157.867188 C 126.1875 157.796875 126.03125 157.703125 125.863281 157.605469 C 125.273438 157.253906 124.535156 156.816406 123.945312 156.882812 C 123.886719 156.894531 123.835938 156.882812 123.777344 156.859375 C 123.710938 156.835938 123.640625 156.859375 123.605469 156.917969 C 123.367188 157.273438 123.132812 157.628906 122.90625 157.988281 C 122.882812 158.023438 122.875 158.070312 122.890625 158.113281 C 122.902344 158.152344 122.933594 158.183594 122.976562 158.199219 C 124.09375 158.660156 125.292969 159.179688 126.453125 159.878906 " fill-opacity="1" fill-rule="nonzero"/></g></g></g></g><g clip-path="url(#9190cf64ce)"><g clip-path="url(#13c206e660)"><g clip-path="url(#e317700d7e)"><g clip-path="url(#3ee565190d)"><path fill="#000000" d="M 124.308594 156.265625 C 125.101562 156.363281 125.898438 156.800781 126.664062 157.222656 C 126.988281 157.402344 127.296875 157.570312 127.59375 157.710938 C 128.085938 157.9375 128.503906 158.25 128.945312 158.585938 C 129.105469 158.703125 129.265625 158.824219 129.425781 158.9375 C 129.546875 159.023438 129.679688 159.089844 129.8125 159.15625 C 129.980469 159.238281 130.144531 159.316406 130.25 159.433594 C 130.273438 159.453125 130.285156 159.472656 130.304688 159.496094 C 130.324219 159.519531 130.34375 159.546875 130.367188 159.574219 C 130.402344 159.609375 130.449219 159.628906 130.5 159.617188 C 130.503906 159.617188 130.503906 159.617188 130.503906 159.617188 C 130.554688 159.605469 130.589844 159.570312 130.605469 159.527344 C 130.714844 159.234375 130.824219 158.875 130.925781 158.464844 C 130.941406 158.410156 130.921875 158.351562 130.878906 158.316406 C 130.722656 158.191406 130.574219 158.058594 130.429688 157.925781 C 130.230469 157.753906 130.023438 157.570312 129.804688 157.402344 C 129.636719 157.277344 129.476562 157.105469 129.320312 156.9375 L 129.261719 156.875 C 129.070312 156.664062 128.855469 156.53125 128.648438 156.410156 C 128.550781 156.347656 128.449219 156.285156 128.34375 156.210938 C 127.78125 155.800781 127.140625 155.378906 126.289062 155.0625 C 126.089844 154.988281 125.90625 154.847656 125.710938 154.703125 C 125.652344 154.660156 125.597656 154.621094 125.539062 154.578125 C 125.480469 154.535156 125.398438 154.542969 125.347656 154.597656 C 124.949219 155.058594 124.578125 155.527344 124.210938 156.039062 C 124.183594 156.078125 124.175781 156.132812 124.195312 156.179688 C 124.21875 156.226562 124.261719 156.261719 124.308594 156.265625 " fill-opacity="1" fill-rule="nonzero"/></g></g></g></g><g clip-path="url(#78fc863f31)"><g clip-path="url(#ec7e026cdf)"><g clip-path="url(#dbc31a5f23)"><g clip-path="url(#0be6621fc5)"><path fill="#000000" d="M 133.199219 153.226562 C 132.960938 152.964844 132.707031 152.695312 132.449219 152.457031 C 132.0625 152.109375 131.582031 151.855469 131.117188 151.609375 C 131.003906 151.554688 130.894531 151.492188 130.789062 151.433594 L 130.503906 151.273438 C 130.085938 151.039062 129.65625 150.796875 129.207031 150.59375 C 129.082031 150.535156 128.957031 150.484375 128.832031 150.433594 C 128.640625 150.355469 128.460938 150.28125 128.292969 150.183594 C 128.238281 150.152344 128.167969 150.160156 128.125 150.199219 C 127.527344 150.730469 126.761719 151.535156 126.476562 152.351562 C 126.351562 152.734375 126.160156 153.078125 125.953125 153.445312 C 125.890625 153.554688 125.832031 153.660156 125.773438 153.769531 C 125.753906 153.804688 125.75 153.847656 125.761719 153.882812 C 125.773438 153.917969 125.796875 153.949219 125.828125 153.96875 C 125.980469 154.046875 126.125 154.132812 126.269531 154.21875 C 126.546875 154.382812 126.835938 154.546875 127.144531 154.6875 C 127.429688 154.816406 127.691406 155 127.941406 155.179688 C 128.175781 155.347656 128.421875 155.523438 128.691406 155.652344 C 129.3125 155.953125 129.800781 156.433594 130.316406 156.941406 C 130.535156 157.164062 130.765625 157.386719 131.003906 157.597656 C 131.039062 157.628906 131.089844 157.640625 131.132812 157.628906 C 131.136719 157.628906 131.136719 157.628906 131.140625 157.628906 C 131.183594 157.613281 131.222656 157.578125 131.234375 157.53125 C 131.585938 156.394531 132.324219 155.355469 133.035156 154.347656 C 133.1875 154.128906 133.339844 153.910156 133.488281 153.699219 C 133.527344 153.640625 133.519531 153.566406 133.472656 153.515625 C 133.382812 153.421875 133.292969 153.320312 133.199219 153.226562 " fill-opacity="1" fill-rule="nonzero"/></g></g></g></g><g clip-path="url(#2e4b43b648)"><g clip-path="url(#efdee648f4)"><path fill="#000000" d="M 100.699219 180.753906 L 114.191406 180.753906 L 114.191406 194.246094 L 100.699219 194.246094 Z M 100.699219 180.753906 " fill-opacity="1" fill-rule="nonzero"/></g></g><g clip-path="url(#4845a92559)"><g clip-path="url(#0166995678)"><path stroke-linecap="butt" transform="matrix(0.75, 0, 0, 0.75, 100.699539, 180.754047)" fill="none" stroke-linejoin="miter" d="M 8.994366 -0.000187041 C 4.025615 -0.000187041 -0.000426583 4.025855 -0.000426583 8.994605 C -0.000426583 13.958147 4.025615 17.984189 8.994366 17.984189 C 13.957908 17.984189 17.98395 13.958147 17.98395 8.994605 C 17.98395 4.025855 13.957908 -0.000187041 8.994366 -0.000187041 Z M 8.994366 -0.000187041 " stroke="#ffffff" stroke-width="4" stroke-opacity="1" stroke-miterlimit="4"/></g></g><g fill="#000000" fill-opacity="1"><g transform="translate(181.406109, 195.259542)"><g><path d="M 0.320312 -9.789062 L 0.304688 -9.410156 C 0.304688 -9.183594 0.320312 -8.957031 0.359375 -8.726562 C 0.398438 -8.5 0.511719 -8.253906 0.679688 -7.988281 C 0.851562 -7.726562 0.984375 -7.574219 1.097656 -7.515625 L 1.023438 -7.535156 L 3.730469 -3.769531 C 3.769531 -3.710938 3.863281 -3.636719 3.976562 -3.539062 C 4.089844 -3.445312 4.144531 -3.390625 4.164062 -3.390625 L 4.222656 -2.726562 C 4.222656 -2.652344 4.203125 -2.59375 4.203125 -2.554688 C 4.164062 -2.40625 3.671875 -2.253906 2.726562 -2.0625 L 1.875 -1.894531 C 1.382812 -1.894531 1.003906 -1.855469 0.757812 -1.796875 C 0.53125 -1.722656 0.433594 -1.515625 0.433594 -1.175781 C 0.433594 -0.984375 0.453125 -0.8125 0.511719 -0.664062 C 0.625 -0.246094 1.023438 -0.0390625 1.683594 -0.0390625 L 3.046875 -0.207031 L 4.222656 -0.472656 C 4.523438 -0.550781 5 -0.777344 5.605469 -1.15625 C 6.210938 -1.535156 6.570312 -1.835938 6.683594 -2.0625 C 6.757812 -2.253906 6.816406 -2.5 6.816406 -2.839844 C 6.816406 -3.238281 6.757812 -3.671875 6.644531 -4.164062 C 6.570312 -4.507812 6.417969 -4.902344 6.152344 -5.378906 L 4.164062 -7.554688 L 4.089844 -7.648438 C 3.445312 -8.558594 3.105469 -9.164062 3.046875 -9.449219 L 3.046875 -9.503906 C 3.046875 -9.617188 3.125 -9.75 3.3125 -9.941406 C 3.351562 -9.957031 3.390625 -10.015625 3.445312 -10.109375 L 4.144531 -10.394531 C 4.375 -10.46875 4.507812 -10.527344 4.523438 -10.546875 C 4.601562 -10.566406 5 -10.582031 5.71875 -10.582031 L 6.324219 -10.582031 C 6.589844 -10.582031 6.757812 -10.621094 6.871094 -10.734375 L 6.871094 -10.753906 C 7.117188 -11.058594 7.269531 -11.285156 7.328125 -11.4375 C 7.328125 -11.566406 7.234375 -11.8125 7.082031 -12.175781 C 6.929688 -12.535156 6.777344 -12.816406 6.664062 -13.007812 L 6.664062 -12.988281 C 6.550781 -13.140625 6.191406 -13.234375 5.546875 -13.234375 C 5.054688 -13.234375 4.523438 -13.195312 3.996094 -13.160156 L 2.726562 -12.628906 L 1.796875 -12.023438 L 1.042969 -11.265625 C 0.832031 -11.113281 0.585938 -10.621094 0.320312 -9.789062 Z M 0.320312 -9.789062 "/></g></g></g><g fill="#000000" fill-opacity="1"><g transform="translate(188.97634, 195.259542)"><g><path d="M 2.519531 -6.703125 L 2.535156 -7.195312 C 2.535156 -7.515625 2.554688 -7.894531 2.613281 -8.3125 C 2.652344 -8.726562 2.726562 -9.011719 2.820312 -9.203125 C 2.914062 -9.449219 3.085938 -9.730469 3.351562 -10.074219 C 3.617188 -10.394531 3.804688 -10.621094 3.957031 -10.734375 C 4.03125 -10.792969 4.277344 -10.886719 4.734375 -11.019531 C 5.1875 -11.152344 5.472656 -11.226562 5.585938 -11.246094 C 5.625 -11.246094 6.34375 -11.265625 7.707031 -11.265625 C 7.820312 -11.265625 7.914062 -11.359375 8.027344 -11.566406 L 8.179688 -11.585938 C 8.253906 -11.605469 8.347656 -11.644531 8.445312 -11.71875 C 8.539062 -11.796875 8.597656 -11.871094 8.597656 -11.984375 C 8.597656 -12.210938 8.40625 -12.535156 8.046875 -12.929688 L 7.839844 -13.027344 C 7.6875 -13.101562 7.496094 -13.160156 7.269531 -13.234375 C 7.042969 -13.292969 6.855469 -13.328125 6.703125 -13.328125 L 6.511719 -13.328125 C 4.941406 -13.234375 3.824219 -12.96875 3.179688 -12.535156 C 2.5 -12.078125 2.042969 -11.683594 1.816406 -11.339844 L 1.703125 -11.132812 C 1.628906 -11 1.535156 -10.828125 1.4375 -10.601562 C 1.324219 -10.375 1.25 -10.167969 1.210938 -9.996094 C 0.699219 -8.480469 0.453125 -7.234375 0.453125 -6.265625 C 0.453125 -6.058594 0.453125 -5.925781 0.492188 -5.886719 L 0.53125 -5.1875 C 0.566406 -4.734375 0.664062 -4.203125 0.8125 -3.597656 C 0.964844 -2.992188 1.15625 -2.535156 1.421875 -2.253906 C 1.796875 -1.796875 2.273438 -1.382812 2.839844 -1.023438 C 3.40625 -0.664062 3.957031 -0.417969 4.46875 -0.304688 C 5.09375 -0.1875 5.566406 -0.132812 5.871094 -0.132812 L 6.625 -0.226562 L 7.175781 -0.1875 C 7.402344 -0.1875 7.535156 -0.226562 7.609375 -0.304688 C 7.667969 -0.378906 7.761719 -0.566406 7.914062 -0.910156 C 8.066406 -1.230469 8.140625 -1.421875 8.140625 -1.457031 C 8.140625 -1.550781 8.101562 -1.722656 8.027344 -1.949219 L 8.066406 -2.007812 C 8.101562 -2.042969 8.121094 -2.082031 8.160156 -2.160156 C 8.199219 -2.214844 8.21875 -2.273438 8.21875 -2.308594 C 8.21875 -2.386719 8.140625 -2.421875 8.007812 -2.421875 C 7.894531 -2.421875 7.761719 -2.386719 7.59375 -2.347656 C 6.929688 -2.195312 6.4375 -2.140625 6.132812 -2.140625 C 4.242188 -2.195312 3.179688 -2.800781 2.914062 -3.957031 C 2.652344 -5.09375 2.519531 -6 2.519531 -6.703125 Z M 2.519531 -6.703125 "/></g></g></g><g fill="#000000" fill-opacity="1"><g transform="translate(197.417137, 195.259542)"><g><path d="M 1.042969 -12.722656 L 0.984375 -12.667969 L 0.890625 -11.566406 C 0.890625 -11.359375 0.945312 -11.152344 1.078125 -10.960938 L 1.667969 -10.925781 L 2.554688 -10.925781 L 2.328125 -8.253906 L 2.328125 -2.519531 C 2.328125 -2.421875 2.175781 -2.308594 1.894531 -2.160156 L 1.914062 -2.175781 L 1.289062 -2.082031 C 1.191406 -2.082031 1.097656 -1.929688 1.003906 -1.628906 C 0.890625 -1.324219 0.851562 -1.078125 0.851562 -0.890625 C 0.851562 -0.566406 1.097656 -0.320312 1.609375 -0.171875 L 2.667969 -0.171875 L 5.394531 -0.566406 L 5.699219 -0.566406 L 5.832031 -0.625 C 5.925781 -0.664062 6.019531 -0.777344 6.132812 -0.964844 C 6.230469 -1.15625 6.285156 -1.402344 6.285156 -1.703125 C 6.285156 -2.007812 6.132812 -2.234375 5.871094 -2.367188 C 5.605469 -2.5 5.300781 -2.574219 4.960938 -2.574219 C 4.808594 -2.574219 4.695312 -2.554688 4.601562 -2.535156 L 4.449219 -2.59375 C 4.390625 -2.59375 4.375 -2.859375 4.375 -3.351562 L 4.375 -3.996094 C 4.375 -4.070312 4.355469 -4.144531 4.335938 -4.183594 L 4.601562 -9.410156 C 4.601562 -9.597656 4.582031 -9.84375 4.5625 -10.1875 L 4.507812 -11 L 4.601562 -11.09375 C 4.714844 -11.09375 4.902344 -11.09375 5.132812 -11.132812 C 5.359375 -11.152344 5.546875 -11.171875 5.660156 -11.191406 L 6.097656 -11.191406 L 6.132812 -11.285156 C 6.132812 -11.359375 6.152344 -11.472656 6.171875 -11.625 C 6.191406 -11.777344 6.210938 -11.964844 6.210938 -12.15625 C 6.210938 -12.457031 6.078125 -12.683594 5.851562 -12.835938 C 5.605469 -12.988281 5.300781 -13.0625 4.960938 -13.0625 C 4.621094 -13.0625 4.128906 -12.96875 3.484375 -12.78125 L 1.875 -12.78125 L 1.667969 -12.648438 L 1.648438 -12.628906 C 1.628906 -12.609375 1.609375 -12.609375 1.609375 -12.609375 C 1.457031 -12.722656 1.324219 -12.800781 1.230469 -12.800781 C 1.191406 -12.800781 1.117188 -12.761719 1.042969 -12.722656 Z M 1.042969 -12.722656 "/></g></g></g><g fill="#000000" fill-opacity="1"><g transform="translate(204.192487, 195.259542)"><g><path d="M 2.933594 -7.855469 L 2.59375 -7.894531 L 2.441406 -9.089844 C 2.441406 -9.277344 2.441406 -9.5625 2.480469 -9.941406 C 2.5 -10.320312 2.519531 -10.621094 2.535156 -10.828125 L 2.859375 -11 L 4.582031 -11.058594 L 6.644531 -10.90625 L 7.101562 -11 L 7.441406 -11.113281 L 7.496094 -11.207031 C 7.535156 -11.265625 7.554688 -11.320312 7.554688 -11.378906 C 7.554688 -11.4375 7.535156 -11.492188 7.480469 -11.53125 C 7.441406 -11.53125 7.363281 -11.929688 7.25 -12.722656 L 7.042969 -13.082031 L 4.886719 -13.195312 L 3.445312 -12.96875 C 3.292969 -12.96875 3.085938 -12.988281 2.820312 -13.027344 C 2.554688 -13.046875 2.347656 -13.0625 2.234375 -13.0625 L 1.15625 -13.175781 L 0.871094 -12.894531 L 0.890625 -12.894531 L 0.511719 -12.554688 L 0.417969 -12.382812 L 0.453125 -10.414062 L 0.417969 -8.027344 L 0.472656 -6.550781 L 0.304688 -3.730469 L 0.246094 -1.402344 L 0.433594 -0.359375 L 1.15625 -0.265625 L 2.289062 -0.113281 L 4.714844 0.113281 L 5.925781 0.0585938 L 6.117188 -0.09375 L 6.417969 -0.53125 L 6.511719 -0.871094 L 6.457031 -1.683594 L 6.324219 -1.78125 C 6.230469 -1.835938 6.058594 -1.894531 5.792969 -1.96875 C 5.527344 -2.027344 5.207031 -2.0625 4.867188 -2.0625 L 3.332031 -2.160156 L 2.367188 -2.0625 C 2.367188 -2.347656 2.347656 -2.765625 2.328125 -3.3125 C 2.289062 -3.84375 2.273438 -4.277344 2.273438 -4.582031 C 2.273438 -4.714844 2.308594 -4.941406 2.367188 -5.246094 L 2.480469 -5.925781 L 3.769531 -5.738281 L 4.507812 -5.640625 L 4.789062 -5.738281 L 5.113281 -5.886719 L 5.113281 -5.871094 C 5.167969 -5.871094 5.226562 -5.871094 5.28125 -5.90625 L 5.339844 -5.90625 C 5.359375 -5.90625 5.394531 -5.90625 5.433594 -5.925781 C 5.472656 -5.945312 5.492188 -5.984375 5.527344 -6.019531 L 5.546875 -6.039062 C 5.625 -6.078125 5.699219 -6.117188 5.792969 -6.152344 C 5.90625 -6.171875 5.964844 -6.324219 5.925781 -6.589844 L 5.871094 -6.644531 C 5.8125 -6.683594 5.753906 -6.742188 5.71875 -6.816406 C 5.679688 -6.890625 5.660156 -6.988281 5.660156 -7.082031 C 5.660156 -7.308594 5.585938 -7.535156 5.472656 -7.742188 C 5.339844 -7.953125 5.167969 -8.046875 4.941406 -8.027344 C 4.65625 -7.953125 4.277344 -7.914062 3.785156 -7.914062 Z M 2.933594 -7.855469 "/></g></g></g><g fill="#000000" fill-opacity="1"><g transform="translate(211.895192, 195.259542)"><g><path d="M 1.191406 -13.046875 L 0.925781 -12.988281 C 0.738281 -12.929688 0.566406 -12.835938 0.417969 -12.703125 C 0.246094 -12.554688 0.171875 -12.402344 0.207031 -12.230469 C 0.246094 -11.929688 0.265625 -11.265625 0.265625 -10.261719 C 0.265625 -9.617188 0.246094 -8.992188 0.246094 -8.386719 L 0.550781 -2.914062 L 0.984375 -0.171875 L 1.570312 -0.171875 L 2.160156 -0.285156 L 2.6875 -0.433594 L 2.820312 -0.984375 L 2.765625 -1.550781 C 2.726562 -1.796875 2.726562 -1.988281 2.726562 -2.101562 L 2.574219 -5.625 C 2.535156 -5.753906 2.5 -5.984375 2.441406 -6.285156 C 2.367188 -6.589844 2.328125 -6.816406 2.308594 -6.988281 C 2.308594 -7.101562 2.308594 -7.269531 2.328125 -7.515625 C 2.328125 -7.761719 2.347656 -7.953125 2.347656 -8.085938 L 2.367188 -8.085938 L 3.882812 -4.335938 L 5.507812 -0.945312 L 5.660156 -0.777344 C 5.753906 -0.664062 5.871094 -0.53125 6.019531 -0.398438 C 6.171875 -0.265625 6.285156 -0.1875 6.398438 -0.152344 C 6.417969 -0.09375 6.570312 -0.0742188 6.855469 -0.113281 C 7.136719 -0.152344 7.347656 -0.171875 7.460938 -0.1875 C 7.574219 -0.207031 7.6875 -0.226562 7.761719 -0.246094 L 8.347656 -0.644531 L 8.539062 -0.945312 L 8.613281 -1.117188 C 8.652344 -1.230469 8.691406 -1.324219 8.691406 -1.4375 C 8.691406 -1.535156 8.652344 -1.589844 8.578125 -1.609375 C 8.5 -1.609375 8.480469 -1.914062 8.519531 -2.554688 C 8.519531 -3.179688 8.5 -4.128906 8.5 -5.394531 C 8.480469 -6.664062 8.480469 -7.609375 8.480469 -8.253906 L 8.558594 -12.96875 L 8.367188 -13.0625 C 8.253906 -13.121094 8.085938 -13.175781 7.855469 -13.214844 C 7.628906 -13.253906 7.421875 -13.273438 7.234375 -13.253906 C 6.796875 -13.175781 6.457031 -13.082031 6.210938 -12.96875 C 5.964844 -12.855469 5.851562 -12.667969 5.871094 -12.402344 C 5.90625 -12.003906 6.019531 -11.664062 6.246094 -11.398438 L 6.285156 -10.621094 L 6.53125 -7.933594 C 6.53125 -7.402344 6.53125 -6.609375 6.550781 -5.585938 C 6.550781 -4.542969 6.570312 -3.769531 6.570312 -3.257812 L 5.472656 -5.945312 L 3.425781 -10.433594 L 2.121094 -12.628906 L 1.96875 -12.761719 C 1.875 -12.835938 1.742188 -12.914062 1.589844 -12.988281 C 1.4375 -13.0625 1.304688 -13.082031 1.191406 -13.046875 Z M 1.191406 -13.046875 "/></g></g></g><g fill="#000000" fill-opacity="1"><g transform="translate(220.998384, 195.259542)"><g><path d="M 2.519531 -6.703125 L 2.535156 -7.195312 C 2.535156 -7.515625 2.554688 -7.894531 2.613281 -8.3125 C 2.652344 -8.726562 2.726562 -9.011719 2.820312 -9.203125 C 2.914062 -9.449219 3.085938 -9.730469 3.351562 -10.074219 C 3.617188 -10.394531 3.804688 -10.621094 3.957031 -10.734375 C 4.03125 -10.792969 4.277344 -10.886719 4.734375 -11.019531 C 5.1875 -11.152344 5.472656 -11.226562 5.585938 -11.246094 C 5.625 -11.246094 6.34375 -11.265625 7.707031 -11.265625 C 7.820312 -11.265625 7.914062 -11.359375 8.027344 -11.566406 L 8.179688 -11.585938 C 8.253906 -11.605469 8.347656 -11.644531 8.445312 -11.71875 C 8.539062 -11.796875 8.597656 -11.871094 8.597656 -11.984375 C 8.597656 -12.210938 8.40625 -12.535156 8.046875 -12.929688 L 7.839844 -13.027344 C 7.6875 -13.101562 7.496094 -13.160156 7.269531 -13.234375 C 7.042969 -13.292969 6.855469 -13.328125 6.703125 -13.328125 L 6.511719 -13.328125 C 4.941406 -13.234375 3.824219 -12.96875 3.179688 -12.535156 C 2.5 -12.078125 2.042969 -11.683594 1.816406 -11.339844 L 1.703125 -11.132812 C 1.628906 -11 1.535156 -10.828125 1.4375 -10.601562 C 1.324219 -10.375 1.25 -10.167969 1.210938 -9.996094 C 0.699219 -8.480469 0.453125 -7.234375 0.453125 -6.265625 C 0.453125 -6.058594 0.453125 -5.925781 0.492188 -5.886719 L 0.53125 -5.1875 C 0.566406 -4.734375 0.664062 -4.203125 0.8125 -3.597656 C 0.964844 -2.992188 1.15625 -2.535156 1.421875 -2.253906 C 1.796875 -1.796875 2.273438 -1.382812 2.839844 -1.023438 C 3.40625 -0.664062 3.957031 -0.417969 4.46875 -0.304688 C 5.09375 -0.1875 5.566406 -0.132812 5.871094 -0.132812 L 6.625 -0.226562 L 7.175781 -0.1875 C 7.402344 -0.1875 7.535156 -0.226562 7.609375 -0.304688 C 7.667969 -0.378906 7.761719 -0.566406 7.914062 -0.910156 C 8.066406 -1.230469 8.140625 -1.421875 8.140625 -1.457031 C 8.140625 -1.550781 8.101562 -1.722656 8.027344 -1.949219 L 8.066406 -2.007812 C 8.101562 -2.042969 8.121094 -2.082031 8.160156 -2.160156 C 8.199219 -2.214844 8.21875 -2.273438 8.21875 -2.308594 C 8.21875 -2.386719 8.140625 -2.421875 8.007812 -2.421875 C 7.894531 -2.421875 7.761719 -2.386719 7.59375 -2.347656 C 6.929688 -2.195312 6.4375 -2.140625 6.132812 -2.140625 C 4.242188 -2.195312 3.179688 -2.800781 2.914062 -3.957031 C 2.652344 -5.09375 2.519531 -6 2.519531 -6.703125 Z M 2.519531 -6.703125 "/></g></g></g><g fill="#000000" fill-opacity="1"><g transform="translate(229.439181, 195.259542)"><g><path d="M 2.933594 -7.855469 L 2.59375 -7.894531 L 2.441406 -9.089844 C 2.441406 -9.277344 2.441406 -9.5625 2.480469 -9.941406 C 2.5 -10.320312 2.519531 -10.621094 2.535156 -10.828125 L 2.859375 -11 L 4.582031 -11.058594 L 6.644531 -10.90625 L 7.101562 -11 L 7.441406 -11.113281 L 7.496094 -11.207031 C 7.535156 -11.265625 7.554688 -11.320312 7.554688 -11.378906 C 7.554688 -11.4375 7.535156 -11.492188 7.480469 -11.53125 C 7.441406 -11.53125 7.363281 -11.929688 7.25 -12.722656 L 7.042969 -13.082031 L 4.886719 -13.195312 L 3.445312 -12.96875 C 3.292969 -12.96875 3.085938 -12.988281 2.820312 -13.027344 C 2.554688 -13.046875 2.347656 -13.0625 2.234375 -13.0625 L 1.15625 -13.175781 L 0.871094 -12.894531 L 0.890625 -12.894531 L 0.511719 -12.554688 L 0.417969 -12.382812 L 0.453125 -10.414062 L 0.417969 -8.027344 L 0.472656 -6.550781 L 0.304688 -3.730469 L 0.246094 -1.402344 L 0.433594 -0.359375 L 1.15625 -0.265625 L 2.289062 -0.113281 L 4.714844 0.113281 L 5.925781 0.0585938 L 6.117188 -0.09375 L 6.417969 -0.53125 L 6.511719 -0.871094 L 6.457031 -1.683594 L 6.324219 -1.78125 C 6.230469 -1.835938 6.058594 -1.894531 5.792969 -1.96875 C 5.527344 -2.027344 5.207031 -2.0625 4.867188 -2.0625 L 3.332031 -2.160156 L 2.367188 -2.0625 C 2.367188 -2.347656 2.347656 -2.765625 2.328125 -3.3125 C 2.289062 -3.84375 2.273438 -4.277344 2.273438 -4.582031 C 2.273438 -4.714844 2.308594 -4.941406 2.367188 -5.246094 L 2.480469 -5.925781 L 3.769531 -5.738281 L 4.507812 -5.640625 L 4.789062 -5.738281 L 5.113281 -5.886719 L 5.113281 -5.871094 C 5.167969 -5.871094 5.226562 -5.871094 5.28125 -5.90625 L 5.339844 -5.90625 C 5.359375 -5.90625 5.394531 -5.90625 5.433594 -5.925781 C 5.472656 -5.945312 5.492188 -5.984375 5.527344 -6.019531 L 5.546875 -6.039062 C 5.625 -6.078125 5.699219 -6.117188 5.792969 -6.152344 C 5.90625 -6.171875 5.964844 -6.324219 5.925781 -6.589844 L 5.871094 -6.644531 C 5.8125 -6.683594 5.753906 -6.742188 5.71875 -6.816406 C 5.679688 -6.890625 5.660156 -6.988281 5.660156 -7.082031 C 5.660156 -7.308594 5.585938 -7.535156 5.472656 -7.742188 C 5.339844 -7.953125 5.167969 -8.046875 4.941406 -8.027344 C 4.65625 -7.953125 4.277344 -7.914062 3.785156 -7.914062 Z M 2.933594 -7.855469 "/></g></g></g><g fill="#000000" fill-opacity="1"><g transform="translate(237.141885, 195.259542)"><g/></g></g><g fill="#000000" fill-opacity="1"><g transform="translate(241.532619, 195.259542)"><g><path d="M 1.023438 -12.761719 L 0.925781 -12.761719 L 0.757812 -7.761719 L 0.378906 -5.1875 C 0.339844 -4.734375 0.304688 -4.070312 0.246094 -3.199219 C 0.171875 -2.308594 0.132812 -1.667969 0.113281 -1.25 L 0.0195312 -0.777344 L 0.246094 -0.472656 L 0.472656 -0.398438 L 0.910156 -0.359375 L 1.34375 -0.492188 C 1.34375 -0.492188 1.457031 -0.550781 1.667969 -0.664062 L 2.0625 -2.121094 C 2.042969 -2.535156 2.027344 -3.179688 1.988281 -4.050781 C 1.949219 -4.921875 1.914062 -5.566406 1.914062 -6 L 2.160156 -7.496094 C 2.160156 -7.726562 2.140625 -8.101562 2.121094 -8.597656 C 2.082031 -9.089844 2.0625 -9.449219 2.0625 -9.710938 L 2.042969 -9.84375 C 2.042969 -9.808594 2.0625 -9.769531 2.082031 -9.730469 C 2.101562 -9.675781 2.121094 -9.636719 2.140625 -9.617188 L 2.214844 -9.449219 L 2.914062 -6.304688 L 3.066406 -5.433594 C 3.179688 -4.847656 3.277344 -4.261719 3.390625 -3.691406 C 3.503906 -3.105469 3.558594 -2.820312 3.558594 -2.839844 L 3.558594 -2.273438 C 3.558594 -2.082031 3.539062 -1.894531 3.523438 -1.722656 C 3.523438 -1.421875 3.558594 -1.15625 3.671875 -0.890625 C 3.710938 -0.699219 3.84375 -0.53125 4.03125 -0.359375 C 4.222656 -0.1875 4.355469 -0.113281 4.449219 -0.113281 C 5.015625 -0.113281 5.414062 -0.132812 5.605469 -0.207031 C 5.753906 -0.246094 5.832031 -0.359375 5.832031 -0.511719 L 5.871094 -0.679688 C 5.871094 -0.71875 5.886719 -0.777344 5.90625 -0.871094 C 5.90625 -0.945312 5.925781 -1.023438 5.945312 -1.078125 L 5.964844 -1.15625 L 7.308594 -7.214844 L 7.328125 -7.6875 L 7.328125 -3.3125 L 7.347656 -0.339844 C 7.347656 -0.246094 7.421875 -0.152344 7.574219 -0.0742188 C 7.726562 0 7.894531 0.0390625 8.085938 0.0390625 C 8.199219 0.0390625 8.273438 0.0390625 8.3125 0.0195312 C 8.691406 -0.0585938 9.011719 -0.246094 9.257812 -0.53125 C 9.335938 -0.625 9.371094 -0.925781 9.371094 -1.457031 C 9.371094 -1.609375 9.351562 -1.816406 9.351562 -2.082031 C 9.335938 -2.328125 9.335938 -2.460938 9.335938 -2.480469 L 9.464844 -3.523438 L 9.464844 -7.25 L 9.617188 -9.523438 L 9.65625 -11.152344 C 9.65625 -11.207031 9.636719 -11.320312 9.617188 -11.511719 C 9.5625 -11.757812 9.542969 -11.945312 9.542969 -12.058594 L 9.542969 -12.15625 C 9.542969 -12.210938 9.5625 -12.324219 9.5625 -12.496094 C 9.5625 -12.800781 9.429688 -13.0625 9.203125 -13.292969 C 8.9375 -13.519531 8.613281 -13.632812 8.21875 -13.632812 C 8.179688 -13.632812 8.140625 -13.613281 8.101562 -13.613281 C 8.066406 -13.613281 8.027344 -13.613281 8.027344 -13.613281 C 7.988281 -13.613281 7.933594 -13.59375 7.855469 -13.554688 C 7.78125 -13.519531 7.726562 -13.460938 7.667969 -13.421875 C 7.59375 -13.367188 7.535156 -13.308594 7.480469 -13.273438 C 7.421875 -13.214844 7.382812 -13.195312 7.382812 -13.195312 L 6.4375 -12.855469 C 6.4375 -12.816406 6.417969 -12.761719 6.417969 -12.667969 C 6.417969 -12.570312 6.417969 -12.515625 6.417969 -12.476562 L 5.792969 -8.613281 L 5.339844 -6.949219 L 4.867188 -4.675781 L 4.277344 -7.820312 L 3.898438 -10.074219 L 3.691406 -10.90625 C 3.578125 -11.171875 3.484375 -11.511719 3.390625 -11.890625 C 3.292969 -12.15625 3.179688 -12.421875 3.03125 -12.667969 C 2.878906 -12.894531 2.765625 -13.0625 2.667969 -13.160156 C 2.554688 -13.253906 2.5 -13.308594 2.480469 -13.308594 C 2.328125 -13.386719 2.007812 -13.421875 1.515625 -13.421875 L 1.34375 -13.421875 C 1.117188 -13.386719 1.023438 -13.175781 1.023438 -12.761719 Z M 1.023438 -12.761719 "/></g></g></g><g fill="#000000" fill-opacity="1"><g transform="translate(252.036308, 195.259542)"><g><path d="M 10.46875 -0.304688 L 9.863281 -3.617188 L 9.410156 -4.753906 L 9.410156 -4.734375 L 8.558594 -8.726562 L 8.234375 -9.523438 L 8.085938 -9.882812 L 7.136719 -12.667969 L 6.363281 -13.914062 L 6.246094 -13.953125 C 6.171875 -13.972656 6.058594 -13.992188 5.886719 -14.03125 C 5.699219 -14.046875 5.507812 -14.066406 5.28125 -14.066406 C 5.132812 -14.066406 4.960938 -13.992188 4.769531 -13.878906 C 4.5625 -13.765625 4.449219 -13.632812 4.449219 -13.5 C 4.429688 -13.347656 4.316406 -12.855469 4.109375 -12.058594 L 4.109375 -12.078125 L 2.441406 -8.121094 L 0.472656 -1.96875 C 0.511719 -1.835938 0.453125 -1.550781 0.339844 -1.136719 C 0.339844 -1.117188 0.320312 -1.097656 0.320312 -1.058594 C 0.304688 -1.023438 0.304688 -0.984375 0.304688 -0.984375 C 0.265625 -0.757812 0.226562 -0.664062 0.226562 -0.664062 C 0.226562 -0.53125 0.378906 -0.207031 0.644531 0.285156 L 1.269531 0.339844 C 1.457031 0.339844 1.722656 0.207031 2.042969 -0.0742188 C 2.234375 -1.382812 2.367188 -2.160156 2.40625 -2.421875 C 2.480469 -2.6875 2.632812 -3.105469 2.820312 -3.671875 L 3.84375 -3.804688 L 5.378906 -3.636719 L 7.609375 -3.636719 L 7.875 -2.027344 L 8.292969 -0.246094 L 8.367188 -0.0742188 C 8.425781 0.0390625 8.519531 0.132812 8.652344 0.226562 C 8.785156 0.339844 8.9375 0.378906 9.105469 0.378906 C 9.21875 0.378906 9.296875 0.378906 9.335938 0.359375 C 9.695312 0.207031 10.074219 0 10.46875 -0.304688 Z M 6.796875 -5.886719 L 6.742188 -5.851562 L 6.285156 -5.8125 L 4.636719 -5.8125 L 4.296875 -5.738281 C 4.183594 -5.699219 4.070312 -5.679688 3.917969 -5.660156 L 3.785156 -5.738281 L 4.128906 -6.476562 L 4.753906 -9.617188 L 4.753906 -9.597656 L 5.09375 -10.28125 L 5.359375 -11.019531 L 5.527344 -10.621094 L 5.527344 -10.640625 C 6.058594 -8.671875 6.417969 -7.347656 6.644531 -6.644531 C 6.644531 -6.550781 6.683594 -6.417969 6.722656 -6.246094 C 6.757812 -6.078125 6.777344 -5.964844 6.796875 -5.886719 Z M 6.796875 -5.886719 "/></g></g></g><g fill="#000000" fill-opacity="1"><g transform="translate(262.767103, 195.259542)"><g><path d="M -0.171875 -12.855469 L 0.132812 -11.945312 L 0.738281 -9.882812 L 1.003906 -8.632812 L 2.160156 -5.394531 L 3.523438 -1.761719 C 3.636719 -1.421875 3.84375 -1.042969 4.144531 -0.625 C 4.449219 -0.207031 4.695312 0.0195312 4.886719 0.0195312 C 5.261719 0.0195312 5.640625 -0.132812 6.019531 -0.472656 C 6.191406 -0.625 6.378906 -0.890625 6.589844 -1.304688 C 6.777344 -1.703125 6.929688 -2.027344 7.003906 -2.273438 L 7.042969 -2.328125 L 7.894531 -4.621094 L 8.253906 -5.527344 C 8.253906 -5.546875 8.253906 -5.585938 8.292969 -5.640625 C 8.558594 -6.34375 8.726562 -6.835938 8.804688 -7.117188 L 8.917969 -7.6875 C 8.992188 -7.988281 9.03125 -8.21875 9.070312 -8.367188 C 9.070312 -8.40625 9.089844 -8.480469 9.125 -8.597656 C 9.144531 -8.710938 9.164062 -8.785156 9.164062 -8.84375 L 9.351562 -9.769531 L 9.582031 -11 L 9.675781 -11.585938 L 9.769531 -11.664062 C 9.808594 -11.71875 9.863281 -11.796875 9.921875 -11.910156 C 9.957031 -12.003906 9.996094 -12.097656 9.996094 -12.175781 L 9.996094 -12.289062 C 9.941406 -12.554688 9.710938 -12.703125 9.296875 -12.703125 C 9.277344 -12.703125 9.257812 -12.683594 9.238281 -12.683594 L 9.203125 -12.683594 C 9.144531 -12.683594 9.125 -12.667969 9.125 -12.667969 C 8.84375 -12.894531 8.597656 -13.007812 8.40625 -13.046875 C 8.179688 -13.046875 7.953125 -12.929688 7.707031 -12.722656 C 7.460938 -12.496094 7.347656 -12.34375 7.347656 -12.25 C 7.347656 -11.683594 7.289062 -11.265625 7.214844 -10.980469 L 7.15625 -10.753906 C 7.117188 -10.601562 7.042969 -10.335938 6.96875 -9.976562 C 6.871094 -9.597656 6.796875 -9.277344 6.742188 -9.011719 C 6.664062 -8.726562 6.644531 -8.558594 6.644531 -8.519531 C 6.644531 -8.445312 6.570312 -8.121094 6.457031 -7.59375 C 6.324219 -7.0625 6.191406 -6.492188 6.058594 -5.925781 C 5.90625 -5.339844 5.832031 -5 5.832031 -4.902344 L 5.246094 -3.011719 C 5.148438 -2.613281 5.074219 -2.347656 5.035156 -2.234375 C 4.980469 -2.386719 4.902344 -2.707031 4.808594 -3.199219 C 4.714844 -3.671875 4.675781 -3.9375 4.675781 -4.015625 C 4.675781 -4.050781 4.601562 -4.316406 4.46875 -4.769531 C 4.335938 -5.226562 4.203125 -5.679688 4.070312 -6.117188 C 3.917969 -6.550781 3.863281 -6.757812 3.863281 -6.757812 L 2.992188 -9.523438 C 2.933594 -9.789062 2.878906 -10.035156 2.839844 -10.261719 L 2.667969 -11.113281 L 2.652344 -11.285156 C 2.632812 -11.378906 2.613281 -11.492188 2.574219 -11.605469 C 2.535156 -11.71875 2.519531 -11.777344 2.5 -11.796875 C 2.480469 -11.796875 2.441406 -11.851562 2.386719 -11.945312 C 2.308594 -12.023438 2.289062 -12.078125 2.289062 -12.117188 L 2.289062 -12.210938 C 2.289062 -12.210938 2.289062 -12.230469 2.308594 -12.269531 L 2.308594 -12.308594 C 2.460938 -12.496094 2.535156 -12.683594 2.535156 -12.875 C 2.535156 -13.140625 2.234375 -13.292969 1.648438 -13.292969 C 1.609375 -13.292969 1.550781 -13.308594 1.476562 -13.347656 L 1.289062 -13.347656 L 0.925781 -13.234375 C 0.910156 -13.214844 0.871094 -13.214844 0.832031 -13.214844 C 0.796875 -13.214844 0.796875 -13.214844 0.796875 -13.234375 C 0.738281 -13.273438 0.644531 -13.308594 0.511719 -13.308594 L 0.453125 -13.292969 C 0.359375 -13.273438 0.226562 -13.195312 0.0742188 -13.082031 C -0.09375 -12.96875 -0.171875 -12.894531 -0.171875 -12.855469 Z M -0.171875 -12.855469 "/></g></g></g><g fill="#000000" fill-opacity="1"><g transform="translate(272.721951, 195.259542)"><g><path d="M 2.933594 -7.855469 L 2.59375 -7.894531 L 2.441406 -9.089844 C 2.441406 -9.277344 2.441406 -9.5625 2.480469 -9.941406 C 2.5 -10.320312 2.519531 -10.621094 2.535156 -10.828125 L 2.859375 -11 L 4.582031 -11.058594 L 6.644531 -10.90625 L 7.101562 -11 L 7.441406 -11.113281 L 7.496094 -11.207031 C 7.535156 -11.265625 7.554688 -11.320312 7.554688 -11.378906 C 7.554688 -11.4375 7.535156 -11.492188 7.480469 -11.53125 C 7.441406 -11.53125 7.363281 -11.929688 7.25 -12.722656 L 7.042969 -13.082031 L 4.886719 -13.195312 L 3.445312 -12.96875 C 3.292969 -12.96875 3.085938 -12.988281 2.820312 -13.027344 C 2.554688 -13.046875 2.347656 -13.0625 2.234375 -13.0625 L 1.15625 -13.175781 L 0.871094 -12.894531 L 0.890625 -12.894531 L 0.511719 -12.554688 L 0.417969 -12.382812 L 0.453125 -10.414062 L 0.417969 -8.027344 L 0.472656 -6.550781 L 0.304688 -3.730469 L 0.246094 -1.402344 L 0.433594 -0.359375 L 1.15625 -0.265625 L 2.289062 -0.113281 L 4.714844 0.113281 L 5.925781 0.0585938 L 6.117188 -0.09375 L 6.417969 -0.53125 L 6.511719 -0.871094 L 6.457031 -1.683594 L 6.324219 -1.78125 C 6.230469 -1.835938 6.058594 -1.894531 5.792969 -1.96875 C 5.527344 -2.027344 5.207031 -2.0625 4.867188 -2.0625 L 3.332031 -2.160156 L 2.367188 -2.0625 C 2.367188 -2.347656 2.347656 -2.765625 2.328125 -3.3125 C 2.289062 -3.84375 2.273438 -4.277344 2.273438 -4.582031 C 2.273438 -4.714844 2.308594 -4.941406 2.367188 -5.246094 L 2.480469 -5.925781 L 3.769531 -5.738281 L 4.507812 -5.640625 L 4.789062 -5.738281 L 5.113281 -5.886719 L 5.113281 -5.871094 C 5.167969 -5.871094 5.226562 -5.871094 5.28125 -5.90625 L 5.339844 -5.90625 C 5.359375 -5.90625 5.394531 -5.90625 5.433594 -5.925781 C 5.472656 -5.945312 5.492188 -5.984375 5.527344 -6.019531 L 5.546875 -6.039062 C 5.625 -6.078125 5.699219 -6.117188 5.792969 -6.152344 C 5.90625 -6.171875 5.964844 -6.324219 5.925781 -6.589844 L 5.871094 -6.644531 C 5.8125 -6.683594 5.753906 -6.742188 5.71875 -6.816406 C 5.679688 -6.890625 5.660156 -6.988281 5.660156 -7.082031 C 5.660156 -7.308594 5.585938 -7.535156 5.472656 -7.742188 C 5.339844 -7.953125 5.167969 -8.046875 4.941406 -8.027344 C 4.65625 -7.953125 4.277344 -7.914062 3.785156 -7.914062 Z M 2.933594 -7.855469 "/></g></g></g><g fill="#000000" fill-opacity="1"><g transform="translate(280.424655, 195.259542)"><g><path d="M 9.277344 -0.738281 L 9.257812 -0.796875 L 8.746094 -1.648438 L 8.746094 -1.628906 L 7.648438 -3.691406 L 6.285156 -5.925781 C 7.117188 -6.34375 7.574219 -6.550781 7.648438 -6.550781 L 7.574219 -6.570312 C 7.648438 -6.570312 7.726562 -6.644531 7.820312 -6.796875 C 8.085938 -7.402344 8.234375 -7.875 8.292969 -8.234375 C 8.292969 -8.332031 8.3125 -8.519531 8.3125 -8.804688 C 8.3125 -9.070312 8.292969 -9.371094 8.292969 -9.675781 C 8.234375 -10.074219 8.160156 -10.414062 8.066406 -10.679688 C 7.953125 -10.945312 7.761719 -11.320312 7.460938 -11.777344 C 7.15625 -12.210938 6.53125 -12.628906 5.605469 -13.027344 C 4.65625 -13.421875 4.015625 -13.632812 3.671875 -13.632812 C 3.445312 -13.613281 2.992188 -13.574219 2.273438 -13.5 C 1.550781 -13.421875 1.175781 -13.386719 1.117188 -13.386719 L 0.644531 -13.292969 L 0.398438 -13.234375 C 0.359375 -13.214844 0.320312 -13.214844 0.285156 -13.214844 C -0.09375 -13.140625 -0.265625 -12.914062 -0.265625 -12.515625 C -0.265625 -12.136719 -0.171875 -11.871094 0.0195312 -11.683594 L 0.265625 -11.550781 C 0.304688 -11.550781 0.378906 -11.550781 0.472656 -11.566406 C 0.550781 -11.566406 0.625 -11.585938 0.679688 -11.585938 L 0.679688 -6.152344 L 0.398438 -6.117188 L -0.171875 -6.117188 L -0.738281 -5.871094 L -0.796875 -5.414062 C -0.796875 -5.148438 -0.777344 -4.921875 -0.699219 -4.734375 L -0.699219 -4.753906 C -0.605469 -4.449219 -0.339844 -4.296875 0.09375 -4.296875 C 0.246094 -4.296875 0.378906 -4.296875 0.511719 -4.335938 C 0.644531 -4.375 0.738281 -4.410156 0.777344 -4.449219 L 0.777344 -2.933594 C 0.757812 -2.800781 0.757812 -2.386719 0.757812 -1.683594 C 0.757812 -1.058594 0.757812 -0.664062 0.777344 -0.511719 C 0.8125 -0.0585938 1.058594 0.171875 1.550781 0.171875 C 1.894531 0.171875 2.121094 0.171875 2.234375 0.152344 C 2.234375 0.152344 2.253906 0.152344 2.273438 0.152344 C 2.289062 0.152344 2.308594 0.132812 2.328125 0.132812 L 2.441406 0.132812 C 2.667969 0.113281 2.933594 -0.0390625 3.238281 -0.339844 L 3.238281 -1.078125 L 2.953125 -3.179688 L 2.953125 -4.828125 L 3.898438 -4.886719 C 4.015625 -4.734375 4.183594 -4.507812 4.410156 -4.222656 C 4.636719 -3.9375 4.808594 -3.730469 4.921875 -3.578125 L 4.902344 -3.597656 L 5.113281 -3.066406 L 7.023438 -0.1875 L 7.15625 -0.113281 C 7.234375 -0.0742188 7.308594 -0.0195312 7.421875 0.0195312 C 7.535156 0.0585938 7.609375 0.0742188 7.667969 0.0742188 L 7.972656 0.0742188 C 8.347656 0.0742188 8.652344 0.0390625 8.84375 -0.0585938 C 9.125 -0.1875 9.277344 -0.417969 9.277344 -0.738281 Z M 4.828125 -7.234375 L 4.542969 -7.042969 C 4.488281 -7.003906 4.390625 -6.96875 4.261719 -6.929688 C 4.128906 -6.890625 3.996094 -6.871094 3.863281 -6.855469 L 3.636719 -6.816406 L 2.933594 -6.722656 L 2.933594 -7.421875 C 2.914062 -7.515625 2.898438 -7.667969 2.878906 -7.875 C 2.839844 -8.085938 2.839844 -8.234375 2.839844 -8.347656 L 2.839844 -11.492188 L 3.199219 -11.492188 C 3.539062 -11.492188 3.785156 -11.472656 3.9375 -11.472656 C 4.277344 -11.398438 4.714844 -11.226562 5.28125 -10.945312 C 5.507812 -10.90625 5.679688 -10.679688 5.792969 -10.300781 C 5.90625 -9.902344 5.964844 -9.5625 5.964844 -9.296875 C 5.964844 -8.785156 5.871094 -8.347656 5.699219 -7.988281 C 5.605469 -7.726562 5.320312 -7.480469 4.828125 -7.234375 Z M 4.828125 -7.234375 "/></g></g></g><g fill="#000000" fill-opacity="1"><g transform="translate(289.414294, 195.259542)"><g><path d="M 1.042969 -12.722656 L 0.984375 -12.667969 L 0.890625 -11.566406 C 0.890625 -11.359375 0.945312 -11.152344 1.078125 -10.960938 L 1.667969 -10.925781 L 2.554688 -10.925781 L 2.328125 -8.253906 L 2.328125 -2.519531 C 2.328125 -2.421875 2.175781 -2.308594 1.894531 -2.160156 L 1.914062 -2.175781 L 1.289062 -2.082031 C 1.191406 -2.082031 1.097656 -1.929688 1.003906 -1.628906 C 0.890625 -1.324219 0.851562 -1.078125 0.851562 -0.890625 C 0.851562 -0.566406 1.097656 -0.320312 1.609375 -0.171875 L 2.667969 -0.171875 L 5.394531 -0.566406 L 5.699219 -0.566406 L 5.832031 -0.625 C 5.925781 -0.664062 6.019531 -0.777344 6.132812 -0.964844 C 6.230469 -1.15625 6.285156 -1.402344 6.285156 -1.703125 C 6.285156 -2.007812 6.132812 -2.234375 5.871094 -2.367188 C 5.605469 -2.5 5.300781 -2.574219 4.960938 -2.574219 C 4.808594 -2.574219 4.695312 -2.554688 4.601562 -2.535156 L 4.449219 -2.59375 C 4.390625 -2.59375 4.375 -2.859375 4.375 -3.351562 L 4.375 -3.996094 C 4.375 -4.070312 4.355469 -4.144531 4.335938 -4.183594 L 4.601562 -9.410156 C 4.601562 -9.597656 4.582031 -9.84375 4.5625 -10.1875 L 4.507812 -11 L 4.601562 -11.09375 C 4.714844 -11.09375 4.902344 -11.09375 5.132812 -11.132812 C 5.359375 -11.152344 5.546875 -11.171875 5.660156 -11.191406 L 6.097656 -11.191406 L 6.132812 -11.285156 C 6.132812 -11.359375 6.152344 -11.472656 6.171875 -11.625 C 6.191406 -11.777344 6.210938 -11.964844 6.210938 -12.15625 C 6.210938 -12.457031 6.078125 -12.683594 5.851562 -12.835938 C 5.605469 -12.988281 5.300781 -13.0625 4.960938 -13.0625 C 4.621094 -13.0625 4.128906 -12.96875 3.484375 -12.78125 L 1.875 -12.78125 L 1.667969 -12.648438 L 1.648438 -12.628906 C 1.628906 -12.609375 1.609375 -12.609375 1.609375 -12.609375 C 1.457031 -12.722656 1.324219 -12.800781 1.230469 -12.800781 C 1.191406 -12.800781 1.117188 -12.761719 1.042969 -12.722656 Z M 1.042969 -12.722656 "/></g></g></g><g fill="#000000" fill-opacity="1"><g transform="translate(296.189645, 195.259542)"><g><path d="M 2.519531 -6.703125 L 2.535156 -7.195312 C 2.535156 -7.515625 2.554688 -7.894531 2.613281 -8.3125 C 2.652344 -8.726562 2.726562 -9.011719 2.820312 -9.203125 C 2.914062 -9.449219 3.085938 -9.730469 3.351562 -10.074219 C 3.617188 -10.394531 3.804688 -10.621094 3.957031 -10.734375 C 4.03125 -10.792969 4.277344 -10.886719 4.734375 -11.019531 C 5.1875 -11.152344 5.472656 -11.226562 5.585938 -11.246094 C 5.625 -11.246094 6.34375 -11.265625 7.707031 -11.265625 C 7.820312 -11.265625 7.914062 -11.359375 8.027344 -11.566406 L 8.179688 -11.585938 C 8.253906 -11.605469 8.347656 -11.644531 8.445312 -11.71875 C 8.539062 -11.796875 8.597656 -11.871094 8.597656 -11.984375 C 8.597656 -12.210938 8.40625 -12.535156 8.046875 -12.929688 L 7.839844 -13.027344 C 7.6875 -13.101562 7.496094 -13.160156 7.269531 -13.234375 C 7.042969 -13.292969 6.855469 -13.328125 6.703125 -13.328125 L 6.511719 -13.328125 C 4.941406 -13.234375 3.824219 -12.96875 3.179688 -12.535156 C 2.5 -12.078125 2.042969 -11.683594 1.816406 -11.339844 L 1.703125 -11.132812 C 1.628906 -11 1.535156 -10.828125 1.4375 -10.601562 C 1.324219 -10.375 1.25 -10.167969 1.210938 -9.996094 C 0.699219 -8.480469 0.453125 -7.234375 0.453125 -6.265625 C 0.453125 -6.058594 0.453125 -5.925781 0.492188 -5.886719 L 0.53125 -5.1875 C 0.566406 -4.734375 0.664062 -4.203125 0.8125 -3.597656 C 0.964844 -2.992188 1.15625 -2.535156 1.421875 -2.253906 C 1.796875 -1.796875 2.273438 -1.382812 2.839844 -1.023438 C 3.40625 -0.664062 3.957031 -0.417969 4.46875 -0.304688 C 5.09375 -0.1875 5.566406 -0.132812 5.871094 -0.132812 L 6.625 -0.226562 L 7.175781 -0.1875 C 7.402344 -0.1875 7.535156 -0.226562 7.609375 -0.304688 C 7.667969 -0.378906 7.761719 -0.566406 7.914062 -0.910156 C 8.066406 -1.230469 8.140625 -1.421875 8.140625 -1.457031 C 8.140625 -1.550781 8.101562 -1.722656 8.027344 -1.949219 L 8.066406 -2.007812 C 8.101562 -2.042969 8.121094 -2.082031 8.160156 -2.160156 C 8.199219 -2.214844 8.21875 -2.273438 8.21875 -2.308594 C 8.21875 -2.386719 8.140625 -2.421875 8.007812 -2.421875 C 7.894531 -2.421875 7.761719 -2.386719 7.59375 -2.347656 C 6.929688 -2.195312 6.4375 -2.140625 6.132812 -2.140625 C 4.242188 -2.195312 3.179688 -2.800781 2.914062 -3.957031 C 2.652344 -5.09375 2.519531 -6 2.519531 -6.703125 Z M 2.519531 -6.703125 "/></g></g></g><g fill="#000000" fill-opacity="1"><g transform="translate(304.630442, 195.259542)"><g><path d="M 2.253906 -13.421875 L 2.214844 -13.421875 L 1.78125 -13.253906 C 1.703125 -13.253906 1.628906 -13.234375 1.515625 -13.234375 C 1.402344 -13.214844 1.324219 -13.214844 1.269531 -13.214844 L 0.8125 -13.347656 L 0.53125 -13.027344 L 0.53125 -3.671875 L 0.398438 -1.34375 L 0.433594 -1.210938 C 0.453125 -1.136719 0.511719 -1.042969 0.585938 -0.925781 C 0.664062 -0.8125 0.738281 -0.71875 0.851562 -0.679688 L 0.890625 -0.285156 L 1.191406 -0.1875 L 1.855469 -0.226562 L 2.214844 -0.453125 L 2.820312 -0.738281 L 2.898438 -1.078125 L 2.78125 -3.503906 C 2.726562 -4.601562 2.6875 -5.414062 2.6875 -5.90625 L 2.859375 -6.132812 L 3.125 -6.363281 L 3.144531 -6.378906 L 3.160156 -6.363281 L 3.238281 -6.363281 L 3.40625 -6.230469 C 3.445312 -6.117188 3.578125 -5.945312 3.769531 -5.679688 C 3.957031 -5.414062 4.164062 -5.148438 4.355469 -4.921875 L 4.636719 -4.5625 L 4.636719 -4.582031 L 5.492188 -3.160156 L 6.589844 -1.683594 L 7.988281 -0.359375 L 8.84375 -0.0195312 L 9.316406 -0.0585938 L 9.582031 -0.171875 L 9.808594 -0.511719 L 9.808594 -0.71875 L 9.828125 -0.945312 C 9.828125 -0.984375 9.84375 -1.042969 9.921875 -1.136719 C 9.996094 -1.25 10.035156 -1.363281 10.035156 -1.476562 C 10.035156 -1.496094 10.054688 -1.609375 10.128906 -1.835938 L 10.109375 -1.929688 C 10.089844 -1.96875 10.054688 -2.042969 10.015625 -2.121094 C 9.976562 -2.195312 9.921875 -2.273438 9.84375 -2.328125 L 9.808594 -2.347656 C 9.769531 -2.367188 9.75 -2.386719 9.710938 -2.421875 C 9.675781 -2.460938 9.636719 -2.480469 9.617188 -2.5 C 9.597656 -2.5 9.582031 -2.519531 9.582031 -2.535156 C 9.203125 -2.839844 8.878906 -3.085938 8.652344 -3.3125 C 8.613281 -3.332031 8.5 -3.445312 8.273438 -3.652344 C 8.046875 -3.863281 7.894531 -4.015625 7.78125 -4.128906 L 6.363281 -5.753906 C 5.945312 -6.210938 5.492188 -6.742188 4.960938 -7.363281 L 6.324219 -8.332031 L 7.441406 -9.636719 L 7.800781 -10.074219 C 8.046875 -10.375 8.292969 -10.679688 8.539062 -11 C 8.765625 -11.304688 8.898438 -11.492188 8.898438 -11.53125 L 8.878906 -11.53125 C 8.957031 -11.644531 9.050781 -11.832031 9.144531 -12.058594 L 8.765625 -12.648438 L 8.066406 -13.0625 L 8.007812 -12.894531 C 8.007812 -12.894531 8.007812 -12.914062 7.972656 -12.96875 C 7.933594 -13.027344 7.894531 -13.082031 7.839844 -13.140625 C 7.761719 -13.175781 7.707031 -13.214844 7.667969 -13.214844 L 7.609375 -13.195312 C 7.535156 -13.160156 7.402344 -13.121094 7.25 -13.121094 L 6.949219 -12.914062 C 6.511719 -12.382812 6.078125 -11.8125 5.640625 -11.207031 C 5.148438 -10.546875 4.886719 -10.1875 4.828125 -10.109375 L 4.242188 -9.730469 L 3.785156 -9.238281 L 3.597656 -8.917969 L 3.277344 -8.480469 L 3.277344 -8.5 L 2.800781 -8.066406 L 2.898438 -12.703125 L 2.859375 -13.027344 C 2.859375 -13.121094 2.765625 -13.214844 2.59375 -13.292969 C 2.40625 -13.367188 2.289062 -13.421875 2.253906 -13.421875 Z M 2.253906 -13.421875 "/></g></g></g></svg>